<?xml version="1.0" encoding="UTF-8"?>
<!DOCTYPE svg PUBLIC "-//W3C//DTD SVG 1.1//EN" "http://www.w3.org/Graphics/SVG/1.1/DTD/svg11.dtd">
<!-- Creator: CorelDRAW X6 -->
<svg xmlns="http://www.w3.org/2000/svg" xml:space="preserve" width="3.15593in" height="3.0954in" version="1.1" style="shape-rendering:geometricPrecision; text-rendering:geometricPrecision; image-rendering:optimizeQuality; fill-rule:evenodd; clip-rule:evenodd"
viewBox="0 0 3156 3095"
 xmlns:xlink="http://www.w3.org/1999/xlink">
 <defs>
  <style type="text/css">
   <![CDATA[
    .str0 {stroke:#373435;stroke-width:6.94487}
    .fil3 {fill:none}
    .fil5 {fill:#373435}
    .fil26 {fill:#727376}
    .fil25 {fill:#A45E4D}
    .fil2 {fill:#A53692}
    .fil7 {fill:#C8C5E2}
    .fil10 {fill:#CE8F64}
    .fil4 {fill:#F7ADAF}
    .fil24 {fill:#0F0907}
    .fil11 {fill:#709C1A}
    .fil14 {fill:#837721}
    .fil12 {fill:#8EB836}
    .fil22 {fill:#938842}
    .fil19 {fill:#A0AC40}
    .fil20 {fill:#B1BC50}
    .fil13 {fill:#BCD883}
    .fil21 {fill:#C5D37C}
    .fil15 {fill:#327E4F}
    .fil23 {fill:#3D3F2F}
    .fil18 {fill:#5E986C}
    .fil16 {fill:#697B47}
    .fil9 {fill:#D2D99A}
    .fil1 {fill:#FCC8A5}
    .fil6 {fill:#FEFEFE}
    .fil17 {fill:#373435;fill-rule:nonzero}
    .fil8 {fill:#697B47;fill-rule:nonzero}
    .fil0 {fill:#D2AE6D;fill-opacity:0.321569}
   ]]>
  </style>
   <clipPath id="id0">
    <path d="M985 434c-429,0 -776,348 -776,776 0,429 348,776 776,776 429,0 776,-348 776,-776 0,-429 -348,-776 -776,-776z"/>
   </clipPath>
     <mask id="id1">
  <linearGradient id="id2" gradientUnits="userSpaceOnUse" x1="633.535" y1="1505.31" x2="1336.97" y2="914.408">
   <stop offset="0" style="stop-opacity:1; stop-color:white"/>
   <stop offset="1" style="stop-opacity:0; stop-color:white"/>
  </linearGradient>
      <rect style="fill:url(#id2)" x="207" y="432" width="1556" height="1556"/>
     </mask>
   <clipPath id="id3">
    <path d="M634 1906l697 0 0 495 -697 0 0 -495z"/>
   </clipPath>
   <clipPath id="id4">
    <path d="M1082 115c152,67 269,193 361,324 54,77 203,28 107,127 -218,222 -1068,675 -1416,736 -124,22 -5,-59 -49,-164 -59,-142 -100,-298 -78,-452 56,-394 695,-740 1076,-571z"/>
   </clipPath>
   <mask id="id5">
  <linearGradient id="id6" gradientUnits="userSpaceOnUse" x1="542.22" y1="857.704" x2="1038.79" y2="519.925">
   <stop offset="0" style="stop-opacity:1; stop-color:white"/>
   <stop offset="1" style="stop-opacity:0; stop-color:white"/>
  </linearGradient>
    <rect style="fill:url(#id6)" x="-1" y="70" width="1584" height="1238"/>
   </mask>
   <clipPath id="id7">
    <path d="M2209 2165c0,0 22,45 10,118 -11,73 -25,129 -48,190 -23,61 -63,176 -76,179 -12,3 -35,40 -55,91 -20,51 -44,92 -8,102 37,10 123,30 169,46 46,16 112,48 136,20 23,-28 7,-119 7,-119 0,0 -9,-252 -7,-340 2,-88 5,-173 35,-242 30,-70 53,-110 94,-88 41,23 71,187 85,193 14,6 31,-14 76,-49 44,-35 55,-42 53,-57 -2,-15 -133,-207 -133,-207 0,0 33,11 57,-48 24,-59 2,-78 -17,-86 -19,-7 -44,-2 -44,-2 0,0 20,-18 13,-25 -7,-6 -23,-22 -23,-22 0,0 41,19 48,15 7,-5 11,-9 19,-6 8,3 11,-1 14,-8 2,-6 -11,-15 -11,-15l13 -1 3 -8 133 51 87 -219 -228 -87c0,0 10,-11 5,-13 -5,-2 -25,-13 -20,-24 109,-286 215,-528 345,-857 -12,-36 -4,-69 7,-100l209 -538 -39 -10 -211 531c-10,25 -37,61 -67,70l-448 1061 -43 -17c0,0 3,-8 -3,-10 -6,-2 -22,-6 -20,-15 1,-9 8,-25 17,-25 9,0 18,-43 -22,-58 -40,-15 -54,-19 -71,-7 -17,12 -11,18 -11,18 0,0 11,4 9,11 -2,6 -23,37 -23,46 0,9 8,8 8,8l-47 120c0,0 -18,-11 -26,-4 -8,6 -21,31 -23,46 -2,16 16,26 16,26l-101 280c0,0 -15,-15 -16,18 -1,33 23,36 40,41 17,5 55,6 62,-13 7,-19 -4,-20 0,-28 3,-8 45,-114 45,-114l76 22 -17 40c0,0 -18,-20 -27,4 -9,24 -11,47 -11,47 0,0 -29,-7 -38,-5 -10,2 2,15 10,18 8,3 -3,27 6,41 9,15 31,12 31,12z"/>
   </clipPath>
 </defs>
 <g id="Layer_x0020_1">
  <metadata id="CorelCorpID_0Corel-Layer"/>
  <path class="fil0" d="M978 3095c380,0 689,-84 689,-187 0,-103 -308,-187 -689,-187 -380,0 -689,84 -689,187 0,103 308,187 689,187z"/>
  <path class="fil1" d="M985 434c-429,0 -776,348 -776,776 0,429 348,776 776,776 429,0 776,-348 776,-776 0,-429 -348,-776 -776,-776z"/>
  <g style="clip-path:url(#id0)">
   <g id="_951598016">
    <path id="1" class="fil2" style="mask:url(#id1)" d="M985 434c-429,0 -776,348 -776,776 0,429 348,776 776,776 429,0 776,-348 776,-776 0,-429 -348,-776 -776,-776z"/>
   </g>
  </g>
  <path class="fil3" d="M985 434c-429,0 -776,348 -776,776 0,429 348,776 776,776 429,0 776,-348 776,-776 0,-429 -348,-776 -776,-776z"/>
  <circle class="fil4" transform="matrix(-0.814639 0.455121 0.861181 1.54146 801.943 1153.35)" r="200"/>
  <path class="fil5" d="M527 583c-193,141 -319,370 -319,627 0,87 14,170 40,248 153,0 305,0 458,0 -146,-265 38,-511 208,-754l-388 -121z"/>
  <path class="fil5" d="M983 434c177,0 340,59 471,159l0 0 -942 0c131,-100 294,-159 471,-159z"/>
  <path class="fil5" d="M513 593c85,15 61,265 171,266 171,1 379,232 484,306l-154 -493c129,-5 253,39 377,94l-195 -192 -682 20z"/>
  <path class="fil6" d="M1478 1811c26,-20 90,-89 110,-111 -96,2 -266,-47 -363,-178 5,87 115,259 253,289z"/>
  <ellipse class="fil7" cx="1473" cy="1170" rx="163" ry="215"/>
  <ellipse class="fil6" cx="1456" cy="1147" rx="146" ry="192"/>
  <path class="fil5" d="M1419 845c-71,18 -126,67 -159,131 46,-39 104,-69 170,-85 66,-16 131,-17 190,-5 -59,-41 -131,-58 -202,-41z"/>
  <circle class="fil5" cx="1539" cy="1197" r="54"/>
  <g>
   <path class="fil8" d="M1372 2846l0 1 0 1 0 1 0 1 0 1 0 1 0 1 0 1 0 1 0 1 0 1 0 1 0 1 0 1 0 1 0 1 0 1 0 1 0 1 0 1 0 0 0 0 0 0 0 0 0 0 -1 0 -1 0 -1 0 -1 0 -1 0 -1 0 -1 0 -1 0 -1 0 -1 0 -1 0 -1 0 -1 0 -1 0 -1 0 -1 0 -1 0 -1 0 -1 0 -1 0 -1 0 -1 0 -1 0 -1 0 -1 0 -1 0 -1 0 -1 0 -1 0 -1 0 -1 0 -1 0 0 0 0 0 0 0 0 -1 0 -1 0 -1 0 -1 27 -10zm-248 -416l27 -10 222 426 -27 10 -222 -426zm0 0l0 -1 0 -1 0 -1 0 -1 0 -1 0 -1 0 -1 0 -1 0 -1 0 -1 0 -1 0 -1 0 -1 0 -1 0 -1 0 -1 0 -1 0 -1 0 -1 0 -1 0 0 0 0 0 0 0 0 0 0 1 0 1 0 1 0 1 0 1 0 1 0 1 0 1 0 1 0 1 0 1 0 1 0 1 0 1 0 1 0 1 0 1 0 1 0 1 0 1 0 1 0 1 0 1 0 1 0 1 0 1 0 1 0 1 0 1 0 1 0 1 0 1 0 0 0 0 0 0 0 0 1 0 1 0 1 0 1 -27 10z"/>
  </g>
  <g>
   <path class="fil8" d="M614 2846l27 10 0 1 0 1 0 1 0 1 0 0 0 0 0 0 -1 0 -1 0 -1 0 -1 0 -1 0 -1 0 -1 0 -1 0 -1 0 -1 0 -1 0 -1 0 -1 0 -1 0 -1 0 -1 0 -1 0 -1 0 -1 0 -1 0 -1 0 -1 0 -1 0 -1 0 -1 0 -1 0 -1 0 -1 0 -1 0 -1 0 -1 0 -1 0 -1 0 0 0 0 0 0 0 0 0 0 -1 0 -1 0 -1 0 -1 0 -1 0 -1 0 -1 0 -1 0 -1 0 -1 0 -1 0 -1 0 -1 0 -1 0 -1 0 -1 0 -1 0 -1 0 -1 0 -1zm248 -416l-222 426 -27 -10 222 -426 27 10zm0 0l-27 -10 0 -1 0 -1 0 -1 0 -1 0 0 0 0 0 0 1 0 1 0 1 0 1 0 1 0 1 0 1 0 1 0 1 0 1 0 1 0 1 0 1 0 1 0 1 0 1 0 1 0 1 0 1 0 1 0 1 0 1 0 1 0 1 0 1 0 1 0 1 0 1 0 1 0 1 0 1 0 1 0 1 0 0 0 0 0 0 0 0 0 0 1 0 1 0 1 0 1 0 1 0 1 0 1 0 1 0 1 0 1 0 1 0 1 0 1 0 1 0 1 0 1 0 1 0 1 0 1 0 1z"/>
  </g>
  <polygon class="fil9" points="634,1906 1332,1906 1332,2401 634,2401 "/>
  <g style="clip-path:url(#id3)">
   <g>
    <path id="1" class="fil10" d="M907 2058c0,0 -13,-110 96,-91 109,18 -6,81 49,115 54,35 194,8 140,73 -55,65 -73,-22 -188,65 -115,87 -136,39 -138,-31 -2,-70 -203,-34 -81,-82 122,-48 122,-48 122,-48z"/>
    <g>
     <g id="_951609472">
      <polygon class="fil3" points="587,1795 587,2616 1408,2616 1408,1795 "/>
     </g>
     <path class="fil11" d="M1171 2614c-2,1 -4,1 -6,2l65 0c-13,-9 -48,-6 -59,-2z"/>
     <path class="fil11" d="M934 1807c-20,15 -23,14 -26,40 -2,15 -36,74 12,60 18,-5 8,-21 20,-28 14,-7 37,15 43,25 9,14 7,26 28,30 5,1 23,1 27,-4 8,-9 0,-7 -1,-17 -1,-13 -9,-19 12,-17 13,1 26,14 38,19 14,6 38,12 53,6 22,-9 -5,-18 -1,-36 6,-27 47,-12 66,-17 18,-5 13,-8 9,-19 -6,-17 -10,-12 3,-26 7,-7 22,-12 18,-23 -1,-2 -2,-4 -5,-6l-65 0c-14,6 -27,15 -41,20 -11,4 -31,1 -40,7 -14,10 24,53 -8,50 -21,-2 -4,-48 -32,-40 -10,3 -10,16 -25,17 -27,2 -53,-14 -31,-36 6,-6 13,-12 18,-17l-58 0c-4,4 -8,9 -13,12z"/>
     <path class="fil11" d="M994 2597c-25,-9 -35,5 -47,19l58 0c5,-7 5,-14 -11,-19z"/>
     <polygon class="fil12" points="587,1795 587,2616 1408,2616 1408,1795 "/>
     <path class="fil13" d="M1060 2411c-19,-17 -19,-1 -29,8 -21,18 -11,0 -30,-8 -24,-10 -10,16 -31,16 0,0 0,0 0,0 -17,0 -22,-34 -42,-31 -26,4 3,50 -25,37 -11,-5 -14,-26 -23,-34 0,0 0,0 0,0 -7,-6 -23,-16 -32,-8 -7,6 3,19 0,27 -11,29 -45,11 -65,22 -9,5 -18,17 -11,27 2,3 4,4 6,5 9,4 22,-4 29,5 9,12 -8,16 -4,24 10,26 25,-6 42,-3 18,3 19,35 38,33 29,-4 -3,-41 -7,-51 35,-1 48,39 77,47 11,3 32,-1 33,-12 1,-16 -29,-17 -3,-29 12,-5 31,4 45,0 18,-5 29,-16 37,-32 7,-14 13,-30 -1,-43z"/>
     <path class="fil11" d="M1019 2051c-15,1 -55,3 -66,-7 -16,-14 1,-38 -9,-54 -5,-8 -12,-11 -20,-12 -12,-1 -26,5 -33,14 -6,7 -9,23 -18,27 -13,5 -26,-12 -40,-9 -16,3 -25,23 -38,30 -25,14 -27,-42 -59,-20 -14,10 -13,20 -32,5 -13,-10 -20,-27 -23,-42 -2,-10 -3,-45 -20,-42 -13,2 -22,39 -22,49 2,27 35,39 45,63 5,12 4,19 -7,28 -7,6 -16,1 -21,10 -5,11 6,21 15,26 12,6 23,-2 33,2 23,10 4,48 25,62 16,10 28,-4 45,-1 15,3 21,16 26,29 13,33 36,64 77,43 23,-12 8,-17 8,-36 1,-17 9,-19 24,-15 22,6 59,45 85,21 24,-22 -58,-45 -16,-64 14,-6 51,7 56,-10 4,-14 -19,-23 -4,-38 12,-12 103,-18 63,-60 -20,-22 -49,-1 -73,1z"/>
     <path class="fil11" d="M910 2609c2,0 4,0 7,0 5,-3 10,-5 15,-7l-22 8z"/>
     <path class="fil11" d="M1388 2604c-14,-12 -73,-7 -61,-38 4,-12 21,-10 28,-20 -11,-28 -27,-33 -54,-30 -37,4 -38,10 -32,45 6,36 -27,33 -53,20 -11,-5 -19,-14 -31,-17 -10,-2 -22,1 -31,-3 -14,-6 -9,-21 -18,-27 -17,-12 -18,11 -25,17 -25,18 -53,-32 -77,-13 -12,9 0,21 -22,27 -14,4 -25,-1 -39,-3 -6,-1 -18,-2 -23,3 -6,6 2,12 -2,19 -5,10 -21,22 -33,24 -4,2 -7,5 -9,8l116 0c-2,-3 -5,-6 -10,-8 5,2 19,-6 26,-3 7,2 12,7 17,12l130 0c2,0 3,-1 4,-1 27,-8 48,-6 71,1l135 0c-1,-4 -3,-7 -8,-12z"/>
     <path class="fil11" d="M1318 2379c-14,-12 -27,-6 -41,0 -18,8 -49,17 -65,0 0,0 0,0 0,0 -11,-11 -13,-29 -27,-39 -26,-18 -65,-22 -94,-10 -14,6 -23,14 -37,19 -13,4 -27,3 -40,6 -11,2 -33,11 -32,23 1,18 28,11 38,19 21,15 -2,15 -4,27 -4,20 21,16 32,17 24,1 20,7 35,20 11,9 30,11 40,-2 5,-6 -7,-11 3,-15 6,-2 16,6 20,10 10,9 13,24 25,32 9,7 42,15 48,1 6,-15 -27,-26 -3,-32 12,-3 27,9 38,12 12,3 35,2 43,-9 7,-9 -2,-19 3,-28 4,-7 14,-5 21,-11 7,-6 9,-15 7,-24 -1,-6 -5,-13 -10,-17z"/>
     <path class="fil11" d="M1336 2286c-14,-6 -26,-17 -42,-16 -20,1 -27,19 -43,28 -8,4 -32,9 -35,-7 -2,-9 16,-15 20,-24 11,-26 -22,-53 -43,-59 -8,-2 -33,-8 -40,-1 -4,4 -5,22 -9,29 -5,11 -7,17 -21,18 -5,0 -11,0 -16,-1 -11,-1 -23,-2 -33,4 -22,11 -19,26 5,27 11,1 36,0 40,14 3,11 -16,20 -13,34 6,23 45,12 60,26 9,9 13,22 25,28 14,7 33,0 48,-2 25,-3 46,11 63,-10 7,-9 3,-13 17,-17 12,-3 29,0 41,0 -25,-36 16,-29 48,-19l0 -59c-23,8 -44,18 -72,7z"/>
     <path class="fil14" d="M1230 2163c-13,-7 -31,7 -43,0 -19,-11 3,-19 -5,-31 -16,-23 -50,13 -63,20 -20,11 -38,-6 -57,-2 -18,4 -33,24 -47,35 -10,7 -35,13 -38,27 -4,17 15,23 27,22 15,-2 25,-18 38,-23 18,-6 23,0 38,6 13,5 28,7 40,14 13,7 21,18 35,22 11,4 73,4 71,-19 -1,-10 -29,-4 -36,-7 -29,-12 -11,-27 13,-27 12,0 24,6 33,-5 11,-12 6,-25 -7,-32z"/>
     <path class="fil14" d="M1028 1934c-28,5 -48,31 -78,19 -27,-11 -52,-37 -79,-50 -8,-4 -35,-15 -42,-6 -11,15 15,22 22,31 35,47 -61,-12 -56,12 1,5 46,21 18,27 -20,4 -38,-11 -58,-10 -8,0 -21,8 -30,17 -8,9 -13,19 -7,28 6,9 15,2 23,5 11,4 15,11 20,22 4,9 3,26 17,29 23,6 29,-40 64,-27 12,4 15,17 31,13 23,-6 8,-17 12,-32 10,-33 52,-16 78,-23 21,-6 14,-14 26,-23 17,-13 40,-5 59,4 14,7 22,18 39,15 16,-3 26,-13 19,-29 -10,-21 -57,-26 -77,-23z"/>
     <path class="fil14" d="M1034 2374c-5,-1 -20,2 -23,-4 -9,-17 40,-8 44,-16 12,-24 -73,-11 -81,-11 -16,0 -40,-2 -50,-17 -8,-12 -2,-24 -14,-35 -8,-7 -33,-12 -40,0 -7,12 13,22 5,33 -18,26 -50,-27 -64,-27 -35,-2 11,35 -23,30 -8,-1 -41,-44 -44,-23 -1,7 42,46 2,25 -10,-6 -20,-21 -32,-22 -14,-2 -36,12 -31,29 4,14 24,12 30,23 11,22 -17,50 29,43 16,-3 25,-10 43,-5 13,4 22,17 37,15 34,-3 7,-49 54,-32 27,10 41,22 74,20 29,-2 59,4 88,1 39,-3 28,-23 -3,-27z"/>
     <path class="fil13" d="M1174 2335c-28,12 -46,-14 -71,-23 -10,-3 -30,-10 -40,-4 -16,10 -2,17 9,22 14,5 79,16 48,41 -10,8 -27,4 -34,18 -8,15 -2,22 13,26 23,6 20,-10 36,-18 21,-9 17,9 28,19 11,10 22,9 23,-6 1,-19 -6,-43 8,-59 10,-12 48,-16 37,-39 -13,-27 -45,18 -57,23z"/>
     <path class="fil13" d="M587 2180l0 0c0,0 0,0 0,0z"/>
     <path class="fil13" d="M627 2210c-8,12 -42,28 -7,34 17,3 22,-17 38,-12 13,4 14,19 24,25 15,10 28,-1 42,5 12,5 10,21 21,24 16,4 19,-12 28,-19 11,-9 24,-21 39,-16 19,6 4,18 18,28 22,15 36,-34 61,-16 16,11 6,45 35,40 2,-13 -5,-20 6,-28 2,-1 35,7 33,-4 -4,-21 -24,-10 -37,-16 -15,-6 -22,-24 -38,-31 -20,-8 -23,4 -43,6 -34,2 -14,-43 -50,-40 -30,2 -32,40 -67,19 -31,-19 -43,-50 -84,-53 -10,-1 -60,4 -60,22l0 0c0,2 0,3 1,5 11,25 62,-11 39,25z"/>
     <path class="fil13" d="M850 2033c-15,9 -58,25 -75,12 -29,-23 29,-50 32,-69 2,-12 -3,-26 -18,-25 -14,1 -21,21 -27,31 -24,34 -37,29 -73,25 -18,-2 -80,11 -78,37 1,24 18,4 29,2 43,-9 3,29 17,44 19,22 67,-48 93,-39 -1,9 -38,29 -30,39 6,7 26,-7 33,4 6,9 -25,43 12,31 19,-6 24,-37 47,-37 12,0 39,5 28,-20 16,-18 66,-7 72,-34 10,-43 -49,-8 -60,-1z"/>
     <path class="fil13" d="M1249 2076c-11,14 -61,37 -48,0 -25,-10 -32,23 -51,24 -11,1 -10,-10 -19,-11 -7,0 -14,13 -18,17 -25,27 -29,4 -58,5 -12,0 -22,14 -34,12 -26,-4 4,-30 -17,-38 -12,-5 -31,14 -43,17 -18,5 -35,0 -52,14 -44,35 26,8 35,15 12,10 -34,62 14,38 12,-6 13,-22 29,-16 14,5 9,24 21,29 40,18 -5,-49 33,-36 13,4 16,27 23,37 13,19 28,26 52,25 61,-4 -14,-40 -9,-57 7,-22 87,13 103,12 44,-2 1,-32 37,-43 15,-5 27,4 40,-9 8,-8 19,-36 18,-47 -4,-51 -45,-4 -57,12z"/>
     <path class="fil14" d="M1162 2495c-7,10 1,31 -21,24 -13,-4 -16,-21 -30,-26 -8,-3 -8,-2 -15,0 -8,3 1,7 -12,6 -27,-2 -58,-23 -75,12 -12,24 26,18 26,37 0,15 -36,17 -5,31 20,9 31,3 40,-14 10,-18 18,-23 24,1 3,12 6,39 25,40 30,1 -4,-34 5,-42 0,0 0,-1 0,-1 11,3 35,30 43,11 3,-7 -8,-14 0,-22 8,-7 17,3 25,3 49,1 0,-100 -29,-60z"/>
     <path class="fil11" d="M1293 1806c24,10 45,13 71,11 14,-1 36,-9 33,-22l-135 0c10,3 20,7 31,11z"/>
     <path class="fil11" d="M920 1813c14,6 21,-2 35,-3 18,-2 39,13 56,6 11,-4 16,-13 12,-21l-116 0c-4,5 -1,12 13,18z"/>
     <path class="fil11" d="M1063 1800c25,16 43,27 65,46 14,13 29,17 49,13 9,-2 30,-7 27,-19 -3,-12 -41,-15 -50,-23 -20,-16 19,-20 34,-22l-130 0c2,2 4,3 6,5z"/>
     <path class="fil14" d="M703 1805c-2,12 18,19 26,17 19,-5 26,-32 38,-4 4,8 -2,14 14,14 11,0 22,-9 31,-14 24,-12 41,-9 66,-3 9,2 22,7 32,4 8,-3 11,-11 19,-13 18,-5 36,13 55,7 15,-4 15,-12 10,-20l-262 0c0,0 0,0 0,0 -9,5 -29,-3 -32,11z"/>
     <path class="fil14" d="M972 2602c-27,-3 -40,12 -67,-5 -22,-14 -33,-11 -56,-5 -23,5 -18,-20 -40,-17 -9,1 -15,8 -24,9 -8,1 -15,-6 -24,-3 -17,5 -14,27 -27,35l262 0c-5,-7 -15,-12 -24,-14z"/>
     <path class="fil13" d="M1155 1903c-17,4 -29,16 -47,18 -23,2 -23,-28 -37,-28 -9,0 -14,18 -20,23 -6,5 -18,7 -25,11 -7,3 -37,24 -39,5 -1,-16 24,-13 10,-31 -9,-11 -17,-6 -24,-23 -7,-17 -10,-31 -29,-40 -12,-6 -32,-11 -39,4 -8,17 9,23 17,33 7,8 8,19 13,27 3,6 11,10 13,16 6,18 -7,25 -17,36 -9,10 -18,25 -2,32 15,6 20,-11 31,-15 20,-7 19,3 23,18 5,19 10,31 25,45 13,12 77,45 78,5 1,-24 -69,-16 -50,-41 8,-10 30,1 35,-13 6,-15 -15,-19 -25,-17 -7,2 -25,22 -32,20 -14,-4 4,-20 9,-24 29,-22 81,-24 116,-28 12,-1 41,-1 46,-15 8,-21 -19,-22 -32,-19z"/>
     <path class="fil14" d="M637 1810c-28,26 21,18 31,25 18,12 -3,4 0,18 6,25 8,11 33,9 21,-1 22,17 40,18 28,2 17,-42 39,-48 19,-5 31,30 53,31 16,0 21,-10 34,-13 17,-3 71,26 43,-15 -8,-11 -28,-12 -17,-27 7,-9 30,-2 38,-12 1,-1 1,-2 2,-2l-228 0c-1,1 -1,1 -2,2 -19,18 -48,-4 -67,14z"/>
     <path class="fil14" d="M912 2593c-19,-2 -26,10 -42,15 -15,5 -34,5 -44,-9 -9,-12 4,-23 -15,-26 -18,-3 -16,14 -28,20 -18,10 -16,2 -30,-8 -10,-7 -16,-18 -30,-15 -26,4 -2,29 -17,47l228 0c9,-14 -7,-22 -22,-23z"/>
     <path class="fil13" d="M1108 2585c0,-14 -11,-33 -25,-37 -34,-11 -14,41 -43,42 -10,0 -32,-11 -29,12 1,7 6,10 9,14l66 0c0,0 0,0 1,0 13,-9 22,-13 22,-31z"/>
     <path class="fil13" d="M1023 1804c-1,20 -25,24 -39,33 -4,3 -18,14 -25,25 -6,8 -7,17 2,19 12,4 22,-15 34,-13 19,4 15,34 23,45 18,23 28,-16 18,-31 -9,-15 -31,-27 -5,-39 13,-6 25,0 35,-15 9,-14 6,-22 21,-33l-66 0c2,2 3,5 2,9z"/>
     <path class="fil11" d="M1372 2088c-14,1 -19,8 -31,11 -12,3 -19,-2 -30,-2 -10,0 -19,7 -29,7 -11,0 -29,-4 -17,-16 5,-5 24,-4 31,-5 16,-3 31,-10 46,-14 10,-3 27,-1 36,-6 10,-5 9,-12 2,-16 -2,-2 -5,-3 -9,-4 -17,-6 -40,14 -53,6 -10,-7 0,-28 -13,-35 -16,-8 -32,13 -42,22 -5,5 -11,11 -18,14 -8,3 -23,-4 -29,5 -6,8 4,16 1,24 -8,20 -28,0 -40,-6 -8,-4 -15,-9 -25,-8 -13,1 -11,6 -21,11 -16,9 -34,-7 -50,0 -21,10 -3,15 5,27 5,8 3,14 5,22 5,17 20,26 43,23 19,-3 31,-23 51,-18 26,6 33,73 67,46 16,-12 -5,-21 3,-34 11,-17 36,-2 46,3 13,7 28,13 43,3 14,-10 6,-23 28,-25 11,-1 23,5 36,8l0 -46c-13,0 -26,2 -36,2z"/>
     <path class="fil11" d="M622 2129c15,-13 7,-33 -9,-40 -7,-3 -16,-4 -26,-4l0 46c13,4 25,6 35,-3z"/>
     <path class="fil11" d="M658 2355c8,-11 -15,-27 -16,-37 0,-14 20,-17 19,-29 -1,-17 -35,-18 -46,-17 -10,1 -20,4 -29,7l0 59c12,4 23,8 28,11 7,4 36,15 43,6z"/>
     <path class="fil11" d="M607 1915c31,-4 37,-27 12,-45 -13,-10 -24,-12 -33,-9l0 54c7,1 14,2 21,1z"/>
     <path class="fil11" d="M1377 1889c-20,28 -29,2 -54,0 -14,-1 -25,14 -36,20 -16,9 -43,29 -62,14 -17,-14 5,-17 -4,-30 -6,-9 -30,-1 -37,4 -8,7 -10,19 -20,25 -12,8 -28,3 -35,14 -8,12 -1,18 -15,29 -9,6 -30,13 -24,28 7,19 29,5 38,-2 14,-10 25,-20 43,-13 13,5 21,21 37,20 17,-1 15,-17 26,-24 18,-12 39,1 57,4 16,3 46,-2 54,-19 8,-18 -7,-31 16,-43 16,-9 31,-4 47,-2l0 -54c-12,3 -20,15 -30,28z"/>
     <path class="fil14" d="M1408 1988l0 -43c-8,-1 -13,-3 -21,-12 -5,-6 -38,-61 -50,-30 -4,11 10,26 6,37 -7,21 -33,2 -49,6 -16,4 -24,22 -41,28 -14,5 -48,11 -42,35 6,26 37,2 50,1 26,-2 14,22 23,36 18,28 24,-9 32,-20 19,-25 28,7 43,11 13,4 12,-8 23,-10 9,-2 18,5 26,10l0 -35c-5,-3 -7,-7 0,-14z"/>
     <path class="fil14" d="M616 2011c-5,-4 -21,-4 -29,-9l0 35c2,1 4,2 5,3 18,7 44,-13 24,-29z"/>
     <path class="fil14" d="M591 1984c10,-8 46,-14 27,-36 -8,-9 -17,-3 -26,-3 -2,0 -4,0 -5,0l0 43c1,-1 2,-2 4,-4z"/>
     <path class="fil14" d="M1384 2174c-15,19 22,51 5,74 -5,7 -14,8 -18,18 -5,10 -4,18 -6,29 -2,10 -22,48 -31,27 -2,-4 4,-20 4,-26 0,-8 -2,-16 -2,-25 0,-17 2,-36 5,-53 2,-15 9,-33 -2,-46 -29,12 -39,75 -37,102 1,19 12,44 5,63 -5,15 -26,29 -39,15 -9,-9 -8,-43 -28,-40 -23,3 1,43 -25,40 -10,-1 -15,-17 -26,-19 -13,-3 -21,7 -19,19 3,13 63,51 29,59 -9,2 -63,-24 -53,3 12,32 102,24 118,0 4,-6 -2,-21 13,-15 13,6 6,39 11,51 12,27 29,20 35,-5 7,-33 17,-1 28,14 9,12 40,26 56,27l0 -23c-7,-6 -21,-14 -21,-21 1,-12 12,-9 21,-6l0 -20c-20,-12 -39,-28 -11,-38 4,-1 8,0 11,2l0 -211c-5,-8 -13,-10 -23,3z"/>
     <path class="fil14" d="M592 2439c11,3 41,11 20,-8 -2,-2 -14,-8 -26,-15l0 20c2,1 4,1 5,2z"/>
     <path class="fil14" d="M634 2404c24,-14 -28,-53 -35,-66 -10,-20 -6,-30 12,-39 9,-5 21,-11 15,-24 -5,-11 -18,-9 -26,-15 -16,-12 -4,-38 -4,-55 0,-8 -3,-25 -9,-34l0 211c14,8 28,35 47,23z"/>
     <path class="fil14" d="M589 2466c-1,-1 -1,-1 -2,-2l0 23c11,1 16,-5 2,-21z"/>
     <path class="fil14" d="M1337 2616l70 0 0 -24c-16,4 -33,11 -39,14 -10,4 -21,7 -31,10z"/>
     <path class="fil14" d="M1201 2591c-21,-19 -42,9 -57,17 -8,4 -20,5 -31,8l78 0c6,-10 19,-17 10,-25z"/>
     <path class="fil14" d="M587 2593l0 24 37 0c0,-1 1,-2 1,-3 3,-24 -17,-25 -38,-20z"/>
     <path class="fil14" d="M624 1795l-37 0 0 12c17,0 33,-1 37,-12z"/>
     <path class="fil14" d="M1089 1813c-7,25 17,10 28,11 21,3 15,7 20,23 3,8 -3,30 18,17 13,-8 1,-26 18,-24 8,1 15,18 23,21 8,3 28,1 35,-3 13,-7 18,-10 8,-27 37,-17 14,39 6,50 -5,8 -24,28 -23,37 3,15 23,14 35,7 16,-8 10,-12 17,-27 7,-14 20,-15 26,-24 15,-21 -3,-49 38,-38 31,8 60,14 26,-23 7,-7 25,-6 41,-6l0 -12 -70 0c-24,5 -49,5 -74,9 -21,3 -59,35 -74,8 -4,-6 -2,-12 1,-17l-78 0c-11,3 -20,7 -23,18z"/>
     <path class="fil13" d="M589 2447c-1,-1 -1,-1 -2,-2l0 28c10,-7 15,-14 2,-26z"/>
     <path class="fil13" d="M1355 2469c-15,27 -20,9 -44,13 -12,2 -15,7 -28,6 -10,-1 -29,-17 -37,-7 -8,10 6,22 15,24 4,1 59,2 41,13 -5,3 -22,-1 -30,1 -10,3 -15,9 -26,6 -5,-1 -64,-48 -62,-18 0,3 1,6 3,7 4,6 13,7 10,18 -2,8 -13,14 -9,23 8,16 25,-3 36,-2 18,2 20,45 38,30 10,-8 2,-32 22,-26 17,5 7,29 25,34 24,7 23,-11 26,-23 4,-17 -6,-22 19,-24 12,-1 28,12 39,-3 14,-20 -10,-18 -16,-31 -8,-18 15,-26 29,-35l0 -28c-26,-23 -43,5 -53,24z"/>
     <path class="fil13" d="M1406 2285c-12,-5 -1,-14 -10,-24 -23,-27 -44,28 -59,32 -21,5 -20,-25 -24,-40 -3,-11 1,-18 -11,-25 -9,-5 -18,8 -27,-1 -15,-16 15,-42 16,-58 2,-52 -28,7 -34,20 -11,26 -16,47 10,69 9,8 27,13 29,27 3,22 -33,37 -3,58 19,14 48,-3 65,-13 0,0 0,0 0,0 17,-11 16,-6 34,-8 4,0 10,-1 16,-1l0 -36c-1,0 -1,0 -2,0z"/>
     <path class="fil13" d="M638 2292c-7,-34 -36,-3 -51,-6l0 36c23,-3 56,-10 51,-30z"/>
     <path class="fil11" d="M642 2423c12,27 53,18 47,-13 28,-7 36,32 56,40 22,9 62,4 49,-26 34,-13 63,42 92,28 19,-9 -17,-38 -21,-48 -16,-40 41,-32 63,-45 8,-5 9,-15 17,-19 17,-10 48,12 61,-10 20,-33 -44,-37 -62,-34 -40,7 -79,43 -122,36 -26,-4 -28,-14 -13,-38 6,-10 12,-11 3,-20 -5,-5 -21,-8 -27,-6 -16,6 -12,26 -25,37 -26,21 -83,16 -103,-11 -11,-15 -7,-38 -23,-50 -19,-15 -33,-1 -27,18 3,10 12,25 7,35 -1,2 -2,4 -5,6 -5,4 -14,4 -23,3l0 86c6,-1 12,-3 18,-4 34,-7 27,13 37,36z"/>
     <path class="fil11" d="M1378 2304c-11,3 -50,18 -45,35 3,11 33,3 44,7 22,9 6,17 13,33 4,10 10,12 17,11l0 -86c-11,-1 -22,-3 -30,-1z"/>
     <path class="fil14" d="M587 2574c0,2 0,5 0,7l0 -10c0,1 0,2 0,2z"/>
     <path class="fil14" d="M1390 2442c-8,8 -3,22 0,32 4,13 12,22 17,34l0 -70c-6,-2 -12,-2 -17,4z"/>
     <path class="fil14" d="M1407 2574c0,2 0,5 0,7l0 -10c0,1 0,2 0,2z"/>
     <path class="fil14" d="M615 2605c16,-15 0,-58 18,-67 14,-8 5,8 8,12 7,11 16,11 28,8 31,-8 31,-40 53,-57 17,-13 69,-6 78,-23 15,-27 -62,-16 -72,-13 -15,5 -28,14 -43,19 -14,5 -14,2 -25,-3 -9,-5 -13,-12 -24,-3 -8,6 -7,22 -21,18 -16,-5 -11,-40 -20,-52 -3,-3 -6,-6 -9,-7l0 70c2,4 3,8 4,12 4,19 -2,34 -4,52l0 10c2,16 13,38 29,23z"/>
     <path class="fil13" d="M1408 1832l0 -37 -40 0c-13,24 15,58 40,37z"/>
     <path class="fil13" d="M1408 2549c-1,-1 -2,-1 -3,-2 -36,-15 -13,33 -14,41 -1,16 -12,14 -20,25 -1,1 -2,2 -2,3l40 0 0 -67z"/>
     <path class="fil13" d="M696 2599c10,-8 30,-2 40,2 12,4 24,14 38,8 17,-8 14,-21 3,-32 -11,-12 -24,-16 -40,-16 -15,0 -34,10 -40,-6 -4,-10 12,-28 -6,-32 -8,-2 -24,16 -31,20 -9,-7 -9,-16 -20,-12 -15,4 -15,31 -32,33 -9,1 -14,-8 -21,-13l0 67 99 0c2,-6 4,-12 9,-17z"/>
     <path class="fil13" d="M626 1809c18,4 32,10 50,-1 6,-4 9,-8 10,-13l-99 0 0 37c0,0 1,-1 1,-1 17,-15 11,-28 38,-22z"/>
     <path class="fil14" d="M1377 2167c-16,9 -26,32 -1,30 9,-1 15,-6 25,-5 2,0 4,1 6,2l0 -37c-11,2 -22,5 -31,10z"/>
     <path class="fil14" d="M647 2204c8,6 7,16 20,14 18,-1 9,-14 13,-20 18,-21 39,8 49,21 9,11 50,46 57,13 3,-17 -38,-39 3,-41 32,-1 60,8 93,0 6,-2 35,-8 35,-18 0,-9 -18,-11 -23,-13 14,-12 31,-9 47,-13 15,-4 21,-17 34,-22 13,-4 25,3 37,5 14,3 23,0 37,-3 10,-2 18,1 21,-11 3,-10 -7,-20 -15,-24 -12,-7 -29,-7 -43,-6 -28,1 -58,7 -84,17 -25,10 -33,33 -64,30 -21,-2 -49,-21 -69,-13 -9,3 -14,13 -25,14 -9,1 -18,-4 -27,-3 -8,1 -13,8 -20,9 -13,2 -25,-7 -36,-10 -7,-2 -18,-7 -24,1 -8,9 5,12 2,19 -5,12 -36,4 -47,4 -9,0 -19,0 -29,2l0 37c6,3 9,8 15,11 17,8 27,-13 44,0z"/>
    </g>
   </g>
  </g>
  <polygon class="fil3" points="634,1906 1332,1906 1332,2401 634,2401 "/>
  <path class="fil15" d="M1332 1944l0 55 -697 92 0 -55 697 -92zm0 130l0 55 -697 92 0 -55 697 -92zm0 130l0 55 -697 92 0 -55 697 -92z"/>
  <path class="fil16" d="M834 2470c36,0 70,-26 97,-69l0 0 -194 0c27,43 60,69 97,69z"/>
  <path class="fil16" d="M1132 2470c36,0 70,-26 97,-69l0 0 -194 0c27,43 60,69 97,69z"/>
  <path class="fil5" d="M543 2813c-17,11 -31,25 -41,39l-9 15c-9,18 -10,35 -2,48 17,25 68,21 114,-10 46,-31 69,-76 53,-101 -17,-25 -68,-21 -114,10z"/>
  <path class="fil5" d="M1442 2813c17,11 31,25 41,39l9 15c9,18 10,35 2,48 -17,25 -68,21 -114,-10 -46,-31 -69,-76 -53,-101 17,-25 68,-21 114,10z"/>
  <g>
   <path class="fil17" d="M2540 2034l1 0 1 0 1 0 1 0 1 0 1 0 1 0 1 0 1 0 1 0 1 0 1 0 1 0 1 0 1 0 1 0 1 0 1 0 0 0 0 0 0 0 0 0 0 0 0 0 0 0 0 0 0 0 0 0 0 0 0 0 0 0 0 0 0 0 0 0 0 0 0 0 0 0 0 0 0 0 0 0 0 0 0 0 0 0 0 0 0 0 0 0 0 0 0 0 0 0 0 0 0 0 -1 0 -1 0 -1 0 -1 0 -1 0 -1 0 -1 0 -1 0 -1 0 -1 0 -1 0 -1 0 -1 0 -3 -18zm-878 77l-11 -2 8 -16 882 -59 3 18 -882 59zm0 0l-1 0 -1 0 -1 0 -1 0 -1 0 -1 0 -1 0 -1 0 -1 0 -1 0 -1 0 -1 0 -1 0 -1 0 -1 0 -1 0 -1 0 -1 0 0 0 0 0 0 0 0 0 0 0 0 0 0 0 0 0 0 0 0 0 0 0 0 0 0 0 0 0 0 0 0 0 0 0 0 0 0 0 0 0 0 0 0 0 0 0 0 0 0 0 0 0 0 0 0 0 0 0 0 0 0 0 0 0 0 0 1 0 1 0 1 0 1 0 1 0 1 0 1 0 1 0 1 0 1 0 1 0 1 0 1 0 3 18zm-337 -191l20 -14 326 189 -20 14 -326 -189zm0 0l-1 0 -1 0 0 0 0 0 0 0 0 0 0 0 0 0 0 0 0 0 0 0 0 0 0 0 0 0 0 0 0 0 0 0 0 0 0 0 0 0 0 0 0 0 0 0 0 0 0 0 0 0 0 0 0 0 0 0 0 0 0 0 0 0 1 0 1 0 1 0 1 0 1 0 1 0 1 0 1 0 1 0 1 0 1 0 1 0 1 0 1 0 1 0 1 0 1 0 1 0 1 0 1 0 1 0 1 0 1 0 1 0 1 0 1 0 1 0 1 0 1 0 1 0 1 0 1 0 -20 14z"/>
  </g>
  <g>
   <path class="fil17" d="M639 2369l16 -15 1 0 1 0 1 0 1 0 0 0 0 0 0 0 0 0 0 0 0 0 0 0 0 0 0 0 0 0 0 0 0 0 0 0 0 0 0 0 0 0 0 0 0 0 0 0 0 0 0 0 0 0 0 0 0 0 0 0 0 0 0 0 0 0 0 0 0 0 0 0 0 0 -1 0 -1 0 -1 0 -1 0 -1 0 -1 0 -1 0 -1 0 -1 0 -1 0 -1 0 -1 0 -1 0 -1 0 -1 0 -1 0 -1 0 -1 0 -1 0 -1 0 -1 0 -1 0 -1 0 -1 0 -1 0 -1 0 -1 0 -1 0zm-436 -203l451 187 -16 15 -451 -187 -2 -14 18 -1zm0 0l-16 15 -1 0 -1 0 -1 0 -1 0 0 0 0 0 0 0 0 0 0 0 0 0 0 0 0 0 0 0 0 0 0 0 0 0 0 0 0 0 0 0 0 0 0 0 0 0 0 0 0 0 0 0 0 0 0 0 0 0 0 0 0 0 0 0 0 0 0 0 0 0 0 0 0 0 1 0 1 0 1 0 1 0 1 0 1 0 1 0 1 0 1 0 1 0 1 0 1 0 1 0 1 0 1 0 1 0 1 0 1 0 1 0 1 0 1 0 1 0 1 0 1 0 1 0 1 0 1 0 1 0zm441 -253l-439 268 -20 -13 439 -268 20 13zm0 0l-20 -13 1 0 1 0 1 0 1 0 1 0 1 0 1 0 1 0 1 0 1 0 1 0 1 0 1 0 1 0 1 0 1 0 1 0 1 0 1 0 1 0 1 0 1 0 1 0 1 0 1 0 1 0 1 0 1 0 1 0 1 0 1 0 1 0 1 0 0 0 0 0 0 0 0 0 0 0 0 0 0 0 0 0 0 0 0 0 0 0 0 0 0 0 0 0 0 0 0 0 0 0 0 0 0 0 0 0 0 0 0 0 0 0 0 0 0 0 0 0 0 0 0 0 0 0 0 0 -1 0z"/>
  </g>
  <path class="fil18" d="M1082 115c152,67 269,193 361,324 54,77 203,28 107,127 -218,222 -1068,675 -1416,736 -124,22 -5,-59 -49,-164 -59,-142 -100,-298 -78,-452 56,-394 695,-740 1076,-571z"/>
  <g style="clip-path:url(#id4)">
   <g>
    <g>
     <path id="1" class="fil19" d="M1542 1314c-4,4 -8,8 -12,12l146 -77c-40,-3 -114,46 -135,65z"/>
     <path class="fil19" d="M112 24c-29,53 -35,54 -15,108 12,32 2,187 94,102 34,-31 -6,-51 14,-78 23,-31 100,-14 124,-3 35,17 44,42 95,25 12,-4 52,-26 56,-39 8,-27 -8,-13 -21,-31 -17,-23 -40,-26 8,-47 31,-14 75,-4 108,-9 38,-5 99,-23 125,-52 40,-44 -33,-29 -43,-68 -16,-59 93,-79 131,-111 36,-31 20,-30 -1,-47 -32,-25 -37,-11 -22,-53 8,-22 37,-50 16,-67 -4,-4 -10,-6 -17,-6l-146 77c-25,28 -44,61 -71,88 -21,21 -70,39 -83,61 -21,37 114,75 38,106 -50,21 -62,-89 -118,-40 -19,17 -6,44 -37,63 -59,37 -135,37 -110,-34 6,-18 17,-38 20,-55l-131 69c-4,13 -8,26 -15,39z"/>
     <path class="fil19" d="M1124 1492c-65,13 -73,52 -85,93l131 -69c4,-19 -4,-32 -46,-24z"/>
     <polygon class="fil20" points="-685,412 227,2013 2077,1038 1165,-563 "/>
     <path class="fil21" d="M1065 1051c-61,-10 -43,20 -57,50 -28,59 -24,13 -77,19 -65,8 -4,42 -53,69 0,0 0,0 0,0 -38,20 -88,-39 -130,-9 -54,39 63,95 -16,102 -31,3 -59,-34 -89,-39 0,0 0,0 0,0 -22,-4 -69,-4 -81,21 -9,20 27,34 29,52 9,70 -89,76 -121,121 -16,22 -22,54 5,67 7,3 14,4 20,3 25,-4 46,-34 71,-24 32,12 0,40 17,52 51,38 51,-42 90,-56 44,-16 82,46 123,18 61,-42 -52,-77 -73,-90 78,-44 151,20 225,1 29,-7 71,-39 60,-63 -15,-32 -84,1 -40,-52 20,-25 74,-30 100,-53 35,-30 47,-66 47,-107 0,-36 -5,-74 -51,-82z"/>
     <path class="fil19" d="M573 398c-33,21 -121,71 -157,66 -52,-7 -39,-75 -81,-94 -20,-9 -40,-7 -59,2 -28,13 -52,41 -59,68 -6,20 6,56 -10,73 -25,26 -72,8 -101,30 -32,25 -31,75 -53,105 -40,57 -109,-49 -154,30 -21,36 -8,55 -67,48 -41,-5 -74,-28 -99,-55 -16,-17 -56,-85 -92,-59 -27,19 -7,103 6,121 35,51 123,34 171,68 25,18 31,33 17,63 -9,19 -36,21 -36,45 0,28 37,34 61,32 34,-2 49,-31 77,-35 64,-8 61,89 126,90 49,1 59,-41 100,-55 37,-12 65,7 90,26 65,48 152,83 222,-7 39,-50 -1,-42 -21,-80 -17,-33 -2,-49 38,-58 57,-14 183,16 214,-59 29,-71 -182,-19 -107,-106 24,-28 123,-48 115,-85 -7,-31 -68,-23 -52,-69 13,-38 211,-157 75,-192 -70,-18 -113,56 -163,87z"/>
     <path class="fil19" d="M947 1615c5,-2 10,-5 14,-9 7,-11 17,-22 26,-32l-40 41z"/>
     <path class="fil19" d="M2020 1038c-45,-6 -172,74 -181,-2 -3,-28 36,-44 40,-72 -55,-42 -98,-31 -154,6 -79,53 -75,64 -23,125 53,63 -25,96 -97,102 -30,2 -57,-4 -88,4 -24,7 -49,29 -73,32 -39,5 -44,-31 -70,-32 -52,-2 -27,43 -38,63 -37,65 -155,2 -187,65 -16,32 24,40 -19,78 -28,25 -57,27 -90,41 -15,6 -43,18 -48,33 -6,19 17,21 17,38 0,24 -23,67 -48,87 -6,9 -10,18 -11,25l262 -138c-7,-4 -18,-6 -33,-4 12,-2 35,-33 56,-38 18,-4 34,0 51,3l294 -155c3,-3 6,-5 8,-6 52,-47 101,-69 160,-82l305 -161c-6,-6 -16,-11 -32,-13z"/>
     <path class="fil19" d="M1611 681c-44,-6 -68,20 -93,48 -32,36 -92,92 -147,78 0,0 0,0 0,0 -37,-9 -63,-42 -103,-44 -78,-5 -170,34 -222,93 -25,28 -35,55 -63,80 -26,24 -56,38 -83,60 -21,17 -63,60 -47,84 22,33 75,-11 107,-9 63,4 13,30 21,58 13,43 66,7 92,-6 55,-27 52,-10 101,-2 35,5 79,-13 88,-50 5,-18 -29,-14 -10,-34 10,-11 43,-7 55,-5 34,6 57,31 92,33 27,2 112,-21 109,-54 -3,-36 -90,-18 -42,-60 23,-20 72,-14 99,-22 29,-8 81,-38 87,-69 5,-25 -26,-34 -24,-57 1,-19 27,-26 36,-47 8,-20 2,-40 -11,-54 -10,-11 -25,-19 -42,-21z"/>
     <path class="fil19" d="M1549 480c-37,5 -78,-1 -111,19 -43,26 -40,70 -66,105 -13,18 -63,56 -86,29 -13,-16 20,-49 18,-71 -4,-65 -108,-78 -163,-62 -19,5 -83,24 -91,44 -5,13 14,48 13,68 0,27 4,42 -27,60 -12,7 -24,12 -36,18 -26,12 -53,24 -71,48 -36,47 -15,72 41,48 25,-11 81,-44 105,-21 19,19 -14,59 9,81 39,37 115,-31 165,-21 30,7 55,28 87,25 39,-4 74,-40 105,-60 53,-36 116,-34 130,-95 6,-26 -7,-30 20,-54 23,-21 65,-33 92,-49 -97,-40 4,-76 86,-94l-65 -115c-43,43 -78,88 -155,98z"/>
     <path class="fil22" d="M1173 366c-37,3 -64,50 -98,51 -56,1 -15,-41 -45,-54 -62,-27 -99,85 -119,114 -32,44 -92,34 -131,65 -37,29 -47,86 -68,124 -15,26 -65,67 -57,97 11,38 59,28 86,10 32,-21 36,-65 61,-91 33,-34 53,-27 93,-34 35,-7 70,-19 105,-21 36,-2 67,9 105,1 29,-6 170,-80 139,-120 -15,-19 -69,26 -88,29 -79,12 -54,-40 -2,-68 28,-15 60,-17 70,-49 11,-36 -14,-56 -52,-53z"/>
     <path class="fil22" d="M465 160c-58,42 -73,117 -155,130 -72,11 -159,-10 -233,-4 -21,2 -95,11 -100,39 -8,41 59,26 83,35 132,51 -150,49 -112,90 8,9 128,-14 70,33 -40,33 -99,24 -143,49 -18,10 -39,40 -49,70 -9,27 -8,53 15,62 23,9 36,-13 57,-17 30,-6 46,3 70,19 20,13 37,46 70,37 59,-17 21,-112 115,-130 32,-6 54,15 85,-11 46,-39 -2,-43 -8,-77 -13,-76 100,-92 152,-138 40,-35 15,-44 32,-76 23,-45 84,-58 137,-61 39,-3 69,10 105,-16 32,-24 44,-57 10,-79 -46,-30 -158,16 -200,47z"/>
     <path class="fil22" d="M966 1009c-12,4 -43,28 -58,19 -38,-23 82,-64 82,-83 1,-62 -177,65 -195,75 -36,20 -92,43 -131,26 -32,-13 -31,-45 -71,-51 -25,-4 -88,16 -90,47 -2,32 55,26 49,58 -12,73 -143,8 -175,23 -81,37 64,56 -18,87 -20,7 -141,-38 -125,8 5,14 146,39 33,45 -30,2 -67,-17 -96,-6 -34,13 -67,65 -39,93 23,23 67,-6 92,10 49,30 17,119 114,49 34,-24 45,-50 92,-60 34,-7 68,7 100,-14 72,-46 -38,-105 85,-127 73,-13 117,-6 189,-49 63,-38 138,-63 199,-101 84,-53 37,-77 -38,-50z"/>
     <path class="fil21" d="M1238 768c-51,57 -119,26 -186,40 -26,5 -79,16 -94,40 -24,38 14,37 46,32 36,-6 196,-64 154,22 -14,28 -56,39 -57,75 -2,38 20,45 58,35 58,-16 35,-44 63,-77 37,-43 47,-3 84,4 36,7 60,-10 46,-39 -19,-38 -62,-77 -48,-124 10,-35 91,-88 39,-119 -61,-37 -81,88 -103,113z"/>
     <path class="fil21" d="M-257 1163l0 0c0,0 0,0 0,0z"/>
     <path class="fil21" d="M-133 1174c-3,33 -64,105 21,76 41,-14 29,-60 73,-70 35,-8 52,20 83,21 45,2 62,-34 100,-39 33,-4 46,30 75,22 40,-11 31,-46 42,-69 14,-30 31,-69 71,-77 51,-10 30,30 72,33 66,4 44,-108 120,-104 48,3 62,80 123,38 -10,-28 -34,-33 -17,-61 3,-5 87,-29 70,-47 -32,-36 -65,9 -102,13 -40,5 -75,-21 -120,-15 -55,8 -46,35 -90,61 -74,45 -78,-67 -156,-19 -66,40 -27,117 -129,117 -91,0 -153,-46 -248,-4 -22,10 -130,79 -110,114l0 0c2,3 4,6 8,8 53,35 126,-95 116,2z"/>
     <path class="fil21" d="M172 565c-23,36 -103,119 -156,112 -90,-11 9,-132 -5,-172 -8,-25 -35,-48 -69,-26 -30,19 -23,65 -28,92 -16,94 -51,99 -136,135 -43,18 -168,116 -136,165 30,45 45,-13 68,-31 87,-69 39,52 86,66 67,20 98,-174 165,-186 7,19 -54,103 -25,113 21,7 51,-44 79,-31 24,11 -8,113 62,47 36,-34 13,-100 65,-128 27,-15 94,-38 40,-71 16,-54 142,-92 125,-152 -27,-96 -119,42 -136,68z"/>
     <path class="fil21" d="M1119 173c-9,40 -97,144 -108,58 -66,11 -46,82 -88,108 -23,14 -33,-9 -55,2 -15,8 -18,42 -22,54 -25,82 -61,42 -125,78 -27,15 -35,54 -63,64 -63,23 -25,-63 -81,-54 -33,5 -55,65 -78,84 -36,31 -78,42 -102,89 -61,121 66,-15 96,-12 38,5 -6,162 73,57 20,-27 4,-58 48,-66 37,-7 48,36 80,32 109,-13 -66,-90 33,-109 33,-6 67,34 93,45 50,22 93,18 145,-14 133,-81 -76,-60 -82,-100 -8,-51 211,-79 245,-99 96,-57 -33,-64 35,-127 29,-28 65,-25 81,-66 10,-26 4,-93 -11,-114 -64,-95 -105,46 -115,91z"/>
     <path class="fil22" d="M1389 1093c-5,28 36,59 -22,71 -33,7 -60,-22 -95,-15 -20,4 -21,7 -34,19 -16,16 9,12 -22,26 -62,28 -157,24 -157,112 0,60 79,3 99,41 17,30 -63,76 22,66 54,-7 73,-32 74,-75 1,-47 15,-67 54,-26 20,20 56,70 100,48 69,-35 -46,-61 -35,-88 0,-1 0,-1 0,-2 29,-7 112,16 110,-29 -1,-18 -34,-18 -24,-42 10,-23 42,-15 60,-25 112,-58 -110,-196 -132,-82z"/>
     <path class="fil19" d="M919 -404c65,-10 115,-28 171,-63 30,-19 72,-61 51,-83l-305 161c25,-6 53,-10 83,-15z"/>
     <path class="fil19" d="M87 51c38,-4 44,-29 76,-49 39,-24 102,-21 133,-55 19,-21 21,-44 4,-54l-262 138c-2,15 10,24 49,20z"/>
     <path class="fil19" d="M394 -143c73,1 127,1 197,14 47,9 85,-2 124,-32 19,-15 60,-48 39,-70 -20,-20 -108,18 -138,15 -63,-7 21,-61 53,-84l-294 155c6,1 13,2 20,2z"/>
     <path class="fil22" d="M-411 295c8,27 61,17 79,2 38,-33 23,-93 81,-53 18,12 12,30 48,11 25,-13 39,-43 54,-63 39,-52 82,-67 147,-84 23,-6 59,-13 76,-31 16,-16 13,-34 29,-49 35,-31 96,-19 133,-52 28,-26 21,-42 1,-50l-589 311c0,0 0,0 0,0 -13,21 -68,28 -59,58z"/>
     <path class="fil22" d="M1079 1529c-65,26 -78,72 -156,70 -65,-2 -86,18 -133,57 -47,38 -62,-17 -109,14 -18,12 -24,34 -43,46 -17,11 -40,7 -57,22 -32,29 -3,70 -21,100l589 -311c-19,-7 -48,-6 -70,3z"/>
     <path class="fil21" d="M716 -51c-34,27 -49,66 -86,90 -49,32 -83,-27 -114,-10 -21,11 -11,53 -20,70 -9,17 -32,36 -44,52 -12,15 -58,90 -82,55 -21,-30 40,-55 -11,-73 -32,-11 -46,9 -79,-16 -34,-25 -57,-48 -109,-44 -34,2 -83,17 -83,55 0,43 45,33 75,43 24,8 38,27 60,38 14,7 37,7 48,16 33,28 12,57 1,91 -9,29 -13,71 31,64 39,-6 33,-44 53,-65 36,-37 47,-17 72,8 31,30 57,49 106,58 43,8 223,-4 182,-83 -25,-48 -174,51 -157,-21 6,-28 68,-33 65,-68 -3,-37 -55,-20 -76,-3 -15,12 -32,73 -51,77 -36,8 -13,-44 -6,-59 42,-77 156,-142 230,-191 26,-17 91,-52 87,-85 -6,-49 -68,-20 -94,0z"/>
     <path class="fil22" d="M-554 383c-35,83 67,10 98,11 55,2 -2,12 20,35 40,42 30,11 85,-21 46,-27 68,8 110,-12 66,-31 -8,-102 35,-140 38,-32 103,22 154,-3 38,-19 36,-45 62,-65 34,-27 188,-33 81,-81 -30,-13 -77,9 -69,-33 5,-27 66,-40 73,-68 1,-2 1,-4 1,-6l-514 271c-1,2 -1,4 -2,6 -22,57 -113,49 -137,106z"/>
     <path class="fil22" d="M935 1580c-46,18 -47,49 -77,79 -28,28 -70,51 -110,35 -33,-13 -16,-49 -64,-33 -43,15 -21,47 -40,72 -30,40 -34,23 -75,20 -29,-2 -55,-16 -86,6 -54,38 28,58 13,111l514 -271c5,-37 -40,-34 -76,-20z"/>
     <path class="fil21" d="M1367 1333c-16,-27 -60,-51 -97,-43 -88,20 14,96 -51,132 -21,12 -84,17 -52,58 9,12 24,12 36,17l148 -78c0,0 0,-1 1,-1 19,-33 34,-51 14,-86z"/>
     <path class="fil21" d="M308 -88c20,41 -30,78 -53,110 -7,10 -25,49 -29,79 -3,23 2,41 26,35 32,-7 33,-55 62,-65 46,-15 71,49 103,60 67,24 45,-64 6,-83 -36,-18 -101,-16 -55,-70 22,-26 56,-31 62,-70 6,-38 -11,-49 11,-90l-148 78c6,3 12,7 15,14z"/>
     <path class="fil19" d="M1410 51c-30,19 -34,38 -58,59 -23,21 -45,18 -71,32 -23,13 -35,36 -58,49 -23,13 -68,27 -56,-12 5,-15 50,-36 63,-47 32,-25 58,-55 89,-81 20,-17 59,-35 73,-54 17,-22 8,-34 -13,-35 -7,0 -15,0 -24,2 -44,9 -73,75 -114,74 -31,-1 -32,-55 -68,-53 -46,3 -58,64 -70,94 -7,16 -11,34 -24,48 -15,16 -56,19 -60,44 -4,23 28,27 30,46 4,48 -63,34 -97,36 -24,1 -43,1 -65,14 -29,17 -19,25 -35,47 -27,37 -85,27 -113,60 -36,43 10,32 41,47 20,10 23,24 36,36 30,28 74,27 121,-6 40,-28 45,-81 95,-96 66,-20 155,104 203,9 21,-43 -35,-35 -31,-69 6,-45 78,-47 107,-48 36,-2 79,-8 101,-46 22,-36 -12,-53 35,-81 23,-14 58,-19 90,-26l-51 -90c-28,15 -56,34 -78,47z"/>
     <path class="fil19" d="M-235 1022c20,-43 -20,-73 -64,-67 -19,3 -41,12 -63,24l51 90c33,-8 62,-19 75,-47z"/>
     <path class="fil19" d="M98 1419c7,-31 -64,-35 -76,-54 -16,-26 26,-57 10,-80 -21,-31 -98,6 -122,22 -22,15 -40,31 -56,48l65 115c32,-7 62,-12 76,-13 20,-2 97,-12 103,-39z"/>
     <path class="fil19" d="M-505 621c65,-45 53,-97 -23,-102 -41,-3 -66,5 -83,21l60 104c16,-6 32,-13 47,-23z"/>
     <path class="fil19" d="M1201 -344c-15,79 -63,39 -121,64 -33,14 -41,56 -59,81 -27,36 -66,107 -123,101 -54,-6 -7,-38 -42,-53 -24,-10 -70,33 -79,51 -12,23 -3,49 -18,73 -17,29 -59,39 -64,70 -6,33 18,37 -3,75 -12,23 -52,61 -24,84 37,29 71,-25 84,-48 21,-36 34,-68 83,-78 35,-7 71,15 104,-5 37,-22 16,-51 33,-79 27,-44 90,-44 132,-59 39,-14 101,-58 100,-100 -2,-45 -49,-52 -13,-103 26,-36 66,-45 104,-59l-60 -104c-22,20 -30,53 -37,91z"/>
     <path class="fil22" d="M1380 -186l-48 -84c-20,8 -34,9 -60,2 -18,-5 -153,-75 -146,1 3,27 50,39 54,66 7,49 -71,42 -103,69 -32,27 -29,72 -62,103 -28,26 -96,79 -56,118 43,43 85,-40 114,-58 57,-34 56,26 93,42 72,33 44,-47 50,-76 15,-70 72,-20 110,-30 34,-8 18,-29 39,-47 18,-15 45,-11 68,-12l-39 -68c-15,1 -24,-5 -16,-28z"/>
     <path class="fil22" d="M-379 800c-15,-1 -52,16 -75,17l39 68c5,0 10,0 15,-1 48,-9 85,-78 21,-84z"/>
     <path class="fil22" d="M-465 777c13,-28 88,-82 22,-102 -29,-9 -43,15 -63,25 -4,2 -8,4 -12,5l48 84c1,-4 3,-8 5,-12z"/>
     <path class="fil22" d="M1533 203c-13,56 106,73 94,138 -4,20 -22,33 -21,57 0,24 12,40 19,62 7,22 3,119 -41,90 -9,-6 -13,-43 -20,-55 -9,-16 -22,-28 -32,-46 -19,-34 -35,-73 -47,-108 -11,-31 -16,-74 -55,-88 -52,58 -4,192 30,242 25,36 75,71 81,117 4,36 -26,87 -72,76 -31,-7 -64,-74 -107,-44 -48,33 50,83 -11,107 -24,10 -53,-14 -79,-6 -32,10 -40,40 -21,59 21,22 198,26 131,80 -18,15 -169,29 -117,69 63,48 257,-75 266,-141 2,-16 -28,-39 14,-44 34,-4 57,69 83,86 58,38 88,3 73,-50 -20,-73 37,-21 79,-6 33,13 118,4 157,-13l-26 -45c-22,-3 -63,-1 -71,-17 -11,-24 18,-31 41,-36l-22 -39c-58,1 -119,-7 -67,-60 7,-7 17,-10 27,-10l-234 -411c-20,-8 -40,-3 -49,35z"/>
     <path class="fil22" d="M42 1661c27,-7 105,-27 37,-39 -8,-1 -40,2 -74,2l22 39c5,-1 10,-2 14,-3z"/>
     <path class="fil22" d="M99 1544c38,-56 -122,-69 -153,-88 -44,-27 -46,-51 -17,-90 15,-20 36,-46 8,-66 -23,-16 -50,4 -75,2 -50,-5 -51,-69 -70,-103 -9,-16 -35,-46 -59,-56l234 411c41,0 102,34 133,-11z"/>
     <path class="fil22" d="M65 1718c-2,-1 -4,-1 -7,-1l26 45c27,-12 31,-28 -19,-44z"/>
     <path class="fil22" d="M1918 1121l159 -84 -26 -46c-33,27 -62,62 -73,74 -18,21 -38,39 -59,56z"/>
     <path class="fil22" d="M1583 1234c-69,-13 -85,67 -110,101 -13,18 -40,35 -61,54l177 -93c4,-26 24,-56 -6,-62z"/>
     <path class="fil22" d="M201 1967l26 46 83 -44c0,-2 -1,-5 -2,-8 -20,-49 -66,-28 -107,6z"/>
     <path class="fil22" d="M-602 369l-83 44 13 24c38,-20 73,-40 69,-67z"/>
     <path class="fil22" d="M468 -149c12,56 49,-2 76,-12 51,-19 41,-3 71,20 16,12 27,62 60,12 20,-31 -27,-51 14,-69 20,-9 54,18 76,14 21,-4 64,-32 76,-49 22,-30 30,-41 -12,-62 65,-78 75,60 69,91 -4,21 -25,83 -10,99 22,25 67,-1 87,-27 27,-35 8,-36 8,-73 0,-34 28,-53 32,-78 10,-59 -61,-92 45,-119 78,-20 151,-43 33,-75 9,-23 49,-41 86,-61l-13 -24 -159 84c-49,39 -104,68 -157,105 -44,30 -93,138 -158,103 -15,-8 -17,-20 -16,-34l-177 93c-21,18 -37,39 -32,63z"/>
     <path class="fil21" d="M45 1681c-2,0 -5,-1 -7,-1l32 55c15,-25 19,-45 -25,-54z"/>
     <path class="fil21" d="M1794 813c-4,70 -36,41 -84,77 -24,17 -26,32 -56,44 -24,10 -84,0 -90,30 -6,29 39,35 61,29 10,-3 134,-66 106,-24 -7,11 -52,24 -66,38 -18,18 -24,35 -51,42 -13,4 -197,-18 -160,38 4,6 9,9 14,11 17,6 36,-1 43,23 5,18 -15,44 6,56 36,21 53,-36 79,-47 42,-18 95,63 120,13 13,-27 -31,-65 20,-77 43,-10 49,48 95,36 61,-16 39,-49 32,-76 -10,-39 -37,-36 16,-70 26,-17 76,-10 84,-53 10,-56 -44,-23 -70,-41 -38,-27 5,-68 26,-102l-32 -55c-85,-13 -90,60 -93,109z"/>
     <path class="fil21" d="M1706 395c-33,5 -18,-26 -50,-36 -82,-24 -67,106 -97,132 -40,35 -73,-24 -99,-48 -20,-18 -18,-37 -52,-35 -25,1 -31,38 -61,29 -52,-14 -12,-99 -29,-132 -52,-104 -57,47 -55,80 4,65 16,111 99,124 29,5 74,-7 95,17 32,38 -34,111 58,118 59,4 105,-62 131,-103 0,0 0,0 0,0 27,-41 30,-32 69,-56 9,-5 21,-13 35,-22l-40 -70c-1,0 -3,1 -4,1z"/>
     <path class="fil21" d="M-17 1319c-54,-58 -85,37 -122,50l40 70c49,-33 115,-85 83,-119z"/>
     <path class="fil19" d="M136 1570c57,38 140,-29 92,-81 54,-47 115,19 171,12 59,-8 144,-65 83,-109 63,-65 188,7 239,-55 33,-40 -82,-54 -101,-68 -81,-60 56,-112 92,-162 13,-19 4,-41 17,-58 28,-40 121,-34 127,-92 9,-88 -140,-20 -177,7 -82,61 -131,178 -234,214 -62,22 -78,5 -73,-59 2,-26 14,-35 -16,-43 -16,-4 -56,8 -68,21 -29,30 3,65 -15,103 -35,73 -169,131 -245,101 -41,-16 -57,-65 -106,-70 -59,-6 -76,37 -41,66 19,16 54,34 54,61 0,5 -1,10 -4,16 -7,14 -26,24 -48,33l95 167c13,-8 24,-20 36,-30 68,-54 74,-7 123,26z"/>
     <path class="fil19" d="M1664 466c-21,19 -93,95 -62,121 20,17 78,-34 108,-39 60,-8 33,25 65,49 20,15 37,11 52,2l-95 -167c-25,11 -53,21 -68,34z"/>
     <path class="fil22" d="M180 1931c2,4 5,9 8,14l-11 -19c1,2 1,3 2,5z"/>
     <path class="fil22" d="M1844 718c-8,26 17,47 36,62 24,19 52,29 76,45l-78 -136c-16,2 -29,11 -35,29z"/>
     <path class="fil22" d="M2030 956c2,4 5,9 8,14l-11 -19c1,2 1,3 2,5z"/>
     <path class="fil22" d="M279 1956c20,-49 -64,-112 -35,-152 23,-32 20,9 32,14 27,12 49,3 73,-17 62,-52 24,-115 57,-174 24,-45 148,-93 150,-138 3,-70 -157,43 -176,61 -29,28 -48,61 -75,89 -26,27 -29,22 -59,24 -26,2 -42,-9 -59,23 -11,21 9,51 -27,59 -41,9 -70,-65 -102,-77 -9,-3 -19,-5 -28,-4l78 136c8,6 16,12 23,19 29,32 33,68 49,106l11 19c22,29 71,59 90,12z"/>
     <path class="fil21" d="M1207 -490l-41 -73 -90 47c-2,63 98,96 131,25z"/>
     <path class="fil21" d="M2002 906c-3,0 -7,0 -10,0 -97,13 7,80 15,97 15,32 -13,42 -19,72 -1,3 -1,6 -1,9l90 -47 -75 -131z"/>
     <path class="fil21" d="M453 1850c13,-27 65,-40 92,-44 32,-6 70,-1 95,-31 29,-35 8,-56 -29,-66 -38,-10 -73,-2 -108,17 -33,18 -65,61 -97,35 -19,-15 -5,-69 -50,-56 -21,6 -36,60 -47,76 -28,-4 -37,-20 -59,0 -29,26 1,79 -37,102 -20,12 -41,0 -62,-1l75 131 224 -118c-1,-15 -6,-29 2,-45z"/>
     <path class="fil21" d="M-581 393c44,-14 84,-18 111,-61 9,-15 10,-27 9,-38l-224 118 41 73c1,-1 1,-2 2,-3 21,-49 -6,-68 61,-89z"/>
     <path class="fil22" d="M1509 198c-26,37 -22,93 31,59 20,-13 28,-30 52,-39 6,-2 11,-3 16,-4l-41 -71c-23,16 -44,35 -59,55z"/>
     <path class="fil22" d="M-95 1139c25,2 33,22 62,4 38,-24 4,-38 8,-54 18,-64 96,-30 135,-17 31,10 164,31 141,-43 -12,-38 -129,-31 -38,-84 71,-41 144,-55 210,-110 13,-11 71,-58 60,-76 -10,-18 -52,1 -66,1 17,-39 60,-54 92,-81 28,-25 29,-59 53,-83 24,-23 59,-24 89,-34 35,-11 52,-27 79,-49 19,-16 41,-19 35,-46 -5,-23 -38,-29 -61,-29 -36,1 -74,22 -104,39 -62,35 -124,82 -171,133 -45,48 -38,104 -111,134 -51,21 -132,18 -170,57 -17,18 -18,42 -41,57 -19,13 -46,13 -65,26 -16,11 -21,31 -36,41 -27,18 -63,16 -93,24 -17,5 -49,8 -54,30 -7,26 24,17 26,35 3,29 -76,50 -102,64 -20,11 -42,23 -63,38l41 71c17,-2 28,5 47,3 47,-5 47,-57 100,-53z"/>
    </g>
   </g>
  </g>
  <path class="fil3" d="M1082 115c152,67 269,193 361,324 54,77 203,28 107,127 -218,222 -1068,675 -1416,736 -124,22 -5,-59 -49,-164 -59,-142 -100,-298 -78,-452 56,-394 695,-740 1076,-571z"/>
  <path class="fil23" style="mask:url(#id5)" d="M1082 115c152,67 269,193 361,324 54,77 203,28 107,127 -218,222 -1068,675 -1416,736 -124,22 -5,-59 -49,-164 -59,-142 -100,-298 -78,-452 56,-394 695,-740 1076,-571z"/>
  <path class="fil5" d="M1254 2218c-12,-12 -30,-17 -48,-12 -27,7 -43,35 -35,62 7,26 34,42 60,36 7,26 14,52 21,78 14,-4 28,-8 42,-11 -5,-25 -9,-50 -14,-74 -5,-24 -7,-60 -26,-78z"/>
  <path class="fil5" d="M529 2394c-15,17 -26,35 -32,52l-6 19c-4,22 -1,40 11,51 25,22 78,3 118,-43 40,-46 52,-100 26,-122 -25,-22 -78,-3 -118,43z"/>
  <path class="fil5" d="M2614 2055c3,22 0,44 -5,62l-8 19c-11,21 -27,35 -47,37 -40,5 -78,-40 -85,-100 -7,-60 20,-114 60,-119 40,-5 78,40 85,100z"/>
  <polygon class="fil5" points="1670,1490 1807,1655 1632,1580 1120,1503 "/>
  <path class="fil3 str0" d="M644 1905c198,206 384,323 556,331 123,-94 128,-206 129,-318"/>
  <path class="fil24" d="M2209 2165c0,0 22,45 10,118 -11,73 -25,129 -48,190 -23,61 -63,176 -76,179 -12,3 -35,40 -55,91 -20,51 -44,92 -8,102 37,10 123,30 169,46 46,16 112,48 136,20 23,-28 7,-119 7,-119 0,0 -9,-252 -7,-340 2,-88 5,-173 35,-242 30,-70 53,-110 94,-88 41,23 71,187 85,193 14,6 31,-14 76,-49 44,-35 55,-42 53,-57 -2,-15 -133,-207 -133,-207 0,0 33,11 57,-48 24,-59 2,-78 -17,-86 -19,-7 -44,-2 -44,-2 0,0 20,-18 13,-25 -7,-6 -23,-22 -23,-22 0,0 41,19 48,15 7,-5 11,-9 19,-6 8,3 11,-1 14,-8 2,-6 -11,-15 -11,-15l13 -1 3 -8 133 51 87 -219 -228 -87c0,0 10,-11 5,-13 -5,-2 -25,-13 -20,-24 109,-286 215,-528 345,-857 -12,-36 -4,-69 7,-100l209 -538 -39 -10 -211 531c-10,25 -37,61 -67,70l-448 1061 -43 -17c0,0 3,-8 -3,-10 -6,-2 -22,-6 -20,-15 1,-9 8,-25 17,-25 9,0 18,-43 -22,-58 -40,-15 -54,-19 -71,-7 -17,12 -11,18 -11,18 0,0 11,4 9,11 -2,6 -23,37 -23,46 0,9 8,8 8,8l-47 120c0,0 -18,-11 -26,-4 -8,6 -21,31 -23,46 -2,16 16,26 16,26l-101 280c0,0 -15,-15 -16,18 -1,33 23,36 40,41 17,5 55,6 62,-13 7,-19 -4,-20 0,-28 3,-8 45,-114 45,-114l76 22 -17 40c0,0 -18,-20 -27,4 -9,24 -11,47 -11,47 0,0 -29,-7 -38,-5 -10,2 2,15 10,18 8,3 -3,27 6,41 9,15 31,12 31,12z"/>
  <g style="clip-path:url(#id7)">
   <g>
    <path id="1" class="fil25" d="M2332 3232c54,-311 107,-622 161,-934 -15,-60 -29,-120 -44,-180 -53,-59 -112,-107 -190,-114 -27,13 -54,26 -81,39 -11,21 -21,41 -32,62 -2,16 -3,31 -5,47l-475 762 667 317z"/>
    <path class="fil26" d="M3055 687c-125,143 -347,593 -440,861 -61,177 -80,205 -72,285 85,37 89,74 75,110 -12,33 -30,60 -67,69 -15,3 -69,113 -92,114 -61,2 -132,-69 -210,-98 10,-53 90,-219 139,-364 129,-376 334,-873 419,-1079l248 104z"/>
   </g>
  </g>
  <path class="fil3" d="M2209 2165c0,0 22,45 10,118 -11,73 -25,129 -48,190 -23,61 -63,176 -76,179 -12,3 -35,40 -55,91 -20,51 -44,92 -8,102 37,10 123,30 169,46 46,16 112,48 136,20 23,-28 7,-119 7,-119 0,0 -9,-252 -7,-340 2,-88 5,-173 35,-242 30,-70 53,-110 94,-88 41,23 71,187 85,193 14,6 31,-14 76,-49 44,-35 55,-42 53,-57 -2,-15 -133,-207 -133,-207 0,0 33,11 57,-48 24,-59 2,-78 -17,-86 -19,-7 -44,-2 -44,-2 0,0 20,-18 13,-25 -7,-6 -23,-22 -23,-22 0,0 41,19 48,15 7,-5 11,-9 19,-6 8,3 11,-1 14,-8 2,-6 -11,-15 -11,-15l13 -1 3 -8 133 51 87 -219 -228 -87c0,0 10,-11 5,-13 -5,-2 -25,-13 -20,-24 109,-286 215,-528 345,-857 -12,-36 -4,-69 7,-100l209 -538 -39 -10 -211 531c-10,25 -37,61 -67,70l-448 1061 -43 -17c0,0 3,-8 -3,-10 -6,-2 -22,-6 -20,-15 1,-9 8,-25 17,-25 9,0 18,-43 -22,-58 -40,-15 -54,-19 -71,-7 -17,12 -11,18 -11,18 0,0 11,4 9,11 -2,6 -23,37 -23,46 0,9 8,8 8,8l-47 120c0,0 -18,-11 -26,-4 -8,6 -21,31 -23,46 -2,16 16,26 16,26l-101 280c0,0 -15,-15 -16,18 -1,33 23,36 40,41 17,5 55,6 62,-13 7,-19 -4,-20 0,-28 3,-8 45,-114 45,-114l76 22 -17 40c0,0 -18,-20 -27,4 -9,24 -11,47 -11,47 0,0 -29,-7 -38,-5 -10,2 2,15 10,18 8,3 -3,27 6,41 9,15 31,12 31,12z"/>
 </g>
</svg>
