<?xml version="1.0" encoding="UTF-8"?>
<!DOCTYPE svg PUBLIC "-//W3C//DTD SVG 1.1//EN" "http://www.w3.org/Graphics/SVG/1.1/DTD/svg11.dtd">
<!-- Creator: CorelDRAW X6 -->
<svg xmlns="http://www.w3.org/2000/svg" xml:space="preserve" width="190.54mm" height="260.53mm" version="1.1" style="shape-rendering:geometricPrecision; text-rendering:geometricPrecision; image-rendering:optimizeQuality; fill-rule:evenodd; clip-rule:evenodd"
viewBox="0 0 19054 26053"
 xmlns:xlink="http://www.w3.org/1999/xlink">
 <defs>
  <style type="text/css">
   <![CDATA[
    .str2 {stroke:#2B2A29;stroke-width:7.62}
    .str1 {stroke:#356C36;stroke-width:7.62}
    .str0 {stroke:#FEFEFE;stroke-width:7.62}
    .fil49 {fill:none}
    .fil6 {fill:#115B0C}
    .fil0 {fill:#129840}
    .fil43 {fill:#217743}
    .fil29 {fill:#2B2A29}
    .fil3 {fill:#71C9ED}
    .fil20 {fill:#793532}
    .fil46 {fill:#99BF8A}
    .fil36 {fill:#A75F4A}
    .fil19 {fill:#A8D4AF}
    .fil18 {fill:#BA956E}
    .fil33 {fill:#D2CDE7}
    .fil35 {fill:#D48E50}
    .fil52 {fill:#DE9195}
    .fil57 {fill:#E31E24}
    .fil54 {fill:#E5097F}
    .fil34 {fill:#E5946F}
    .fil56 {fill:#E63D26}
    .fil59 {fill:#E64223}
    .fil21 {fill:#E9D19B}
    .fil30 {fill:#EBECEC}
    .fil26 {fill:#EC7061}
    .fil28 {fill:#EF7F1A}
    .fil50 {fill:#F4A492}
    .fil51 {fill:#F5B2B6}
    .fil27 {fill:#F6AD71}
    .fil25 {fill:#F7AA47}
    .fil32 {fill:#F9C098}
    .fil55 {fill:#FACDA8}
    .fil23 {fill:#FBD9CA}
    .fil58 {fill:#FCD8AC}
    .fil53 {fill:#FCE2CC}
    .fil31 {fill:#FEFEFE}
    .fil22 {fill:#FFFBDB}
    .fil24 {fill:#2B2A29;fill-rule:nonzero}
    .fil1 {fill:black;fill-opacity:0.000000}
    .fil9 {fill:url(#id32)}
    .fil5 {fill:url(#id33)}
    .fil4 {fill:url(#id34)}
    .fil39 {fill:url(#id35)}
    .fil41 {fill:url(#id36)}
    .fil40 {fill:url(#id37)}
    .fil42 {fill:url(#id38)}
    .fil44 {fill:url(#id39)}
    .fil38 {fill:url(#id40)}
    .fil45 {fill:url(#id41)}
    .fil17 {fill:url(#id42)}
    .fil11 {fill:url(#id43)}
    .fil47 {fill:url(#id44)}
    .fil13 {fill:url(#id45)}
    .fil10 {fill:url(#id46)}
    .fil48 {fill:url(#id47)}
    .fil15 {fill:url(#id48)}
    .fil12 {fill:url(#id49)}
    .fil37 {fill:url(#id50)}
    .fil14 {fill:url(#id51)}
    .fil7 {fill:url(#id52)}
    .fil8 {fill:url(#id53)}
    .fil16 {fill:url(#id54)}
    .fil2 {fill:url(#id55)}
   ]]>
  </style>
    <clipPath id="id0">
     <path d="M6 0l19048 0 0 26053 -19048 0 0 -26053z"/>
    </clipPath>
    <clipPath id="id1">
     <path d="M6 0l19048 0 0 26053 -19048 0 0 -26053z"/>
    </clipPath>
      <mask id="id2">
  <linearGradient id="id3" gradientUnits="userSpaceOnUse" x1="2706.92" y1="15254.6" x2="54.08" y2="10405.4">
   <stop offset="0" style="stop-opacity:1; stop-color:white"/>
   <stop offset="1" style="stop-opacity:0; stop-color:white"/>
  </linearGradient>
       <rect style="fill:url(#id3)" x="-1384" y="11186" width="5529" height="3288"/>
      </mask>
      <mask id="id4">
  <linearGradient id="id5" gradientUnits="userSpaceOnUse" x1="12664" y1="13903.5" x2="10771.2" y2="11020.8">
   <stop offset="0" style="stop-opacity:1; stop-color:white"/>
   <stop offset="1" style="stop-opacity:0; stop-color:white"/>
  </linearGradient>
       <rect style="fill:url(#id5)" x="10587" y="11135" width="2260" height="2654"/>
      </mask>
      <mask id="id6">
  <linearGradient id="id7" gradientUnits="userSpaceOnUse" x1="-4005.94" y1="24571.2" x2="8887.94" y2="22229.8">
   <stop offset="0" style="stop-opacity:1; stop-color:white"/>
   <stop offset="1" style="stop-opacity:0; stop-color:white"/>
  </linearGradient>
       <rect style="fill:url(#id7)" x="-3980" y="22061" width="12842" height="2679"/>
      </mask>
      <mask id="id8">
  <linearGradient id="id9" gradientUnits="userSpaceOnUse" x1="3395" y1="19381" x2="1483" y2="25271.1">
   <stop offset="0" style="stop-opacity:1; stop-color:white"/>
   <stop offset="1" style="stop-opacity:0; stop-color:white"/>
  </linearGradient>
       <rect style="fill:url(#id9)" x="-3980" y="21149" width="12838" height="2354"/>
      </mask>
      <mask id="id10">
  <linearGradient id="id11" gradientUnits="userSpaceOnUse" x1="2934" y1="21147" x2="2934" y2="16223">
   <stop offset="0" style="stop-opacity:1; stop-color:white"/>
   <stop offset="1" style="stop-opacity:0; stop-color:white"/>
  </linearGradient>
       <rect style="fill:url(#id11)" x="468" y="16219" width="4932" height="4932"/>
      </mask>
      <mask id="id12">
  <linearGradient id="id13" gradientUnits="userSpaceOnUse" x1="-11221" y1="13001.1" x2="10337" y2="13001.1">
   <stop offset="0" style="stop-opacity:1; stop-color:white"/>
   <stop offset="1" style="stop-opacity:0; stop-color:white"/>
  </linearGradient>
       <rect style="fill:url(#id13)" x="-11225" y="-2544" width="21566" height="31090"/>
      </mask>
    <clipPath id="id14">
     <path d="M7579 20422l2861 0 0 -2861 -2861 0 0 2861z"/>
    </clipPath>
     <mask id="id15">
  <linearGradient id="id16" gradientUnits="userSpaceOnUse" x1="9009.5" y1="20422" x2="9009.5" y2="17561">
   <stop offset="0" style="stop-opacity:1; stop-color:white"/>
   <stop offset="1" style="stop-opacity:0; stop-color:white"/>
  </linearGradient>
      <rect style="fill:url(#id16)" x="7579" y="17561" width="2861" height="2861"/>
     </mask>
    <clipPath id="id17">
     <path d="M7579 20422l2861 0 0 -2861 -2861 0 0 2861z"/>
    </clipPath>
      <mask id="id18">
  <linearGradient id="id19" gradientUnits="userSpaceOnUse" x1="9009" y1="20418" x2="9009" y2="17564">
   <stop offset="0" style="stop-opacity:1; stop-color:white"/>
   <stop offset="1" style="stop-opacity:0; stop-color:white"/>
  </linearGradient>
       <rect style="fill:url(#id19)" x="7578" y="17560" width="2862" height="2862"/>
      </mask>
    <clipPath id="id20">
     <path d="M15070 21142l2813 0 0 -2813 -2813 0 0 2813z"/>
    </clipPath>
     <mask id="id21">
  <linearGradient id="id22" gradientUnits="userSpaceOnUse" x1="15931.2" y1="21420.7" x2="17021.8" y2="18050.3">
   <stop offset="0" style="stop-opacity:1; stop-color:white"/>
   <stop offset="1" style="stop-opacity:0; stop-color:white"/>
  </linearGradient>
      <rect style="fill:url(#id22)" x="15070" y="18329" width="2813" height="2813"/>
     </mask>
    <clipPath id="id23">
     <path d="M15070 21142l2813 0 0 -2813 -2813 0 0 2813z"/>
    </clipPath>
      <mask id="id24">
  <linearGradient id="id25" gradientUnits="userSpaceOnUse" x1="15932.6" y1="21416.2" x2="17020.4" y2="18054.8">
   <stop offset="0" style="stop-opacity:1; stop-color:white"/>
   <stop offset="1" style="stop-opacity:0; stop-color:white"/>
  </linearGradient>
       <rect style="fill:url(#id25)" x="15070" y="18329" width="2813" height="2813"/>
      </mask>
    <clipPath id="id26">
     <path d="M11743 20712l2813 0 0 -2813 -2813 0 0 2813z"/>
    </clipPath>
     <mask id="id27">
  <linearGradient id="id28" gradientUnits="userSpaceOnUse" x1="13149.5" y1="20712" x2="13149.5" y2="17899">
   <stop offset="0" style="stop-opacity:1; stop-color:white"/>
   <stop offset="1" style="stop-opacity:0; stop-color:white"/>
  </linearGradient>
      <rect style="fill:url(#id28)" x="11743" y="17899" width="2813" height="2813"/>
     </mask>
    <clipPath id="id29">
     <path d="M11743 20712l2813 0 0 -2813 -2813 0 0 2813z"/>
    </clipPath>
      <mask id="id30">
  <linearGradient id="id31" gradientUnits="userSpaceOnUse" x1="13149" y1="20706" x2="13149" y2="17902">
   <stop offset="0" style="stop-opacity:1; stop-color:white"/>
   <stop offset="1" style="stop-opacity:0; stop-color:white"/>
  </linearGradient>
       <rect style="fill:url(#id31)" x="11743" y="17898" width="2812" height="2812"/>
      </mask>
  <linearGradient id="id32" gradientUnits="userSpaceOnUse" x1="9530.5" y1="24333" x2="9530.5" y2="18848">
   <stop offset="0" style="stop-color:#129840"/>
   <stop offset="0.501961" style="stop-color:#9CC428"/>
   <stop offset="1" style="stop-color:#9CC428"/>
  </linearGradient>
  <linearGradient id="id33" gradientUnits="userSpaceOnUse" x1="9529.5" y1="21782" x2="9529.5" y2="15104">
   <stop offset="0" style="stop-color:#7FBA31"/>
   <stop offset="0.360784" style="stop-color:#1B6D39"/>
   <stop offset="1" style="stop-color:#1B6D39"/>
  </linearGradient>
  <linearGradient id="id34" gradientUnits="userSpaceOnUse" x1="9530.5" y1="16666" x2="9530.5" y2="7658">
   <stop offset="0" style="stop-color:#A2D9F7"/>
   <stop offset="0.341176" style="stop-color:#D0EBFA"/>
   <stop offset="1" style="stop-color:#FEFEFE"/>
  </linearGradient>
  <linearGradient id="id35" gradientUnits="userSpaceOnUse" x1="-1985.5" y1="822" x2="-1985.5" y2="6317">
   <stop offset="0" style="stop-color:#B8C624"/>
   <stop offset="0.501961" style="stop-color:#427C42"/>
   <stop offset="1" style="stop-color:#427C42"/>
  </linearGradient>
  <linearGradient id="id36" gradientUnits="userSpaceOnUse" xlink:href="#id35" x1="-422.5" y1="-5084" x2="-422.5" y2="411">
  </linearGradient>
  <linearGradient id="id37" gradientUnits="userSpaceOnUse" xlink:href="#id35" x1="2715.5" y1="-1794" x2="2715.5" y2="3701">
  </linearGradient>
  <linearGradient id="id38" gradientUnits="userSpaceOnUse" xlink:href="#id35" x1="7221.5" y1="-5345" x2="7221.5" y2="150">
  </linearGradient>
  <linearGradient id="id39" gradientUnits="userSpaceOnUse" xlink:href="#id35" x1="12085.5" y1="-5258" x2="12085.5" y2="237">
  </linearGradient>
  <linearGradient id="id40" gradientUnits="userSpaceOnUse" xlink:href="#id35" x1="14343.5" y1="-3868" x2="14343.5" y2="1627">
  </linearGradient>
  <linearGradient id="id41" gradientUnits="userSpaceOnUse" xlink:href="#id35" x1="15906.5" y1="-7255" x2="15906.5" y2="-1760">
  </linearGradient>
  <linearGradient id="id42" gradientUnits="userSpaceOnUse" x1="14744.5" y1="9406" x2="14744.5" y2="11469">
   <stop offset="0" style="stop-color:#FEFEFE"/>
   <stop offset="0.501961" style="stop-color:#E9F6FD"/>
   <stop offset="1" style="stop-color:#E9F6FD"/>
  </linearGradient>
  <linearGradient id="id43" gradientUnits="userSpaceOnUse" x1="1380.5" y1="11190" x2="1380.5" y2="14470">
   <stop offset="0" style="stop-color:#FEFEFE"/>
   <stop offset="0.501961" style="stop-color:#00A0E3"/>
   <stop offset="0.529412" style="stop-color:#7FCFF1"/>
   <stop offset="1" style="stop-color:#7FCFF1"/>
  </linearGradient>
  <linearGradient id="id44" gradientUnits="userSpaceOnUse" x1="-489.18" y1="24345.3" x2="10111.2" y2="22499.7">
   <stop offset="0" style="stop-color:#31522E"/>
   <stop offset="0.501961" style="stop-color:#388D3E"/>
   <stop offset="1" style="stop-color:#388D3E"/>
  </linearGradient>
  <linearGradient id="id45" gradientUnits="userSpaceOnUse" x1="21210.8" y1="23589" x2="10847.2" y2="21761">
   <stop offset="0" style="stop-color:#31522E"/>
   <stop offset="0.501961" style="stop-color:#388D3E"/>
   <stop offset="1" style="stop-color:#388D3E"/>
  </linearGradient>
  <linearGradient id="id46" gradientUnits="userSpaceOnUse" x1="19312" y1="10891.9" x2="16909" y2="13746.1">
   <stop offset="0" style="stop-color:#FEFEFE"/>
   <stop offset="0.501961" style="stop-color:#D7EEFB"/>
   <stop offset="1" style="stop-color:#D7EEFB"/>
  </linearGradient>
  <linearGradient id="id47" gradientUnits="userSpaceOnUse" x1="4493.28" y1="25487.7" x2="411.72" y2="22063.3">
   <stop offset="0" style="stop-color:#2E3E2C"/>
   <stop offset="0.501961" style="stop-color:#39A13E"/>
   <stop offset="1" style="stop-color:#39A13E"/>
  </linearGradient>
  <linearGradient id="id48" gradientUnits="userSpaceOnUse" xlink:href="#id47" x1="20489.3" y1="24703.7" x2="16407.7" y2="21279.3">
  </linearGradient>
  <linearGradient id="id49" gradientUnits="userSpaceOnUse" x1="10943.2" y1="11131.9" x2="12492" y2="13792.4">
   <stop offset="0" style="stop-color:#FEFEFE"/>
   <stop offset="0.501961" style="stop-color:#A2D9F7"/>
   <stop offset="1" style="stop-color:#A2D9F7"/>
  </linearGradient>
  <linearGradient id="id50" gradientUnits="userSpaceOnUse" x1="-330.02" y1="-13914.3" x2="1756.02" y2="3687.27">
   <stop offset="0" style="stop-color:#B8C624"/>
   <stop offset="0.501961" style="stop-color:#3D6B3F"/>
   <stop offset="1" style="stop-color:#3D6B3F"/>
  </linearGradient>
  <linearGradient id="id51" gradientUnits="userSpaceOnUse" x1="1209.59" y1="24473.5" x2="1910.41" y2="20499.5">
   <stop offset="0" style="stop-color:#31522E"/>
   <stop offset="0.501961" style="stop-color:#388D3E"/>
   <stop offset="1" style="stop-color:#388D3E"/>
  </linearGradient>
  <linearGradient id="id52" gradientUnits="userSpaceOnUse" x1="3903.19" y1="24920.8" x2="15157.8" y2="13666.2">
   <stop offset="0" style="stop-color:#0F9540"/>
   <stop offset="0.501961" style="stop-color:#C5D30D"/>
   <stop offset="1" style="stop-color:#C5D30D"/>
  </linearGradient>
  <linearGradient id="id53" gradientUnits="userSpaceOnUse" x1="10339.1" y1="23400.1" x2="8911.87" y2="15304.9">
   <stop offset="0" style="stop-color:#1A873E"/>
   <stop offset="0.501961" style="stop-color:#CFD600"/>
   <stop offset="1" style="stop-color:#CFD600"/>
  </linearGradient>
  <linearGradient id="id54" gradientUnits="userSpaceOnUse" x1="525.21" y1="24646.4" x2="1711.79" y2="21383.6">
   <stop offset="0" style="stop-color:#314B2C"/>
   <stop offset="0.501961" style="stop-color:#388D3E"/>
   <stop offset="1" style="stop-color:#388D3E"/>
  </linearGradient>
  <radialGradient id="id55" gradientUnits="objectBoundingBox" cx="50%" cy="59%" r="0%" fx="50%" fy="59%">
   <stop offset="0" style="stop-color:#7FCFF0"/>
   <stop offset="0.65098" style="stop-color:#7FCFF0"/>
   <stop offset="1" style="stop-color:#00A0E3"/>
   <stop offset="1" style="stop-color:#00A0E3"/>
  </radialGradient>
 </defs>
 <g id="Layer_x0020_1">
  <metadata id="CorelCorpID_0Corel-Layer"/>
  <g id="_827148976">
   <rect class="fil0" y="24257" width="19054" height="867"/>
   <g style="clip-path:url(#id0)">
    <polygon class="fil1" points="6,0 19054,0 19054,26053 6,26053 "/>
   </g>
   <g style="clip-path:url(#id1)">
    <g>
     <polygon id="1" class="fil2" points="21185,24333 -2124,24333 -2124,-3785 21185,-3785 "/>
     <polygon class="fil3" points="21185,-2267 9418,16540 21185,2063 "/>
     <polygon class="fil3" points="9414,-3785 11063,15740 6469,-3785 "/>
     <polygon class="fil3" points="19627,-3785 10400,16388 16735,-3785 "/>
     <polygon class="fil3" points="11251,15785 -2124,441 -2124,-3785 -1368,-3785 11253,15782 "/>
     <polygon class="fil3" points="14690,-3785 11150,15723 11612,-3785 "/>
     <polygon class="fil3" points="4215,-3785 11228,16036 1030,-3785 "/>
     <polygon class="fil3" points="21185,6887 9345,15249 21185,4351 "/>
     <polygon class="fil3" points="-2124,3287 11930,15583 -2124,7118 "/>
     <path class="fil4" d="M-2124 9876c202,-727 1061,-1143 1788,-809 287,-548 1206,-572 1592,-183 809,-261 1462,-131 1688,643 818,-173 1053,127 1453,800 357,-347 1286,-85 1349,776 25,348 133,690 300,1005 295,-901 1048,-962 2167,-456 -274,-940 1449,-1723 2101,-861 235,-705 1462,-705 1697,-235 78,-522 1253,-666 1410,-196 352,-666 1344,-809 1762,-235 52,-574 1111,-788 1488,-313 587,-548 940,-548 1370,-157 -235,-509 144,-1083 666,-901 -78,-653 561,-757 901,-470 666,-626 783,235 783,235 587,-548 794,744 794,744l0 6591 -15274 190c-3160,267 -8035,622 -8035,622l0 -6790z"/>
     <path class="fil5" d="M-2124 15786c0,0 2890,602 4952,-36 1559,-483 2760,-646 4346,-470 1530,170 3113,646 4346,705 1112,53 3708,-651 4992,-705 1410,-59 1675,-34 2855,94 1180,128 1817,255 1817,255l-32 6153 -23243 -32 -34 -5963 0 -2 1 1z"/>
     <path class="fil6" d="M1468 17430c-26,-43 -11,-123 -77,-82 -29,-20 -46,-6 -55,3 10,-56 -11,-54 -69,-57 -6,-41 -66,-29 -53,8 -28,-21 -48,-43 -83,-10 -8,-20 -41,-31 -51,10 -22,-27 -57,-14 -69,42 -28,-22 -56,-23 -81,22 2,-31 -19,-81 -53,-42 -26,-28 -53,-18 -74,25 6,-32 -15,-64 -61,-33 -3,-36 -73,-73 -118,-23 -23,-46 -133,-48 -135,33 -43,-72 -166,-5 -165,37 -22,-28 -91,24 -79,62 -26,-10 -40,-9 -37,42 -36,-8 -46,20 -33,58 -21,-55 -123,-137 -176,-68 -11,-45 -91,-68 -108,-12 -32,-50 -91,-36 -107,38 -14,-69 -123,-177 -178,-53 -31,-52 -96,-64 -147,31 -47,-73 -143,-114 -179,-26 -39,-60 -120,-93 -180,4 -23,-37 -145,-28 -165,29 -22,-31 -83,-18 -98,38 -29,-57 -138,-30 -131,57 -80,-37 -267,-14 -283,73 -107,-5 -161,27 -200,77 6,-9 -36,-49 -51,-19 -42,-34 -100,-33 -134,-6 -34,-14 -64,10 -62,39 -98,20 -98,105 -98,158 0,4 0,8 0,12l0 11c0,33 5,68 0,117l0 30 308 71 3284 -697 -2 1z"/>
     <path class="fil7" d="M-2124 18057c0,0 6568,-1346 8832,-1442 2264,-96 3651,706 5468,1025 1817,319 8720,665 9007,633 1,8 2,19 2,32l0 3456c-1,172 -2,275 -2,275l-23306 32 0 -4010 -1 -1z"/>
     <path class="fil8" d="M-1933 22742c0,0 9437,-3698 11159,-4177 1722,-478 11034,-2539 11958,-2666 0,701 -2,6907 -2,6907l-23115 -64z"/>
     <path class="fil6" d="M-2124 18410c33,-46 44,-80 119,-64 16,46 60,73 79,113 24,-33 48,-111 113,-92 98,0 122,101 160,162 31,-55 74,-172 151,-144 82,23 87,54 108,136 127,-75 228,-10 299,99 77,-64 218,-2 242,116 86,-140 197,-140 337,-69 75,-149 267,-28 324,78 148,-77 343,35 409,236 56,-184 282,-28 370,56 132,-98 321,-131 467,3 11,-219 233,-248 288,-135 34,-166 211,-82 278,-29 39,-164 332,-23 379,191 199,-110 273,-68 339,189 95,-33 214,36 213,213 73,-147 190,-46 283,11 113,-76 196,22 279,164 19,-99 148,-116 290,2 131,-1 71,1 99,45 101,-37 61,30 139,109 167,-115 292,-28 233,132 63,-30 134,-99 192,38 27,15 60,-111 86,-94 96,-102 248,-106 301,34 9,-12 129,-37 138,-49 167,-14 81,149 149,246 36,-8 69,-71 106,-79 132,23 162,131 66,219l-7036 701 0 -2537 0 -1z"/>
     <path class="fil9" d="M-2092 24333l-32 -5483 0 -2c0,0 10506,2050 13085,2050 2578,0 9257,-800 10224,-1979l0 43 0 49 0 54 0 58 0 63 0 68 0 72 0 76 0 80 0 83 0 87 0 90 0 93 0 96 0 99 0 102 0 104 0 106 0 108 0 110 0 111 0 227 0 115 0 116 0 117 0 117 0 118 0 118 0 118 0 117 0 117 0 116 0 115 0 114 0 225 0 110 0 108 0 107 0 104 0 102 0 100 0 97 0 94 0 91 0 88 0 84 0 80 0 77 0 73 0 68 0 64 0 59 0 55 0 50 0 45 0 39 0 34 0 28 0 22 0 16 0 10 0 3 -23276 4 -1 0z"/>
     <path class="fil10" d="M16550 11703c0,0 1056,589 762,939 333,101 431,303 282,446 195,194 303,314 179,568 220,-84 221,-441 540,-322 109,-236 259,-379 446,-282 167,-128 439,11 529,116 211,-180 383,-1200 -598,-1667 -1092,-519 -1983,-55 -2139,201l-1 1z"/>
     <path class="fil11" style="mask:url(#id2)" d="M-371 12211c268,361 60,1017 -384,1132 169,334 -592,1029 -625,1127 0,0 594,-605 1104,-690 207,-34 449,-104 690,207 69,-380 483,-759 794,-621 -69,-311 518,-483 932,-242 138,-414 932,-483 1035,-173 483,-380 759,-207 966,-173 -1311,-207 -1380,-932 -1380,-932 0,0 -998,336 -1208,-656 -308,647 -897,345 -1208,0 69,414 -207,1208 -716,1019l0 2z"/>
     <path class="fil12" style="mask:url(#id4)" d="M10709 13577c0,0 845,-724 1045,-380 194,-252 398,-278 470,-113 228,-110 365,-167 540,7 1,-208 -302,-308 -97,-542 -165,-157 -237,-322 -94,-452 -54,-176 152,-365 271,-412 -84,-227 -893,-653 -1609,41 -797,773 -694,1650 -527,1852l1 -1z"/>
     <path class="fil13" d="M21185 21105c-88,-86 -151,-6 -146,110 48,0 -87,-74 -43,-43 -6,14 -59,36 -23,86 -18,-16 -64,-29 -75,4 -54,-39 -79,-43 -95,29 -70,-83 -120,-20 -169,78 -36,-32 -107,21 -82,57 -64,-29 -74,-16 -102,71 -21,-14 -94,-21 -87,43 -61,-21 -101,65 -121,153 -16,-12 -136,-7 -139,57 -57,-29 -89,13 -114,61 -131,-99 -189,32 -186,96 -86,-39 -141,68 -129,113 -65,-22 -103,-123 -199,-45 -100,-71 -150,29 -200,103 -82,4 -144,24 -146,54 -41,-32 -143,-68 -193,18 -96,-64 -220,7 -225,89 -139,-25 -225,-39 -257,129 -25,-15 -121,17 -146,89 -75,-39 -70,38 -72,81 -32,-9 -56,-96 -85,-41 -50,10 -6,61 -9,89 -76,-112 -147,-103 -222,9 -8,-8 -8,-65 -64,-29 -61,-26 -67,19 -67,19 -29,-24 -54,-97 -114,-66 -40,12 -26,61 -38,86 -26,-43 -44,-120 -101,-90 -143,-73 -165,46 -255,7 -66,6 -102,49 -57,134 -35,-42 -64,-75 -102,-24 -57,-54 -169,27 -171,68 -124,-20 -193,-75 -243,98 -112,-18 -179,28 -165,141 -286,-99 -367,121 -393,196 -38,-13 -46,10 -69,70 0,-70 -13,-110 -68,-98 -2,-33 -65,-28 -59,-2 -45,-87 -76,-114 -110,-69 -23,-30 -92,-21 -80,32 -23,-25 -62,-47 -80,-3 -39,-74 -89,-129 -207,-6 -154,-79 -179,-88 -272,48 -221,-57 -498,-12 -430,374 -83,-14 -202,-117 -244,4 -64,-125 -66,-75 -186,-7 -43,-132 -92,3 -100,11 -68,-89 -72,19 -79,69 -46,-38 -74,-108 -103,-48 -86,-54 -66,37 -66,65 -63,-19 -213,-98 -231,27 -75,-132 -174,-35 -147,44 -47,-44 -113,-115 -124,-26 -64,-46 -104,24 -111,46 -118,-35 -211,-64 -189,75 -93,-139 -188,-112 -196,-25 -89,-29 -64,79 -38,117 -40,-9 -69,-135 -126,-35 0,0 -93,-143 -154,-55 -67,-109 -171,-98 -206,-20 6,28 -75,-104 -103,40 -90,-11 -44,-112 -143,-101 -64,-64 -74,26 -69,53 -80,-24 -81,-57 -188,32 -128,-47 -246,-57 -276,70 -117,-120 -256,-55 -260,141 -85,-11 -64,97 -31,134 -36,-18 -108,-109 -157,-41 -126,-83 -261,39 -240,139 -139,14 -100,137 -94,141l10275 0 0 -3228 -4 2z"/>
     <path class="fil14" d="M-2124 20969l0 -2 0 -2 0 -2c0,-50 3,-146 44,-123 25,11 23,19 32,37 5,-19 5,-57 45,-64 -33,-34 30,-143 112,-119 -5,-42 60,-50 65,-25 33,-31 84,31 70,57 87,-41 333,27 376,146 51,-38 56,22 44,57 24,-41 32,-49 91,-21 -4,-46 39,-46 50,-23 -2,-60 105,-63 107,0 32,-55 134,-18 130,25 21,-29 91,18 84,69 57,-55 226,-56 286,80 -5,-106 230,-74 235,2 64,-117 248,-111 364,-9 42,-138 359,-159 375,-32 42,-76 223,-120 298,-5 83,-70 197,-135 287,-26 66,-45 163,-20 168,40 11,-53 85,-39 92,-14 37,-44 145,19 122,64 90,21 108,152 60,224 33,-33 74,-26 102,17 41,-42 122,-19 123,42 47,-39 84,5 73,49 28,0 32,61 23,71 44,57 2,111 -34,161 16,0 98,25 78,82 76,-50 223,19 218,88 39,-65 146,-60 150,-13 76,-69 173,-40 255,31 23,-59 99,-70 112,1 11,-71 102,-48 118,-19 -12,-74 42,-90 69,-44 7,39 70,-47 71,4 0,0 99,97 95,96 39,-50 109,-73 170,51 41,-53 83,-27 102,55 18,-4 98,-25 101,48 69,-41 16,21 113,85 2,30 -32,50 -90,106 24,-13 81,30 57,69 -15,106 -54,108 -154,70 -105,204 85,193 149,155 48,-28 147,1 209,132 13,-20 82,-35 84,25 101,-51 248,50 252,133 67,-36 131,100 110,156 22,-21 44,-94 78,-59 125,199 260,74 316,192 -9,43 85,24 78,68 166,-26 347,57 336,243 -26,20 22,-28 26,-33 178,55 111,223 133,338 30,-51 49,3 72,9 -16,165 135,192 113,357 100,64 115,137 125,266l-7361 -26 -11 -3332 0 -6 2 -2z"/>
     <path class="fil15" d="M21185 21749c-11,-27 0,-84 -58,-101 -58,7 -17,50 -37,98 -23,10 -65,-62 -101,-43 -19,3 -26,80 -39,90 -25,-35 -30,-38 -71,-66 -55,29 -93,99 -38,124 -57,18 -118,33 -108,60 22,-5 -16,-69 -70,-35 -53,14 -51,76 -58,89 -11,-53 -37,-107 -91,-107 -80,11 -41,119 -45,128 -16,-3 -50,-28 -61,-24 -103,19 -68,92 -91,150 -21,-5 -17,-62 -66,-45 -74,37 -30,70 -38,124 -15,-28 -40,-43 -67,-46 -65,39 -31,82 -31,144 -21,-15 -34,-42 -54,-59 -93,23 -45,100 -57,144 -31,-12 -51,-89 -95,-19 -53,0 -32,88 -9,149 5,5 -54,-37 -70,6 -108,79 17,79 17,151 -18,9 -21,-22 -41,-21 -109,56 -1,133 -26,203 -16,-17 -4,-83 -52,-73 -31,11 2,59 -25,67 -29,-38 -55,-89 -87,-120 -82,-17 -96,64 -82,126 -88,-90 -126,-68 -120,7 -171,-64 -81,96 -133,48 -107,-96 -149,-96 -133,48 -75,-69 -149,-37 -128,43 -117,0 -77,143 -96,123 -128,-112 -102,-22 -93,44 -39,-26 -7,-49 -94,41 -59,-75 -92,12 -83,58 -114,-132 -80,11 -103,33 -93,40 -82,-12 -79,44 -30,-18 -81,9 -86,137 -101,48 -75,101 -45,150 14,-32 -55,80 -58,85 -41,-10 -36,-69 -79,-21 2,37 -51,80 -46,119 -82,-82 -82,23 -93,25 -75,-43 -107,5 -86,131 -19,-12 -45,-68 -31,-44 4,18 -70,10 -70,74 -110,-21 -37,-62 -140,-28 12,-111 -71,-70 -127,-95 -75,32 -22,106 -29,173 -109,-124 -291,-221 -371,-18 -142,-109 -251,-19 -289,129 -37,-155 -56,-57 -90,-102 -69,-64 -96,3 -68,56 -124,-98 -343,-77 -356,29 -5,38 -124,78 -157,47 -80,-73 -169,-34 -245,17 -122,-98 -294,-119 -277,113l5456 26 0 -2584 0 -2z"/>
     <path class="fil16" d="M-2124 21767c37,-38 51,-69 119,-45 9,45 48,75 60,114 27,-27 59,-98 117,-72 92,12 102,109 130,170 36,-47 91,-151 160,-115 75,31 75,61 85,139 129,-54 216,19 269,128 80,-50 205,25 213,137 98,-120 203,-106 325,-22 89,-129 254,6 295,112 149,-53 318,75 355,269 76,-164 268,9 340,97 136,-75 318,-82 439,60 38,-202 250,-202 288,-90 53,-150 208,-50 264,7 57,-147 314,19 333,224 201,-78 265,-30 295,217 93,-19 197,60 174,224 87,-128 184,-20 265,45 116,-57 182,45 242,187 30,-90 154,-90 272,37 124,15 67,9 87,54 100,-22 53,35 117,118 171,-86 278,9 202,151 63,-21 138,-76 176,59 24,17 70,-95 93,-77 103,-83 246,-68 278,68 10,-10 126,-19 136,-29 159,8 57,148 110,247 35,-3 74,-58 110,-60 121,37 136,142 35,211l-6358 -24 -25 -2541 0 -1 -1 1z"/>
     <path class="fil17" d="M16275 11469c0,0 -374,-340 -544,-159 -147,-204 -362,-430 -510,-170 -215,-193 -691,-79 -759,125 -159,-215 -283,-442 -498,-159 -159,-272 -600,-113 -680,136 -204,-102 -340,-204 -476,79 -57,-374 -22,-611 136,-861 136,-215 396,-249 487,-181 193,-442 1259,-719 1751,-156 231,-717 1024,-660 1228,-264 204,396 328,1042 -136,1608l1 2z"/>
     <rect class="fil18" x="-3976" y="22282" width="12834" height="2671"/>
     <path class="fil19" d="M2571 15760c12,-68 72,-104 64,-610 -8,-506 -104,-706 -265,-811 -57,-37 -268,-155 -458,-198 -242,-55 -443,-487 -305,-275 139,213 391,267 415,231 24,-36 -78,-240 -217,-385 -138,-144 -327,-223 -327,-223 0,0 223,50 351,163 128,112 137,178 229,318 93,140 168,180 295,268 95,66 186,112 222,94 84,-42 126,-120 102,-313 -24,-193 -221,-353 -325,-473 -104,-120 -273,-433 -273,-433 0,0 185,249 305,393 120,145 297,353 297,80 0,-273 -201,-618 -201,-618 0,0 201,249 273,505 72,257 56,313 104,337 48,24 217,-257 217,-257 0,0 -40,193 -128,265 -88,72 -121,177 -145,329 -24,152 -8,377 56,441 64,64 337,-193 417,-377 80,-185 152,-441 152,-441 0,0 -80,465 -48,522 32,56 538,-48 538,-48 0,0 -136,72 -361,104 -225,32 -305,88 -425,217 -120,128 -233,321 -249,570 -16,249 88,642 64,674 -24,32 -134,24 -214,24 -80,0 -179,16 -163,-72l3 -1z"/>
     <path class="fil19" d="M1283 13796c25,45 -108,102 -144,84 -36,-18 -72,90 -121,66 -48,-24 -36,-54 -72,-114 -36,-60 -24,-144 -84,-96 -60,48 -114,54 -114,18 0,-36 -102,-24 -102,-66 0,-42 0,-42 0,-42 0,0 -90,54 -108,12 -18,-42 -60,-78 -60,-78 0,0 -12,108 -54,60 -42,-48 12,-90 12,-90 0,0 -72,-18 -66,-54 6,-36 126,0 126,0 0,0 18,-90 72,-90 54,0 114,12 120,-12 6,-24 -114,-181 -78,-205 36,-24 96,-42 96,-42 0,0 -102,-48 -108,-90 -6,-42 84,-115 84,-115 0,0 -72,-48 -18,-72 54,-24 90,-72 90,-97 0,-24 -54,-30 -54,-60 0,-30 54,-78 54,-114 0,-36 -60,-54 -54,-90 6,-36 54,-96 60,-115 6,-18 -84,-78 -54,-108 30,-30 138,-72 138,-72 0,0 -54,-78 -6,-121 48,-42 102,18 102,18 0,0 66,-54 108,-61 42,-6 108,30 108,30 0,0 -48,-72 -24,-102 24,-30 72,-60 72,-60 0,0 -18,-6 -48,-60 -30,-54 -42,36 -96,30 -54,-6 -48,-72 -48,-72 0,0 -102,-36 -102,-84 0,-48 108,-30 108,-30 0,0 -18,-42 24,-72 42,-30 72,-24 72,-24 0,0 -66,-30 -36,-66 30,-36 114,-12 114,-12 0,0 -48,-114 6,-132 54,-18 90,36 90,36 0,0 -18,-36 6,-90 24,-54 66,-48 66,-48 0,0 -60,6 -78,-18 -18,-24 -48,-42 -48,-42 0,0 -18,54 -60,54 -42,0 -90,-24 -90,-24 0,0 12,48 -36,42 -48,-6 -48,-96 -48,-96 0,0 12,-60 84,-66 72,-6 90,0 90,0 0,0 -54,-78 -6,-114 48,-36 84,-12 84,-12 0,0 -60,-108 6,-108 66,0 78,90 78,90 0,0 48,48 18,84 -30,36 -48,42 -48,42 0,0 36,60 72,6 36,-54 36,-54 36,-54 0,0 -30,-97 18,-102 48,-6 78,90 78,90 0,0 66,6 102,42 36,36 -6,60 24,78 30,18 132,-30 132,-66 0,-36 -84,-36 -54,-66 30,-30 96,36 96,36 0,0 -42,-192 36,-205 78,-12 174,96 174,96 0,0 -12,-120 48,-132 60,-12 96,66 96,66 0,0 0,-48 36,-72 36,-24 66,-48 66,-48 0,0 -36,-48 12,-66 48,-18 120,-6 120,-6 0,0 -132,-72 -96,-145 36,-72 84,-66 84,-66 0,0 -24,-120 60,-102 84,18 42,114 42,114 0,0 42,42 24,96 -18,54 -42,102 -42,102 0,0 60,-54 102,-12 42,42 42,42 42,42 0,0 -24,-169 36,-204 60,-36 108,-60 108,-60 0,0 -78,-138 -6,-144 72,-6 108,48 108,48 0,0 78,0 96,60 18,60 -42,66 -42,66 0,0 30,60 -6,79 -36,18 -102,-36 -102,-36 0,0 -60,-6 -54,54 6,60 30,96 90,72 60,-24 84,-66 108,-36 24,30 72,-60 108,-18 36,42 36,120 18,175 -18,54 -66,72 -66,102 0,30 66,18 48,84 -18,67 -102,30 -102,30 0,0 -84,-54 -102,30 -18,84 30,126 84,90 54,-36 132,-96 169,-90 36,6 36,42 36,42 0,0 96,-78 138,-66 42,12 60,54 60,54 0,0 72,6 84,-54 12,-60 12,-60 12,-60 0,0 -108,30 -108,-36 0,-66 78,-90 78,-90 0,0 -66,-84 30,-120 96,-36 120,66 120,66 0,0 60,-66 120,12 60,78 -6,90 -6,90 0,0 48,12 66,48 18,36 48,36 54,102 6,66 -102,90 -102,90 0,0 -36,6 -36,60 0,54 -54,97 -54,97 0,0 60,-24 72,-6 12,18 72,12 72,12 0,0 -42,-90 48,-90 90,0 84,48 84,48 0,0 72,-6 96,42 24,48 -6,139 -6,139 0,0 42,0 66,18 24,18 18,72 18,72 0,0 84,-18 102,42 18,60 66,18 66,18 0,0 60,12 66,42 6,30 36,66 36,66 0,0 42,-54 60,-30 18,24 0,108 0,108 0,0 42,-18 66,-18 24,0 48,-6 48,-6 0,0 -96,-54 -30,-108 66,-54 -6,-114 -6,-114 0,0 -90,48 -84,-12 6,-60 78,-36 66,-54 -12,-18 -30,-102 42,-108 72,-6 48,72 48,72 0,0 36,-72 78,-42 42,30 24,66 24,66 0,0 60,6 72,66 12,60 -48,84 -48,84 0,0 6,48 -18,84 -24,36 -66,12 -66,12 0,0 72,96 54,127 -18,30 -102,30 -102,30 0,0 -72,84 -114,120 -42,36 -72,-6 -72,-6 0,0 54,48 36,96 -18,48 -60,72 -60,72 0,0 78,-48 127,-30 48,18 42,90 42,90 0,0 12,-72 84,-90 72,-18 78,42 78,42 0,0 -12,-84 42,-96 54,-12 66,12 66,12 0,0 36,-30 54,6 18,36 -78,78 -78,78 0,0 6,36 -30,66 -36,30 -120,6 -120,6 0,0 36,54 -6,78 -42,24 -78,24 -78,24 0,0 60,12 72,42 12,30 -6,78 -6,78 0,0 84,-48 126,-18 42,30 0,96 0,96 0,0 -18,36 -48,60 -30,24 -102,6 -102,6 0,0 36,12 42,60 6,48 -12,72 -12,72 0,0 42,-78 84,-84 42,-6 96,24 96,24 0,0 42,36 12,84 -30,48 -66,-18 -66,-18 0,0 -24,90 -54,96 -30,6 -66,-18 -66,-18 0,0 6,108 -36,108 -42,0 -66,-48 -66,-48 0,0 0,66 -18,102 -18,36 -18,36 -18,36 0,0 -12,60 -84,66 -72,6 -72,6 -72,6 0,0 42,-12 48,66 6,78 6,78 6,78 0,0 0,-66 66,-66 66,0 120,54 120,54 0,0 18,-72 66,-72 48,0 78,54 78,54 0,0 60,-60 102,-48 42,12 0,96 0,96 0,0 54,-30 54,24 0,54 -84,78 -84,78 0,0 36,72 36,114 0,42 -30,30 -30,30 0,0 12,90 -42,102 -54,12 -72,-48 -72,-48 0,0 -54,30 -78,30 -24,0 -72,-66 -72,-66 0,0 -30,30 -66,30 -36,0 -103,-66 -103,-66 0,0 18,42 12,90 -6,48 -6,66 -6,66 0,0 54,-48 90,-18 36,30 0,90 0,90 0,0 60,30 60,84 0,54 -60,6 -60,6 0,0 -42,-24 -60,-54 -18,-30 -18,-30 -18,-30 0,0 -24,6 -42,54 -18,48 42,18 72,66 30,48 0,90 0,90 0,0 60,0 60,30 0,30 -66,42 -66,42 0,0 -42,6 -36,48 6,42 -48,72 -48,72 0,0 120,-66 156,-30 36,36 18,72 18,72 0,0 90,-48 108,-18 18,30 -24,115 -24,115 0,0 54,24 48,66 -6,42 -66,48 -66,48 0,0 36,102 -12,114 -48,12 -90,-36 -90,-36 0,0 -6,72 -54,78 -48,6 -72,-72 -72,-72 0,0 0,66 -48,66 -48,0 -60,-108 -60,-108 0,0 -12,54 -66,48 -54,-6 -72,-102 -72,-102 0,0 -12,54 -54,66 -42,12 -78,-42 -78,-42 0,0 30,96 -24,108 -54,12 -102,-66 -102,-66 0,0 -6,78 -42,78 -36,0 -54,-108 -54,-108 0,0 6,30 -72,-36 -78,-66 -42,-138 -42,-138 0,0 -18,6 -84,-30 -66,-36 -78,-150 -78,-150 0,0 -6,97 -54,90 -48,-6 -108,-108 -108,-108 0,0 -36,78 -66,66 -30,-12 -36,-133 -36,-133 0,0 -66,18 -96,-30 -30,-48 -12,-108 -12,-108 0,0 -90,48 -108,-24 -18,-72 -48,-144 -48,-144 0,0 -42,6 -78,-42 -36,-48 -12,-145 -12,-145 0,0 -36,36 -90,36 -54,0 -96,-36 -96,-36 0,0 54,108 18,108 -36,0 -84,-12 -84,-12 0,0 30,48 -6,48 -36,0 -84,-24 -84,-24 0,0 42,60 0,72 -42,12 -139,12 -139,12 0,0 60,66 18,96 -42,30 -84,-30 -84,-30 0,0 -60,42 -108,18 -48,-24 -84,-102 -84,-102 0,0 48,126 0,120 -48,-6 -90,-54 -90,-54 0,0 30,54 12,90 -18,36 -108,18 -108,18 0,0 84,78 48,108 -36,30 -102,6 -102,6 0,0 60,6 36,84 -24,78 -108,72 -108,72 0,0 -12,24 -66,42 -54,18 -120,-90 -120,-90 0,0 -24,30 -66,6 -42,-24 -24,-102 -24,-102 0,0 -60,72 -108,36 -48,-36 18,-84 18,-84 0,0 54,-108 12,-97 -42,12 -72,-78 -72,-78 0,0 -54,36 -24,90l1 5z"/>
     <polygon class="fil20" style="mask:url(#id6)" points="-3976,22065 8858,22065 8858,24736 -3976,24736 "/>
     <ellipse class="fil21" cx="2439" cy="22326" rx="6415" ry="1173"/>
     <path class="fil22" style="mask:url(#id8)" d="M2439 21153c3543,0 6415,525 6415,1173 0,648 -2872,1173 -6415,1173 -3543,0 -6415,-525 -6415,-1173 0,-648 2872,-1173 6415,-1173z"/>
     <circle class="fil23" cx="2934" cy="18685" r="2462"/>
     <path class="fil24" d="M3465 22669l-2 0 -2 0 -2 0 -2 0 -2 0 -2 0 -2 -1 -2 -1 -2 -1 -2 -1 -2 -1 -2 -1 -2 -1 -2 -1 -2 -1 -2 -1 -2 -1 -2 -1 -1 -1 -1 -1 -1 -2 -1 -2 -1 -2 -1 -2 -1 -2 -1 -2 -1 -2 -1 -2 -1 -2 0 -2 0 -2 0 -2 0 -2 0 -2 0 -2 0 -2 0 -2 0 -2 1 -2 1 -2 1 -2 1 -2 1 -2 1 -2 1 -2 1 -2 1 -2 1 -1 2 -1 2 -1 2 -1 2 -1 2 -1 2 -1 2 -1 2 -1 2 -1 2 -1 2 -1 2 -1 2 0 2 0 2 0 2 0 6 79 -1 2zm2160 -186l18 2 -12 77 -2166 108 -6 -79 2166 -108zm0 0l2 0 2 0 2 0 2 0 2 0 2 0 2 1 2 1 2 1 2 1 2 1 2 1 2 1 2 1 2 1 2 1 2 1 2 1 1 1 1 1 1 2 1 2 1 2 1 2 1 2 1 2 1 2 1 2 1 2 0 2 0 2 0 2 0 2 0 2 0 2 0 2 0 2 0 2 -1 2 -1 2 -1 2 -1 2 -1 2 -1 2 -1 2 -1 2 -1 2 -1 1 -2 1 -2 1 -2 1 -2 1 -2 1 -2 1 -2 1 -2 1 -2 1 -2 1 -2 1 -2 1 -2 0 -2 0 -2 0 -2 0 -6 -79 1 -2zm-1649 -395l30 -75 1636 472 -30 75 -1636 -472zm0 0l-2 -1 -2 -1 -2 -1 -2 -1 -2 -1 -2 -1 -2 -1 -2 -1 -2 -1 -2 -1 -1 -1 -1 -1 -1 -2 -1 -2 -1 -2 -1 -2 -1 -2 -1 -2 -1 -2 -1 -2 -1 -2 0 -2 0 -2 0 -2 0 -2 0 -2 0 -2 0 -2 0 -2 0 -2 1 -2 1 -2 1 -2 1 -2 1 -2 1 -2 1 -2 1 -2 1 -2 1 -1 2 -1 2 -1 2 -1 2 -1 2 -1 2 -1 2 -1 2 -1 2 -1 2 -1 2 -1 2 -1 2 0 2 0 2 0 2 0 2 0 2 0 2 0 2 0 2 0 2 0 2 1 2 1 -30 75 3 2z"/>
     <path class="fil24" d="M3291 22304l43 -52 2 1 2 1 2 1 2 1 2 1 2 1 2 1 1 1 1 1 1 1 1 1 1 1 1 1 1 1 1 1 1 1 1 1 1 1 0 1 0 1 0 1 0 1 0 1 0 1 0 1 0 1 0 1 -1 1 -1 1 -1 1 -1 1 -1 1 -1 1 -1 1 -1 1 -1 1 -2 1 -2 1 -2 1 -2 1 -2 1 -2 1 -2 1 -2 1 -2 1 -2 1 -2 1 -2 0 -2 0 -2 0 -2 0 -2 0 -2 0 -2 0 -2 0 -2 0 -2 0 -2 0 -2 0 -2 0 -2 0 -2 -1 -2 -1 -2 -1 -3 8zm-2242 -813l2285 761 -43 52 -2285 -761 -15 -44 58 -8zm0 0l-43 52 -2 -1 -2 -1 -2 -1 -2 -1 -2 -1 -2 -1 -2 -1 -1 -1 -1 -1 -1 -1 -1 -1 -1 -1 -1 -1 -1 -1 -1 -1 -1 -1 -1 -1 -1 -1 0 -1 0 -1 0 -1 0 -1 0 -1 0 -1 0 -1 0 -1 0 -1 1 -1 1 -1 1 -1 1 -1 1 -1 1 -1 1 -1 1 -1 1 -1 2 -1 2 -1 2 -1 2 -1 2 -1 2 -1 2 -1 2 -1 2 -1 2 -1 2 -1 2 0 2 0 2 0 2 0 2 0 2 0 2 0 2 0 2 0 2 0 2 0 2 0 2 0 2 0 2 1 2 1 2 1 3 -8zm814 -596l-799 640 -73 -37 799 -640 73 37zm0 0l-73 -37 2 -1 2 -1 2 -1 2 -1 2 -1 2 -1 2 -1 2 -1 2 -1 2 -1 2 -1 2 0 2 0 2 0 2 0 2 0 2 0 2 0 2 0 2 0 2 0 2 0 2 0 2 0 2 0 2 0 2 1 2 1 2 1 2 1 2 1 2 1 2 1 2 1 2 1 2 1 1 1 1 1 1 1 1 1 1 1 1 1 1 1 1 1 1 1 1 1 0 1 0 1 0 1 0 1 0 1 0 1 0 1 0 1 0 1 -1 1 -1 1 -1 1 -1 1 -1 1 -1 1 -1 1 -1 1 -1 1 0 10z"/>
     <path class="fil25" style="mask:url(#id10)" d="M2934 16223c1360,0 2462,1102 2462,2462 0,1360 -1102,2462 -2462,2462 -1360,0 -2462,-1102 -2462,-2462 0,-1360 1102,-2462 2462,-2462z"/>
     <path class="fil26" d="M5209 19626c-41,98 -87,193 -139,284 -193,32 -465,-42 -716,-472 360,226 585,253 856,188l-1 0z"/>
     <path class="fil24" d="M2031 22098l30 -75 2 1 2 1 2 1 2 1 2 1 2 1 2 1 2 1 2 1 2 1 2 1 1 1 1 2 1 2 1 2 1 2 1 2 1 2 1 2 1 2 1 2 0 2 0 2 0 2 0 2 0 2 0 2 0 2 0 2 0 2 -1 2 -1 2 -1 2 -1 2 -1 2 -1 2 -1 2 -1 2 -1 2 -1 1 -2 1 -2 1 -2 1 -2 1 -2 1 -2 1 -2 1 -2 1 -2 1 -2 1 -2 1 -2 1 -2 0 -2 0 -2 0 -2 0 -2 0 -2 0 -2 0 -2 0 -2 0 -2 0 -2 -1 -2 -1 -4 -2zm-946 -349l976 274 -30 75 -976 -274 -13 -5 42 -70 1 0zm0 0l-30 75 -2 -1 -2 -1 -2 -1 -2 -1 -2 -1 -2 -1 -2 -1 -2 -1 -2 -1 -2 -1 -2 -1 -1 -1 -1 -2 -1 -2 -1 -2 -1 -2 -1 -2 -1 -2 -1 -2 -1 -2 -1 -2 0 -2 0 -2 0 -2 0 -2 0 -2 0 -2 0 -2 0 -2 0 -2 1 -2 1 -2 1 -2 1 -2 1 -2 1 -2 1 -2 1 -2 1 -2 1 -1 2 -1 2 -1 2 -1 2 -1 2 -1 2 -1 2 -1 2 -1 2 -1 2 -1 2 -1 2 -1 2 0 2 0 2 0 2 0 2 0 2 0 2 0 2 0 2 0 2 0 2 1 2 1 4 2zm1362 925l-1405 -855 55 -64 1405 855 -55 64zm0 0l55 -64 2 1 2 1 2 1 2 1 2 1 1 2 1 2 1 2 1 2 1 2 1 2 1 2 1 2 1 2 1 2 0 2 0 2 0 2 0 2 0 2 0 2 0 2 0 2 0 2 -1 2 -1 2 -1 2 -1 2 -1 2 -1 2 -1 2 -1 2 -1 2 -2 2 -2 1 -2 1 -2 1 -2 1 -2 1 -2 1 -2 1 -2 1 -2 1 -2 1 -2 1 -2 1 -2 0 -2 0 -2 0 -2 0 -2 0 -2 0 -2 0 -2 0 -2 0 -2 0 -2 0 -2 -1 -2 -1 -2 -1 -2 -1 -2 -1 -2 -1 -2 -1 -4 -4z"/>
     <rect class="fil27" x="1812" y="20873" width="2243" height="1591"/>
     <path class="fil28" d="M4055 20994l0 178 -2243 295 0 -178 2243 -295zm0 418l0 178 -2243 295 0 -178 2243 -296 0 1zm0 418l0 178 -2243 295 0 -178 2243 -296 0 1z"/>
     <path class="fil28" d="M2454 22688c117,0 225,-83 311,-223l0 0 -623 0c86,140 194,223 311,223l1 0z"/>
     <path class="fil28" d="M3413 22688c117,0 225,-83 311,-223l0 0 -623 0c86,140 194,223 311,223l1 0z"/>
     <path class="fil29" d="M6039 20120c-25,98 -32,192 -24,275l15 86c25,95 40,154 147,181 107,28 271,-146 260,-408 -12,-263 129,-506 -15,-543 -144,-37 -316,146 -383,408l0 1z"/>
     <path class="fil30" d="M4407 16739c-836,-491 -1803,101 -1740,986 48,689 392,696 660,1192 122,225 40,947 386,1153 129,-155 360,-406 467,-627 182,-376 950,-749 1201,-600 204,121 -42,540 -254,503 -224,-40 -520,-107 -746,114 -109,107 -389,530 -190,625 228,108 787,-90 852,-101 75,541 -136,708 -320,1274 -445,-318 -1326,-199 -1591,-780 -209,-458 9,-943 -82,-1403 -38,-193 50,-373 -315,-655 -367,-283 -773,-494 -863,-225 -88,265 41,1067 -209,1420 -250,353 -857,476 -1078,299 -262,-177 -464,-703 -464,-703 323,227 416,115 374,-213 -51,-399 -140,-1011 -86,-1560 41,-410 163,-738 332,-985 705,-1031 3141,-881 3666,286z"/>
     <path class="fil31" d="M4706 16979c0,0 -341,-265 -451,-316 -136,-63 -379,-136 -845,-13 -437,85 -655,585 -690,973 -61,688 338,798 606,1294 122,225 40,947 386,1153 129,-155 360,-406 467,-627 182,-376 950,-749 1201,-600 204,121 -42,540 -254,503 -224,-40 -520,-107 -746,114 -109,107 -389,530 -190,625 228,108 787,-90 852,-101 75,541 -136,708 -320,1274 -445,-318 -1326,-199 -1591,-780 -209,-458 9,-943 -82,-1403 -38,-193 50,-373 -315,-655 -206,-159 -424,-295 -592,-336 -84,-97 -191,-236 -394,-313 -1895,-716 -1011,-1848 325,-2062 593,-95 1916,95 2483,468 309,204 344,570 149,801l1 1z"/>
     <circle class="fil32" transform="matrix(0.980192 -0.742509 1.40498 1.85472 2252.07 18672)" r="507"/>
     <ellipse class="fil33" cx="4276" cy="18050" rx="544" ry="717"/>
     <path class="fil31" d="M3882 16983c-217,77 -377,246 -459,457 134,-135 306,-246 508,-318 202,-71 406,-93 595,-73 -197,-112 -428,-143 -644,-67l0 1z"/>
     <ellipse class="fil31" cx="4218" cy="17974" rx="487" ry="642"/>
     <circle class="fil29" cx="4519" cy="18075" r="181"/>
     <ellipse class="fil31 str0" cx="2748" cy="15312" rx="966" ry="1039"/>
     <path class="fil30 str0" d="M3678 15031c23,90 36,184 36,281 0,574 -433,1039 -966,1039 -534,0 -966,-465 -966,-1039 0,-69 6,-136 18,-201 114,437 487,758 930,758 470,0 861,-361 948,-839l0 1z"/>
     <path class="fil24" d="M5930 20076l0 -2 0 -2 0 -1 0 -1 0 -1 0 -1 1 -1 1 -1 1 -1 1 -1 1 -1 1 -1 1 -1 1 -1 1 -1 1 -1 1 -1 2 -1 2 -1 2 -1 2 -1 2 -1 2 -1 2 -1 2 -1 2 -1 2 -1 2 0 2 0 2 0 2 0 2 0 2 0 2 0 2 0 2 0 2 0 2 0 2 0 2 0 2 0 2 1 2 1 2 1 2 1 2 1 2 1 2 1 2 1 2 1 2 1 1 1 1 1 1 1 1 1 1 1 1 1 1 1 1 1 1 1 1 1 0 1 0 1 0 2 -93 5 4 0zm123 231l-91 12 -2 -7 -30 -236 93 -5 30 236zm0 0l0 2 0 2 0 1 0 1 0 1 0 1 -1 1 -1 1 -1 1 -1 1 -1 1 -1 1 -1 1 -1 1 -1 1 -1 1 -1 1 -2 1 -2 1 -2 1 -2 1 -2 1 -2 1 -2 1 -2 1 -2 1 -2 1 -2 0 -2 0 -2 0 -2 0 -2 0 -2 0 -2 0 -2 0 -2 0 -2 0 -2 0 -2 0 -2 0 -2 0 -2 -1 -2 -1 -2 -1 -2 -1 -2 -1 -2 -1 -2 -1 -2 -1 -2 -1 -2 -1 -1 -1 -1 -1 -1 -1 -1 -1 -1 -1 -1 -1 -1 -1 -1 -1 -1 -1 -1 -1 0 -1 0 -1 0 -2 93 -5 -4 0zm177 320l-5 26 -83 -6 -179 -327 88 -19 179 327 0 -1zm0 0l1 1 1 1 0 1 0 1 0 1 0 1 0 1 0 1 0 1 0 1 0 1 -1 1 -1 1 -1 1 -1 1 -1 1 -1 1 -1 1 -1 1 -1 1 -1 1 -1 1 -2 1 -2 1 -2 1 -2 1 -2 1 -2 1 -2 1 -2 1 -2 1 -2 1 -2 0 -2 0 -2 0 -2 0 -2 0 -2 0 -2 0 -2 0 -2 0 -2 0 -2 0 -2 0 -2 0 -2 0 -2 -1 -2 -1 -2 -1 -2 -1 -2 -1 -2 -1 -2 -1 -2 -1 -2 -1 -2 -1 -1 -1 -1 -1 -1 -1 -1 -1 -1 -1 -1 -1 -1 -1 -1 -1 88 -19 -3 5zm-1214 1220l-76 2 -3 -34 1209 -1195 79 32 -1209 1195zm0 0l-1 1 -1 1 -2 1 -2 1 -2 1 -2 1 -2 1 -2 1 -2 1 -2 1 -2 1 -2 1 -2 1 -2 0 -2 0 -2 0 -2 0 -2 0 -2 0 -2 0 -2 0 -2 0 -2 0 -2 0 -2 0 -2 0 -2 0 -2 0 -2 -1 -2 -1 -2 -1 -2 -1 -2 -1 -2 -1 -2 -1 -2 -1 -2 -1 -2 -1 -1 -1 -1 -1 -1 -1 -1 -1 -1 -1 -1 -1 -1 -1 -1 -1 -1 -1 -1 -1 0 -1 0 -1 0 -1 0 -1 0 -1 0 -1 0 -1 0 -1 0 -1 1 -1 1 -1 1 -1 1 -1 1 -1 1 -1 1 -1 79 32 -2 -9zm-1067 -799l73 -36 991 801 -73 36 -991 -801zm0 0l-1 -1 -1 -1 -1 -1 -1 -1 -1 -1 -1 -1 -1 -1 -1 -1 -1 -1 0 -1 0 -1 0 -1 0 -1 0 -1 0 -1 0 -1 0 -1 0 -1 1 -1 1 -1 1 -1 1 -1 1 -1 1 -1 1 -1 1 -1 1 -1 1 -1 2 -1 2 -1 2 -1 2 -1 2 -1 2 -1 2 -1 2 -1 2 -1 2 -1 2 0 2 0 2 0 2 0 2 0 2 0 2 0 2 0 2 0 2 0 2 0 2 0 2 0 2 0 2 0 2 1 2 1 2 1 2 1 2 1 2 1 2 1 2 1 2 1 2 1 2 1 -73 36 0 -9z"/>
     <circle class="fil34" transform="matrix(0.723692 -0.548207 1.03732 1.36937 2365.01 18556.6)" r="507"/>
     <path class="fil35" d="M9879 629c-223,675 -4344,2933 -5666,2814 -1321,-121 -174,-3354 -174,-3354l-881 -251c0,0 176,1408 -383,3100 -389,1186 -3214,4478 -3523,4118 -309,-359 0,-1135 618,-2937 620,-1805 1342,-4537 1342,-4537l-361 -567c0,0 -410,2577 -927,2527 -518,-52 -1599,-3248 -1599,-3248 0,0 259,1650 772,3143 400,1157 208,3661 -719,3815 -1383,231 -3657,-2439 -4625,-4036 -1192,-1968 -2326,-3756 -2326,-3756 0,0 1617,2974 777,3193 -838,218 -3425,-828 -3425,-828 0,0 725,978 3155,1317 1393,193 2974,3648 3696,5555 722,1905 467,2183 517,3970 109,3791 -225,9842 -970,12925 -747,3078 -676,4352 235,4690 908,337 4971,563 4916,-749 -10,-238 -31,-460 -96,-1047 -8,-77 -420,-326 -429,-408 -66,-587 132,-1353 43,-2155 -326,-2955 -634,-7105 -588,-10531 5,-450 -198,-2861 821,-4839 1175,-2273 3646,-4131 4556,-4444 1989,-684 5703,-2811 5703,-2811 0,0 -236,-1347 -458,-667l-1 -2z"/>
     <path class="fil36" style="mask:url(#id12)" d="M9879 629c-223,675 -4344,2933 -5666,2814 -1321,-121 -174,-3354 -174,-3354l-881 -251c0,0 176,1408 -383,3100 -389,1186 -3214,4478 -3523,4118 -309,-359 0,-1135 618,-2937 620,-1805 1342,-4537 1342,-4537l-361 -567c0,0 -410,2577 -927,2527 -518,-52 -1599,-3248 -1599,-3248 0,0 259,1650 772,3143 400,1157 208,3661 -719,3815 -1383,231 -3657,-2439 -4625,-4036 -1192,-1968 -2326,-3756 -2326,-3756 0,0 1617,2974 777,3193 -838,218 -3425,-828 -3425,-828 0,0 725,978 3155,1317 1393,193 2974,3648 3696,5555 722,1905 467,2183 517,3970 109,3791 -225,9842 -970,12925 -747,3078 -676,4352 235,4690 908,337 4971,563 4916,-749 -10,-229 -647,-655 -708,-1210 -66,-598 441,-1347 344,-2222 -329,-2964 -753,-7216 -706,-10710 5,-450 -198,-2861 820,-4839 1175,-2273 3646,-4131 4556,-4444 1989,-684 5703,-2811 5703,-2811 0,0 -236,-1347 -458,-667l0 -1z"/>
     <path class="fil37" d="M17546 -6996c-18,-429 -1152,-282 -701,-637 403,-311 489,-1008 62,-920 -300,64 -638,-104 -910,-138 -238,-35 -681,116 -1044,-19 -346,-133 -520,-487 -668,-748 -124,-230 -440,-414 -557,-659 -152,-328 -872,-31 -1084,221 -338,399 -564,701 -569,522 -7,-182 -307,-290 -576,-419 -175,-81 -359,-354 -645,-338 -262,17 -482,227 -656,178 -218,-60 -321,-376 -507,-465 -230,-100 -604,226 -976,497 -216,-138 -420,-312 -591,-570 -336,-512 -768,-567 -1213,-440 147,-312 111,-648 -193,-586 -299,64 -637,-105 -908,-139 -239,-35 -683,116 -1045,-21 -347,-132 -523,-485 -667,-747 -125,-231 -440,-416 -557,-660 -155,-327 -873,-30 -1084,222 -340,399 -563,702 -573,521 -4,-181 -306,-290 -572,-420 -177,-81 -362,-354 -647,-336 -260,18 -482,226 -657,177 -218,-58 -318,-375 -506,-465 -247,-108 -657,278 -1055,556 -347,246 -843,412 -985,677 -107,204 176,590 235,925 60,366 -84,643 -280,793 0,2 0,2 -4,3 -228,64 -465,199 -571,327 -340,400 -564,704 -571,523 -8,-181 -307,-290 -575,-420 -176,-82 -362,-356 -646,-338 -260,19 -482,227 -657,179 -218,-61 -318,-377 -507,-465 -245,-108 -657,278 -1053,554 -350,245 -844,412 -985,678 -110,203 176,589 233,925 59,364 -83,643 -282,793 -82,64 -102,143 -147,218 -213,-149 -386,-410 -613,-492 -357,-130 -906,470 -1439,911 -68,57 -147,109 -223,163 -214,-67 -316,-370 -501,-459 -245,-109 -656,277 -1053,556 -348,244 -844,411 -984,676 -109,206 176,591 234,927 59,366 -84,644 -283,794 -92,72 -118,161 -164,246 -12,9 -23,17 -34,24 -349,246 -845,414 -985,677 -18,32 18,89 16,129 -325,77 -471,664 -490,1199 -8,302 -12,654 102,937 -24,79 -47,168 -80,219 -187,296 -301,272 -716,286 -363,18 -518,660 -538,1224 -11,453 -44,1032 376,1301 527,345 714,-115 962,-223 188,-87 377,101 853,539 78,267 292,381 277,496 -39,237 -280,317 161,387 326,52 518,-200 707,-233 191,-35 408,156 734,142 358,-14 543,-380 790,-414 201,-27 385,234 741,455 190,115 327,85 441,-1 -40,120 -15,187 368,218 471,39 714,-342 984,-411 269,-69 599,179 1060,124 508,-60 734,-607 1082,-681 284,-60 572,289 1111,564 601,308 806,-257 1052,-667 243,-409 619,-647 1082,-702 260,-31 380,-226 481,-426 21,34 75,65 238,91 324,52 516,-200 707,-231 190,-36 408,156 732,140 252,-11 419,-168 581,-286 102,235 260,409 516,428 158,14 288,-42 410,-122 11,7 16,13 26,21 402,246 578,-137 769,-411 193,-269 468,-415 795,-429 292,-12 367,-340 496,-491 71,-77 160,-120 250,-155 234,315 440,772 1142,1126 552,284 967,55 1340,-278 122,12 259,157 549,519 59,268 217,385 210,498 -29,238 -204,315 121,390 240,53 378,-195 517,-226 141,-33 301,160 540,150 263,-13 396,-375 576,-406 147,-24 288,237 551,461 297,250 424,-129 562,-401 137,-268 338,-409 577,-420 216,-7 267,-335 361,-485 119,-178 293,-199 445,-275 158,-80 337,-200 546,-96 167,81 560,57 389,-270 -133,-247 -107,-543 -34,-769 81,-251 362,256 695,363 368,115 381,-990 188,-1073 -253,-110 653,-326 635,-757 -11,-301 -406,-329 -541,-437 99,-99 182,-234 267,-356 192,-270 467,-414 794,-428 292,-11 368,-339 496,-491 164,-181 403,-204 610,-281 217,-83 462,-205 745,-104 230,79 760,47 534,-276 -176,-244 -137,-541 -38,-770 117,-250 494,252 941,353 502,114 534,-995 273,-1074 -343,-106 895,-336 876,-769l-4 3z"/>
     <path class="fil38" d="M11812 620c-281,-327 -390,-464 -522,-422 -168,52 -329,340 -649,71 -255,-211 -190,-589 -145,-887 57,-372 208,-784 448,-766 276,21 346,47 497,-134 82,-98 101,-338 325,-474 142,-82 257,-254 245,-500 -9,-229 -168,-504 -79,-630 112,-164 450,-235 701,-370 283,-152 586,-376 737,-284 120,73 158,289 298,346 110,46 274,-75 446,-67 190,10 291,207 397,274 168,106 356,200 348,320 -10,120 162,-64 415,-301 160,-148 660,-288 733,-60 56,171 251,316 316,478 74,183 163,431 383,545 225,120 531,53 685,95 174,46 386,180 588,162 289,-25 176,428 -110,603 -328,198 432,189 409,476 -23,285 -856,340 -638,437 166,74 58,802 -262,689 -290,-102 -497,-464 -591,-306 -85,143 -133,337 -38,511 125,233 -227,211 -371,142 -180,-89 -349,-26 -499,10 -144,35 -301,32 -424,141 -96,89 -173,300 -366,285 -215,-18 -407,57 -555,220 -149,165 -295,403 -539,210 -221,-173 -319,-359 -456,-356 -163,1 -315,229 -552,211 -215,-17 -340,-159 -469,-150 -129,6 -275,156 -486,98 -285,-80 -119,-115 -76,-270 18,-74 -113,-165 -144,-348l0 1z"/>
     <path class="fil39" d="M-4517 5310c-281,-327 -390,-464 -522,-422 -168,52 -329,340 -649,71 -255,-211 -190,-589 -145,-887 57,-372 208,-784 448,-766 276,21 346,47 497,-134 82,-98 101,-338 325,-474 142,-82 257,-254 245,-500 -9,-229 -168,-504 -79,-630 112,-164 450,-235 701,-370 283,-152 586,-376 737,-284 120,73 158,289 298,346 110,46 274,-75 446,-67 190,10 291,207 397,274 168,106 356,200 348,320 -10,120 162,-64 415,-301 160,-148 660,-288 733,-60 56,171 251,316 316,478 74,183 163,431 383,545 225,120 531,53 685,95 174,46 386,180 588,162 289,-25 176,428 -110,603 -328,198 432,189 409,476 -23,285 -856,340 -638,437 166,74 58,802 -262,689 -290,-102 -497,-464 -591,-306 -85,143 -133,337 -38,511 125,233 -227,211 -371,142 -180,-89 -349,-26 -499,10 -144,35 -301,32 -424,141 -96,89 -173,300 -366,285 -215,-18 -407,57 -555,220 -149,165 -295,403 -539,210 -221,-173 -319,-359 -456,-356 -163,1 -315,229 -552,211 -215,-17 -340,-159 -469,-150 -129,6 -275,156 -486,98 -285,-80 -119,-115 -76,-270 18,-74 -113,-165 -144,-348l0 1z"/>
     <path class="fil40" d="M184 2694c-281,-327 -390,-464 -522,-422 -168,52 -329,340 -649,71 -255,-211 -190,-589 -145,-887 57,-372 208,-784 448,-766 276,21 346,47 497,-134 82,-98 101,-338 325,-474 142,-82 257,-254 245,-500 -9,-229 -168,-504 -79,-630 112,-164 450,-235 701,-370 283,-152 586,-376 737,-284 120,73 158,289 298,346 110,46 274,-75 446,-67 190,10 291,207 397,274 168,106 356,200 348,320 -10,120 162,-64 415,-301 160,-148 660,-288 733,-60 56,171 251,316 316,478 74,183 163,431 383,545 225,120 531,53 685,95 174,46 386,180 588,162 289,-25 176,428 -110,603 -328,198 432,189 409,476 -23,285 -856,340 -638,437 166,74 58,802 -262,689 -290,-102 -497,-464 -591,-306 -85,143 -133,337 -38,511 125,233 -227,211 -371,142 -180,-89 -349,-26 -499,10 -144,35 -301,32 -424,141 -96,89 -173,300 -366,285 -215,-18 -407,57 -555,220 -149,165 -295,403 -539,210 -221,-173 -319,-359 -456,-356 -163,1 -315,229 -552,211 -215,-17 -340,-159 -469,-150 -129,6 -275,156 -486,98 -285,-80 -119,-115 -76,-270 18,-74 -113,-165 -144,-348l0 1z"/>
     <path class="fil41" d="M-2954 -596c-281,-327 -390,-464 -522,-422 -168,52 -329,340 -649,71 -255,-211 -190,-589 -145,-887 57,-372 208,-784 448,-766 276,21 346,47 497,-134 82,-98 101,-338 325,-474 142,-82 257,-254 245,-500 -9,-229 -168,-504 -79,-630 112,-164 450,-235 701,-370 283,-152 586,-376 737,-284 120,73 158,289 298,346 110,46 274,-75 446,-67 190,10 291,207 397,274 168,106 356,200 348,320 -10,120 162,-64 415,-301 160,-148 660,-288 733,-60 56,171 251,316 316,478 74,183 163,431 383,545 225,120 531,53 685,95 174,46 386,180 588,162 289,-25 176,428 -110,603 -328,198 432,189 409,476 -23,285 -856,340 -638,437 166,74 58,802 -262,689 -290,-102 -497,-464 -591,-306 -85,143 -133,337 -38,511 125,233 -227,211 -371,142 -180,-89 -349,-26 -499,10 -144,35 -301,32 -424,141 -96,89 -173,300 -366,285 -215,-18 -407,57 -555,220 -149,165 -295,403 -539,210 -221,-173 -319,-359 -456,-356 -163,1 -315,229 -552,211 -215,-17 -340,-159 -469,-150 -129,6 -275,156 -486,98 -285,-80 -119,-115 -76,-270 18,-74 -113,-165 -144,-348l0 1z"/>
     <path class="fil42" d="M4690 -857c-281,-327 -390,-464 -522,-422 -168,52 -329,340 -649,71 -255,-211 -190,-589 -145,-887 57,-372 208,-784 448,-766 276,21 346,47 497,-134 82,-98 101,-338 325,-474 142,-82 257,-254 245,-500 -9,-229 -168,-504 -79,-630 112,-164 450,-235 701,-370 283,-152 586,-376 737,-284 120,73 158,289 298,346 110,46 274,-75 446,-67 190,10 291,207 397,274 168,106 356,200 348,320 -10,120 162,-64 415,-301 160,-148 660,-288 733,-60 56,171 251,316 316,478 74,183 163,431 383,545 225,120 531,53 685,95 174,46 386,180 588,162 289,-25 176,428 -110,603 -328,198 432,189 409,476 -23,285 -856,340 -638,437 166,74 58,802 -262,689 -290,-102 -497,-464 -591,-306 -85,143 -133,337 -38,511 125,233 -227,211 -371,142 -180,-89 -349,-26 -499,10 -144,35 -301,32 -424,141 -96,89 -173,300 -366,285 -215,-18 -407,57 -555,220 -149,165 -295,403 -539,210 -221,-173 -319,-359 -456,-356 -163,1 -315,229 -552,211 -215,-17 -340,-159 -469,-150 -129,6 -275,156 -486,98 -285,-80 -119,-115 -76,-270 18,-74 -113,-165 -144,-348l0 1z"/>
     <path class="fil43" d="M7395 2889c-196,-228 -272,-324 -364,-294 -117,36 -229,237 -452,50 -178,-147 -133,-411 -101,-618 39,-259 145,-546 312,-534 192,15 241,33 346,-93 57,-68 70,-236 227,-330 99,-57 179,-177 171,-348 -6,-159 -117,-352 -55,-439 78,-114 314,-164 489,-258 197,-106 408,-262 514,-198 83,51 110,201 208,241 76,32 191,-52 311,-46 133,7 203,144 276,191 117,74 248,139 243,223 -7,83 113,-45 290,-210 112,-103 460,-201 511,-42 39,119 175,221 220,333 52,127 114,300 267,380 157,83 370,37 477,67 121,32 269,126 410,113 201,-18 123,298 -77,420 -228,138 301,132 285,332 -16,199 -597,237 -445,305 116,52 40,559 -183,480 -202,-71 -346,-324 -412,-213 -59,100 -92,235 -27,356 87,162 -158,147 -258,99 -126,-62 -243,-18 -348,7 -100,25 -210,23 -296,98 -67,62 -121,209 -255,198 -150,-12 -283,40 -387,154 -104,115 -205,281 -376,146 -154,-120 -222,-250 -318,-248 -113,1 -220,160 -385,147 -150,-12 -237,-111 -327,-104 -90,4 -192,109 -339,68 -199,-56 -83,-80 -53,-188 13,-52 -79,-115 -100,-242l1 -3z"/>
     <path class="fil44" d="M9554 -770c-281,-327 -390,-464 -522,-422 -168,52 -329,340 -649,71 -255,-211 -190,-589 -145,-887 57,-372 208,-784 448,-766 276,21 346,47 497,-134 82,-98 101,-338 325,-474 142,-82 257,-254 245,-500 -9,-229 -168,-504 -79,-630 112,-164 450,-235 701,-370 283,-152 586,-376 737,-284 120,73 158,289 298,346 110,46 274,-75 446,-67 190,10 291,207 397,274 168,106 356,200 348,320 -10,120 162,-64 415,-301 160,-148 660,-288 733,-60 56,171 251,316 316,478 74,183 163,431 383,545 225,120 531,53 685,95 174,46 386,180 588,162 289,-25 176,428 -110,603 -328,198 432,189 409,476 -23,285 -856,340 -638,437 166,74 58,802 -262,689 -290,-102 -497,-464 -591,-306 -85,143 -133,337 -38,511 125,233 -227,211 -371,142 -180,-89 -349,-26 -499,10 -144,35 -301,32 -424,141 -96,89 -173,300 -366,285 -215,-18 -407,57 -555,220 -149,165 -295,403 -539,210 -221,-173 -319,-359 -456,-356 -163,1 -315,229 -552,211 -215,-17 -340,-159 -469,-150 -129,6 -275,156 -486,98 -285,-80 -119,-115 -76,-270 18,-74 -113,-165 -144,-348l0 1z"/>
     <path class="fil45" d="M13375 -2767c-281,-327 -390,-464 -522,-422 -168,52 -329,340 -649,71 -255,-211 -190,-589 -145,-887 57,-372 208,-784 448,-766 276,21 346,47 497,-134 82,-98 101,-338 325,-474 142,-82 257,-254 245,-500 -9,-229 -168,-504 -79,-630 112,-164 450,-235 701,-370 283,-152 586,-376 737,-284 120,73 158,289 298,346 110,46 274,-75 446,-67 190,10 291,207 397,274 168,106 356,200 348,320 -10,120 162,-64 415,-301 160,-148 660,-288 733,-60 56,171 251,316 316,478 74,183 163,431 383,545 225,120 531,53 685,95 174,46 386,180 588,162 289,-25 176,428 -110,603 -328,198 432,189 409,476 -23,285 -856,340 -638,437 166,74 58,802 -262,689 -290,-102 -497,-464 -591,-306 -85,143 -133,337 -38,511 125,233 -227,211 -371,142 -180,-89 -349,-26 -499,10 -144,35 -301,32 -424,141 -96,89 -173,300 -366,285 -215,-18 -407,57 -555,220 -149,165 -295,403 -539,210 -221,-173 -319,-359 -456,-356 -163,1 -315,229 -552,211 -215,-17 -340,-159 -469,-150 -129,6 -275,156 -486,98 -285,-80 -119,-115 -76,-270 18,-74 -113,-165 -144,-348l0 1z"/>
     <path class="fil43" d="M10135 822c-196,-228 -272,-324 -364,-294 -117,36 -229,237 -452,50 -178,-147 -133,-411 -101,-618 39,-259 145,-546 312,-534 192,15 241,32 346,-93 57,-68 70,-236 227,-330 99,-57 179,-177 171,-348 -6,-159 -117,-352 -55,-439 78,-114 314,-164 489,-258 197,-106 408,-262 514,-198 83,51 110,201 208,241 76,32 191,-52 311,-46 133,7 203,144 276,191 117,74 248,139 243,223 -7,83 113,-45 290,-210 112,-103 460,-201 511,-42 39,119 175,221 220,333 52,127 114,300 267,380 157,83 370,37 477,67 121,32 269,126 410,113 201,-18 123,298 -77,420 -228,138 301,132 285,332 -16,199 -597,237 -445,305 116,52 40,559 -183,480 -202,-71 -346,-324 -412,-213 -59,100 -92,235 -27,356 87,162 -158,147 -258,99 -126,-62 -243,-18 -348,7 -100,25 -210,23 -296,98 -67,62 -121,209 -255,198 -150,-12 -283,40 -387,154 -104,115 -205,281 -376,146 -154,-120 -222,-250 -318,-248 -113,1 -220,160 -385,147 -150,-12 -237,-111 -327,-105 -90,4 -192,109 -339,68 -199,-56 -83,-80 -53,-188 13,-52 -79,-115 -100,-242l1 -2z"/>
     <path class="fil43" d="M6588 82c-196,-228 -272,-324 -364,-294 -117,36 -229,237 -452,50 -178,-147 -133,-411 -101,-618 39,-259 145,-546 312,-534 192,15 241,33 346,-93 57,-68 70,-236 227,-330 99,-57 179,-177 171,-348 -6,-159 -117,-352 -55,-439 78,-114 314,-164 489,-258 197,-106 408,-262 514,-198 83,51 110,201 208,241 76,32 191,-52 311,-46 133,7 203,144 276,191 117,74 248,139 243,223 -7,83 113,-45 290,-210 112,-103 460,-201 511,-42 39,119 175,221 220,333 52,127 114,300 267,380 157,83 370,37 477,67 121,32 269,126 410,113 201,-18 123,298 -77,420 -228,138 301,132 285,332 -16,199 -597,237 -445,305 116,52 40,559 -183,480 -202,-71 -346,-324 -412,-213 -59,100 -92,235 -27,356 87,162 -158,147 -258,99 -126,-62 -243,-18 -348,7 -100,25 -210,23 -296,98 -67,62 -121,209 -255,198 -150,-12 -283,40 -387,154 -104,115 -205,281 -376,146 -154,-120 -222,-250 -318,-248 -113,1 -220,160 -385,147 -150,-12 -237,-111 -327,-104 -90,4 -192,109 -339,68 -199,-56 -83,-80 -53,-188 13,-52 -79,-115 -100,-242l1 -3z"/>
     <path class="fil43" d="M4622 1259c-196,-228 -272,-324 -364,-294 -117,36 -229,237 -452,50 -178,-147 -133,-411 -101,-618 39,-259 145,-546 312,-534 192,15 241,32 346,-93 58,-68 70,-236 227,-330 99,-57 179,-177 171,-348 -6,-159 -117,-352 -55,-439 78,-114 314,-164 489,-258 197,-106 408,-262 514,-198 83,51 110,201 208,241 76,32 191,-52 311,-46 133,7 203,144 276,191 117,74 248,139 243,223 -7,83 113,-45 290,-210 112,-103 460,-201 511,-42 39,119 175,221 220,333 52,127 114,300 267,380 157,83 370,37 477,67 121,32 269,126 410,113 201,-18 123,298 -77,420 -228,138 301,132 285,332 -16,199 -597,237 -445,305 116,52 40,559 -183,480 -202,-71 -346,-324 -412,-213 -59,100 -92,235 -27,356 87,162 -158,147 -258,99 -126,-62 -243,-18 -348,7 -100,25 -210,23 -296,98 -67,62 -121,209 -255,198 -150,-12 -283,40 -387,154 -104,115 -205,281 -376,146 -154,-120 -222,-250 -318,-248 -113,1 -220,160 -385,147 -150,-12 -237,-111 -327,-105 -90,4 -192,109 -339,68 -199,-56 -83,-80 -53,-188 13,-52 -79,-115 -100,-242l1 -2z"/>
     <path class="fil43" d="M11546 -1329c-196,-228 -272,-324 -364,-294 -117,36 -229,237 -452,50 -178,-147 -133,-411 -101,-618 39,-259 145,-546 312,-534 192,15 241,33 346,-93 57,-68 70,-236 227,-330 99,-57 179,-177 171,-348 -6,-159 -117,-352 -55,-439 78,-114 314,-164 489,-258 197,-106 408,-262 514,-198 83,51 110,201 208,241 76,32 191,-52 311,-46 133,7 203,144 276,191 117,74 248,139 243,223 -7,83 113,-45 290,-210 112,-103 460,-201 511,-42 39,119 175,221 220,333 52,127 114,300 267,380 157,83 370,37 477,67 121,32 269,126 410,113 201,-18 123,298 -77,420 -228,138 301,132 285,332 -16,199 -597,237 -445,305 116,52 40,559 -183,480 -202,-71 -346,-324 -412,-213 -59,100 -92,235 -27,356 87,162 -158,147 -258,99 -126,-62 -243,-18 -348,7 -100,25 -210,23 -296,98 -67,62 -121,209 -255,198 -150,-12 -283,40 -387,154 -104,115 -205,281 -376,146 -154,-120 -222,-250 -318,-248 -113,1 -220,160 -385,147 -150,-12 -237,-111 -327,-105 -90,4 -192,109 -339,68 -199,-56 -83,-80 -53,-188 13,-52 -79,-115 -100,-242l1 -2z"/>
     <path class="fil43" d="M14219 -1531c-196,-228 -272,-324 -364,-294 -117,36 -229,237 -452,50 -178,-147 -133,-411 -101,-618 39,-259 145,-546 312,-534 192,15 241,33 346,-93 58,-68 70,-236 227,-330 99,-57 179,-177 171,-348 -6,-159 -117,-352 -55,-439 78,-114 314,-164 489,-258 197,-106 408,-262 514,-198 83,51 110,201 208,241 76,32 191,-52 311,-46 133,7 203,144 276,191 117,74 248,139 243,223 -7,83 113,-45 290,-210 112,-103 460,-201 511,-42 39,119 175,221 220,333 52,127 114,300 267,380 157,83 370,37 477,67 121,32 269,126 410,113 201,-18 123,298 -77,420 -228,138 301,132 285,332 -16,199 -597,237 -445,305 116,52 40,559 -183,480 -202,-71 -346,-324 -412,-213 -59,100 -92,235 -27,356 87,162 -158,147 -258,99 -126,-62 -243,-18 -348,7 -100,25 -210,23 -296,98 -67,62 -121,209 -255,198 -150,-12 -283,40 -387,154 -104,115 -205,281 -376,146 -154,-120 -222,-250 -318,-248 -113,1 -220,160 -385,147 -150,-12 -237,-111 -327,-105 -90,4 -192,109 -339,68 -199,-56 -83,-80 -53,-188 13,-52 -79,-115 -100,-242l1 -2z"/>
     <path class="fil43" d="M1443 486c-196,-228 -272,-324 -364,-294 -117,36 -229,237 -452,50 -178,-147 -133,-411 -101,-618 39,-259 145,-546 312,-534 192,15 241,33 346,-93 57,-68 70,-236 227,-330 99,-57 179,-177 171,-348 -6,-159 -117,-352 -55,-439 78,-114 314,-164 489,-258 197,-106 408,-262 514,-198 83,51 110,201 208,241 76,32 191,-52 311,-46 133,7 203,144 276,191 117,74 248,139 243,223 -7,83 113,-45 290,-210 112,-103 460,-201 511,-42 39,119 175,221 220,333 52,127 114,300 267,380 157,83 370,37 477,67 121,32 269,126 410,113 201,-18 123,298 -77,420 -228,138 301,132 285,332 -16,199 -597,237 -445,305 116,52 40,559 -183,480 -202,-71 -346,-324 -412,-213 -59,100 -92,235 -27,356 87,162 -158,147 -258,99 -126,-62 -243,-18 -348,7 -100,25 -210,23 -296,98 -67,62 -121,209 -255,198 -150,-12 -283,40 -387,154 -104,115 -205,281 -376,146 -154,-120 -222,-250 -318,-248 -113,1 -220,160 -385,147 -150,-12 -237,-111 -327,-105 -90,4 -192,109 -339,68 -199,-56 -83,-80 -53,-188 13,-52 -79,-115 -100,-242l1 -2z"/>
     <path class="fil43" d="M-3129 1293c-196,-228 -272,-324 -364,-294 -117,36 -229,237 -452,50 -178,-147 -133,-411 -101,-618 39,-259 145,-546 312,-534 192,15 241,33 346,-93 57,-68 70,-236 227,-330 99,-57 179,-177 171,-348 -6,-159 -117,-352 -55,-439 78,-114 314,-164 489,-258 197,-106 408,-262 514,-198 83,51 110,201 208,241 76,32 191,-52 311,-46 133,7 203,144 276,191 117,74 248,139 243,223 -7,83 113,-45 290,-210 112,-103 460,-201 511,-42 39,119 175,221 220,333 52,127 114,300 267,380 157,83 370,37 477,67 121,32 269,126 410,113 201,-18 123,298 -77,420 -228,138 301,132 285,332 -16,199 -597,237 -445,305 116,52 40,559 -183,480 -202,-71 -346,-324 -412,-213 -59,100 -92,235 -27,356 87,162 -158,147 -258,99 -126,-62 -243,-18 -348,7 -100,25 -210,23 -296,98 -67,62 -121,209 -255,198 -150,-12 -283,40 -387,154 -104,115 -205,281 -376,146 -154,-120 -222,-250 -318,-248 -113,1 -220,160 -385,147 -150,-12 -237,-111 -327,-105 -90,4 -192,109 -339,68 -199,-56 -83,-80 -53,-188 13,-52 -79,-115 -100,-242l1 -2z"/>
     <path class="fil46" d="M4912 15246c8,-46 49,-71 43,-412 -5,-342 -70,-477 -179,-548 -39,-25 -181,-105 -309,-134 -163,-37 -299,-329 -206,-186 94,144 264,180 280,156 16,-24 -53,-162 -146,-260 -93,-98 -221,-151 -221,-151 0,0 150,34 237,110 87,76 92,120 155,215 63,95 113,122 199,181 64,44 126,76 150,64 57,-28 85,-81 69,-211 -16,-130 -149,-239 -219,-320 -70,-81 -184,-293 -184,-293 0,0 125,168 206,266 81,98 201,239 201,54 0,-184 -135,-418 -135,-418 0,0 135,168 184,342 49,174 38,212 70,228 33,16 146,-173 146,-173 0,0 -27,130 -87,179 -60,49 -82,119 -98,222 -16,103 -5,255 38,298 43,43 228,-130 282,-255 54,-125 103,-298 103,-298 0,0 -54,314 -32,352 22,38 363,-32 363,-32 0,0 -92,49 -244,70 -152,22 -206,60 -287,146 -81,87 -157,217 -168,385 -11,168 60,434 43,455 -16,22 -90,16 -145,16 -54,0 -121,11 -110,-49l1 1z"/>
     <path class="fil46" d="M4042 13919c17,31 -73,69 -97,57 -25,-12 -49,61 -82,45 -32,-16 -24,-37 -49,-77 -25,-41 -16,-97 -57,-65 -41,32 -77,37 -77,12 0,-24 -69,-16 -69,-45 0,-28 0,-28 0,-28 0,0 -61,36 -73,8 -12,-29 -41,-53 -41,-53 0,0 -8,73 -37,41 -28,-33 8,-61 8,-61 0,0 -49,-12 -45,-37 4,-24 85,0 85,0 0,0 12,-61 49,-61 37,0 77,8 81,-8 4,-16 -77,-122 -53,-138 24,-16 65,-28 65,-28 0,0 -69,-32 -73,-61 -4,-28 57,-77 57,-77 0,0 -49,-32 -12,-49 37,-16 61,-49 61,-65 0,-16 -37,-20 -37,-41 0,-20 37,-53 37,-77 0,-25 -41,-37 -37,-61 4,-24 37,-65 41,-77 4,-12 -57,-53 -37,-73 20,-20 94,-49 94,-49 0,0 -37,-53 -4,-82 33,-28 69,12 69,12 0,0 45,-37 73,-41 28,-4 73,20 73,20 0,0 -33,-49 -16,-69 16,-20 49,-41 49,-41 0,0 -12,-4 -32,-41 -21,-37 -29,24 -65,20 -37,-4 -33,-49 -33,-49 0,0 -69,-25 -69,-57 0,-33 73,-20 73,-20 0,0 -12,-28 16,-49 28,-20 49,-16 49,-16 0,0 -45,-20 -24,-45 20,-24 77,-8 77,-8 0,0 -32,-77 4,-89 37,-12 61,24 61,24 0,0 -12,-24 4,-61 16,-36 45,-33 45,-33 0,0 -41,4 -53,-12 -12,-16 -33,-28 -33,-28 0,0 -12,37 -41,37 -28,0 -61,-16 -61,-16 0,0 8,33 -24,28 -33,-4 -33,-65 -33,-65 0,0 8,-41 57,-45 49,-4 61,0 61,0 0,0 -37,-53 -4,-77 33,-24 57,-8 57,-8 0,0 -41,-73 4,-73 45,0 53,61 53,61 0,0 33,32 12,57 -20,25 -33,29 -33,29 0,0 24,41 49,4 24,-36 24,-36 24,-36 0,0 -20,-65 12,-69 33,-4 53,61 53,61 0,0 45,4 69,28 24,24 -4,41 16,53 20,12 89,-20 89,-45 0,-25 -57,-25 -37,-45 21,-20 65,24 65,24 0,0 -28,-130 24,-138 53,-8 118,65 118,65 0,0 -8,-81 33,-89 41,-8 65,45 65,45 0,0 0,-32 24,-49 24,-16 45,-33 45,-33 0,0 -24,-33 8,-45 32,-12 81,-4 81,-4 0,0 -89,-49 -65,-98 24,-49 57,-45 57,-45 0,0 -16,-81 41,-69 57,12 28,77 28,77 0,0 28,28 16,65 -12,37 -28,69 -28,69 0,0 41,-37 69,-8 28,28 28,28 28,28 0,0 -16,-114 25,-138 40,-24 73,-41 73,-41 0,0 -53,-93 -4,-98 49,-4 73,33 73,33 0,0 53,0 65,41 12,41 -28,45 -28,45 0,0 20,41 -4,53 -24,12 -69,-25 -69,-25 0,0 -41,-4 -36,37 4,41 20,65 61,49 41,-16 57,-45 73,-24 16,20 49,-41 73,-12 24,28 24,81 12,118 -12,36 -45,49 -45,69 0,20 45,12 33,57 -12,45 -69,20 -69,20 0,0 -57,-37 -69,20 -12,57 20,85 57,61 37,-24 89,-65 114,-61 24,4 24,28 24,28 0,0 65,-53 93,-45 28,8 41,37 41,37 0,0 49,4 57,-37 8,-41 8,-41 8,-41 0,0 -73,20 -73,-24 0,-45 53,-61 53,-61 0,0 -45,-57 20,-81 65,-24 81,45 81,45 0,0 41,-45 81,8 41,53 -4,61 -4,61 0,0 32,8 45,32 12,24 32,24 37,69 4,45 -69,61 -69,61 0,0 -24,4 -24,41 0,37 -37,65 -37,65 0,0 41,-16 49,-4 8,12 49,8 49,8 0,0 -29,-61 32,-61 61,0 57,32 57,32 0,0 49,-4 65,28 16,33 -4,94 -4,94 0,0 28,0 45,12 16,12 12,49 12,49 0,0 57,-12 69,29 12,41 45,12 45,12 0,0 41,8 45,28 4,20 24,45 24,45 0,0 29,-37 41,-20 12,16 0,73 0,73 0,0 28,-12 45,-12 16,0 33,-4 33,-4 0,0 -65,-37 -20,-73 45,-36 -4,-77 -4,-77 0,0 -61,32 -57,-8 4,-41 53,-24 45,-36 -8,-12 -20,-69 28,-73 49,-4 33,49 33,49 0,0 24,-49 53,-28 29,20 16,45 16,45 0,0 41,4 49,45 8,41 -33,57 -33,57 0,0 4,33 -12,57 -16,24 -45,8 -45,8 0,0 49,65 36,85 -12,20 -69,20 -69,20 0,0 -49,57 -77,81 -28,24 -49,-4 -49,-4 0,0 37,32 24,65 -12,33 -41,49 -41,49 0,0 53,-33 85,-20 32,12 28,61 28,61 0,0 8,-49 57,-61 49,-12 53,28 53,28 0,0 -8,-57 28,-65 37,-8 45,8 45,8 0,0 24,-20 37,4 12,24 -53,53 -53,53 0,0 4,24 -20,45 -24,20 -81,4 -81,4 0,0 24,36 -4,53 -28,16 -53,16 -53,16 0,0 41,8 49,28 8,20 -4,53 -4,53 0,0 57,-32 85,-12 28,20 0,65 0,65 0,0 -12,24 -32,41 -20,16 -69,4 -69,4 0,0 24,8 28,41 4,32 -8,49 -8,49 0,0 28,-53 57,-57 28,-4 65,16 65,16 0,0 28,24 8,57 -20,33 -45,-12 -45,-12 0,0 -16,61 -36,65 -20,4 -45,-12 -45,-12 0,0 4,73 -24,73 -29,0 -45,-33 -45,-33 0,0 0,45 -12,69 -12,24 -12,24 -12,24 0,0 -8,41 -57,45 -49,4 -49,4 -49,4 0,0 28,-8 33,45 4,53 4,53 4,53 0,0 0,-45 45,-45 45,0 81,37 81,37 0,0 12,-49 45,-49 33,0 53,37 53,37 0,0 41,-41 69,-33 28,8 0,65 0,65 0,0 36,-20 36,16 0,37 -57,53 -57,53 0,0 24,49 24,77 0,28 -20,20 -20,20 0,0 8,61 -29,69 -36,8 -49,-33 -49,-33 0,0 -36,20 -53,20 -16,0 -49,-45 -49,-45 0,0 -20,20 -45,20 -24,0 -69,-45 -69,-45 0,0 12,28 8,61 -4,33 -4,45 -4,45 0,0 37,-32 61,-12 25,20 0,61 0,61 0,0 41,20 41,57 0,36 -41,4 -41,4 0,0 -28,-16 -40,-37 -12,-20 -12,-20 -12,-20 0,0 -16,4 -28,37 -12,33 28,12 49,45 20,33 0,61 0,61 0,0 41,0 41,20 0,20 -45,28 -45,28 0,0 -29,4 -24,33 4,28 -32,49 -32,49 0,0 81,-45 106,-20 25,24 12,49 12,49 0,0 61,-32 73,-12 12,20 -16,77 -16,77 0,0 37,16 33,45 -4,28 -45,32 -45,32 0,0 24,69 -8,77 -33,8 -61,-24 -61,-24 0,0 -4,49 -36,53 -33,4 -49,-49 -49,-49 0,0 0,45 -33,45 -32,0 -41,-73 -41,-73 0,0 -8,37 -45,32 -36,-4 -49,-69 -49,-69 0,0 -8,37 -37,45 -28,8 -53,-28 -53,-28 0,0 20,65 -16,73 -37,8 -69,-45 -69,-45 0,0 -4,53 -28,53 -24,0 -37,-73 -37,-73 0,0 4,20 -49,-24 -53,-45 -28,-93 -28,-93 0,0 -12,4 -57,-20 -45,-24 -53,-102 -53,-102 0,0 -4,65 -37,61 -33,-4 -73,-73 -73,-73 0,0 -25,53 -45,45 -20,-8 -24,-90 -24,-90 0,0 -45,12 -65,-20 -21,-33 -8,-73 -8,-73 0,0 -61,32 -73,-16 -12,-49 -33,-98 -33,-98 0,0 -28,4 -53,-28 -24,-33 -8,-98 -8,-98 0,0 -25,24 -61,24 -37,0 -65,-24 -65,-24 0,0 37,73 12,73 -24,0 -57,-8 -57,-8 0,0 20,33 -4,33 -24,0 -57,-16 -57,-16 0,0 28,41 0,49 -29,8 -94,8 -94,8 0,0 41,45 12,65 -28,20 -57,-20 -57,-20 0,0 -41,28 -73,12 -33,-16 -57,-69 -57,-69 0,0 32,85 0,81 -33,-4 -61,-37 -61,-37 0,0 20,37 8,61 -12,25 -73,12 -73,12 0,0 57,53 32,73 -24,20 -69,4 -69,4 0,0 41,4 25,57 -16,53 -73,49 -73,49 0,0 -8,16 -45,28 -37,12 -81,-61 -81,-61 0,0 -16,20 -45,4 -28,-16 -16,-69 -16,-69 0,0 -41,49 -73,24 -33,-24 12,-57 12,-57 0,0 36,-73 8,-65 -28,8 -49,-53 -49,-53 0,0 -37,24 -16,61l3 0z"/>
     <path class="fil47" d="M-456 21802c90,-87 154,-6 149,113 -50,0 89,-76 44,-44 6,15 60,37 23,88 18,-16 66,-29 77,4 55,-40 80,-44 97,30 72,-84 122,-21 172,81 37,-33 109,22 84,59 66,-29 75,-16 104,73 21,-15 96,-21 89,45 62,-22 103,67 124,157 17,-12 139,-7 142,59 58,-29 91,13 117,62 134,-101 193,33 190,99 88,-40 144,69 132,115 67,-23 106,-126 204,-45 102,-73 153,30 204,106 84,4 147,25 149,55 42,-32 146,-69 197,19 99,-65 225,7 230,92 142,-25 230,-40 262,132 25,-15 124,18 149,92 77,-40 72,39 74,83 32,-9 58,-98 87,-42 51,10 6,62 9,91 78,-115 151,-105 227,10 9,-8 8,-67 66,-29 63,-26 69,19 69,19 29,-25 55,-99 117,-67 40,12 27,62 39,88 26,-44 45,-123 104,-91 146,-75 168,47 261,7 67,6 104,50 58,137 36,-43 65,-77 104,-25 58,-55 173,28 175,70 127,-20 197,-76 248,101 114,-19 183,29 168,145 293,-100 375,124 402,201 39,-13 47,10 70,72 0,-72 13,-112 70,-101 3,-34 67,-28 60,-1 46,-89 78,-116 113,-70 24,-30 94,-21 82,33 24,-25 64,-48 81,-3 41,-75 92,-132 211,-6 158,-81 183,-89 278,49 226,-58 509,-11 439,384 84,-14 206,-120 250,5 66,-128 67,-77 190,-7 44,-135 94,3 102,11 70,-91 73,20 81,71 47,-39 76,-111 105,-49 88,-55 67,38 67,67 64,-19 218,-99 236,29 77,-135 178,-35 150,45 48,-45 116,-118 127,-26 66,-47 107,25 113,48 120,-36 215,-65 193,77 95,-142 193,-114 201,-25 91,-29 65,81 38,120 41,-9 71,-138 129,-35 0,0 95,-146 158,-56 69,-111 175,-100 211,-20 -7,29 77,-106 105,41 92,-11 45,-114 147,-103 66,-66 75,27 70,55 81,-24 83,-58 193,34 131,-48 252,-58 282,72 120,-122 262,-56 265,144 87,-11 65,99 31,137 36,-18 110,-111 160,-41 129,-84 267,40 245,142 142,15 102,140 96,145l-10504 -23 7 -3300 1 -5z"/>
     <path class="fil48 str1" d="M-283 22533c11,-27 0,-84 58,-101 58,7 17,50 37,98 23,10 65,-62 101,-43 19,3 26,80 39,90 25,-35 30,-38 71,-66 55,29 93,99 38,124 57,18 118,33 108,60 -22,-5 16,-69 70,-35 53,14 51,76 58,89 11,-53 37,-107 91,-107 80,11 41,119 45,128 16,-3 50,-28 61,-24 103,19 69,92 91,150 21,-5 17,-62 66,-45 74,37 30,70 38,124 15,-28 40,-43 67,-46 65,39 31,82 31,144 21,-15 34,-42 53,-59 93,23 45,100 57,144 31,-12 51,-89 95,-19 53,0 32,88 9,149 -5,5 54,-37 70,6 108,79 -17,79 -17,151 18,9 21,-22 41,-21 109,56 1,133 26,203 16,-17 4,-83 52,-73 31,11 -2,59 25,67 29,-38 55,-89 87,-120 82,-17 96,64 82,126 88,-90 126,-68 120,7 171,-64 81,96 133,48 107,-96 149,-96 133,48 75,-69 149,-37 128,43 117,0 77,143 96,123 128,-112 102,-22 93,44 39,-26 7,-49 94,41 59,-75 92,12 83,58 114,-132 80,11 103,33 93,40 82,-12 79,44 30,-18 81,9 86,137 101,48 75,101 45,150 -14,-32 55,80 58,85 41,-10 36,-69 79,-21 -2,37 51,80 46,119 82,-82 82,23 93,25 75,-43 107,5 86,131 19,-12 45,-68 31,-44 -4,18 70,10 70,74 110,-21 37,-62 140,-28 -12,-111 71,-70 127,-95 75,32 22,106 29,173 109,-124 291,-221 371,-18 142,-109 251,-19 289,129 37,-155 56,-57 90,-102 69,-64 96,3 68,56 124,-98 343,-77 356,29 5,38 124,78 157,47 80,-73 169,-34 245,17 122,-98 294,-119 277,113l-5456 26 0 -2584 1 -2z"/>
    </g>
   </g>
   <polygon class="fil49" points="6,0 19054,0 19054,26053 6,26053 "/>
   <path class="fil43" d="M11253 21355c0,0 -1176,0 -810,135 366,135 771,0 1215,328 444,328 521,231 945,251 424,19 791,212 1215,39 424,-174 444,-231 656,-270 212,-39 849,-135 96,-309 -752,-174 -1080,-212 -1794,-154 -714,58 -1524,-19 -1524,-19l1 -1z"/>
   <path class="fil43" d="M14690 21487c0,0 -1176,0 -810,135 366,135 771,0 1215,328 444,328 405,521 829,540 424,19 906,-77 1331,-251 424,-174 444,-231 656,-270 212,-39 849,-135 96,-309 -752,-174 -1080,-212 -1794,-154 -714,58 -1524,-19 -1524,-19l1 0z"/>
   <circle class="fil50" transform="matrix(-0.646698 0.361296 0.683645 1.22368 11997.8 19341.8)" r="507"/>
   <path class="fil24" d="M8353 21519l-1 0 -1 0 -1 0 -1 0 -1 0 -1 0 -1 0 -1 0 -1 0 -1 0 -1 0 -1 0 -1 0 -1 -1 -1 -1 -1 -1 -1 -1 -1 -1 -1 -1 -1 -1 -1 -1 -1 -1 -1 -1 -1 -1 -1 -1 -1 -1 -1 -1 -1 -1 0 -1 0 -1 0 -1 0 -1 0 -1 0 -1 0 -1 0 -1 0 -1 0 -1 0 -1 0 -1 0 -1 0 -1 0 -1 1 -1 1 -1 1 -1 1 -1 1 -1 1 -1 1 -1 1 -1 1 -1 1 -1 1 -1 1 -1 1 -1 1 -1 1 -1 1 0 1 0 1 0 1 0 1 0 1 0 9 45 -2 0zm2236 -375l3 0 6 45 -2246 330 -9 -45 2246 -330zm0 0l1 0 1 0 1 0 1 0 1 0 1 0 1 0 1 0 1 0 1 0 1 0 1 0 1 0 1 1 1 1 1 1 1 1 1 1 1 1 1 1 1 1 1 1 1 1 1 1 1 1 1 1 1 1 1 1 0 1 0 1 0 1 0 1 0 1 0 1 0 1 0 1 0 1 0 1 0 1 0 1 0 1 0 1 0 1 -1 1 -1 1 -1 1 -1 1 -1 1 -1 1 -1 1 -1 1 -1 1 -1 1 -1 1 -1 1 -1 1 -1 1 -1 1 -1 0 -1 0 -1 0 -1 0 -1 0 -1 0 -9 -45 2 0zm-1292 107l-3 -46 1298 -62 3 46 -1298 62zm0 0l-1 0 -1 0 -1 0 -1 0 -1 0 -1 0 -1 0 -1 0 -1 0 -1 0 -1 -1 -1 -1 -1 -1 -1 -1 -1 -1 -1 -1 -1 -1 -1 -1 -1 -1 -1 -1 -1 -1 -1 -1 -1 -1 -1 -1 -1 -1 0 -1 0 -1 0 -1 0 -1 0 -1 0 -1 0 -1 0 -1 0 -1 0 -1 0 -1 0 -1 0 -1 0 -1 0 -1 0 -1 1 -1 1 -1 1 -1 1 -1 1 -1 1 -1 1 -1 1 -1 1 -1 1 -1 1 -1 1 -1 1 -1 1 -1 1 -1 1 0 1 0 1 0 1 0 1 0 1 0 1 0 1 0 3 46 -1 0z"/>
   <circle class="fil51" transform="matrix(0.475747 -0.210374 0.39807 0.900208 7723.79 19548.7)" r="507"/>
   <circle class="fil52" transform="matrix(0.234928 -0.103885 0.196571 0.444531 7723.79 19548.7)" r="507"/>
   <circle class="fil51" transform="matrix(-0.475747 -0.210374 -0.39807 0.900208 10301.8 19548.7)" r="507"/>
   <circle class="fil52" transform="matrix(-0.234928 -0.103885 -0.196571 0.444531 10301.8 19548.7)" r="507"/>
   <circle class="fil53" cx="9009" cy="18991" r="1427"/>
   <g style="clip-path:url(#id14)">
    <polygon class="fil49" style="mask:url(#id15)" points="7579,17561 10440,17561 10440,20422 7579,20422 "/>
   </g>
   <g style="clip-path:url(#id17)">
    <g>
     <path id="1" class="fil54" style="mask:url(#id18)" d="M9009 17564c788,0 1427,639 1427,1427 0,788 -639,1427 -1427,1427 -788,0 -1427,-639 -1427,-1427 0,-788 639,-1427 1427,-1427z"/>
    </g>
   </g>
   <polygon class="fil49" points="7579,20422 10440,20422 10440,17561 7579,17561 "/>
   <path class="fil29" d="M9011 17564c325,0 625,109 865,292l0 0c-560,85 -1130,116 -1730,0 240,-183 540,-292 865,-292z"/>
   <ellipse class="fil55" cx="8462" cy="18913" rx="299" ry="394"/>
   <ellipse class="fil55" cx="9600" cy="18908" rx="299" ry="394"/>
   <ellipse class="fil31" cx="9604" cy="18872" rx="267" ry="353"/>
   <circle class="fil29" cx="9462" cy="18797" r="100"/>
   <path class="fil29" d="M8308 18166c120,-38 247,-17 353,49 -103,-15 -216,-7 -328,29 -112,35 -209,94 -285,165 49,-114 140,-205 261,-243l-1 0z"/>
   <path class="fil29" d="M9681 18212c-124,-23 -247,14 -344,91 101,-27 214,-33 329,-12 116,22 219,67 303,129 -63,-107 -164,-186 -288,-209l0 1z"/>
   <path class="fil31" d="M9540 19756c-442,19 -780,-7 -1060,20 431,177 584,218 1060,-20z"/>
   <ellipse class="fil31" cx="8456" cy="18872" rx="267" ry="353"/>
   <circle class="fil29" cx="8313" cy="18809" r="100"/>
   <path class="fil24" d="M9507 21519l11 -45 1 0 1 0 1 0 1 0 1 0 1 1 1 1 1 1 1 1 1 1 1 1 1 1 1 1 1 1 1 1 1 1 1 1 1 1 1 1 1 1 0 1 0 1 0 1 0 1 0 1 0 1 0 1 0 1 0 1 0 1 0 1 0 1 0 1 0 1 0 1 -1 1 -1 1 -1 1 -1 1 -1 1 -1 1 -1 1 -1 1 -1 1 -1 1 -1 1 -1 1 -1 1 -1 1 -1 1 -1 0 -1 0 -1 0 -1 0 -1 0 -1 0 -1 0 -1 0 -1 0 -1 0 -1 0 -1 0 -1 0 -1 0 -2 0zm-2172 -430l2183 385 -11 45 -2183 -385 8 -45 3 0zm0 0l-11 45 -1 0 -1 0 -1 0 -1 0 -1 0 -1 -1 -1 -1 -1 -1 -1 -1 -1 -1 -1 -1 -1 -1 -1 -1 -1 -1 -1 -1 -1 -1 -1 -1 -1 -1 -1 -1 -1 -1 0 -1 0 -1 0 -1 0 -1 0 -1 0 -1 0 -1 0 -1 0 -1 0 -1 0 -1 0 -1 0 -1 0 -1 0 -1 1 -1 1 -1 1 -1 1 -1 1 -1 1 -1 1 -1 1 -1 1 -1 1 -1 1 -1 1 -1 1 -1 1 -1 1 -1 1 0 1 0 1 0 1 0 1 0 1 0 1 0 1 0 1 0 1 0 1 0 1 0 1 0 1 0 2 0zm1404 142l-1411 -97 4 -46 1411 97 -4 46zm0 0l4 -46 1 0 1 0 1 0 1 0 1 0 1 0 1 0 1 0 1 1 1 1 1 1 1 1 1 1 1 1 1 1 1 1 1 1 1 1 1 1 1 1 1 1 1 1 1 1 0 1 0 1 0 1 0 1 0 1 0 1 0 1 0 1 0 1 0 1 0 1 0 1 0 1 0 1 0 1 -1 1 -1 1 -1 1 -1 1 -1 1 -1 1 -1 1 -1 1 -1 1 -1 1 -1 1 -1 1 -1 1 -1 1 -1 1 -1 0 -1 0 -1 0 -1 0 -1 0 -1 0 -1 0 -1 0 -1 0 -1 0 -1 0 -1 1z"/>
   <rect class="fil28" x="8359" y="20259" width="1300" height="922"/>
   <path class="fil56" d="M9659 20329l0 103 -1300 171 0 -103 1300 -171zm0 242l0 103 -1300 171 0 -103 1300 -171zm0 242l0 103 -1300 171 0 -103 1300 -171z"/>
   <path class="fil57" d="M8732 21311c68,0 130,-48 180,-129l0 0 -361 0c50,81 113,129 180,129l1 0z"/>
   <path class="fil57" d="M9287 21311c68,0 130,-48 180,-129l0 0 -361 0c50,81 113,129 180,129l1 0z"/>
   <path class="fil29" d="M8283 21476c-32,21 -58,47 -76,72l-17 28c-17,34 -20,66 -4,89 32,47 126,38 212,-19 86,-58 129,-142 98,-189 -32,-47 -126,-38 -212,19l-1 0z"/>
   <path class="fil29" d="M8818 21087c-40,-14 -74,-34 -101,-56l-26 -26c-27,-31 -38,-65 -28,-93 21,-58 125,-75 231,-37 107,38 176,117 155,175 -21,58 -125,75 -231,37z"/>
   <path class="fil29" d="M9650 21520c32,21 58,47 76,72l17 28c17,34 20,66 4,89 -32,47 -126,38 -212,-19 -86,-58 -129,-142 -98,-189 32,-47 126,-38 212,19l1 0z"/>
   <path class="fil29" d="M9218 20842c-42,5 -80,17 -111,32l-31 19c-33,24 -52,54 -48,85 7,62 105,101 217,88 113,-13 198,-74 191,-136 -7,-62 -105,-101 -217,-88l-1 0z"/>
   <path class="fil24" d="M8813 20994l17 -32 1 0 1 0 1 0 1 0 1 0 1 0 1 1 1 1 1 1 1 1 1 1 1 1 1 1 1 1 1 1 1 1 1 1 0 1 0 1 0 1 0 1 0 1 0 1 0 1 0 1 0 1 0 1 0 1 0 1 0 1 0 1 0 1 0 1 -1 1 -1 1 -1 1 -1 1 -1 1 -1 1 -1 1 -1 1 -1 1 -1 1 -1 1 -1 0 -1 0 -1 0 -1 0 -1 0 -1 0 -1 0 -1 0 -1 0 -1 0 -1 0 -1 0 -1 0 -1 0 -1 0 -1 0 -1 0 -1 0 -1 0 -1 0 -3 -6zm-1360 -325l1378 292 -17 32 -1378 -292 -7 -30 24 -2zm0 0l-17 32 -1 0 -1 0 -1 0 -1 0 -1 0 -1 0 -1 -1 -1 -1 -1 -1 -1 -1 -1 -1 -1 -1 -1 -1 -1 -1 -1 -1 -1 -1 -1 -1 0 -1 0 -1 0 -1 0 -1 0 -1 0 -1 0 -1 0 -1 0 -1 0 -1 0 -1 0 -1 0 -1 0 -1 0 -1 0 -1 1 -1 1 -1 1 -1 1 -1 1 -1 1 -1 1 -1 1 -1 1 -1 1 -1 1 -1 1 0 1 0 1 0 1 0 1 0 1 0 1 0 1 0 1 0 1 0 1 0 1 0 1 0 1 0 1 0 1 0 1 0 1 0 1 0 1 0 3 6zm929 -369l-923 399 -31 -28 923 -399 31 28zm0 0l-31 -28 1 0 1 0 1 0 1 0 1 0 1 0 1 0 1 0 1 0 1 0 1 0 1 0 1 0 1 0 1 0 1 0 1 0 1 0 1 0 1 0 1 0 1 0 1 0 1 0 1 0 1 1 1 1 1 1 1 1 1 1 1 1 1 1 1 1 1 1 1 1 1 1 0 1 0 1 0 1 0 1 0 1 0 1 0 1 0 1 0 1 0 1 0 1 0 1 0 1 0 1 0 1 0 1 -1 1 -1 1 -1 1 -1 1 -1 1 -1 1 -1 1 -1 1 -1 1 -1 1 -1 1 -1 1 7 -11z"/>
   <path class="fil24" d="M9142 21001l-1 0 -1 0 -1 0 -1 0 -1 0 -1 0 -1 0 -1 0 -1 0 -1 0 -1 0 -1 0 -1 0 -1 0 -1 -1 -1 -1 -1 -1 -1 -1 -1 -1 -1 -1 -1 -1 -1 -1 -1 -1 -1 -1 -1 -1 -1 -1 0 -1 0 -1 0 -1 0 -1 0 -1 0 -1 0 -1 0 -1 0 -1 0 -1 0 -1 0 -1 0 -1 0 -1 0 -1 1 -1 1 -1 1 -1 1 -1 1 -1 1 -1 1 -1 1 -1 1 -1 1 -1 1 -1 1 0 1 0 1 0 1 0 1 0 1 0 1 0 1 0 1 0 1 0 1 0 1 0 4 34 -1 4zm1115 -82l25 8 -21 26 -1119 48 -4 -34 1119 -48zm0 0l1 0 1 0 1 0 1 0 1 0 1 0 1 0 1 0 1 0 1 0 1 0 1 0 1 0 1 0 1 1 1 1 1 1 1 1 1 1 1 1 1 1 1 1 1 1 1 1 1 1 1 1 0 1 0 1 0 1 0 1 0 1 0 1 0 1 0 1 0 1 0 1 0 1 0 1 0 1 0 1 0 1 -1 1 -1 1 -1 1 -1 1 -1 1 -1 1 -1 1 -1 1 -1 1 -1 1 -1 1 -1 0 -1 0 -1 0 -1 0 -1 0 -1 0 -1 0 -1 0 -1 0 -1 0 -1 0 -1 0 -4 -34 1 -4zm-636 -606l46 -18 615 632 -46 18 -615 -632zm0 0l-1 -1 -1 -1 -1 -1 0 -1 0 -1 0 -1 0 -1 0 -1 0 -1 0 -1 0 -1 0 -1 0 -1 0 -1 0 -1 0 -1 0 -1 0 -1 0 -1 1 -1 1 -1 1 -1 1 -1 1 -1 1 -1 1 -1 1 -1 1 -1 1 -1 1 -1 1 -1 1 0 1 0 1 0 1 0 1 0 1 0 1 0 1 0 1 0 1 0 1 0 1 0 1 0 1 0 1 0 1 0 1 0 1 0 1 0 1 0 1 0 1 0 1 0 1 0 1 0 1 1 1 1 1 1 1 1 1 1 1 1 1 1 1 1 -46 18 4 5z"/>
   <path class="fil29 str2" d="M8982 17626c-32,-247 177,-291 253,-551 25,-87 -19,-189 -128,-310 378,243 296,386 140,665 -102,183 3,237 7,237l-271 -42 -1 1z"/>
   <path class="fil24" d="M15736 21797l50 -12 0 1 0 1 0 1 0 1 0 1 0 1 0 1 0 1 0 1 0 1 0 1 0 1 0 1 0 1 0 1 -1 1 -1 1 -1 1 -1 1 -1 1 -1 1 -1 1 -1 1 -1 1 -1 1 -1 1 -1 0 -1 0 -1 0 -1 0 -1 0 -1 0 -1 0 -1 0 -1 0 -1 0 -1 0 -1 0 -1 0 -1 0 -1 0 -1 0 -1 0 -1 0 -1 0 -1 0 -1 0 -1 0 -1 0 -1 0 -1 0 -1 0 -1 0 -1 -1 -1 -1 -1 -1 -1 -1 -1 -1 -1 -1 -1 -1 -1 -1 -1 -1 -1 -1 -1 -1 -1 -3zm-156 -366l206 355 -50 12 -206 -355 4 -16 46 4zm0 0l-50 12 0 -1 0 -1 0 -1 0 -1 0 -1 0 -1 0 -1 0 -1 0 -1 0 -1 0 -1 0 -1 0 -1 0 -1 0 -1 1 -1 1 -1 1 -1 1 -1 1 -1 1 -1 1 -1 1 -1 1 -1 1 -1 1 -1 1 0 1 0 1 0 1 0 1 0 1 0 1 0 1 0 1 0 1 0 1 0 1 0 1 0 1 0 1 0 1 0 1 0 1 0 1 0 1 0 1 0 1 0 1 0 1 0 1 0 1 0 1 0 1 1 1 1 1 1 1 1 1 1 1 1 1 1 1 1 1 1 1 1 1 1 1 3zm518 -412l-522 428 -42 -21 522 -428 42 21zm0 0l-42 -21 1 -1 1 -1 1 -1 1 -1 1 -1 1 0 1 0 1 0 1 0 1 0 1 0 1 0 1 0 1 0 1 0 1 0 1 0 1 0 1 0 1 0 1 0 1 0 1 0 1 0 1 0 1 0 1 0 1 0 1 0 1 0 1 0 1 1 1 1 1 1 1 1 1 1 1 1 1 1 1 1 1 1 1 1 1 1 0 1 0 1 0 1 0 1 0 1 0 1 0 1 0 1 0 1 0 1 0 1 0 1 0 1 0 1 0 1 0 1 0 1 -1 1 -1 1 -1 1 -1 1 -1 1 5 -7z"/>
   <path class="fil29" d="M16260 22389c-19,-37 -30,-75 -33,-108l-1 -36c2,-41 17,-72 43,-86 55,-27 139,31 189,131 50,100 46,203 -9,230 -55,27 -139,-31 -189,-131z"/>
   <path class="fil24" d="M15783 22120l-1 0 -1 0 -1 0 -1 0 -1 0 -1 0 -1 0 -1 0 -1 0 -1 0 -1 0 -1 -1 -1 -1 -1 -1 -1 -1 -1 -1 -1 -1 -1 -1 -1 -1 -1 -1 -1 -1 -1 -1 -1 -1 -1 -1 -1 -1 -1 -1 0 -1 0 -1 0 -1 0 -1 0 -1 0 -1 0 -1 0 -1 0 -1 0 -1 0 -1 0 -1 0 -1 0 -1 0 -1 0 -1 1 -1 1 -1 1 -1 1 -1 1 -1 1 -1 1 -1 1 -1 1 -1 1 -1 1 -1 1 -1 1 -1 1 -1 1 0 1 0 1 0 1 0 1 0 1 0 1 0 1 0 4 45zm1745 -161l4 0 0 45 -1749 116 -4 -45 1749 -116zm0 0l1 0 1 0 1 0 1 0 1 0 1 0 1 0 1 0 1 0 1 0 1 0 1 1 1 1 1 1 1 1 1 1 1 1 1 1 1 1 1 1 1 1 1 1 1 1 1 1 1 1 1 1 0 1 0 1 0 1 0 1 0 1 0 1 0 1 0 1 0 1 0 1 0 1 0 1 0 1 0 1 0 1 0 1 -1 1 -1 1 -1 1 -1 1 -1 1 -1 1 -1 1 -1 1 -1 1 -1 1 -1 1 -1 1 -1 1 -1 1 -1 0 -1 0 -1 0 -1 0 -1 0 -1 0 -1 0 -1 0 -4 -45zm-774 -3l4 -45 774 48 -4 45 -774 -48zm0 0l-1 0 -1 0 -1 0 -1 0 -1 0 -1 0 -1 0 -1 0 -1 -1 -1 -1 -1 -1 -1 -1 -1 -1 -1 -1 -1 -1 -1 -1 -1 -1 -1 -1 -1 -1 -1 -1 -1 -1 -1 -1 -1 -1 0 -1 0 -1 0 -1 0 -1 0 -1 0 -1 0 -1 0 -1 0 -1 0 -1 0 -1 0 -1 0 -1 0 -1 0 -1 1 -1 1 -1 1 -1 1 -1 1 -1 1 -1 1 -1 1 -1 1 -1 1 -1 1 -1 1 -1 1 -1 1 -1 1 -1 1 0 1 0 1 0 1 0 1 0 1 0 1 0 1 0 1 0 1 0 1 0 -4 45 1 0z"/>
   <circle class="fil58" transform="matrix(0.482183 0.155989 -0.155989 0.482183 16476.6 19735.5)" r="2767"/>
   <g style="clip-path:url(#id20)">
    <polygon class="fil49" style="mask:url(#id21)" points="15070,18329 17883,18329 17883,21142 15070,21142 "/>
   </g>
   <g style="clip-path:url(#id23)">
    <g>
     <path id="1" class="fil54" style="mask:url(#id24)" d="M16908 18401c737,238 1141,1029 903,1766 -238,737 -1029,1141 -1766,903 -737,-238 -1141,-1029 -903,-1766 238,-737 1029,-1141 1766,-903z"/>
    </g>
   </g>
   <polygon class="fil49" points="15070,21142 17883,21142 17883,18329 15070,18329 "/>
   <path class="fil24" d="M16324 22207l21 -42 1 0 1 1 1 1 1 1 1 1 1 1 1 1 1 1 1 1 1 1 1 1 1 1 1 1 1 1 1 1 1 1 0 1 0 1 0 1 0 1 0 1 0 1 0 1 0 1 0 1 0 1 0 1 0 1 0 1 0 1 0 1 -1 1 -1 1 -1 1 -1 1 -1 1 -1 1 -1 1 -1 1 -1 1 -1 1 -1 1 -1 1 -1 1 -1 1 -1 1 -1 0 -1 0 -1 0 -1 0 -1 0 -1 0 -1 0 -1 0 -1 0 -1 0 -1 0 -1 0 -1 0 -1 0 -1 0 -1 0 -1 0 -1 0 -4 -3zm-890 -363l911 321 -21 42 -911 -321 13 -43 8 2 0 -1zm0 0l-21 42 -1 0 -1 -1 -1 -1 -1 -1 -1 -1 -1 -1 -1 -1 -1 -1 -1 -1 -1 -1 -1 -1 -1 -1 -1 -1 -1 -1 -1 -1 -1 -1 0 -1 0 -1 0 -1 0 -1 0 -1 0 -1 0 -1 0 -1 0 -1 0 -1 0 -1 0 -1 0 -1 0 -1 0 -1 1 -1 1 -1 1 -1 1 -1 1 -1 1 -1 1 -1 1 -1 1 -1 1 -1 1 -1 1 -1 1 -1 1 -1 1 -1 1 0 1 0 1 0 1 0 1 0 1 0 1 0 1 0 1 0 1 0 1 0 1 0 1 0 1 0 1 0 1 0 1 0 1 0 4 3zm791 112l-804 -68 5 -45 804 68 -5 45zm0 0l5 -45 1 0 1 0 1 0 1 0 1 0 1 0 1 0 1 1 1 1 1 1 1 1 1 1 1 1 1 1 1 1 1 1 1 1 1 1 1 1 1 1 1 1 1 1 0 1 0 1 0 1 0 1 0 1 0 1 0 1 0 1 0 1 0 1 0 1 0 1 0 1 0 1 0 1 0 1 -1 1 -1 1 -1 1 -1 1 -1 1 -1 1 -1 1 -1 1 -1 1 -1 1 -1 1 -1 1 -1 1 -1 1 -1 0 -1 0 -1 0 -1 0 -1 0 -1 0 -1 0 -1 0 -1 0 -1 0 -1 0 -1 0 -1 0z"/>
   <rect class="fil28" x="15835" y="20982" width="1278" height="907"/>
   <path class="fil59" d="M17112 21050l0 102 -1278 168 0 -102 1278 -168zm0 238l0 102 -1278 168 0 -102 1278 -168zm0 238l0 102 -1278 168 0 -102 1278 -168z"/>
   <path class="fil57" d="M16201 22016c67,0 128,-47 177,-127l0 0 -355 0c49,80 111,127 177,127l1 0z"/>
   <path class="fil57" d="M16746 22016c67,0 128,-47 177,-127l0 0 -355 0c49,80 111,127 177,127l1 0z"/>
   <path class="fil29" d="M15636 22104c-31,21 -57,46 -75,71l-17 28c-17,33 -19,65 -4,87 31,46 124,38 208,-19 84,-57 127,-140 96,-186 -31,-46 -124,-38 -208,19z"/>
   <circle class="fil50" transform="matrix(0.504094 0.54281 -1.0271 0.953846 17012.4 20110.5)" r="507"/>
   <path class="fil29" d="M15947 21672c31,21 57,46 75,71l17 28c17,33 19,65 4,87 -31,46 -124,38 -208,-19 -84,-57 -127,-140 -96,-186 31,-46 124,-38 208,19z"/>
   <path class="fil29" d="M17585 18876c-197,-252 -463,-419 -750,-494l0 0 1047 1341c-3,-297 -100,-595 -297,-847z"/>
   <path class="fil31" d="M15271 20452c-27,-47 -52,-95 -74,-144 274,-13 476,-70 780,-301 -207,419 -536,467 -706,445z"/>
   <circle class="fil33" transform="matrix(0.304032 0.0983563 -0.129776 0.401153 15660.1 19394.7)" r="920"/>
   <path class="fil29" d="M15957 19038c75,99 189,153 311,160 -91,-46 -178,-117 -248,-209 -70,-92 -115,-194 -136,-294 -25,120 -3,244 72,342l1 1z"/>
   <circle class="fil31" transform="matrix(0.272054 0.0880111 -0.116126 0.35896 15702.1 19365.5)" r="920"/>
   <circle class="fil29" transform="matrix(0.346259 0.112017 -0.112017 0.346258 15526.8 19310.7)" r="269"/>
   <path class="fil24" d="M15975 21816l-1 0 -1 0 -1 0 -1 0 -1 0 -1 0 -1 0 -1 0 -1 0 -1 0 -1 0 -1 0 -1 0 -1 0 -1 0 -1 0 -1 0 -1 0 -1 0 -1 0 -1 0 -1 -1 -1 -1 -1 -1 -1 -1 -1 -1 -1 -1 -1 -1 -1 -1 -1 -1 -1 -1 -1 -1 0 -1 0 -1 0 -1 0 -1 0 -1 0 -1 0 -1 0 -1 0 -1 0 -1 0 -1 0 -1 0 -1 0 -1 0 -1 0 -1 1 -1 1 -1 1 -1 1 -1 1 -1 1 -1 1 -1 1 -1 1 -1 1 -1 1 -1 1 0 1 0 1 0 1 0 1 0 20 31 -4 7zm883 -260l36 20 -16 11 -902 229 -20 -31 902 -229zm0 0l1 0 1 0 1 0 1 0 1 0 1 0 1 0 1 0 1 0 1 0 1 0 1 0 1 0 1 0 1 0 1 0 1 0 1 0 1 0 1 0 1 0 1 1 1 1 1 1 1 1 1 1 1 1 1 1 1 1 1 1 1 1 1 1 0 1 0 1 0 1 0 1 0 1 0 1 0 1 0 1 0 1 0 1 0 1 0 1 0 1 0 1 0 1 0 1 -1 1 -1 1 -1 1 -1 1 -1 1 -1 1 -1 1 -1 1 -1 1 -1 1 -1 1 -1 0 -1 0 -1 0 -1 0 -1 0 -20 -31 4 -7zm217 -544l51 9 -233 555 -51 -9 233 -555zm0 0l0 -1 0 -1 1 -1 1 -1 1 -1 1 -1 1 -1 1 -1 1 -1 1 -1 1 -1 1 -1 1 -1 1 0 1 0 1 0 1 0 1 0 1 0 1 0 1 0 1 0 1 0 1 0 1 0 1 0 1 0 1 0 1 0 1 0 1 0 1 0 1 0 1 0 1 0 1 0 1 0 1 0 1 0 1 0 1 1 1 1 1 1 1 1 1 1 1 1 1 1 1 1 1 1 1 1 1 1 0 1 0 1 0 1 0 1 0 1 0 1 0 1 0 1 0 1 0 1 0 1 0 1 0 1 -51 -9 2 -2z"/>
   <path class="fil29" d="M15766 21653c-41,3 -79,12 -111,26l-32 17c-34,22 -54,51 -52,81 4,61 97,105 208,98 111,-7 198,-62 194,-123 -4,-61 -97,-105 -208,-97l1 -2z"/>
   <path class="fil29" d="M17483 18864c0,0 321,-132 470,133 192,342 98,824 803,269 0,0 -349,414 -588,349 -240,-65 -175,-333 -292,-437 -117,-103 -246,14 -246,14l-145 -327 -2 -1z"/>
   <path class="fil43" d="M11366 21057c0,0 -1176,0 -810,135 366,135 771,0 1215,328 444,328 405,521 829,540 424,19 906,-77 1331,-251 424,-174 444,-231 656,-270 212,-39 849,-135 96,-309 -752,-174 -1080,-212 -1794,-154 -714,58 -1524,-19 -1524,-19l1 0z"/>
   <path class="fil24" d="M12313 21368l48 -14 1 1 0 1 0 1 0 1 0 1 0 1 0 1 0 1 0 1 0 1 0 1 0 1 0 1 0 1 0 1 0 1 0 1 -1 1 -1 1 -1 1 -1 1 -1 1 -1 1 -1 1 -1 1 -1 1 -1 1 -1 1 -1 0 -1 0 -1 0 -1 0 -1 0 -1 0 -1 0 -1 0 -1 0 -1 0 -1 0 -1 0 -1 0 -1 0 -1 0 -1 0 -1 0 -1 0 -1 0 -1 0 -1 0 -1 0 -1 0 -1 0 -1 0 -1 0 -1 -1 -1 -1 -1 -1 -1 -1 -1 -1 -1 -1 -1 -1 -1 -1 -1 -1 -1 -1 -2 -4zm-320 -506l368 492 -48 14 -368 -492 8 -21 40 6 0 1zm0 0l-48 14 -1 -1 0 -1 0 -1 0 -1 0 -1 0 -1 0 -1 0 -1 0 -1 0 -1 0 -1 0 -1 0 -1 0 -1 0 -1 0 -1 0 -1 1 -1 1 -1 1 -1 1 -1 1 -1 1 -1 1 -1 1 -1 1 -1 1 -1 1 -1 1 0 1 0 1 0 1 0 1 0 1 0 1 0 1 0 1 0 1 0 1 0 1 0 1 0 1 0 1 0 1 0 1 0 1 0 1 0 1 0 1 0 1 0 1 0 1 0 1 0 1 0 1 1 1 1 1 1 1 1 1 1 1 1 1 1 1 1 1 1 1 1 2 4zm577 -258l-585 279 -32 -27 585 -279 32 27zm0 0l-32 -27 1 -1 1 0 1 0 1 0 1 0 1 0 1 0 1 0 1 0 1 0 1 0 1 0 1 0 1 0 1 0 1 0 1 0 1 0 1 0 1 0 1 0 1 0 1 0 1 0 1 0 1 0 1 1 1 1 1 1 1 1 1 1 1 1 1 1 1 1 1 1 1 1 1 1 0 1 0 1 0 1 0 1 0 1 0 1 0 1 0 1 0 1 0 1 0 1 0 1 0 1 0 1 0 1 0 1 -1 1 -1 1 -1 1 -1 1 -1 1 -1 1 -1 1 -1 1 -1 1 -1 1 -1 1 6 -10z"/>
   <path class="fil29" d="M13327 21941c-31,-28 -54,-59 -70,-89l-14 -33c-13,-39 -10,-73 10,-95 41,-45 141,-20 223,55 82,75 115,173 74,218 -41,45 -141,20 -223,-55l0 -1z"/>
   <path class="fil24" d="M12880 21730l-1 0 -1 0 -1 0 -1 0 -1 0 -1 0 -1 0 -1 0 -1 0 -1 0 -1 0 -1 0 -1 -1 -1 -1 -1 -1 -1 -1 -1 -1 -1 -1 -1 -1 -1 -1 -1 -1 -1 -1 -1 -1 -1 -1 -1 -1 -1 -1 -1 -1 0 -1 0 -1 0 -1 0 -1 0 -1 0 -1 0 -1 0 -1 0 -1 0 -1 0 -1 0 -1 0 -1 0 -1 0 -1 0 -1 1 -1 1 -1 1 -1 1 -1 1 -1 1 -1 1 -1 1 -1 1 -1 1 -1 1 -1 1 -1 1 -1 1 -1 1 -1 1 0 1 0 1 0 1 0 1 0 1 0 7 45 -1 1zm1322 -201l6 0 2 45 -1329 157 -7 -45 1329 -157 -1 0zm0 0l1 0 1 0 1 0 1 0 1 0 1 0 1 0 1 0 1 0 1 0 1 0 1 0 1 1 1 1 1 1 1 1 1 1 1 1 1 1 1 1 1 1 1 1 1 1 1 1 1 1 1 1 1 1 0 1 0 1 0 1 0 1 0 1 0 1 0 1 0 1 0 1 0 1 0 1 0 1 0 1 0 1 0 1 0 1 -1 1 -1 1 -1 1 -1 1 -1 1 -1 1 -1 1 -1 1 -1 1 -1 1 -1 1 -1 1 -1 1 -1 1 -1 1 -1 0 -1 0 -1 0 -1 0 -1 0 -1 0 -7 -45 1 -1zm-772 -3l4 -45 774 48 -4 45 -774 -48zm0 0l-1 0 -1 0 -1 0 -1 0 -1 0 -1 0 -1 0 -1 0 -1 -1 -1 -1 -1 -1 -1 -1 -1 -1 -1 -1 -1 -1 -1 -1 -1 -1 -1 -1 -1 -1 -1 -1 -1 -1 -1 -1 -1 -1 0 -1 0 -1 0 -1 0 -1 0 -1 0 -1 0 -1 0 -1 0 -1 0 -1 0 -1 0 -1 0 -1 0 -1 0 -1 1 -1 1 -1 1 -1 1 -1 1 -1 1 -1 1 -1 1 -1 1 -1 1 -1 1 -1 1 -1 1 -1 1 -1 1 -1 1 0 1 0 1 0 1 0 1 0 1 0 1 0 1 0 1 0 1 0 1 0 -4 45 1 0z"/>
   <circle class="fil58" cx="13149" cy="19305" r="1402"/>
   <g style="clip-path:url(#id26)">
    <polygon class="fil49" style="mask:url(#id27)" points="11743,17899 14556,17899 14556,20712 11743,20712 "/>
   </g>
   <g style="clip-path:url(#id29)">
    <g>
     <path id="1" class="fil54" style="mask:url(#id30)" d="M13149 17902c775,0 1402,628 1402,1402 0,775 -628,1402 -1402,1402 -775,0 -1402,-628 -1402,-1402 0,-775 628,-1402 1402,-1402z"/>
    </g>
   </g>
   <polygon class="fil49" points="11743,20712 14556,20712 14556,17899 11743,17899 "/>
   <path class="fil24" d="M13320 21756l15 -43 1 0 1 0 1 0 1 1 1 1 1 1 1 1 1 1 1 1 1 1 1 1 1 1 1 1 1 1 1 1 1 1 1 1 1 1 0 1 0 1 0 1 0 1 0 1 0 1 0 1 0 1 0 1 0 1 0 1 0 1 0 1 0 1 0 1 0 1 -1 1 -1 1 -1 1 -1 1 -1 1 -1 1 -1 1 -1 1 -1 1 -1 1 -1 1 -1 1 -1 1 -1 1 -1 1 -1 0 -1 0 -1 0 -1 0 -1 0 -1 0 -1 0 -1 0 -1 0 -1 0 -1 0 -1 0 -1 0 -1 0 -1 0 -3 -3zm-1214 -343l1228 299 -15 43 -1228 -299 10 -44 5 1zm0 0l-15 43 -1 0 -1 0 -1 0 -1 -1 -1 -1 -1 -1 -1 -1 -1 -1 -1 -1 -1 -1 -1 -1 -1 -1 -1 -1 -1 -1 -1 -1 -1 -1 -1 -1 -1 -1 0 -1 0 -1 0 -1 0 -1 0 -1 0 -1 0 -1 0 -1 0 -1 0 -1 0 -1 0 -1 0 -1 0 -1 0 -1 0 -1 1 -1 1 -1 1 -1 1 -1 1 -1 1 -1 1 -1 1 -1 1 -1 1 -1 1 -1 1 -1 1 -1 1 -1 1 -1 1 0 1 0 1 0 1 0 1 0 1 0 1 0 1 0 1 0 1 0 1 0 1 0 1 0 1 0 1 0 3 3zm794 113l-804 -68 5 -45 804 68 -5 45zm0 0l5 -45 1 0 1 0 1 0 1 0 1 0 1 0 1 0 1 1 1 1 1 1 1 1 1 1 1 1 1 1 1 1 1 1 1 1 1 1 1 1 1 1 1 1 1 1 0 1 0 1 0 1 0 1 0 1 0 1 0 1 0 1 0 1 0 1 0 1 0 1 0 1 0 1 0 1 0 1 -1 1 -1 1 -1 1 -1 1 -1 1 -1 1 -1 1 -1 1 -1 1 -1 1 -1 1 -1 1 -1 1 -1 1 -1 1 -1 0 -1 0 -1 0 -1 0 -1 0 -1 0 -1 0 -1 0 -1 0 -1 0 -1 0 -1 -1z"/>
   <rect class="fil28" x="12510" y="20551" width="1278" height="907"/>
   <path class="fil59" d="M13788 20620l0 102 -1278 168 0 -102 1278 -168zm0 238l0 102 -1278 168 0 -102 1278 -168zm0 238l0 102 -1278 168 0 -102 1278 -168z"/>
   <path class="fil57" d="M12876 21585c67,0 128,-47 177,-127l0 0 -355 0c49,80 111,127 177,127l1 0z"/>
   <path class="fil57" d="M13422 21585c67,0 128,-47 177,-127l0 0 -355 0c49,80 111,127 177,127l1 0z"/>
   <path class="fil29" d="M12704 21692c-36,12 -67,28 -92,47l-24 22c-25,27 -36,57 -28,83 17,53 109,71 206,40 97,-31 161,-99 144,-152 -17,-53 -109,-71 -206,-40z"/>
   <circle class="fil50" transform="matrix(0.646698 0.361296 -0.683645 1.22368 14395.2 19663.9)" r="507"/>
   <path class="fil29" d="M12581 21225c37,5 71,16 99,31l28 18c29,22 46,50 42,77 -8,55 -95,88 -196,74 -100,-14 -176,-70 -168,-125 8,-55 95,-88 196,-74l-1 -1z"/>
   <path class="fil29" d="M13539 17958c-307,-88 -620,-66 -897,42l0 0 1635 468c-177,-238 -431,-422 -739,-510l1 0z"/>
   <path class="fil31" d="M12024 19969c191,202 770,267 1133,-78 -625,696 -1220,43 -1133,78z"/>
   <ellipse class="fil33" cx="12985" cy="19185" rx="354" ry="461"/>
   <path class="fil29" d="M13181 18375c116,43 202,136 245,250 -71,-74 -164,-135 -272,-175 -109,-40 -219,-53 -321,-43 107,-59 232,-74 349,-31l-1 -1z"/>
   <ellipse class="fil31" cx="12998" cy="19140" rx="316" ry="399"/>
   <circle class="fil29" cx="12805" cy="19083" r="99"/>
   <path class="fil24" d="M12650 21385l-1 0 -1 0 -1 0 -1 0 -1 0 -1 0 -1 0 -1 0 -1 0 -1 0 -1 0 -1 0 -1 0 -1 0 -1 0 -1 0 -1 0 -1 0 -1 0 -1 0 -1 0 -1 -1 -1 -1 -1 -1 -1 -1 -1 -1 -1 -1 -1 -1 -1 -1 -1 -1 -1 -1 -1 -1 0 -1 0 -1 0 -1 0 -1 0 -1 0 -1 0 -1 0 -1 0 -1 0 -1 0 -1 0 -1 0 -1 0 -1 0 -1 0 -1 1 -1 1 -1 1 -1 1 -1 1 -1 1 -1 1 -1 1 -1 1 -1 1 -1 1 -1 1 0 1 0 1 0 1 0 1 0 20 31 -4 7zm883 -260l36 20 -16 11 -902 229 -20 -31 902 -229zm0 0l1 0 1 0 1 0 1 0 1 0 1 0 1 0 1 0 1 0 1 0 1 0 1 0 1 0 1 0 1 0 1 0 1 0 1 0 1 0 1 0 1 0 1 1 1 1 1 1 1 1 1 1 1 1 1 1 1 1 1 1 1 1 1 1 0 1 0 1 0 1 0 1 0 1 0 1 0 1 0 1 0 1 0 1 0 1 0 1 0 1 0 1 0 1 0 1 -1 1 -1 1 -1 1 -1 1 -1 1 -1 1 -1 1 -1 1 -1 1 -1 1 -1 1 -1 0 -1 0 -1 0 -1 0 -1 0 -20 -31 4 -7zm217 -544l51 9 -233 555 -51 -9 233 -555zm0 0l0 -1 0 -1 1 -1 1 -1 1 -1 1 -1 1 -1 1 -1 1 -1 1 -1 1 -1 1 -1 1 -1 1 0 1 0 1 0 1 0 1 0 1 0 1 0 1 0 1 0 1 0 1 0 1 0 1 0 1 0 1 0 1 0 1 0 1 0 1 0 1 0 1 0 1 0 1 0 1 0 1 0 1 0 1 0 1 1 1 1 1 1 1 1 1 1 1 1 1 1 1 1 1 1 1 1 1 1 0 1 0 1 0 1 0 1 0 1 0 1 0 1 0 1 0 1 0 1 0 1 0 1 0 1 -51 -9 2 -2z"/>
   <path class="fil29" d="M12492 21275c-40,-9 -79,-11 -113,-7l-35 7c-39,12 -66,33 -73,62 -14,60 63,128 172,153 109,25 208,-3 221,-63 14,-60 -63,-128 -172,-153l0 1z"/>
   <path class="fil29" d="M13453 18043c0,0 163,-306 447,-197 366,141 600,573 790,-303 0,0 -5,541 -232,643 -226,102 -347,-146 -503,-151 -156,-5 -181,167 -181,167l-321 -160 0 1z"/>
   <ellipse class="fil33" cx="12094" cy="19104" rx="317" ry="419"/>
   <ellipse class="fil31" cx="12097" cy="19078" rx="284" ry="375"/>
   <circle class="fil29" cx="11955" cy="18986" r="89"/>
   <path class="fil29" d="M12165 18329c122,-22 243,16 337,93 -99,-28 -210,-34 -324,-14 -114,20 -216,64 -299,124 63,-105 163,-181 285,-203l1 0z"/>
  </g>
 </g>
</svg>
