<?xml version="1.0" encoding="UTF-8"?>
<!DOCTYPE svg PUBLIC "-//W3C//DTD SVG 1.1//EN" "http://www.w3.org/Graphics/SVG/1.1/DTD/svg11.dtd">
<!-- Creator: CorelDRAW X6 -->
<svg xmlns="http://www.w3.org/2000/svg" xml:space="preserve" width="2.44712in" height="2.84469in" version="1.1" style="shape-rendering:geometricPrecision; text-rendering:geometricPrecision; image-rendering:optimizeQuality; fill-rule:evenodd; clip-rule:evenodd"
viewBox="0 0 345 401"
 xmlns:xlink="http://www.w3.org/1999/xlink">
 <defs>
  <style type="text/css">
   <![CDATA[
    .fil0 {fill:#DAAC7B}
   ]]>
  </style>
 </defs>
 <g id="Layer_x0020_1">
  <metadata id="CorelCorpID_0Corel-Layer"/>
  <g id="_808005184">
   <path class="fil0" d="M252 114c2,2 2,-3 2,5 -1,-2 -1,2 -2,-5zm39 287l-7 0c0,0 0,0 0,0 -20,-3 -17,-23 -17,-45 0,-42 0,-84 0,-125l-6 0c0,42 0,84 0,125 0,22 2,43 -17,45l0 0 -5 0c-8,-1 -13,-6 -15,-11 -4,-8 -2,-209 -2,-249 0,-14 2,-24 -3,-28 -4,3 -3,1 -3,9l0 88c0,18 2,34 -13,37 -8,2 -14,-3 -17,-7 -6,-9 -4,-107 -3,-121 2,-42 29,-42 56,-42 1,6 7,21 10,29 1,1 1,3 2,4l2 4c0,-23 3,-12 6,-25 -3,-4 -5,-5 -5,-13 30,0 18,1 15,12 -1,4 3,7 5,12 3,7 0,5 0,14 0,0 0,-1 1,-1l14 -37c29,0 55,1 56,44 1,33 0,67 0,100 0,10 1,15 -4,21 -4,5 -11,7 -18,5 -14,-5 -11,-21 -11,-40l0 -75c0,-19 2,-17 -3,-20 -5,3 -3,6 -3,14l0 235c0,10 4,38 -15,41zm-17 -287l-1 3 1 -3z"/>
   <path class="fil0" d="M52 401c13,0 22,-7 22,-22l0 -147 6 0 0 141c0,19 8,27 17,28l5 0c7,-1 13,-5 16,-11 3,-7 2,-175 2,-187 -9,1 -22,11 -34,11 -14,0 -26,-10 -27,-24 -13,0 -15,-4 -24,-8 0,14 -2,195 1,204 2,7 8,14 16,14z"/>
   <path class="fil0" d="M50 130c-6,-2 -12,-12 -16,-17 6,-1 5,-2 13,-2 3,-11 9,-23 11,-31 -15,0 -30,-2 -40,4 -22,13 -22,30 -9,49l26 33c12,13 7,13 23,13 11,0 20,-33 24,-44 8,-22 25,-51 14,-62 -7,-8 -21,-8 -28,6l-19 52z"/>
   <path class="fil0" d="M111 86c0,8 -9,27 -12,35 -2,7 -4,11 -6,17 -2,6 -5,12 -7,18 10,-5 23,-9 33,-14 0,-14 -2,-24 3,-28 3,2 3,0 3,5 0,40 7,31 -30,46 -13,5 -26,8 -26,23 0,10 10,16 16,16l61 -25c7,-4 11,-8 12,-17 1,-5 -2,-53 -3,-55 -7,-25 -27,-26 -44,-26l0 6z"/>
   <path class="fil0" d="M230 31c0,49 66,43 66,5 0,-11 0,-17 -11,-27 -6,-6 -13,-9 -20,-9l-4 0c-16,1 -31,14 -31,31z"/>
   <path class="fil0" d="M44 33c0,14 10,27 22,30 15,-10 20,-6 33,-5 8,-12 11,-8 11,-28 0,-40 -66,-40 -66,3z"/>
  </g>
 </g>
</svg>
