<?xml version="1.0" encoding="UTF-8"?>
<!DOCTYPE svg PUBLIC "-//W3C//DTD SVG 1.1//EN" "http://www.w3.org/Graphics/SVG/1.1/DTD/svg11.dtd">
<!-- Creator: CorelDRAW X6 -->
<svg xmlns="http://www.w3.org/2000/svg" xml:space="preserve" width="2.84469in" height="2.77935in" version="1.1" style="shape-rendering:geometricPrecision; text-rendering:geometricPrecision; image-rendering:optimizeQuality; fill-rule:evenodd; clip-rule:evenodd"
viewBox="0 0 2428 2372"
 xmlns:xlink="http://www.w3.org/1999/xlink">
 <defs>
  <style type="text/css">
   <![CDATA[
    .fil0 {fill:#DAAC7B}
   ]]>
  </style>
 </defs>
 <g id="Layer_x0020_1">
  <metadata id="CorelCorpID_0Corel-Layer"/>
  <g id="_808003712">
   <path class="fil0" d="M1793 702c0,-24 15,-2 6,0 0,0 -6,26 -6,0zm636 -317l0 41c-20,62 -134,92 -191,113l-236 87c0,310 0,620 0,930l0 702c-10,120 -158,155 -219,57 -24,-38 -19,-73 -19,-133l0 -749c1,-68 13,-86 -29,-114 -16,24 -17,16 -20,56l1 816c0,70 -6,180 -114,180 -162,0 -123,-204 -123,-351l0 -1394 -364 -130c-38,-16 -73,-39 -73,-88 0,-72 128,-150 202,-225 39,-39 70,-60 109,-100 22,-23 29,-29 55,-49 84,-65 147,-30 166,52 14,-10 10,-9 20,-18l53 -42c141,-69 238,46 259,60 1,-30 2,-42 17,-59 26,-28 53,-27 87,-27 33,0 177,148 224,184 42,32 66,64 110,99 50,40 76,74 84,102zm-749 317c0,-24 15,-2 6,0 0,0 -6,26 -6,0zm-142 -531c0,86 7,123 49,169 89,96 218,94 304,5 47,-48 54,-83 54,-174 51,34 120,111 167,146 25,19 43,31 51,62l-248 84c-40,16 -64,102 -85,162 -2,5 -7,22 -10,28 -8,19 -5,15 -18,30 0,-82 2,-77 -38,-123 23,-44 85,-94 -39,-87 -102,6 7,41 -20,103 -24,56 -26,26 -26,108 -9,-10 -4,1 -15,-23l-57 -151c-16,-35 -10,-27 -43,-42l-254 -106c44,-12 79,-68 114,-95 35,-27 70,-83 114,-95zm408 0l0 0zm-408 0l0 0z"/>
   <path class="fil0" d="M455 2372c132,0 124,-106 123,-180l0 -711c0,-68 -10,-81 19,-123 48,32 28,139 28,256 0,95 -12,650 12,700 45,94 216,81 216,-64l0 -1100c-94,0 -217,-10 -297,-44 -120,-52 -88,34 -175,-290 -9,-32 -12,-66 -30,-93 0,480 -9,1053 -1,1528 1,68 41,123 105,123z"/>
   <path class="fil0" d="M436 76c-15,-63 -92,-119 -195,14 -45,59 -241,282 -241,337 0,121 171,122 332,199 35,-65 66,-65 142,-85 32,-8 164,-48 188,-45 71,9 84,134 110,231 25,91 9,80 81,80l0 -142 28 0 0 218c-99,0 -162,-19 -256,-19 -80,0 -142,163 16,193 48,9 112,11 172,17 290,30 267,59 267,-362 0,-65 -12,-115 -46,-163 -4,-6 -11,-15 -17,-21 -15,-17 -2,-4 -19,-19 -68,-60 -113,-53 -232,-53 -125,0 -289,20 -402,-24 -40,-16 -75,-26 -110,-42 17,-31 126,-172 152,-190 0,68 20,100 54,136 182,189 464,-95 271,-281 -75,-72 -181,-72 -258,-5 -20,17 -18,22 -39,27z"/>
   <path class="fil0" d="M408 627c2,69 50,197 66,266 34,-23 30,-42 64,-68 75,-57 138,-27 182,-27l-66 -237c-29,14 -208,63 -247,66z"/>
  </g>
 </g>
</svg>
