<?xml version="1.0" encoding="UTF-8"?>
<!DOCTYPE svg PUBLIC "-//W3C//DTD SVG 1.1//EN" "http://www.w3.org/Graphics/SVG/1.1/DTD/svg11.dtd">
<!-- Creator: CorelDRAW X6 -->
<svg xmlns="http://www.w3.org/2000/svg" xml:space="preserve" width="2.84147in" height="2.84469in" version="1.1" style="shape-rendering:geometricPrecision; text-rendering:geometricPrecision; image-rendering:optimizeQuality; fill-rule:evenodd; clip-rule:evenodd"
viewBox="0 0 754 754"
 xmlns:xlink="http://www.w3.org/1999/xlink">
 <defs>
  <style type="text/css">
   <![CDATA[
    .fil0 {fill:#DAAC7B}
   ]]>
  </style>
 </defs>
 <g id="Layer_x0020_1">
  <metadata id="CorelCorpID_0Corel-Layer"/>
  <g id="_808003520">
   <path class="fil0" d="M208 130c0,45 -9,85 24,85l495 0c11,0 16,-2 24,-6 1,-6 2,-13 3,-20l0 -71c0,-7 -8,-15 -15,-15l-510 0c-17,0 -21,10 -21,27z"/>
   <path class="fil0" d="M208 563c0,45 -9,85 24,85l495 0c11,0 16,-2 24,-6 1,-6 2,-13 3,-20l0 -71c0,-10 -11,-15 -21,-15l-504 0c-17,0 -21,10 -21,27z"/>
   <path class="fil0" d="M208 348c0,26 -6,83 15,83l516 0c9,0 13,-7 15,-19l0 -73c0,-8 -1,-8 -3,-15 -7,-2 -7,-3 -15,-3l-513 0c-12,0 -15,15 -15,27z"/>
   <path class="fil0" d="M2 315c12,3 26,17 38,24 23,-44 73,-20 47,12 -6,7 -27,22 -36,29 -17,12 -22,13 -34,31 -20,30 -19,44 -15,73l156 0 0 -68 -47 0 0 27 -53 0c4,-9 1,-7 8,-16 8,-9 34,-24 45,-32 19,-13 41,-37 41,-62 0,-88 -135,-83 -150,-18z"/>
   <path class="fil0" d="M8 604l44 0 0 -24 38 0c-7,10 -15,16 -23,27 -8,10 -14,19 -21,29 3,11 6,12 9,24 45,0 44,11 44,29 0,12 -16,18 -29,18 -24,0 -30,-14 -47,-18 -3,12 -14,26 -21,35 11,16 36,27 63,29l19 0c37,-3 71,-25 71,-77 0,-26 -21,-51 -44,-53 3,-10 2,-5 8,-13 4,-5 6,-8 11,-13 25,-28 20,-21 20,-63l-141 0 0 68z"/>
   <path class="fil0" d="M8 53c2,4 27,30 29,32 25,-17 12,-12 24,-21 -1,9 -3,10 -3,21l0 85 -44 0c0,30 -4,44 9,44l127 0c13,0 9,-14 9,-44l-47 0 0 -171 -38 0c-11,2 -18,7 -35,24 -10,10 -19,21 -30,29z"/>
  </g>
 </g>
</svg>
