<?xml version="1.0" encoding="UTF-8"?>
<!DOCTYPE svg PUBLIC "-//W3C//DTD SVG 1.1//EN" "http://www.w3.org/Graphics/SVG/1.1/DTD/svg11.dtd">
<!-- Creator: CorelDRAW X6 -->
<svg xmlns="http://www.w3.org/2000/svg" xml:space="preserve" width="2.84383in" height="2.60238in" version="1.1" style="shape-rendering:geometricPrecision; text-rendering:geometricPrecision; image-rendering:optimizeQuality; fill-rule:evenodd; clip-rule:evenodd"
viewBox="0 0 459 420"
 xmlns:xlink="http://www.w3.org/1999/xlink">
 <defs>
  <style type="text/css">
   <![CDATA[
    .fil0 {fill:#DAAC7B}
   ]]>
  </style>
 </defs>
 <g id="Layer_x0020_1">
  <metadata id="CorelCorpID_0Corel-Layer"/>
  <g id="_808004320">
   <path class="fil0" d="M310 318c0,9 6,14 14,14 0,5 -1,6 -2,10l-5 10c-3,-14 -15,-35 -16,-45l13 0c-2,4 -4,5 -4,11zm16 -136c9,0 3,0 5,2 -9,0 -3,0 -5,-2zm0 0l-13 0c0,30 2,54 2,84 -13,0 -41,-2 -51,1 -15,4 -17,18 -11,32 10,26 20,50 30,76 3,8 11,30 16,36 14,19 44,4 34,-22 -7,-18 -6,-7 5,-38 2,-7 6,-13 7,-20l52 0 18 48c12,30 10,39 27,39 6,-9 6,-10 1,-21l-26 -67c17,0 16,-13 19,-28 3,-14 5,-26 8,-40 2,-11 15,-73 14,-80 -2,-12 -20,-15 -26,-2 -4,8 -6,29 -8,40 -3,15 -15,72 -15,81l-29 0c12,-10 16,-15 16,-38 0,-19 0,-37 0,-56 0,-32 3,-48 -28,-55 -7,-2 -17,-4 -24,-5l14 -6c8,-3 39,-9 26,-30 -10,-17 -34,-2 -59,6 -24,8 -52,12 -51,30 1,16 26,20 45,27 1,0 2,1 4,2 4,2 2,1 3,2z"/>
   <path class="fil0" d="M145 305l14 0c-2,11 -15,36 -16,45 -6,-5 -5,-10 -9,-18 16,-1 18,-13 11,-27zm-145 -117l0 -2c0,-5 2,-10 7,-12 8,-4 16,-1 19,5 3,6 20,94 22,107 2,9 0,16 8,17 3,1 21,0 25,0 -23,-20 -15,-21 -16,-59 -1,-25 -12,-82 20,-89 15,-3 50,-5 58,16 3,8 2,23 2,34 -4,-3 -5,-5 -9,-9 -3,-4 -6,-6 -9,-9 1,6 14,27 18,34 18,0 57,-3 68,4 7,5 18,32 -23,32 -77,0 -57,8 -89,-44 -2,-4 -1,-2 -3,-4 1,9 12,45 17,50 14,17 72,1 86,11 17,12 5,31 -1,46 -3,8 -6,15 -9,23 -7,16 -12,32 -19,48 -5,14 -10,36 -30,34 -29,-3 -12,-40 -12,-40 1,-9 -14,-35 -15,-48l-54 0c-1,7 -21,56 -25,67 -3,9 -6,23 -18,21 -9,-2 -6,-13 -4,-17l18 -47c3,-7 6,-16 9,-23 -17,-1 -17,-18 -20,-32l-17 -87c-1,-7 -4,-16 -5,-24zm127 -2l0 0z"/>
   <path class="fil0" d="M90 102c0,53 74,53 74,0 0,-45 -74,-44 -74,0z"/>
   <path class="fil0" d="M296 106c0,7 1,3 2,11 8,-4 25,-9 35,-12 11,-3 26,-7 35,-12 -24,-45 -72,-17 -72,13z"/>
   <path class="fil0" d="M396 15c11,12 7,-2 22,-2 3,0 5,1 5,4 0,16 -19,8 -13,34l9 0c6,-28 18,-19 18,-34 0,-18 -36,-24 -41,-2z"/>
   <path class="fil0" d="M407 63c0,13 16,10 16,2 0,-13 -16,-10 -16,-2z"/>
  </g>
 </g>
</svg>
