<?xml version="1.0" encoding="UTF-8"?>
<!DOCTYPE svg PUBLIC "-//W3C//DTD SVG 1.1//EN" "http://www.w3.org/Graphics/SVG/1.1/DTD/svg11.dtd">
<!-- Creator: CorelDRAW X6 -->
<svg xmlns="http://www.w3.org/2000/svg" xml:space="preserve" width="2.84469in" height="2.84111in" version="1.1" style="shape-rendering:geometricPrecision; text-rendering:geometricPrecision; image-rendering:optimizeQuality; fill-rule:evenodd; clip-rule:evenodd"
viewBox="0 0 327 326"
 xmlns:xlink="http://www.w3.org/1999/xlink">
 <defs>
  <style type="text/css">
   <![CDATA[
    .fil0 {fill:#DAAC7B}
   ]]>
  </style>
 </defs>
 <g id="Layer_x0020_1">
  <metadata id="CorelCorpID_0Corel-Layer"/>
  <g id="_808902240">
   <path class="fil0" d="M4 140l0 91c0,17 17,31 37,31l37 0 0 55c0,7 4,9 11,10l31 0c6,0 14,-3 14,-9l0 -86c0,-14 -13,-26 -27,-27 -38,-2 -33,9 -33,-22 0,-15 3,-41 -2,-53 -17,-40 -68,-21 -68,9z"/>
   <path class="fil0" d="M193 232l0 86c0,6 6,8 14,9l30 0c8,0 13,-3 13,-10l0 -55c25,0 46,3 62,-8 5,-4 12,-14 12,-22l0 -91c0,-10 -6,-17 -11,-22 -18,-18 -46,-10 -57,12 -5,11 -3,47 -2,65 0,7 1,9 -4,10 -4,1 -22,0 -28,0 -15,0 -28,12 -28,27z"/>
   <path class="fil0" d="M97 135l0 37c0,4 2,9 6,9l120 0c4,0 6,-5 6,-9 0,-34 6,-66 -21,-78 -3,-1 -12,-5 -17,-5 -4,6 -11,27 -14,36 -2,7 -12,32 -13,37l-3 0c0,-5 -10,-31 -13,-37 -2,-6 -4,-12 -7,-18 -3,-7 -3,-12 -8,-18 -25,2 -38,19 -38,46z"/>
   <path class="fil0" d="M124 39c0,9 5,21 12,28 2,2 9,7 11,8 25,12 56,-8 56,-36 0,-30 -38,-55 -67,-28 -5,5 -12,19 -12,28z"/>
   <path class="fil0" d="M249 56l0 6c0,17 18,36 34,36 13,0 23,-1 33,-12 6,-7 10,-16 10,-25l0 -5c-1,-19 -15,-36 -42,-36 -17,0 -36,19 -36,36z"/>
   <path class="fil0" d="M0 56c0,13 2,21 10,30 21,22 67,15 67,-30 0,-17 -19,-36 -36,-36l-6 0c-17,0 -36,18 -36,36z"/>
   <path class="fil0" d="M163 137c3,-2 4,-5 6,-11 1,-5 0,-10 -1,-16 -1,-10 -2,-4 3,-12 8,-12 -5,-10 -13,-10 -6,0 -5,6 -3,9 5,8 4,2 3,13 -1,13 -3,10 1,21 2,6 -1,2 3,6z"/>
  </g>
 </g>
</svg>
