<?xml version="1.0" encoding="UTF-8"?>
<!DOCTYPE svg PUBLIC "-//W3C//DTD SVG 1.1//EN" "http://www.w3.org/Graphics/SVG/1.1/DTD/svg11.dtd">
<!-- Creator: CorelDRAW X6 -->
<svg xmlns="http://www.w3.org/2000/svg" xml:space="preserve" width="2.26686in" height="2.84469in" version="1.1" style="shape-rendering:geometricPrecision; text-rendering:geometricPrecision; image-rendering:optimizeQuality; fill-rule:evenodd; clip-rule:evenodd"
viewBox="0 0 1650 2071"
 xmlns:xlink="http://www.w3.org/1999/xlink">
 <defs>
  <style type="text/css">
   <![CDATA[
    .fil0 {fill:#DAAC7B}
   ]]>
  </style>
 </defs>
 <g id="Layer_x0020_1">
  <metadata id="CorelCorpID_0Corel-Layer"/>
  <g id="_808000416">
   <path class="fil0" d="M437 1237c0,-127 26,-227 117,-312 270,-251 659,-28 659,255 0,123 -22,207 -107,298l-98 72c-134,66 -305,60 -416,-32 -79,-65 -155,-156 -155,-281zm-154 -615c0,30 15,59 34,71 28,19 262,10 306,10 -10,9 -3,4 -19,13 -55,32 -86,40 -140,94 -43,42 -50,11 -113,25 -90,19 -86,123 -11,143 -49,93 -49,162 -49,267 0,46 9,55 13,92 4,33 -55,94 11,134 23,14 41,7 61,28 13,13 21,33 38,51 19,20 32,28 47,50 -41,0 -178,-16 -178,73 0,105 154,81 259,81l688 -1c53,1 43,8 102,67 99,99 107,82 172,38l0 65 -1359 0 0 -1779 865 0 0 421c0,50 38,73 89,73l404 0 0 1140 -253 -249c24,-34 21,-36 60,-50 97,-35 33,-110 33,-137 1,-27 14,-65 14,-180 0,-65 -26,-144 -49,-186 82,-22 78,-139 -33,-145 -107,-6 -53,4 -122,-48 -79,-59 -123,-80 -233,-106 32,-67 3,-121 -81,-121l-477 0c-19,0 -42,10 -53,19 -8,7 -27,38 -27,45zm874 -372l245 241 -245 2 0 -243zm-1157 -162l0 1893c0,50 23,89 73,89l1504 0c50,0 73,-38 73,-89l0 -1399c0,-65 -54,-98 -119,-164l-360 -360c-23,-23 -46,-59 -87,-59l-1011 0c-50,0 -73,38 -73,89z"/>
   <path class="fil0" d="M283 396c0,44 28,81 73,81l510 0c97,0 91,-146 -8,-146l-493 0c-52,0 -81,50 -81,65z"/>
  </g>
 </g>
</svg>
