<?xml version="1.0" encoding="UTF-8"?>
<!DOCTYPE svg PUBLIC "-//W3C//DTD SVG 1.1//EN" "http://www.w3.org/Graphics/SVG/1.1/DTD/svg11.dtd">
<!-- Creator: CorelDRAW X6 -->
<svg xmlns="http://www.w3.org/2000/svg" xml:space="preserve" width="2.71134in" height="2.84469in" version="1.1" style="shape-rendering:geometricPrecision; text-rendering:geometricPrecision; image-rendering:optimizeQuality; fill-rule:evenodd; clip-rule:evenodd"
viewBox="0 0 701 735"
 xmlns:xlink="http://www.w3.org/1999/xlink">
 <defs>
  <style type="text/css">
   <![CDATA[
    .fil0 {fill:#DAAC7B}
   ]]>
  </style>
 </defs>
 <g id="Layer_x0020_1">
  <metadata id="CorelCorpID_0Corel-Layer"/>
  <g id="_808001984">
   <path class="fil0" d="M0 362c0,22 26,20 40,20l0 310c0,26 13,40 27,43l12 0c14,-3 27,-17 27,-43l0 -310 491 0 0 322c0,43 63,40 63,3l0 -325c14,0 40,2 40,-20 0,-17 -14,-23 -32,-23l-638 0c-17,0 -32,6 -32,23z"/>
   <path class="fil0" d="M528 215l1 1c0,0 -1,-1 -1,-1zm-9 -146c0,15 -2,25 -7,36 -8,19 -9,12 -3,34 5,21 17,54 18,74l-37 -72c-11,3 -16,10 -28,15 -38,17 -79,7 -108,-23 -4,-5 -7,-7 -10,-13 -15,-23 0,-23 -23,-26 -30,-4 -49,-3 -76,17 -21,15 -46,61 -62,85 -15,23 -26,33 -26,57 0,31 43,32 71,39 16,4 30,7 45,10 15,3 32,9 49,9 16,0 29,-14 29,-37 0,-33 -41,-33 -72,-40 -9,-2 -21,-6 -32,-6 3,-10 13,-22 19,-33 4,-6 6,-10 10,-16 6,-8 5,-7 14,-12 6,9 7,7 4,17 -3,10 -5,7 -6,20 20,10 55,5 77,29 19,20 22,53 6,77l80 0c2,-27 14,-82 14,-106l80 75c11,11 15,19 35,19 17,0 32,-15 32,-32 0,-16 -34,-140 -41,-166 -7,-27 -23,-43 -51,-32z"/>
   <path class="fil0" d="M195 663c0,13 3,23 12,31 21,18 47,13 60,-4 7,-9 11,-25 15,-37l73 -220c3,-6 1,-3 3,-6 0,70 0,140 0,210 0,21 -3,32 6,46 6,11 15,19 30,21 30,5 47,-20 47,-56l0 -230c0,-7 -2,-9 -9,-9l-149 0c-12,0 -20,38 -26,57 -11,33 -63,181 -63,196z"/>
   <path class="fil0" d="M356 69c0,87 138,100 138,-6 0,-36 -31,-61 -64,-63l-10 0c-16,1 -32,8 -45,21 -11,12 -19,26 -19,48z"/>
   <path class="fil0" d="M471 626c0,43 43,30 43,11l0 -227 -43 0 0 215z"/>
   <path class="fil0" d="M184 583l6 0c2,-23 40,-110 40,-132l0 -40c-54,0 -46,-5 -46,34l0 138z"/>
  </g>
 </g>
</svg>
