<?xml version="1.0" encoding="UTF-8"?>
<!DOCTYPE svg PUBLIC "-//W3C//DTD SVG 1.1//EN" "http://www.w3.org/Graphics/SVG/1.1/DTD/svg11.dtd">
<!-- Creator: CorelDRAW X6 -->
<svg xmlns="http://www.w3.org/2000/svg" xml:space="preserve" width="3.74305in" height="2.53204in" version="1.1" style="shape-rendering:geometricPrecision; text-rendering:geometricPrecision; image-rendering:optimizeQuality; fill-rule:evenodd; clip-rule:evenodd"
viewBox="0 0 3743 2532"
 xmlns:xlink="http://www.w3.org/1999/xlink">
 <defs>
  <style type="text/css">
   <![CDATA[
    .str0 {stroke:#D7CC75;stroke-width:3}
    .str1 {stroke:#E6E7E8;stroke-width:3}
    .fil1 {fill:none}
    .fil8 {fill:#373435}
    .fil6 {fill:#C75EA3}
    .fil12 {fill:#D2D3D5}
    .fil9 {fill:#DF9CAB}
    .fil11 {fill:#E6E7E8}
    .fil10 {fill:#E8C5D5}
    .fil7 {fill:#F9CDE0}
    .fil5 {fill:#FCDBD8}
    .fil2 {fill:#FEFEFE}
    .fil4 {fill:#373435;fill-rule:nonzero}
    .fil0 {fill:black;fill-opacity:0.000000}
    .fil3 {fill:url(#id14)}
   ]]>
  </style>
   <clipPath id="id0">
    <path d="M0 0l3743 0 0 2532 -3743 0 0 -2532z"/>
   </clipPath>
   <clipPath id="id1">
    <path d="M0 0l3743 0 0 2532 -3743 0 0 -2532z"/>
   </clipPath>
   <clipPath id="id2">
    <path d="M1193 1008c0,-205 165,-371 370,-372 205,0 371,165 372,370 0,205 -165,371 -370,372 -205,0 -371,-165 -372,-370z"/>
   </clipPath>
   <clipPath id="id3">
    <path d="M1193 1008c0,-205 165,-371 370,-372 205,0 371,165 372,370 0,205 -165,371 -370,372 -205,0 -371,-165 -372,-370z"/>
   </clipPath>
   <clipPath id="id4">
    <path d="M1193 1008c0,-205 165,-371 370,-372 205,0 371,165 372,370 0,205 -165,371 -370,372 -205,0 -371,-165 -372,-370z"/>
   </clipPath>
   <clipPath id="id5">
    <path d="M1193 1008c0,-205 165,-371 370,-372 205,0 371,165 372,370 0,205 -165,371 -370,372 -205,0 -371,-165 -372,-370z"/>
   </clipPath>
     <mask id="id6">
  <linearGradient id="id7" gradientUnits="userSpaceOnUse" x1="1271.77" y1="1432.15" x2="1856.27" y2="581.875">
   <stop offset="0" style="stop-opacity:1; stop-color:white"/>
   <stop offset="1" style="stop-opacity:0; stop-color:white"/>
  </linearGradient>
      <rect style="fill:url(#id7)" x="1192" y="635" width="745" height="745"/>
     </mask>
   <clipPath id="id8">
    <path d="M2636 1527c47,-82 18,-187 -64,-234 -82,-47 -187,-18 -234,64 -47,82 -18,187 64,234 82,47 187,18 234,-64z"/>
   </clipPath>
   <clipPath id="id9">
    <path d="M2636 1527c47,-82 18,-187 -64,-234 -82,-47 -187,-18 -234,64 -47,82 -18,187 64,234 82,47 187,18 234,-64z"/>
   </clipPath>
   <clipPath id="id10">
    <path d="M2636 1527c47,-82 18,-187 -64,-234 -82,-47 -187,-18 -234,64 -47,82 -18,187 64,234 82,47 187,18 234,-64z"/>
   </clipPath>
   <clipPath id="id11">
    <path d="M2636 1527c47,-82 18,-187 -64,-234 -82,-47 -187,-18 -234,64 -47,82 -18,187 64,234 82,47 187,18 234,-64z"/>
   </clipPath>
     <mask id="id12">
  <linearGradient id="id13" gradientUnits="userSpaceOnUse" x1="2441.03" y1="1642.51" x2="2532.03" y2="1241.53">
   <stop offset="0" style="stop-opacity:1; stop-color:white"/>
   <stop offset="1" style="stop-opacity:0; stop-color:white"/>
  </linearGradient>
      <rect style="fill:url(#id13)" x="2314" y="1269" width="345" height="347"/>
     </mask>
  <linearGradient id="id14" gradientUnits="userSpaceOnUse" x1="1405.41" y1="266.28" x2="2337.64" y2="2265.75">
   <stop offset="0" style="stop-color:#F0662B"/>
   <stop offset="1" style="stop-color:#E69625"/>
  </linearGradient>
 </defs>
 <g id="Layer_x0020_1">
  <metadata id="CorelCorpID_0Corel-Layer"/>
  <g style="clip-path:url(#id0)">
   <polygon class="fil0" points="0,0 3743,0 3743,2532 0,2532 "/>
  </g>
  <g style="clip-path:url(#id1)">
   <g id="_806251200">
    <polygon id="1" class="fil0" points="0,0 3743,0 3743,2532 0,2532 "/>
   </g>
  </g>
  <polygon class="fil1" points="0,0 3743,0 3743,2532 0,2532 "/>
  <path class="fil2 str0" d="M3411 184l4 48 -1 0c-39,3 -70,28 -68,57 2,29 36,50 75,48l1 0 2 30 -1 0c-39,3 -70,28 -68,57 2,29 36,50 75,48l1 0 2 30 -1 0c-39,3 -70,28 -67,57 2,29 36,50 75,48l1 0 2 30 -1 0c-39,3 -70,28 -68,57 2,29 36,50 75,48l1 0 2 30 -1 0c-39,3 -70,28 -67,57 2,29 36,50 75,48l1 0 2 30 -1 0c-39,3 -70,28 -68,57 2,29 36,50 75,48l1 0 2 30 -1 0c-39,3 -70,28 -68,57 2,29 36,50 75,48l1 0 2 30 -1 0c-39,3 -70,28 -67,57 2,29 36,50 75,48l1 0 2 30 -1 0c-39,3 -70,28 -68,57 2,29 36,50 75,48l1 0 2 30 -1 0c-39,3 -70,28 -67,57 2,29 36,50 75,48l1 0 2 30 -1 0c-39,3 -70,28 -68,57 2,29 36,50 75,48l1 0 2 30 -1 0c-39,3 -70,28 -67,57 2,29 36,50 75,48l1 0 2 30 -1 0c-39,3 -70,28 -68,57 2,29 36,50 75,48l1 0 2 30 -1 0c-39,3 -70,28 -68,57 2,29 36,50 75,48l1 0 4 48 -141 9 0 -1c-2,-29 -36,-50 -75,-48 -39,3 -70,28 -68,57l0 1 -61 4 0 -1c-2,-29 -36,-50 -75,-48 -39,3 -70,28 -67,57l0 1 -41 3 0 -1c-2,-29 -36,-50 -75,-48 -39,3 -70,28 -67,57l0 1 -41 3 0 -1c-2,-29 -36,-50 -75,-48 -39,3 -70,28 -68,57l0 1 -41 3 0 -1c-2,-29 -36,-50 -75,-48 -39,3 -70,28 -68,57l0 1 -41 3 0 -1c-2,-29 -36,-50 -75,-48 -39,3 -70,28 -67,57l0 1 -41 3 0 -1c-2,-29 -36,-50 -75,-48 -39,3 -70,28 -68,57l0 1 -41 3 0 -1c-2,-29 -36,-50 -75,-48 -39,3 -70,28 -68,57l0 1 -41 3 0 -1c-2,-29 -36,-50 -75,-48 -39,3 -70,28 -67,57l0 1 -41 3 0 -1c-2,-29 -36,-50 -75,-48 -39,3 -70,28 -67,57l0 1 -41 3 0 -1c-2,-29 -36,-50 -75,-48 -39,3 -70,28 -68,57l0 1 -41 3 0 -1c-2,-29 -36,-50 -75,-48 -39,3 -70,28 -68,57l0 1 -41 3 0 -1c-2,-29 -36,-50 -75,-48 -39,3 -70,28 -67,57l0 1 -41 3 0 -1c-2,-29 -36,-50 -75,-48 -39,3 -70,28 -68,57l0 1 -41 3 0 -1c-2,-29 -36,-50 -75,-48 -39,3 -70,28 -68,57l0 1 -82 5 0 -1c-2,-29 -36,-50 -75,-48 -39,3 -70,28 -67,57l0 1 -120 8 -4 -48c1,0 3,0 4,0 39,-3 70,-28 67,-57 -2,-29 -36,-50 -75,-48 -1,0 -3,0 -4,0l-2 -30c1,0 3,0 4,0 39,-3 70,-28 68,-57 -2,-29 -36,-50 -75,-48 -1,0 -3,0 -4,0l-2 -30c1,0 3,0 4,0 39,-3 70,-28 67,-57 -2,-29 -36,-50 -75,-48 -1,0 -3,0 -4,0l-2 -30c1,0 3,0 4,0 39,-3 70,-28 68,-57 -2,-29 -36,-50 -75,-48 -1,0 -3,0 -4,0l-2 -30c1,0 3,0 4,0 39,-3 70,-28 68,-57 -2,-29 -36,-50 -75,-48 -1,0 -3,0 -4,0l-2 -30c1,0 3,0 4,0 39,-3 70,-28 67,-57 -2,-29 -36,-50 -75,-48 -1,0 -3,0 -4,0l-2 -30c1,0 3,0 4,0 39,-3 70,-28 68,-57 -2,-29 -36,-50 -75,-48 -1,0 -3,0 -4,0l-2 -30c1,0 3,0 4,0 39,-3 70,-28 67,-57 -2,-29 -36,-50 -75,-48 -1,0 -3,0 -4,0l-2 -30c1,0 3,0 4,0 39,-3 70,-28 68,-57 -2,-29 -36,-50 -75,-48 -1,0 -3,0 -4,0l-2 -30c1,0 3,0 4,0 39,-3 70,-28 68,-57 -2,-29 -36,-50 -75,-48 -1,0 -3,0 -4,0l-2 -30c1,0 3,0 4,0 39,-3 70,-28 67,-57 -2,-29 -36,-50 -75,-48 -1,0 -3,0 -4,0l-2 -30c1,0 3,0 4,0 39,-3 70,-28 68,-57 -2,-29 -36,-50 -75,-48 -1,0 -3,0 -4,0l-2 -30c1,0 3,0 4,0 39,-3 70,-28 67,-57 -2,-29 -36,-50 -75,-48 -1,0 -3,0 -4,0l-2 -30c1,0 3,0 4,0 39,-3 70,-28 68,-57 -2,-29 -36,-50 -75,-48 -1,0 -3,0 -4,0l-4 -48 121 -8c7,25 38,42 74,40 36,-2 64,-23 67,-49l84 -5c7,25 38,42 74,40 36,-2 64,-23 67,-49l43 -3c7,25 38,42 74,40 36,-2 64,-23 67,-49l43 -3c7,25 38,42 74,40 36,-2 64,-23 67,-49l43 -3c7,25 38,42 74,40 36,-2 64,-23 67,-49l43 -3c7,25 38,42 74,40 36,-2 64,-23 67,-49l43 -3c7,25 38,42 74,40 36,-2 64,-23 67,-49l43 -3c7,25 38,42 74,40 36,-2 64,-23 67,-49l43 -3c7,25 38,42 74,40 36,-2 64,-23 67,-49l43 -3c7,25 38,42 74,40 36,-2 64,-23 67,-49l43 -3c7,25 38,42 74,40 36,-2 64,-23 67,-49l43 -3c7,25 38,42 74,40 36,-2 64,-23 67,-49l43 -3c7,25 38,42 74,40 36,-2 64,-23 67,-49l43 -3c7,25 38,42 74,40 36,-2 64,-23 67,-49l43 -3c7,25 38,42 74,40 36,-2 64,-23 67,-49l63 -4c7,25 38,42 74,40 36,-2 64,-23 67,-49l142 -9 -6 0z"/>
  <polygon class="fil3 str1" points="3256,327 3385,2020 487,2205 358,512 "/>
  <g id="_245297392">
   <path class="fil4" d="M2157 1414l0 0 0 0 0 0 0 0 0 0 0 0 0 0 0 0 0 0 0 0 0 0 0 0 0 0 0 0 0 0 0 0 0 0 0 0 0 0 0 0 0 0 0 0 0 0 0 0 0 0 0 0 0 0 0 0 0 0 0 0 0 0 0 0 0 0 0 0 0 0 0 0 0 0 0 0 0 0 0 0 0 0 0 0 0 0 0 0 0 0 0 0 0 0 0 0 0 0 0 0 0 0 0 0 0 0 0 0 0 0 0 0 0 0 0 0 0 0 0 0 0 0 0 0 0 0 0 0 -9 5 9 -5zm186 131l-7 6 -2 -1 -177 -136 9 -5 177 136zm0 0l0 0 0 0 0 0 0 0 0 0 0 0 0 0 0 0 0 0 0 0 0 0 0 0 0 0 0 0 0 0 0 0 0 0 0 0 0 0 0 0 0 0 0 0 0 0 0 0 0 0 0 0 0 0 0 0 0 0 0 0 0 0 0 0 0 0 0 0 0 0 0 0 0 0 0 0 0 0 0 0 0 0 0 0 0 0 0 0 0 0 0 0 0 0 0 0 0 0 0 0 0 0 0 0 0 0 0 0 0 0 0 0 0 0 0 0 0 0 0 0 0 0 0 0 0 0 0 0 9 -5 -9 5zm239 40l-4 7 -242 -41 4 -7 242 41zm0 0l0 0 0 0 0 0 0 0 0 0 0 0 0 0 0 0 0 0 0 0 0 0 0 0 0 0 0 0 0 0 0 0 0 0 0 0 0 0 0 0 0 0 0 0 0 0 0 0 0 0 0 0 0 0 0 0 0 0 0 0 0 0 0 0 0 0 0 0 0 0 0 0 0 0 0 0 0 0 0 0 0 0 0 0 0 0 0 0 0 0 0 0 0 0 0 0 0 0 0 0 0 0 0 0 0 0 0 0 0 0 0 0 0 0 0 0 0 0 0 0 0 0 0 0 0 0 0 0 4 -7 -4 7z"/>
  </g>
  <path class="fil5" d="M1193 1008c0,-205 165,-371 370,-372 205,0 371,165 372,370 0,205 -165,371 -370,372 -205,0 -371,-165 -372,-370z"/>
  <g style="clip-path:url(#id2)">
   <polygon class="fil0" points="1193,636 1935,636 1935,1378 1193,1378 "/>
  </g>
  <g style="clip-path:url(#id3)">
   <g id="_236401280">
    <polygon id="1" class="fil0" points="1193,636 1935,636 1935,1378 1193,1378 "/>
   </g>
  </g>
  <path class="fil1" d="M1193 1008c0,-205 165,-371 370,-372 205,0 371,165 372,370 0,205 -165,371 -370,372 -205,0 -371,-165 -372,-370z"/>
  <g style="clip-path:url(#id4)">
   <polygon class="fil0" points="1193,636 1935,636 1935,1378 1193,1378 "/>
  </g>
  <g style="clip-path:url(#id5)">
   <g id="_236401824">
    <path id="1" class="fil6" style="mask:url(#id6)" d="M1193 1008c0,-205 165,-371 370,-372 205,0 371,165 372,370 0,205 -165,371 -370,372 -205,0 -371,-165 -372,-370z"/>
   </g>
  </g>
  <path class="fil1" d="M1193 1008c0,-205 165,-371 370,-372 205,0 371,165 372,370 0,205 -165,371 -370,372 -205,0 -371,-165 -372,-370z"/>
  <path class="fil1" d="M1193 1008c0,-205 165,-371 370,-372 205,0 371,165 372,370 0,205 -165,371 -370,372 -205,0 -371,-165 -372,-370z"/>
  <path class="fil1" d="M1193 1008c0,-205 165,-371 370,-372 205,0 371,165 372,370 0,205 -165,371 -370,372 -205,0 -371,-165 -372,-370z"/>
  <circle class="fil7" transform="matrix(-0.388869 0.218223 0.412921 0.735817 1468.95 979.457)" r="200"/>
  <path class="fil8" d="M1338 713c-89,68 -146,175 -145,295 0,41 7,81 20,118l219 0 -36 -97 87 -171c65,33 131,102 168,128l-74 -236c62,-3 121,18 180,44l-84 -82 114 0 0 0c-63,-48 -141,-76 -225,-76 -85,0 -163,29 -225,76l0 0 1 1 0 0 0 0z"/>
  <path class="fil2" d="M1810 1285c11,-10 21,-20 30,-30 -23,-6 -47,-13 -70,-24 -55,-25 -101,-60 -135,-100 18,61 59,112 118,138 18,8 37,13 56,16l1 0z"/>
  <circle class="fil9" transform="matrix(-0.214677 0.000407654 0.000537876 0.283254 1789.43 989.959)" r="362"/>
  <path class="fil8" d="M1732 799c-31,9 -56,32 -69,62 20,-18 46,-33 75,-42 29,-9 59,-10 85,-6 -27,-17 -60,-24 -91,-14z"/>
  <circle class="fil2" transform="matrix(-0.192097 0.000364777 0.000481302 0.253461 1788.95 976.623)" r="362"/>
  <circle class="fil8" transform="matrix(-0.244493 0.000464272 0.000464272 0.244493 1811.96 1026.03)" r="106"/>
  <path class="fil5" d="M2636 1527c47,-82 18,-187 -64,-234 -82,-47 -187,-18 -234,64 -47,82 -18,187 64,234 82,47 187,18 234,-64z"/>
  <g style="clip-path:url(#id8)">
   <polygon class="fil0" points="2315,1270 2659,1270 2659,1614 2315,1614 "/>
  </g>
  <g style="clip-path:url(#id9)">
   <g id="_813567984">
    <polygon id="1" class="fil0" points="2315,1270 2659,1270 2659,1614 2315,1614 "/>
   </g>
  </g>
  <path class="fil1" d="M2636 1527c47,-82 18,-187 -64,-234 -82,-47 -187,-18 -234,64 -47,82 -18,187 64,234 82,47 187,18 234,-64z"/>
  <g style="clip-path:url(#id10)">
   <polygon class="fil0" points="2315,1270 2659,1270 2659,1614 2315,1614 "/>
  </g>
  <g style="clip-path:url(#id11)">
   <g id="_813568464">
    <path id="1" class="fil6" style="mask:url(#id12)" d="M2571 1293c82,47 111,152 64,234 -32,55 -89,86 -148,87 -29,0 -58,-7 -85,-23 -82,-47 -111,-152 -64,-234 32,-55 89,-86 148,-87 29,0 58,7 85,23z"/>
   </g>
  </g>
  <path class="fil1" d="M2636 1527c47,-82 18,-187 -64,-234 -82,-47 -187,-18 -234,64 -47,82 -18,187 64,234 82,47 187,18 234,-64z"/>
  <path class="fil1" d="M2636 1527c47,-82 18,-187 -64,-234 -82,-47 -187,-18 -234,64 -47,82 -18,187 64,234 82,47 187,18 234,-64z"/>
  <path class="fil1" d="M2636 1527c47,-82 18,-187 -64,-234 -82,-47 -187,-18 -234,64 -47,82 -18,187 64,234 82,47 187,18 234,-64z"/>
  <circle class="fil7" transform="matrix(0.106907 0.176639 -0.334236 0.20229 2530.81 1452.6)" r="200"/>
  <path class="fil8" d="M2644 1375c20,48 19,104 -9,152 -9,17 -21,31 -35,43l-88 -50 36 -31 4 -89c-34,-2 -76,11 -97,13l84 -78c-24,-15 -53,-20 -83,-23l53 -14 -46 -26 0 0c36,-5 74,2 108,21 34,19 59,49 73,82l0 0 0 0 0 0 0 0z"/>
  <path class="fil2" d="M2324 1498c-2,-6 -4,-13 -5,-19 11,3 22,5 34,6 28,3 54,-1 77,-10 -21,20 -49,32 -79,29 -9,-1 -18,-3 -26,-6l-1 0z"/>
  <circle class="fil10" transform="matrix(0.0864075 0.0491367 -0.0648331 0.11401 2396.76 1380.93)" r="362"/>
  <path class="fil8" d="M2451 1281c11,11 15,26 14,41 -4,-12 -11,-24 -21,-34 -10,-10 -21,-18 -33,-22 15,-1 30,4 40,15z"/>
  <circle class="fil2" transform="matrix(0.0773191 0.0439685 -0.0580139 0.102018 2402.52 1378.46)" r="362"/>
  <circle class="fil8" transform="matrix(0.0984085 0.0559612 -0.0559612 0.0984085 2383.91 1374.77)" r="106"/>
  <g id="_245293744">
   <path class="fil4" d="M2125 1368l0 0 0 0 0 0 0 0 0 0 0 0 0 0 0 0 0 0 0 0 0 0 0 0 0 0 0 0 0 0 0 0 0 0 0 0 0 0 0 0 0 0 0 0 0 0 0 0 0 0 0 0 0 0 0 0 0 0 0 0 0 0 0 0 0 0 0 0 0 0 0 0 0 0 0 0 0 0 0 0 0 0 0 0 0 0 0 0 0 0 0 0 0 0 0 0 0 0 0 0 0 0 0 0 0 0 0 0 0 0 0 0 0 0 0 0 0 0 0 0 0 0 0 0 0 0 0 0 -2 -9 2 9zm-230 53l-7 -1 5 -7 232 -44 2 9 -232 44 0 -1zm0 0l0 0 0 0 0 0 0 0 0 0 0 0 0 0 0 0 0 0 0 0 0 0 0 0 0 0 0 0 0 0 0 0 0 0 0 0 0 0 0 0 0 0 0 0 0 0 0 0 0 0 0 0 0 0 0 0 0 0 0 0 0 0 0 0 0 0 0 0 0 0 0 0 0 0 0 0 0 0 0 0 0 0 0 0 0 0 0 0 0 0 0 0 0 0 0 0 0 0 0 0 0 0 0 0 0 0 0 0 0 0 0 0 0 0 0 0 0 0 0 0 0 0 0 0 0 0 0 0 2 9 -2 -9zm-113 -94l12 -6 106 93 -12 6 -106 -93zm0 0l0 0 0 0 0 0 0 0 0 0 0 0 0 0 0 0 0 0 0 0 0 0 0 0 0 0 0 0 0 0 0 0 0 0 0 0 0 0 0 0 0 0 0 0 0 0 0 0 0 0 0 0 0 0 0 0 0 0 0 0 0 0 0 0 0 0 0 0 0 0 0 0 0 0 0 0 0 0 0 0 0 0 0 0 0 0 0 0 0 0 0 0 0 0 0 0 0 0 0 0 0 0 0 0 0 0 0 0 0 0 0 0 0 0 0 0 0 0 0 0 0 0 0 0 0 0 0 0 -12 6 12 -6z"/>
  </g>
  <g id="_245290352">
   <path class="fil4" d="M1499 1812l13 3 0 0 0 0 0 0 0 0 0 0 0 0 0 0 0 0 0 0 0 0 0 0 0 0 0 0 0 0 0 0 0 0 0 0 0 0 0 0 0 0 0 0 0 0 0 0 0 0 0 0 0 0 0 0 0 0 0 0 0 0 0 0 0 0 0 0 0 0 0 0 0 0 0 0 0 0 0 0 0 0 0 0 0 0 0 0 0 0 0 0 0 0 0 0 0 0 0 0 0 0 0 0 0 0 0 0 0 0 0 0 0 0 0 0 0 0 0 0 0 0 0 0 0 0 0 0 0 0 -13 -3zm88 -218l-74 221 -13 -3 74 -221 13 3zm0 0l-13 -3 0 0 0 0 0 0 0 0 0 0 0 0 0 0 0 0 0 0 0 0 0 0 0 0 0 0 0 0 0 0 0 0 0 0 0 0 0 0 0 0 0 0 0 0 0 0 0 0 0 0 0 0 0 0 0 0 0 0 0 0 0 0 0 0 0 0 0 0 0 0 0 0 0 0 0 0 0 0 0 0 0 0 0 0 0 0 0 0 0 0 0 0 0 0 0 0 0 0 0 0 0 0 0 0 0 0 0 0 0 0 0 0 0 0 0 0 0 0 0 0 0 0 0 0 0 0 0 0 13 3z"/>
  </g>
  <g id="_245292240">
   <path class="fil4" d="M1780 1947l0 0 0 0 0 0 0 0 0 0 0 0 0 0 0 0 0 0 0 0 0 0 0 0 0 0 0 0 0 0 0 0 0 0 0 0 0 0 0 0 0 0 0 0 0 0 0 0 0 0 0 0 0 0 0 0 0 0 0 0 0 0 0 0 0 0 0 0 0 0 0 0 0 0 0 0 0 0 0 0 0 0 0 0 0 0 0 0 0 0 0 0 0 0 0 0 0 0 0 0 0 0 0 0 0 0 0 0 0 0 0 0 0 0 0 0 0 0 0 0 0 0 0 0 0 0 0 0 14 0 -14 0zm11 -237l13 -3 1 3 -25 236 -14 0 25 -236zm0 0l0 0 0 0 0 0 0 0 0 0 0 0 0 0 0 0 0 0 0 0 0 0 0 0 0 0 0 0 0 0 0 0 0 0 0 0 0 0 0 0 0 0 0 0 0 0 0 0 0 0 0 0 0 0 0 0 0 0 0 0 0 0 0 0 0 0 0 0 0 0 0 0 0 0 0 0 0 0 0 0 0 0 0 0 0 0 0 0 0 0 0 0 0 0 0 0 0 0 0 0 0 0 0 0 0 0 0 0 0 0 0 0 0 0 0 0 0 0 0 0 0 0 0 0 0 0 0 0 -14 0 14 0zm-79 -136l13 -6 80 139 -13 6 -80 -139zm0 0l0 0 0 0 0 0 0 0 0 0 0 0 0 0 0 0 0 0 0 0 0 0 0 0 0 0 0 0 0 0 0 0 0 0 0 0 0 0 0 0 0 0 0 0 0 0 0 0 0 0 0 0 0 0 0 0 0 0 0 0 0 0 0 0 0 0 0 0 0 0 0 0 0 0 0 0 0 0 0 0 0 0 0 0 0 0 0 0 0 0 0 0 0 0 0 0 0 0 0 0 0 0 0 0 0 0 0 0 0 0 0 0 0 0 0 0 0 0 0 0 0 0 0 0 0 0 0 0 -13 6 13 -6z"/>
  </g>
  <rect class="fil11" transform="matrix(0.988068 -0.154015 0.154015 0.988068 1447.75 1358.9)" width="338" height="240"/>
  <path class="fil12" d="M1450 1377l4 27 341 -8 -4 -27 -341 8zm10 62l4 27 341 -8 -4 -27 -341 8zm10 62l4 27 341 -8 -4 -27 -341 8z"/>
  <path class="fil8" d="M1728 1592c-17,3 -35,-7 -52,-26l0 0 93 -14c-10,23 -24,38 -41,40z"/>
  <path class="fil8" d="M1585 1614c-17,3 -35,-7 -52,-26l0 0 93 -14c-10,23 -24,38 -41,40z"/>
  <path class="fil8" d="M1809 1916c10,-1 19,0 27,2l8 3c9,4 15,10 16,17 2,15 -19,29 -46,32 -27,3 -50,-7 -51,-21 -2,-15 19,-29 46,-32l0 -1z"/>
  <path class="fil8" d="M1462 1801c-7,7 -13,14 -17,22l-3 8c-3,9 -2,18 3,23 10,11 34,5 54,-13 20,-18 28,-42 18,-52 -10,-11 -34,-5 -54,13l-1 -1z"/>
  <g id="_807314240">
   <path class="fil4" d="M1857 1492l1 -9 0 0 0 0 0 0 0 0 0 0 0 0 0 0 0 0 0 0 0 0 0 0 0 0 0 0 0 0 0 0 0 0 0 0 0 0 0 0 0 0 0 0 0 0 0 0 0 0 0 0 0 0 0 0 0 0 0 0 0 0 0 0 0 0 0 0 0 0 0 0 0 0 0 0 0 0 0 0 0 0 0 0 0 0 0 0 0 0 0 0 0 0 0 0 0 0 0 0 0 0 0 0 0 0 0 0 0 0 0 0 0 0 0 0 0 0 0 0 0 0 0 0 0 0 0 0 0 0 -1 9zm-247 -2l249 -7 -1 9 -249 7 -5 -2 7 -8 -1 1zm0 0l-1 9 0 0 0 0 0 0 0 0 0 0 0 0 0 0 0 0 0 0 0 0 0 0 0 0 0 0 0 0 0 0 0 0 0 0 0 0 0 0 0 0 0 0 0 0 0 0 0 0 0 0 0 0 0 0 0 0 0 0 0 0 0 0 0 0 0 0 0 0 0 0 0 0 0 0 0 0 0 0 0 0 0 0 0 0 0 0 0 0 0 0 0 0 0 0 0 0 0 0 0 0 0 0 0 0 0 0 0 0 0 0 0 0 0 0 0 0 0 0 0 0 0 0 0 0 0 0 0 0 1 -9zm-135 -121l140 123 -12 6 -140 -123 12 -6zm0 0l-12 6 0 0 0 0 0 0 0 0 0 0 0 0 0 0 0 0 0 0 0 0 0 0 0 0 0 0 0 0 0 0 0 0 0 0 0 0 0 0 0 0 0 0 0 0 0 0 0 0 0 0 0 0 0 0 0 0 0 0 0 0 0 0 0 0 0 0 0 0 0 0 0 0 0 0 0 0 0 0 0 0 0 0 0 0 0 0 0 0 0 0 0 0 0 0 0 0 0 0 0 0 0 0 0 0 0 0 0 0 0 0 0 0 0 0 0 0 0 0 0 0 0 0 0 0 0 0 0 0 12 -6z"/>
  </g>
  <path class="fil8" d="M1903 1473c-9,-3 -19,-5 -27,-5l-9 1c-10,2 -17,6 -19,13 -5,14 12,32 37,41 25,9 50,5 55,-9 5,-14 -12,-32 -37,-41z"/>
  <path class="fil8" d="M2148 1339c10,-3 19,-3 27,-3l9 1c9,2 16,7 18,14 4,14 -14,31 -40,38 -26,7 -50,1 -54,-13 -4,-14 14,-31 40,-38l0 1z"/>
  <g id="_807306464">
   <path class="fil4" d="M2689 1787l0 0 0 0 0 0 0 0 0 0 0 0 0 0 0 0 0 0 0 0 0 0 0 0 0 0 0 0 0 0 0 0 0 0 0 0 0 0 0 0 0 0 0 0 0 0 0 0 0 0 0 0 0 0 0 0 0 0 0 0 0 0 0 0 0 0 0 0 0 0 0 0 0 0 0 0 0 0 0 0 0 0 0 0 0 0 0 0 0 0 0 0 0 0 0 0 0 0 0 0 0 0 0 0 0 0 0 0 0 0 0 0 0 0 0 0 0 0 0 0 0 0 0 0 0 0 0 0 3 -9 -3 9zm-109 -9l-4 -3 7 -6 106 19 -3 9 -106 -19zm0 0l0 0 0 0 0 0 0 0 0 0 0 0 0 0 0 0 0 0 0 0 0 0 0 0 0 0 0 0 0 0 0 0 0 0 0 0 0 0 0 0 0 0 0 0 0 0 0 0 0 0 0 0 0 0 0 0 0 0 0 0 0 0 0 0 0 0 0 0 0 0 0 0 0 0 0 0 0 0 0 0 0 0 0 0 0 0 0 0 0 0 0 0 0 0 0 0 0 0 0 0 0 0 0 0 0 0 0 0 0 0 0 0 0 0 0 0 0 0 0 0 0 0 0 0 0 0 0 0 -3 9 3 -9zm-23 -74l11 -3 19 71 -11 3 -19 -71zm0 0l0 0 0 0 0 0 0 0 0 0 0 0 0 0 0 0 0 0 0 0 0 0 0 0 0 0 0 0 0 0 0 0 0 0 0 0 0 0 0 0 0 0 0 0 0 0 0 0 0 0 0 0 0 0 0 0 0 0 0 0 0 0 0 0 0 0 0 0 0 0 0 0 0 0 0 0 0 0 0 0 0 0 0 0 0 0 0 0 0 0 0 0 0 0 0 0 0 0 0 0 0 0 0 0 0 0 0 0 0 0 0 0 0 0 0 0 0 0 0 0 0 0 0 0 0 0 0 0 -11 3 11 -3z"/>
  </g>
  <g id="_807305952">
   <path class="fil4" d="M2522 1887l11 -2 0 0 0 0 0 0 0 0 0 0 0 0 0 0 0 0 0 0 0 0 0 0 0 0 0 0 0 0 0 0 0 0 0 0 0 0 0 0 0 0 0 0 0 0 0 0 0 0 0 0 0 0 0 0 0 0 0 0 0 0 0 0 0 0 0 0 0 0 0 0 0 0 0 0 0 0 0 0 0 0 0 0 0 0 0 0 0 0 0 0 0 0 0 0 0 0 0 0 0 0 0 0 0 0 0 0 0 0 0 0 0 0 0 0 0 0 0 0 0 0 0 0 0 0 0 0 0 0 -11 2zm-18 -175l29 173 -11 2 -29 -173 11 -2zm0 0l-11 2 0 0 0 0 0 0 0 0 0 0 0 0 0 0 0 0 0 0 0 0 0 0 0 0 0 0 0 0 0 0 0 0 0 0 0 0 0 0 0 0 0 0 0 0 0 0 0 0 0 0 0 0 0 0 0 0 0 0 0 0 0 0 0 0 0 0 0 0 0 0 0 0 0 0 0 0 0 0 0 0 0 0 0 0 0 0 0 0 0 0 0 0 0 0 0 0 0 0 0 0 0 0 0 0 0 0 0 0 0 0 0 0 0 0 0 0 0 0 0 0 0 0 0 0 0 0 0 0 11 -2z"/>
  </g>
  <rect class="fil11" transform="matrix(0.987724 -0.156208 0.156208 0.987724 2432.78 1605.19)" width="157" height="111"/>
  <path class="fil12" d="M2589 1589l2 12 -151 45 -2 -12 151 -45zm5 29l2 12 -151 45 -2 -12 151 -45zm5 29l2 12 -151 45 -2 -12 151 -45z"/>
  <path class="fil8" d="M2497 1723c8,-1 15,-8 19,-19l0 0 -43 7c7,9 16,13 24,12z"/>
  <path class="fil8" d="M2563 1713c8,-1 15,-8 19,-19l0 0 -43 7c7,9 16,13 24,12z"/>
  <path class="fil8" d="M2510 1890c-3,3 -6,7 -8,10l-2 4c-1,4 -1,8 1,11 5,5 16,2 25,-6 9,-8 13,-19 8,-24 -5,-5 -16,-2 -25,6l1 -1z"/>
  <path class="fil8" d="M2703 1788c4,2 8,4 10,7l3 3c3,4 4,7 2,10 -3,6 -14,7 -26,2 -11,-5 -18,-14 -15,-21 3,-6 14,-7 26,-2l0 1z"/>
  <path class="fil8" d="M2165 1389c2,4 3,9 3,12l0 4c-1,4 -2,8 -5,9 -6,3 -15,-5 -20,-16 -5,-11 -4,-23 3,-25 6,-3 15,5 20,16l-1 0z"/>
  <path class="fil8" d="M2113 1460c-4,-2 -8,-4 -12,-4l-4 0c-5,0 -8,1 -10,4 -3,6 3,16 13,22 11,6 22,6 26,0 3,-6 -3,-16 -13,-22z"/>
  <g id="_807320512">
   <path class="fil4" d="M2126 1475l-9 5 0 0 0 0 0 0 0 0 0 0 0 0 0 0 0 0 0 0 0 0 0 0 0 0 0 0 0 0 0 0 0 0 0 0 0 0 0 0 0 0 0 0 0 0 0 0 0 0 0 0 0 0 0 0 0 0 0 0 0 0 0 0 0 0 0 0 0 0 0 0 0 0 0 0 0 0 0 0 0 0 0 0 0 0 0 0 0 0 0 0 0 0 0 0 0 0 0 0 0 0 0 0 0 0 0 0 0 0 0 0 0 0 0 0 0 0 0 0 0 0 0 0 0 0 0 0 0 0 9 -5zm142 114l-151 -108 9 -5 151 108 -6 6 -3 -1zm0 0l9 -5 0 0 0 0 0 0 0 0 0 0 0 0 0 0 0 0 0 0 0 0 0 0 0 0 0 0 0 0 0 0 0 0 0 0 0 0 0 0 0 0 0 0 0 0 0 0 0 0 0 0 0 0 0 0 0 0 0 0 0 0 0 0 0 0 0 0 0 0 0 0 0 0 0 0 0 0 0 0 0 0 0 0 0 0 0 0 0 0 0 0 0 0 0 0 0 0 0 0 0 0 0 0 0 0 0 0 0 0 0 0 0 0 0 0 0 0 0 0 0 0 0 0 0 0 0 0 0 0 -9 5zm296 31l-294 -30 3 -7 294 30 -3 7zm0 0l3 -7 0 0 0 0 0 0 0 0 0 0 0 0 0 0 0 0 0 0 0 0 0 0 0 0 0 0 0 0 0 0 0 0 0 0 0 0 0 0 0 0 0 0 0 0 0 0 0 0 0 0 0 0 0 0 0 0 0 0 0 0 0 0 0 0 0 0 0 0 0 0 0 0 0 0 0 0 0 0 0 0 0 0 0 0 0 0 0 0 0 0 0 0 0 0 0 0 0 0 0 0 0 0 0 0 0 0 0 0 0 0 0 0 0 0 0 0 0 0 0 0 0 0 0 0 0 0 0 0 -3 7z"/>
  </g>
 </g>
</svg>
