<?xml version="1.0" encoding="UTF-8"?>
<!DOCTYPE svg PUBLIC "-//W3C//DTD SVG 1.1//EN" "http://www.w3.org/Graphics/SVG/1.1/DTD/svg11.dtd">
<!-- Creator: CorelDRAW X6 -->
<svg xmlns="http://www.w3.org/2000/svg" xml:space="preserve" width="269.092mm" height="167.801mm" version="1.1" style="shape-rendering:geometricPrecision; text-rendering:geometricPrecision; image-rendering:optimizeQuality; fill-rule:evenodd; clip-rule:evenodd"
viewBox="0 0 26909 16780"
 xmlns:xlink="http://www.w3.org/1999/xlink">
 <defs>
  <style type="text/css">
   <![CDATA[
    .str1 {stroke:#EBECEC;stroke-width:7.62}
    .str0 {stroke:#939395;stroke-width:141.11}
    .fil0 {fill:none}
    .fil7 {fill:#2B2A29}
    .fil10 {fill:#5B5B5B}
    .fil11 {fill:#9D9E9E}
    .fil6 {fill:#E31E24}
    .fil12 {fill:#EBECEC}
    .fil3 {fill:#EF7F1A}
    .fil4 {fill:#F6B096}
    .fil8 {fill:#FACDA8}
    .fil9 {fill:#FEFEFE}
    .fil5 {fill:#FFED00}
    .fil2 {fill:#2B2A29;fill-rule:nonzero}
    .fil1 {fill:#1C1B17;fill-opacity:0.290196}
   ]]>
  </style>
    <clipPath id="id0">
     <path d="M8973 9363l8452 0 0 -8452 -8452 0 0 8452z"/>
    </clipPath>
     <mask id="id1">
  <linearGradient id="id2" gradientUnits="userSpaceOnUse" x1="13199.1" y1="9363.06" x2="13199.1" y2="911.02">
   <stop offset="0" style="stop-opacity:1; stop-color:white"/>
   <stop offset="1" style="stop-opacity:0; stop-color:white"/>
  </linearGradient>
      <rect style="fill:url(#id2)" x="8973" y="911" width="8452" height="8452"/>
     </mask>
    <clipPath id="id3">
     <path d="M8973 9363l8452 0 0 -8452 -8452 0 0 8452z"/>
    </clipPath>
      <mask id="id4">
  <linearGradient id="id5" gradientUnits="userSpaceOnUse" x1="13199.1" y1="9359.07" x2="13199.1" y2="915.01">
   <stop offset="0" style="stop-opacity:1; stop-color:white"/>
   <stop offset="1" style="stop-opacity:0; stop-color:white"/>
  </linearGradient>
       <rect style="fill:url(#id5)" x="8973" y="911" width="8452" height="8452"/>
      </mask>
 </defs>
 <g id="Layer_x0020_1">
  <metadata id="CorelCorpID_0Corel-Layer"/>
  <g id="_255352400">
   <rect class="fil0" width="26909" height="16780"/>
   <ellipse class="fil0 str0" cx="19669" cy="13135" rx="1072" ry="513"/>
   <ellipse class="fil0 str0" cx="6739" cy="15352" rx="1072" ry="513"/>
   <ellipse class="fil0 str0" cx="23706" cy="15501" rx="742" ry="355"/>
   <ellipse class="fil0 str0" cx="9514" cy="12965" rx="546" ry="261"/>
   <ellipse class="fil0 str0" cx="4876" cy="12609" rx="546" ry="261"/>
   <path class="fil1" d="M13544 13513c2274,0 4117,403 4117,899 0,497 -1843,899 -4117,899 -2274,0 -4117,-403 -4117,-899 0,-497 1843,-899 4117,-899z"/>
   <path class="fil2" d="M15344 14078l2 3 1 3 1 3 1 3 1 3 1 3 0 3 0 3 0 3 0 3 0 3 -1 3 -1 3 -1 3 -1 3 -1 3 -1 3 -2 3 -2 3 -2 3 -2 3 -2 3 -2 3 -3 2 -3 2 -3 2 -3 2 -3 2 -3 2 -3 2 -4 2 -4 1 -4 1 -4 1 -4 1 -4 1 -4 1 -4 0 -4 0 -4 0 -4 0 -4 0 -4 0 -4 -1 -4 -1 -4 -1 -4 -1 -4 -1 -4 -1 -3 -1 -3 -2 -3 -2 -3 -2 -3 -2 -3 -2 -3 -2 -3 -2 -3 -2 -3 -3 -2 -3 -2 -3 -2 -3 -2 -3 -2 -3 147 -54 1 4zm-380 -393l147 -54 0 0 233 448 -147 54 -233 -448zm0 0l-2 -3 -1 -3 -1 -3 -1 -3 -1 -3 -1 -3 0 -3 0 -3 0 -3 0 -3 0 -3 1 -3 1 -3 1 -3 1 -3 1 -3 1 -3 2 -3 2 -3 2 -3 2 -3 2 -3 2 -3 3 -2 3 -2 3 -2 3 -2 3 -2 3 -2 3 -2 4 -2 4 -1 4 -1 4 -1 4 -1 4 -1 4 -1 4 0 4 0 4 0 4 0 4 0 4 0 4 1 4 1 4 1 4 1 4 1 4 1 3 1 3 2 3 2 3 2 3 2 3 2 3 2 3 2 3 2 3 3 2 3 2 3 2 3 2 3 2 3 -147 54 -1 -4zm-990 -1902l147 -54 990 1902 -147 54 -990 -1902zm0 0l-2 -3 -1 -3 -1 -3 -1 -3 -1 -3 -1 -3 0 -3 0 -3 0 -3 0 -3 0 -3 1 -3 1 -3 1 -3 1 -3 1 -3 1 -3 2 -3 2 -3 2 -3 2 -3 2 -3 2 -3 3 -2 3 -2 3 -2 3 -2 3 -2 3 -2 3 -2 4 -2 4 -1 4 -1 4 -1 4 -1 4 -1 4 -1 4 0 4 0 4 0 4 0 4 0 4 0 4 1 4 1 4 1 4 1 4 1 4 1 3 1 3 2 3 2 3 2 3 2 3 2 3 2 3 2 3 2 3 3 2 3 2 3 2 3 2 3 2 3 -147 54 -1 -4z"/>
   <circle class="fil3" transform="matrix(1.4079 -0.622569 1.17803 2.66402 9394.42 6787.48)" r="507"/>
   <circle class="fil4" transform="matrix(0.695232 -0.30743 0.581719 1.31552 9394.42 6787.5)" r="507"/>
   <circle class="fil3" transform="matrix(-1.4079 -0.622569 -1.17803 2.66402 17023.7 6787.48)" r="507"/>
   <circle class="fil4" transform="matrix(-0.695232 -0.30743 -0.581719 1.31552 17023.7 6787.5)" r="507"/>
   <circle class="fil5" cx="13199" cy="5137" r="4222"/>
   <g style="clip-path:url(#id0)">
    <polygon class="fil0" style="mask:url(#id1)" points="8973,911 17425,911 17425,9363 8973,9363 "/>
   </g>
   <g style="clip-path:url(#id3)">
    <g>
     <path id="1" class="fil6" style="mask:url(#id4)" d="M13199 915c2332,0 4222,1890 4222,4222 0,2332 -1890,4222 -4222,4222 -2332,0 -4222,-1890 -4222,-4222 0,-2332 1890,-4222 4222,-4222z"/>
    </g>
   </g>
   <polygon class="fil0" points="8973,9363 17425,9363 17425,911 8973,911 "/>
   <path class="fil7" d="M13203 915c963,0 1850,323 2560,865l0 0 -5121 0c710,-543 1598,-865 2560,-865l1 0z"/>
   <ellipse class="fil8" cx="11469" cy="4907" rx="885" ry="1167"/>
   <ellipse class="fil8" cx="14864" cy="4907" rx="885" ry="1167"/>
   <ellipse class="fil9" cx="14957" cy="4784" rx="792" ry="1044"/>
   <circle class="fil7" cx="14931" cy="4953" r="295"/>
   <path class="fil7" d="M10645 1782c1238,218 2260,716 3173,1357l-452 -929c703,-29 1379,212 2049,509l-1063 -1047 -3707 110 0 0z"/>
   <path class="fil7" d="M11259 3119c373,-16 718,142 971,410 -284,-122 -612,-185 -960,-170 -348,15 -670,107 -942,253 228,-289 558,-477 931,-493z"/>
   <path class="fil7" d="M15259 3187c-367,-71 -731,36 -1020,264 298,-79 633,-94 975,-28 342,66 647,203 895,388 -184,-319 -482,-553 -849,-624l-1 0z"/>
   <path class="fil9" d="M14713 7120c-984,987 -2252,702 -3016,184 763,1316 2218,1354 3016,-184z"/>
   <ellipse class="fil9" cx="11562" cy="4784" rx="792" ry="1044"/>
   <circle class="fil7" cx="11543" cy="4785" r="295"/>
   <path class="fil2" d="M11731 14168l157 30 -1 3 -1 3 -1 3 -2 3 -2 3 -2 3 -2 3 -2 3 -2 3 -3 3 -3 2 -3 2 -3 2 -3 2 -3 2 -3 2 -3 2 -3 2 -4 1 -4 1 -4 1 -4 1 -4 1 -4 1 -4 1 -4 0 -4 0 -4 0 -4 0 -4 0 -4 -1 -4 -1 -4 -1 -4 -1 -4 -1 -4 -1 -4 -1 -3 -2 -3 -2 -3 -2 -3 -2 -3 -2 -3 -2 -3 -2 -3 -2 -2 -3 -2 -3 -2 -3 -2 -3 -2 -3 -2 -3 -2 -3 -1 -3 -1 -3 -1 -3 -1 -3 -1 -3 0 -3 0 -3 0 -3 0 -3 0 -3 1 -3 1 -3 2 -3zm807 -2398l-650 2428 -157 -30 650 -2428 157 30zm0 0l-157 -30 1 -3 1 -3 1 -3 2 -3 2 -3 2 -3 2 -3 2 -3 2 -3 3 -3 3 -2 3 -2 3 -2 3 -2 3 -2 3 -2 3 -2 3 -2 4 -1 4 -1 4 -1 4 -1 4 -1 4 -1 4 -1 4 0 4 0 4 0 4 0 4 0 4 1 4 1 4 1 4 1 4 1 4 1 4 1 3 2 3 2 3 2 3 2 3 2 3 2 3 2 3 2 2 3 2 3 2 3 2 3 2 3 2 3 2 3 1 3 1 3 1 3 1 3 1 3 0 3 0 3 0 3 0 3 0 3 -1 3 -1 3 -2 3z"/>
   <rect class="fil10" x="11275" y="8890" width="3847" height="2729"/>
   <path class="fil11" d="M15122 9096l0 306 -3847 507 0 -306 3847 -507zm0 717l0 306 -3847 507 0 -306 3847 -507zm0 717l0 306 -3847 507 0 -306 3847 -507z"/>
   <path class="fil11" d="M12377 12002c201,0 386,-143 534,-383l0 0 -1068 0c148,240 333,383 534,383l0 0z"/>
   <path class="fil11" d="M14020 12002c201,0 386,-143 534,-383l0 0 -1068 0c148,240 333,383 534,383l0 0z"/>
   <path class="fil7" d="M11320 14232c-94,63 -171,138 -226,213l-52 84c-50,99 -58,194 -12,262 93,139 374,113 628,-57 253,-170 383,-421 290,-560 -93,-139 -374,-113 -628,57l0 1z"/>
   <path class="fil7" d="M6501 10366c-117,-42 -219,-101 -298,-167l-78 -76c-80,-92 -114,-192 -83,-276 62,-173 369,-221 684,-108 316,113 521,346 459,519 -62,173 -369,221 -684,108z"/>
   <path class="fil7" d="M15734 13892c94,63 171,138 226,213l52 84c50,99 58,194 12,262 -93,139 -374,113 -628,-57 -253,-170 -383,-421 -290,-560 93,-139 374,-113 628,57l0 1z"/>
   <path class="fil7" d="M18850 9029c-124,15 -236,49 -328,95l-93 56c-99,72 -154,161 -143,251 22,183 309,299 642,259 333,-40 586,-220 564,-402 -22,-183 -309,-299 -642,-259z"/>
   <path class="fil2" d="M6916 10188l-77 89 -4 -1 -3 -1 -3 -2 -3 -2 -3 -2 -3 -2 -3 -2 -3 -2 -2 -2 -2 -2 -2 -2 -2 -2 -2 -2 -2 -2 -1 -2 -1 -2 -1 -2 -1 -2 -1 -2 0 -2 0 -2 0 -2 0 -2 0 -2 0 -2 1 -2 1 -2 1 -2 1 -2 1 -2 2 -2 2 -2 2 -2 2 -2 2 -2 3 -2 3 -2 3 -2 3 -2 3 -2 3 -1 3 -1 3 -1 3 -1 3 -1 4 -1 4 -1 4 -1 4 -1 4 -1 4 0 4 0 4 0 4 0 4 0 4 0 4 0 4 0 4 1 4 1 4 1 4 1 4 1 4 1 -2 -7zm2488 977l-2564 -888 77 -89 2564 888 32 69 -109 20zm0 0l77 -89 4 1 3 1 3 2 3 2 3 2 3 2 3 2 3 2 2 2 2 2 2 2 2 2 2 2 2 2 1 2 1 2 1 2 1 2 1 2 0 2 0 2 0 2 0 2 0 2 0 2 -1 2 -1 2 -1 2 -1 2 -1 2 -2 2 -2 2 -2 2 -2 2 -2 2 -3 2 -3 2 -3 2 -3 2 -3 2 -3 1 -3 1 -3 1 -3 1 -3 1 -4 1 -4 1 -4 1 -4 1 -4 1 -4 0 -4 0 -4 0 -4 0 -4 0 -4 0 -4 0 -4 0 -4 -1 -4 -1 -4 -1 -4 -1 -4 -1 -4 -1 2 7zm1965 -2172l-1856 2151 -140 -48 1856 -2151 140 48zm0 0l-140 -48 2 -2 2 -2 2 -2 3 -2 3 -2 3 -2 3 -2 3 -2 3 -1 3 -1 3 -1 3 -1 3 -1 4 -1 4 -1 4 -1 4 -1 4 -1 4 0 4 0 4 0 4 0 4 0 4 0 4 0 4 0 4 1 4 1 4 1 4 1 4 1 4 1 4 1 3 1 3 2 3 2 3 2 3 2 3 2 3 2 2 2 2 2 2 2 2 2 2 2 2 2 1 2 1 2 1 2 1 2 1 2 0 2 0 2 0 2 0 2 0 2 0 2 -1 2 -1 2 -1 2 -1 2 -1 2 -2 2 -2 2 -5 6z"/>
   <path class="fil2" d="M18655 9357l3 -2 3 -2 3 -2 3 -2 3 -1 3 -1 3 -1 4 -1 4 -1 4 -1 4 -1 4 -1 4 -1 4 0 4 0 4 0 4 0 4 0 4 0 4 0 4 0 4 1 4 1 4 1 4 1 4 1 4 1 3 1 3 1 3 1 3 2 3 2 3 2 3 2 3 2 2 2 2 2 2 2 2 2 2 2 2 2 1 2 1 2 1 2 1 2 1 2 0 2 0 2 0 2 0 2 0 2 0 2 -1 2 -1 2 -1 2 -1 2 -1 2 -2 2 -2 2 -2 2 -2 2 -2 2 -3 2 -3 2 -118 -68 -3 8zm-2203 1663l-132 -15 15 -54 2320 -1594 118 68 -2320 1594 -1 1zm0 0l-3 2 -3 2 -3 2 -3 2 -3 1 -3 1 -3 1 -4 1 -4 1 -4 1 -4 1 -4 1 -4 1 -4 0 -4 0 -4 0 -4 0 -4 0 -4 0 -4 0 -4 0 -4 -1 -4 -1 -4 -1 -4 -1 -4 -1 -4 -1 -3 -1 -3 -1 -3 -1 -3 -2 -3 -2 -3 -2 -3 -2 -3 -2 -2 -2 -2 -2 -2 -2 -2 -2 -2 -2 -2 -2 -1 -2 -1 -2 -1 -2 -1 -2 -1 -2 0 -2 0 -2 0 -2 0 -2 0 -2 0 -2 1 -2 1 -2 1 -2 1 -2 1 -2 2 -2 2 -2 2 -2 2 -2 2 -2 3 -2 3 -2 118 68 3 -8zm-1449 -1978l147 -39 1316 1964 -147 39 -1316 -1964zm0 0l-2 -2 -1 -2 -1 -2 -1 -2 -1 -2 0 -2 0 -2 0 -2 0 -2 0 -2 0 -2 1 -2 1 -2 1 -2 1 -2 1 -2 2 -2 2 -2 2 -2 2 -2 2 -2 2 -2 2 -2 3 -2 3 -2 3 -2 3 -2 3 -1 3 -1 3 -1 4 -1 4 -1 4 -1 4 -1 4 -1 4 -1 4 0 4 0 4 0 4 0 4 0 4 0 4 0 4 0 4 1 4 1 4 1 4 1 4 1 3 1 3 1 3 1 3 1 3 1 3 2 3 2 3 2 3 2 2 2 2 2 2 2 2 2 2 2 2 2 -147 39 -2 -6z"/>
   <rect class="fil12 str1" transform="matrix(7.92093 -5.86253 5.86253 7.92093 2461.16 8767.29)" width="288" height="456"/>
   <path class="fil2" d="M7210 6990l-116 14 -2 -3 -2 -3 -1 -3 -1 -3 -1 -3 -1 -3 -1 -3 -1 -3 0 -3 0 -3 0 -3 0 -3 0 -3 0 -3 1 -3 1 -2 1 -2 1 -2 1 -2 1 -2 1 -2 2 -2 2 -2 2 -2 2 -1 2 -1 2 -1 2 -1 3 -1 3 -1 3 -1 3 0 3 0 3 0 3 0 3 0 3 0 3 1 3 1 3 1 3 1 3 1 3 1 3 1 3 2 3 2 3 2 3 2 3 2 3 2 3 2 3 2 3 2 3 3 3 3 3 3 3 3 3 3 2 3 2 3 2 3 2 3 2 3 2 3 3 -2zm1190 2393l-1306 -2379 116 -14 1306 2379 -22 72 -94 -58zm0 0l116 -14 2 3 2 3 1 3 1 3 1 3 1 3 1 3 1 3 0 3 0 3 0 3 0 3 0 3 0 3 -1 3 -1 2 -1 2 -1 2 -1 2 -1 2 -1 2 -2 2 -2 2 -2 2 -2 1 -2 1 -2 1 -2 1 -3 1 -3 1 -3 1 -3 0 -3 0 -3 0 -3 0 -3 0 -3 0 -3 -1 -3 -1 -3 -1 -3 -1 -3 -1 -3 -1 -3 -1 -3 -2 -3 -2 -3 -2 -3 -2 -3 -2 -3 -2 -3 -2 -3 -2 -3 -2 -3 -3 -3 -3 -3 -3 -3 -3 -3 -3 -2 -3 -2 -3 -2 -3 -2 -3 -2 -3 -2 -3 -3 2zm2914 -293l-2820 351 -72 -130 2820 -351 72 130zm0 0l-72 -130 3 0 3 0 3 0 3 0 3 0 3 1 3 1 3 1 3 1 3 1 3 1 3 1 3 2 3 2 3 2 3 2 3 2 3 2 3 2 3 2 3 2 3 3 3 3 3 3 3 3 3 3 2 3 2 3 2 3 2 3 2 3 2 3 2 3 2 3 1 3 1 3 1 3 1 3 1 3 1 3 0 3 0 3 0 3 0 3 0 3 0 3 -1 3 -1 3 -1 2 -1 2 -1 2 -1 2 -1 2 -2 2 -2 2 -2 2 -2 1 -2 1 -2 1 -2 1 -3 1 -3 1 -3 1 -3 0 5 1z"/>
   <path class="fil2" d="M19081 6934l2 -3 2 -3 2 -3 2 -3 2 -3 2 -3 3 -3 3 -3 3 -3 3 -3 3 -3 3 -2 3 -2 3 -2 3 -2 3 -2 3 -2 3 -2 3 -2 3 -2 3 -1 3 -1 3 -1 3 -1 3 -1 3 -1 3 -1 3 0 3 0 3 0 3 0 3 0 3 0 3 1 3 1 3 1 2 1 2 1 2 1 2 1 2 2 2 2 2 2 1 2 1 2 1 2 1 2 1 2 1 2 1 3 0 3 0 3 0 3 0 3 0 3 0 3 -1 3 -1 3 -1 3 -1 3 -1 3 -1 3 -2 3 -2 3 -116 -14 3 2zm-1190 2393l-94 58 -22 -72 1306 -2379 116 14 -1306 2379zm0 0l-2 3 -2 3 -2 3 -2 3 -2 3 -2 3 -3 3 -3 3 -3 3 -3 3 -3 3 -3 2 -3 2 -3 2 -3 2 -3 2 -3 2 -3 2 -3 2 -3 2 -3 1 -3 1 -3 1 -3 1 -3 1 -3 1 -3 1 -3 0 -3 0 -3 0 -3 0 -3 0 -3 0 -3 -1 -3 -1 -3 -1 -2 -1 -2 -1 -2 -1 -2 -1 -2 -2 -2 -2 -2 -2 -1 -2 -1 -2 -1 -2 -1 -2 -1 -2 -1 -2 -1 -3 0 -3 0 -3 0 -3 0 -3 0 -3 0 -3 1 -3 1 -3 1 -3 1 -3 1 -3 1 -3 2 -3 2 -3 116 14 -3 -2zm-2914 -293l72 -130 2820 351 -72 130 -2820 -351zm0 0l-3 0 -3 -1 -3 -1 -3 -1 -2 -1 -2 -1 -2 -1 -2 -1 -2 -2 -2 -2 -2 -2 -1 -2 -1 -2 -1 -2 -1 -2 -1 -2 -1 -3 -1 -3 0 -3 0 -3 0 -3 0 -3 0 -3 0 -3 1 -3 1 -3 1 -3 1 -3 1 -3 1 -3 2 -3 2 -3 2 -3 2 -3 2 -3 2 -3 2 -3 2 -3 3 -3 3 -3 3 -3 3 -3 3 -3 3 -2 3 -2 3 -2 3 -2 3 -2 3 -2 3 -2 3 -2 3 -2 3 -1 3 -1 3 -1 3 -1 3 -1 3 -1 3 -1 3 0 3 0 3 0 3 0 3 0 -72 130 5 -1z"/>
   <path class="fil7" d="M6613 7052c-117,-42 -219,-101 -298,-167l-78 -76c-80,-92 -114,-192 -83,-276 62,-173 369,-221 684,-108 316,113 521,346 459,519 -62,173 -369,221 -684,108z"/>
   <path class="fil7" d="M19688 7080c117,-42 219,-101 298,-167l78 -76c80,-92 114,-192 83,-276 -62,-173 -369,-221 -684,-108 -316,113 -521,346 -459,519 62,173 369,221 684,108z"/>
   <rect class="fil12 str1" transform="matrix(7.16594 6.76459 -6.76459 7.16594 21344.3 6787.47)" width="288" height="456"/>
   <rect class="fil12 str1" transform="matrix(9.03487 3.93465 -3.93465 9.03487 19846.7 1814.75)" width="288" height="456"/>
   <rect class="fil12 str1" transform="matrix(9.03487 -3.93465 3.93465 9.03487 3775.9 3142.23)" width="288" height="456"/>
  </g>
 </g>
</svg>
