<?xml version="1.0" encoding="UTF-8"?>
<!DOCTYPE svg PUBLIC "-//W3C//DTD SVG 1.1//EN" "http://www.w3.org/Graphics/SVG/1.1/DTD/svg11.dtd">
<!-- Creator: CorelDRAW X6 -->
<svg xmlns="http://www.w3.org/2000/svg" xml:space="preserve" width="269.092mm" height="167.801mm" version="1.1" style="shape-rendering:geometricPrecision; text-rendering:geometricPrecision; image-rendering:optimizeQuality; fill-rule:evenodd; clip-rule:evenodd"
viewBox="0 0 26909 16780"
 xmlns:xlink="http://www.w3.org/1999/xlink">
 <defs>
  <style type="text/css">
   <![CDATA[
    .str0 {stroke:#2B2A29;stroke-width:7.62}
    .str1 {stroke:#939395;stroke-width:141.11}
    .fil0 {fill:none}
    .fil7 {fill:#2B2A29}
    .fil11 {fill:#393185}
    .fil13 {fill:#727271}
    .fil12 {fill:#AE4A84}
    .fil10 {fill:#B02C49}
    .fil2 {fill:#BB2B42}
    .fil8 {fill:#D2CDE7}
    .fil6 {fill:#E31E24}
    .fil4 {fill:#E5D3E3}
    .fil3 {fill:#F39D97}
    .fil9 {fill:#F5B2B6}
    .fil5 {fill:#FEFEFE}
    .fil1 {fill:#2B2A29;fill-rule:nonzero}
    .fil14 {fill:#1C1B17;fill-opacity:0.290196}
   ]]>
  </style>
    <clipPath id="id0">
     <path d="M6981 8815l6251 0 0 -5194 -6251 0 0 5194z"/>
    </clipPath>
     <mask id="id1">
  <linearGradient id="id2" gradientUnits="userSpaceOnUse" x1="13008.9" y1="3391.82" x2="7204.23" y2="9044.26">
   <stop offset="0" style="stop-opacity:1; stop-color:white"/>
   <stop offset="1" style="stop-opacity:0; stop-color:white"/>
  </linearGradient>
      <rect style="fill:url(#id2)" x="6981" y="3621" width="6251" height="5194"/>
     </mask>
    <clipPath id="id3">
     <path d="M6981 8815l6251 0 0 -5194 -6251 0 0 5194z"/>
    </clipPath>
      <mask id="id4">
  <linearGradient id="id5" gradientUnits="userSpaceOnUse" x1="13005.7" y1="3395.29" x2="7208.19" y2="9040.79">
   <stop offset="0" style="stop-opacity:1; stop-color:white"/>
   <stop offset="1" style="stop-opacity:0; stop-color:white"/>
  </linearGradient>
       <rect style="fill:url(#id5)" x="6981" y="3621" width="6252" height="5194"/>
      </mask>
    <clipPath id="id6">
     <path d="M7337 7440l2752 0 0 -2240 -2752 0 0 2240z"/>
    </clipPath>
     <mask id="id7">
  <radialGradient id="id8" gradientUnits="userSpaceOnUse" cx="3466.52" cy="3068.02" r="2197.69" fx="3466.52" fy="3068.02">
   <stop offset="0" style="stop-opacity:1; stop-color:white"/>
   <stop offset="1" style="stop-opacity:0; stop-color:white"/>
   <stop offset="1" style="stop-opacity:1; stop-color:white"/>
  </radialGradient>
      <rect style="fill:url(#id8)" x="7337" y="5200" width="2752" height="2240"/>
     </mask>
    <clipPath id="id9">
     <path d="M7337 7440l2752 0 0 -2240 -2752 0 0 2240z"/>
    </clipPath>
      <mask id="id10">
  <radialGradient id="id11" gradientUnits="userSpaceOnUse" cx="3470.98" cy="3072.38" r="2197.69" fx="3470.98" fy="3072.38">
   <stop offset="0" style="stop-opacity:1; stop-color:white"/>
   <stop offset="1" style="stop-opacity:0; stop-color:white"/>
   <stop offset="1" style="stop-opacity:1; stop-color:white"/>
  </radialGradient>
       <rect style="fill:url(#id11)" x="7338" y="5201" width="2752" height="2240"/>
      </mask>
    <clipPath id="id12">
     <path d="M17053 7591l6062 0 0 -6062 -6062 0 0 6062z"/>
    </clipPath>
     <mask id="id13">
  <linearGradient id="id14" gradientUnits="userSpaceOnUse" x1="18398.8" y1="8212.06" x2="21769.5" y2="908">
   <stop offset="0" style="stop-opacity:1; stop-color:white"/>
   <stop offset="1" style="stop-opacity:0; stop-color:white"/>
  </linearGradient>
      <rect style="fill:url(#id14)" x="17053" y="1529" width="6062" height="6062"/>
     </mask>
    <clipPath id="id15">
     <path d="M17053 7591l6062 0 0 -6062 -6062 0 0 6062z"/>
    </clipPath>
      <mask id="id16">
  <linearGradient id="id17" gradientUnits="userSpaceOnUse" x1="18400.5" y1="8206.61" x2="21766.7" y2="912.45">
   <stop offset="0" style="stop-opacity:1; stop-color:white"/>
   <stop offset="1" style="stop-opacity:0; stop-color:white"/>
  </linearGradient>
       <rect style="fill:url(#id17)" x="17053" y="1529" width="6061" height="6061"/>
      </mask>
 </defs>
 <g id="Layer_x0020_1">
  <metadata id="CorelCorpID_0Corel-Layer"/>
  <g id="_250059456">
   <rect class="fil0" width="26909" height="16780"/>
   <path class="fil1" d="M11845 10118l4 -1 4 -1 4 -1 4 -1 4 -1 4 -1 4 0 4 0 4 0 4 0 4 0 4 0 4 0 4 1 4 1 4 1 4 1 3 1 3 1 3 1 3 1 3 2 3 2 3 2 3 2 3 2 2 2 2 2 2 2 2 3 2 3 2 3 1 3 1 3 1 3 1 3 0 3 0 3 0 3 0 3 0 3 -1 3 -1 3 -1 3 -1 3 -1 3 -1 3 -2 3 -2 3 -2 3 -2 3 -2 3 -2 3 -3 3 -3 2 -3 2 -3 2 -3 2 -3 2 -3 2 -4 2 -4 2 -4 2 -4 2 -56 -110 0 -3zm-2155 916l-109 -37 53 -73 2211 -806 56 110 -2211 806zm0 0l-4 1 -4 1 -4 1 -4 1 -4 1 -4 1 -4 0 -4 0 -4 0 -4 0 -4 0 -4 0 -4 0 -4 -1 -4 -1 -4 -1 -4 -1 -3 -1 -3 -1 -3 -1 -3 -1 -3 -2 -3 -2 -3 -2 -3 -2 -3 -2 -2 -2 -2 -2 -2 -2 -2 -3 -2 -3 -2 -3 -1 -3 -1 -3 -1 -3 -1 -3 0 -3 0 -3 0 -3 0 -3 0 -3 1 -3 1 -3 1 -3 1 -3 1 -3 1 -3 2 -3 2 -3 2 -3 2 -3 2 -3 2 -3 3 -3 3 -2 3 -2 3 -2 3 -2 3 -2 3 -2 4 -2 4 -2 4 -2 4 -2 56 110 0 3zm-571 -2084l162 -35 462 2046 -162 35 -462 -2046zm0 0l-1 -3 0 -3 0 -3 0 -3 0 -3 0 -3 1 -3 1 -3 1 -3 1 -3 1 -3 2 -3 2 -3 2 -3 2 -3 2 -3 2 -3 3 -2 3 -2 3 -2 3 -2 3 -2 3 -2 3 -2 3 -2 4 -2 4 -2 4 -2 4 -1 4 -1 4 -1 4 -1 4 -1 4 -1 4 -1 4 0 4 0 4 0 4 0 4 0 4 0 4 1 4 1 4 1 4 1 3 1 3 1 3 1 3 1 3 2 3 2 3 2 3 2 3 2 2 2 2 2 2 2 2 2 2 3 2 3 1 3 1 3 1 3 1 3 -162 35 -1 1z"/>
   <path class="fil2" d="M8645 3799c-1336,515 -2001,2016 -1486,3352 515,1336 2016,2001 3352,1486 129,-50 252,-109 368,-176 394,264 907,339 1384,155 777,-300 1164,-1173 865,-1950 -178,-461 -557,-784 -998,-909 -29,-158 -73,-316 -133,-472 -515,-1336 -2016,-2001 -3352,-1486z"/>
   <g style="clip-path:url(#id0)">
    <polygon class="fil0" style="mask:url(#id1)" points="6981,3621 13232,3621 13232,8815 6981,8815 "/>
   </g>
   <g style="clip-path:url(#id3)">
    <g>
     <path id="1" class="fil3" style="mask:url(#id4)" d="M8645 3799c-1336,515 -2001,2016 -1486,3352 515,1336 2016,2001 3352,1486 129,-50 252,-109 368,-176 394,264 907,339 1384,155 777,-300 1164,-1173 865,-1950 -178,-461 -557,-784 -998,-909 -29,-158 -73,-316 -133,-472 -515,-1336 -2016,-2001 -3352,-1486z"/>
    </g>
   </g>
   <polygon class="fil0" points="6981,8815 13232,8815 13232,3621 6981,3621 "/>
   <path class="fil4" d="M13169 7626c29,-100 48,-204 55,-309 -905,157 -1870,-86 -2689,-574 909,872 2004,959 2634,883l0 0z"/>
   <path class="fil1" d="M4534 13246l115 65 -2 3 -2 2 -2 2 -3 2 -3 2 -3 2 -3 2 -3 2 -3 2 -3 2 -3 1 -3 1 -3 1 -3 1 -3 1 -3 1 -3 1 -3 0 -3 0 -3 0 -3 0 -3 0 -3 0 -3 0 -3 -1 -3 -1 -3 -1 -3 -1 -3 -1 -3 -1 -3 -1 -3 -2 -3 -2 -3 -2 -3 -2 -2 -2 -2 -2 -2 -2 -2 -2 -2 -2 -2 -2 -2 -3 -1 -3 -1 -3 -1 -3 -1 -3 -1 -3 -1 -3 0 -3 0 -3 0 -3 0 -3 0 -3 0 -3 1 -3 1 -3 1 -3 1 -3 1 -3 1 -3 2 -3 2 -3 2 -3 2 -3 -7 3zm1461 -1588l-1346 1653 -115 -65 1346 -1653 129 26 -14 39zm0 0l-115 -65 2 -3 2 -2 2 -2 3 -2 3 -2 3 -2 3 -2 3 -2 3 -2 3 -2 3 -1 3 -1 3 -1 3 -1 3 -1 3 -1 3 -1 3 0 3 0 3 0 3 0 3 0 3 0 3 0 3 1 3 1 3 1 3 1 3 1 3 1 3 1 3 2 3 2 3 2 3 2 2 2 2 2 2 2 2 2 2 2 2 2 2 3 1 3 1 3 1 3 1 3 1 3 1 3 0 3 0 3 0 3 0 3 0 3 0 3 -1 3 -1 3 -1 3 -1 3 -1 3 -1 3 -2 3 -2 3 -2 3 -2 3 7 -3zm-115 -2618l129 2579 -142 13 -129 -2579 142 -13zm0 0l-142 13 0 -3 0 -3 0 -3 0 -3 1 -3 1 -3 1 -3 1 -3 1 -3 1 -3 2 -3 2 -3 2 -3 2 -2 2 -2 2 -2 2 -2 2 -2 3 -2 3 -2 3 -2 3 -2 3 -2 3 -2 3 -1 3 -1 3 -1 3 -1 3 -1 4 -1 4 -1 4 0 4 0 4 0 4 0 4 0 3 0 3 1 3 1 3 1 3 1 3 1 3 1 3 1 3 1 3 2 3 2 3 2 2 2 2 2 2 2 2 2 2 2 2 2 2 2 2 3 1 3 1 3 1 3 1 3 1 3 1 3 0 3 0 3 1 0z"/>
   <path class="fil1" d="M6490 13458l-2 3 -3 2 -3 2 -3 2 -3 2 -3 2 -3 2 -3 2 -3 2 -3 1 -3 1 -3 1 -3 1 -3 1 -3 1 -3 1 -3 0 -3 0 -3 0 -3 0 -3 0 -3 0 -3 0 -3 -1 -3 -1 -3 -1 -3 -1 -3 -1 -3 -1 -3 -1 -3 -2 -3 -2 -3 -2 -3 -2 -2 -2 -2 -2 -2 -2 -2 -2 -2 -2 -2 -2 -2 -3 -1 -3 -1 -3 -1 -3 -1 -3 -1 -3 -1 -3 0 -3 0 -3 0 -3 0 -3 0 -3 0 -3 1 -3 1 -3 1 -3 1 -3 1 -3 1 -3 2 -3 2 -3 2 -3 2 -3 2 -3 111 70 -6 3zm1309 -1655l120 5 -9 65 -1420 1585 -111 -70 1420 -1585zm0 0l2 -3 3 -2 3 -2 3 -2 3 -2 3 -2 3 -2 3 -2 3 -2 3 -1 3 -1 3 -1 3 -1 3 -1 3 -1 3 -1 3 0 3 0 3 0 3 0 3 0 3 0 3 0 3 1 3 1 3 1 3 1 3 1 3 1 3 1 3 2 3 2 3 2 3 2 2 2 2 2 2 2 2 2 2 2 2 2 2 3 1 3 1 3 1 3 1 3 1 3 1 3 0 3 0 3 0 3 0 3 0 3 0 3 -1 3 -1 3 -1 3 -1 3 -1 3 -1 3 -2 3 -2 3 -2 3 -2 3 -2 3 -111 -70 6 -3zm-1019 -1712l129 -60 1010 1777 -129 60 -1010 -1777zm0 0l-1 -3 -1 -3 -1 -3 -1 -3 -1 -3 -1 -3 0 -3 0 -3 0 -3 0 -3 0 -3 0 -3 1 -3 1 -3 1 -3 1 -3 1 -3 1 -3 2 -3 2 -3 2 -3 2 -3 2 -2 2 -2 2 -2 3 -2 3 -2 3 -2 3 -2 3 -2 3 -2 3 -2 3 -1 3 -1 3 -1 3 -1 3 -1 3 -1 3 -1 3 0 3 0 3 0 3 0 3 0 3 0 3 0 3 1 3 1 3 1 3 1 3 1 3 1 3 1 3 2 3 2 3 2 3 2 2 2 2 2 2 2 2 2 2 2 2 3 2 3 -129 60 5 2z"/>
   <rect class="fil5" transform="matrix(5.03837 4.98058 -4.98058 5.03837 6966.59 6342.3)" width="485" height="344"/>
   <path class="fil6" d="M7826 10361l192 -194 -2126 -2738 -192 194 2126 2738zm450 -456l192 -194 -2126 -2738 -192 194 2126 2738zm450 -456l192 -194 -2126 -2738 -192 194 2126 2738z"/>
   <path class="fil5" d="M6758 10042c-128,-126 -156,-333 -99,-579l0 0 679 671c-245,59 -452,34 -580,-92z"/>
   <path class="fil5" d="M5714 9010c-128,-126 -156,-333 -99,-579l0 0 679 671c-245,59 -452,34 -580,-92z"/>
   <path class="fil7" d="M9543 12934c-67,-76 -141,-136 -215,-176l-80 -36c-94,-33 -179,-29 -234,19 -112,98 -58,345 121,550 179,205 416,292 529,194 112,-98 58,-345 -121,-550l0 -1z"/>
   <path class="fil1" d="M9273 12842l1 3 1 3 1 3 1 3 0 3 0 3 0 3 0 3 0 3 -1 3 -1 3 -1 3 -1 3 -1 3 -2 3 -2 3 -2 3 -2 3 -2 3 -2 3 -3 3 -3 2 -3 2 -3 2 -3 2 -3 2 -3 2 -4 2 -4 2 -4 2 -4 2 -4 1 -4 1 -4 1 -4 1 -4 1 -4 1 -4 0 -4 0 -4 0 -4 0 -4 0 -4 0 -4 0 -4 -1 -4 -1 -4 -1 -4 -1 -3 -1 -3 -1 -3 -1 -3 -1 -3 -2 -3 -2 -3 -2 -3 -2 -3 -2 -2 -2 -2 -2 -2 -2 -2 -3 -2 -3 -2 -3 -1 -3 157 -52 1 -1zm-1577 -3186l-3 -8 159 -44 1420 3238 -157 52 -1420 -3238 1 0zm0 0l-1 -3 -1 -3 -1 -3 -1 -3 0 -3 0 -3 0 -3 0 -3 0 -3 1 -3 1 -3 1 -3 1 -3 1 -3 2 -3 2 -3 2 -3 2 -3 2 -3 2 -3 3 -3 3 -2 3 -2 3 -2 3 -2 3 -2 3 -2 4 -2 4 -2 4 -2 4 -2 4 -1 4 -1 4 -1 4 -1 4 -1 4 -1 4 0 4 0 4 0 4 0 4 0 4 0 4 0 4 1 4 1 4 1 4 1 3 1 3 1 3 1 3 1 3 2 3 2 3 2 3 2 3 2 2 2 2 2 2 2 2 3 2 3 2 3 1 3 -157 52 -1 1zm-782 -3283l162 -36 780 3275 -162 36 -780 -3275zm0 0l-1 -3 0 -3 0 -3 0 -3 0 -3 0 -3 1 -3 1 -3 1 -3 1 -3 1 -3 2 -3 2 -3 2 -3 2 -3 2 -3 2 -3 3 -3 3 -2 3 -2 3 -2 3 -2 3 -2 3 -2 3 -2 4 -2 4 -2 4 -2 4 -1 4 -1 4 -1 4 -1 4 -1 4 -1 4 -1 4 0 4 0 4 0 4 0 4 0 4 0 4 1 4 1 4 1 4 1 3 1 3 1 3 1 3 1 3 2 3 2 3 2 3 2 3 2 2 2 2 2 2 2 2 2 2 3 2 3 1 3 1 3 1 3 1 3 -162 36 -1 1z"/>
   <path class="fil7" d="M5008 13139c-98,-26 -193,-33 -276,-25l-87 15c-96,25 -164,76 -183,147 -38,145 145,318 409,387 264,69 508,8 546,-137 38,-145 -145,-318 -409,-387z"/>
   <path class="fil7" d="M7395 4815c-921,1230 -270,3118 1611,2511l-475 -544 217 -2056 -1353 89z"/>
   <path class="fil7" d="M8639 3802c552,-213 1131,-224 1658,-70l0 0 -2934 1131c287,-468 724,-849 1276,-1061z"/>
   <path class="fil7" d="M7365 4863c284,-56 510,753 851,624 534,-202 1459,268 1874,371l-1072 -1352c396,-172 837,-183 1286,-161l-840 -365 -2100 882 1 1z"/>
   <circle class="fil8" transform="matrix(-0.551124 0.212549 0.280446 0.727177 11050.1 5506.12)" r="920"/>
   <path class="fil7" d="M10243 4600c-182,140 -282,350 -295,576 85,-169 215,-329 385,-459 170,-130 357,-214 543,-253 -221,-46 -451,-4 -633,136z"/>
   <circle class="fil5" transform="matrix(-0.493157 0.190193 0.250949 0.650693 10969.6 5456.35)" r="920"/>
   <circle class="fil7" transform="matrix(-0.627669 0.24207 0.242069 0.627669 11274.5 5622.95)" r="269"/>
   <path class="fil9" d="M7577 5309c-425,230 -259,874 370,1439 629,565 1483,836 1908,607 425,-230 245,-1006 -384,-1570 -629,-565 -1469,-705 -1894,-475l0 -1z"/>
   <g style="clip-path:url(#id6)">
    <polygon class="fil0" style="mask:url(#id7)" points="7337,5200 10089,5200 10089,7440 7337,7440 "/>
   </g>
   <g style="clip-path:url(#id9)">
    <g>
     <path id="1" class="fil10" style="mask:url(#id10)" d="M7577 5309c-425,230 -259,874 370,1439 629,565 1483,836 1908,607 425,-230 245,-1006 -384,-1570 -629,-565 -1469,-705 -1894,-475l0 -1z"/>
    </g>
   </g>
   <polygon class="fil0" points="7337,7440 10089,7440 10089,5200 7337,5200 "/>
   <path class="fil7" d="M6788 13782c101,1 196,-15 274,-43l80 -36c87,-48 141,-114 141,-187 1,-149 -219,-272 -492,-274 -273,-2 -495,117 -496,267 -1,149 219,272 492,274l1 -1z"/>
   <path class="fil11" d="M13345 12117c178,-928 -969,-1370 -1105,-1794 -81,-254 319,-560 1259,-797 -117,-40 -405,-285 -716,-246 -163,20 -354,359 -482,327 -195,-49 -71,-452 -287,-469 -145,-12 -321,302 -464,272 -175,-37 -364,-555 -518,-569 -346,-32 -451,325 -659,294 165,116 600,359 927,590 814,575 466,576 -97,909 -2891,1715 1777,3388 2142,1484l0 -1z"/>
   <path class="fil7" d="M11964 9930c99,-23 194,-28 277,-18l86 18c95,28 162,81 179,152 34,146 -154,313 -420,375 -266,62 -508,-7 -542,-152 -34,-146 154,-313 420,-375z"/>
   <path class="fil1" d="M24658 10016l4 1 4 1 4 2 4 2 4 2 3 2 3 2 3 3 3 3 3 3 2 3 2 3 2 3 2 4 2 4 1 4 1 4 1 4 1 4 1 4 0 4 0 5 0 5 0 5 -1 5 -1 5 -1 5 -1 5 -2 5 -2 5 -2 5 -2 5 -3 5 -3 5 -3 5 -3 5 -3 4 -4 4 -4 4 -4 4 -4 4 -4 4 -4 4 -4 3 -4 3 -4 3 -5 3 -5 3 -5 2 -5 2 -5 2 -5 2 -5 2 -5 1 -5 1 -5 1 -5 1 -5 1 -5 0 -5 0 -5 0 -5 0 -5 -1 -5 -1 98 -192 5 -1zm-2697 -402l-46 -39 144 -154 2599 594 -98 192 -2599 -594 0 1zm0 0l-4 -1 -4 -1 -4 -2 -4 -2 -4 -2 -3 -2 -3 -2 -3 -3 -3 -3 -3 -3 -2 -3 -2 -3 -2 -3 -2 -4 -2 -4 -1 -4 -1 -4 -1 -4 -1 -4 -1 -4 0 -4 0 -5 0 -5 0 -5 1 -5 1 -5 1 -5 1 -5 2 -5 2 -5 2 -5 2 -5 3 -5 3 -5 3 -5 3 -5 3 -4 4 -4 4 -4 4 -4 4 -4 4 -4 4 -4 4 -3 4 -3 4 -3 5 -3 5 -3 5 -2 5 -2 5 -2 5 -2 5 -2 5 -1 5 -1 5 -1 5 -1 5 -1 5 0 5 0 5 0 5 0 5 1 5 1 -98 192 -5 1zm-878 -2160l191 -115 832 2121 -191 115 -832 -2121zm0 0l-1 -4 -1 -4 -1 -4 -1 -4 0 -4 0 -5 0 -5 0 -5 1 -5 1 -5 1 -5 1 -5 1 -5 2 -5 2 -5 2 -5 2 -5 2 -5 3 -5 3 -4 3 -4 3 -4 3 -4 4 -4 4 -4 4 -4 4 -4 4 -4 4 -4 5 -3 5 -3 5 -3 5 -3 5 -3 5 -2 5 -2 5 -2 5 -2 5 -1 5 -1 5 -1 5 -1 5 0 5 0 5 0 5 0 4 0 4 1 4 1 4 1 4 1 4 2 4 2 4 2 3 2 3 2 3 3 3 3 3 3 3 3 2 3 2 4 2 4 2 4 -191 115 -2 1z"/>
   <circle class="fil9" transform="matrix(-1.07672 0.191688 0.191688 1.07672 20083.6 4559.44)" r="2767"/>
   <g style="clip-path:url(#id12)">
    <polygon class="fil0" style="mask:url(#id13)" points="17053,1529 23115,1529 23115,7591 17053,7591 "/>
   </g>
   <g style="clip-path:url(#id15)">
    <g>
     <path id="1" class="fil12" style="mask:url(#id16)" d="M19553 1580c-1646,293 -2742,1865 -2449,3510 293,1646 1865,2742 3510,2449 1646,-293 2742,-1865 2449,-3510 -293,-1646 -1865,-2742 -3510,-2449z"/>
    </g>
   </g>
   <polygon class="fil0" points="17053,7591 23115,7591 23115,1529 17053,1529 "/>
   <circle class="fil9" transform="matrix(-1.10865 0.906957 1.71614 2.09778 19341.4 4467.83)" r="507"/>
   <path class="fil7" d="M17895 2465c-646,674 -972,1637 -796,2626 59,333 171,643 325,923l1758 -313 -423 -729 707 -2308 -1571 -199 0 0z"/>
   <path class="fil7" d="M19545 1581c679,-121 1346,-5 1916,289l0 0 -3614 643c433,-472 1019,-811 1698,-932l0 0z"/>
   <path class="fil7" d="M17849 2514c338,-1 416,977 836,905 657,-113 1612,632 2065,843l-928 -1788c492,-109 1000,-24 1510,102l-882 -605 -2602 543 1 0z"/>
   <path class="fil5" d="M22450 6446c72,-91 139,-187 201,-286 -195,-12 -394,-42 -594,-92 -476,-120 -894,-337 -1228,-616 233,463 635,816 1145,944 159,40 319,56 476,49l0 1z"/>
   <circle class="fil8" transform="matrix(-0.678909 0.120866 0.159475 0.895783 21929.3 4071.09)" r="920"/>
   <path class="fil7" d="M21206 2853c-240,120 -401,339 -466,595 135,-175 320,-329 543,-440 223,-111 457,-166 678,-169 -244,-102 -516,-105 -755,15l0 -1z"/>
   <circle class="fil5" transform="matrix(-0.607502 0.108153 0.142702 0.801564 21848.2 3996.13)" r="920"/>
   <circle class="fil7" transform="matrix(-0.773202 0.137653 0.137652 0.773202 22160.5 4254.95)" r="269"/>
   <path class="fil1" d="M15819 13146l132 137 -4 4 -4 4 -5 3 -5 3 -5 3 -5 3 -5 3 -5 2 -5 2 -5 2 -5 2 -5 1 -5 1 -5 1 -5 1 -5 0 -5 0 -5 0 -5 0 -5 -1 -5 -1 -5 -1 -5 -1 -5 -1 -4 -2 -4 -2 -4 -2 -4 -2 -4 -3 -4 -3 -4 -3 -4 -3 -3 -4 -3 -4 -3 -4 -3 -4 -2 -4 -2 -4 -2 -4 -2 -5 -1 -5 -1 -5 -1 -5 -1 -5 0 -5 0 -5 0 -5 0 -5 1 -5 1 -5 1 -5 1 -5 2 -5 2 -5 2 -5 2 -5 3 -5 3 -5 3 -5 3 -5 3 -4 4 -4 4 -4 4 -4 3 2zm2152 -1794l-2020 1931 -132 -137 2020 -1931 170 66 -38 71zm0 0l-132 -137 4 -4 4 -4 5 -3 5 -3 5 -3 5 -3 5 -3 5 -2 5 -2 5 -2 5 -2 5 -1 5 -1 5 -1 5 -1 5 0 5 0 5 0 5 0 5 1 5 1 5 1 5 1 5 1 4 2 4 2 4 2 4 2 4 3 4 3 4 3 4 3 3 4 3 4 3 4 3 4 2 4 2 4 2 4 2 5 1 5 1 5 1 5 1 5 0 5 0 5 0 5 0 5 -1 5 -1 5 -1 5 -1 5 -2 5 -2 5 -2 5 -2 5 -3 5 -3 5 -3 5 -3 5 -3 4 -4 4 -4 4 -4 4 -3 -2zm300 -1850l-263 1779 -208 5 263 -1779 208 -5zm0 0l-208 5 1 -5 1 -5 1 -5 2 -5 2 -5 2 -5 2 -5 3 -5 3 -5 3 -5 3 -4 3 -4 4 -4 4 -4 4 -4 4 -4 4 -4 4 -3 4 -3 5 -3 5 -3 5 -3 5 -2 5 -2 5 -2 5 -2 5 -2 5 -1 5 -1 5 -1 5 -1 5 0 5 0 5 0 5 1 5 1 5 1 5 1 5 2 4 2 4 2 4 2 4 2 4 3 4 3 3 3 3 3 3 3 3 4 3 4 3 4 2 4 2 4 2 4 2 4 1 5 1 5 1 5 1 5 0 5 0 5 0 5 0 5 -1 5 1 0z"/>
   <path class="fil1" d="M20865 13911l-1 5 -1 5 -1 5 -1 5 -2 5 -2 5 -2 5 -2 5 -3 5 -3 5 -3 5 -3 4 -3 4 -3 4 -4 4 -4 4 -4 4 -4 4 -4 3 -4 3 -4 3 -5 3 -5 3 -5 2 -5 2 -5 2 -5 2 -5 2 -5 1 -5 1 -5 1 -5 1 -5 0 -5 0 -5 0 -5 -1 -5 -1 -5 -1 -5 -1 -5 -2 -4 -2 -4 -2 -4 -2 -4 -2 -4 -3 -4 -3 -3 -3 -3 -3 -3 -3 -3 -4 -3 -4 -3 -4 -2 -4 -2 -4 -2 -4 -2 -4 -1 -5 -1 -5 -1 -5 -1 -5 0 -5 0 -5 0 -5 0 -5 209 -16 -2 1zm26 -2477l193 -78 16 62 -235 2492 -209 16 235 -2492zm0 0l1 -5 1 -5 1 -5 1 -5 2 -5 2 -5 2 -5 2 -5 3 -5 3 -5 3 -5 3 -4 3 -4 3 -4 4 -4 4 -4 4 -4 4 -4 4 -3 4 -3 4 -3 5 -3 5 -3 5 -2 5 -2 5 -2 5 -2 5 -2 5 -1 5 -1 5 -1 5 -1 5 0 5 0 5 0 5 1 5 1 5 1 5 1 5 2 4 2 4 2 4 2 4 2 4 3 4 3 3 3 3 3 3 3 3 4 3 4 3 4 2 4 2 4 2 4 2 4 1 5 1 5 1 5 1 5 0 5 0 5 0 5 0 5 -209 16 2 -1zm-1156 -1530l177 -140 1172 1592 -177 140 -1172 -1592zm0 0l-3 -4 -3 -4 -2 -4 -2 -4 -2 -5 -1 -5 -1 -5 -1 -5 -1 -5 0 -5 0 -5 0 -5 0 -5 0 -5 1 -5 1 -5 1 -5 1 -5 2 -5 2 -5 2 -5 2 -5 3 -5 3 -5 3 -5 3 -4 3 -4 4 -4 4 -4 4 -4 4 -4 4 -4 5 -3 5 -3 5 -3 5 -3 5 -3 5 -2 5 -2 5 -2 5 -2 5 -1 5 -1 5 -1 5 -1 5 0 5 0 5 0 5 0 5 1 5 1 5 1 5 1 5 2 4 2 4 2 4 2 4 2 4 3 4 3 4 3 3 3 3 4 3 4 -177 140 -1 2z"/>
   <rect class="fil5" transform="matrix(6.88966 1.65044 -1.65044 6.88966 17887.6 6584.48)" width="484" height="343"/>
   <path class="fil6" d="M20698 9569l63 -265 -3229 -1238 -63 265 3229 1238zm149 -621l63 -265 -3229 -1238 -63 265 3229 1238zm149 -621l63 -265 -3229 -1238 -63 265 3229 1238z"/>
   <path class="fil13" d="M19621 9849c-174,-42 -305,-204 -383,-443l0 0 926 222c-178,177 -368,262 -542,221l-1 0z"/>
   <path class="fil13" d="M18197 9508c-174,-42 -305,-204 -383,-443l0 0 926 222c-178,177 -368,262 -542,221l-1 0z"/>
   <path class="fil7" d="M24752 10579c136,24 267,24 379,5l117 -30c128,-45 216,-122 233,-220 36,-201 -233,-417 -599,-482 -367,-65 -693,45 -729,246 -36,201 233,417 599,482l0 -1z"/>
   <path class="fil1" d="M17079 9689l2 4 1 4 1 4 1 4 1 4 0 5 0 5 0 5 0 5 -1 5 -1 5 -1 5 -1 5 -2 5 -2 5 -2 5 -2 5 -2 5 -3 5 -3 5 -3 4 -3 4 -3 4 -4 4 -4 4 -4 4 -4 4 -4 4 -4 4 -5 3 -5 3 -5 3 -5 3 -5 3 -5 2 -5 2 -5 2 -5 2 -5 2 -5 1 -5 1 -5 1 -5 1 -5 0 -5 0 -5 0 -4 0 -4 -1 -4 -1 -4 -1 -4 -1 -4 -1 -4 -2 -4 -2 -4 -2 -3 -2 -3 -2 -3 -3 -3 -3 -3 -3 -2 -3 -2 -4 -2 -4 -2 -4 189 -119 2 -2zm-1091 -1973l62 -138 127 20 902 2091 -189 119 -902 -2091 0 -1zm0 0l-2 -4 -1 -4 -1 -4 -1 -4 -1 -4 0 -5 0 -5 0 -5 0 -5 1 -5 1 -5 1 -5 1 -5 2 -5 2 -5 2 -5 2 -5 2 -5 3 -5 3 -5 3 -4 3 -4 3 -4 4 -4 4 -4 4 -4 4 -4 4 -4 4 -4 5 -3 5 -3 5 -3 5 -3 5 -3 5 -2 5 -2 5 -2 5 -2 5 -2 5 -1 5 -1 5 -1 5 -1 5 0 5 0 5 0 4 0 4 1 4 1 4 1 4 1 4 1 4 2 4 2 4 2 3 2 3 2 3 3 3 3 3 3 2 3 2 4 2 4 2 4 -189 119 -2 2zm1833 -1229l65 158 -1771 1090 -65 -158 1771 -1090zm0 0l5 -3 5 -3 5 -2 5 -2 5 -2 5 -2 5 -1 5 -1 5 -1 5 -1 5 -1 5 0 5 0 5 0 4 0 4 1 4 1 4 1 4 1 4 1 4 2 4 2 4 2 3 2 3 3 3 3 3 3 3 3 2 3 2 4 2 4 2 4 2 4 1 4 1 4 1 4 1 4 0 5 0 5 0 5 0 5 -1 5 -1 5 -1 5 -1 5 -2 5 -2 5 -2 5 -2 5 -2 5 -3 5 -3 4 -3 4 -3 4 -3 4 -4 4 -4 4 -4 4 -4 4 -4 4 -4 4 -5 3 -5 3 -5 3 -65 -158 -2 -2z"/>
   <path class="fil7" d="M15973 13871c92,104 194,185 294,240l110 49c128,45 244,39 320,-27 153,-135 78,-471 -169,-751 -246,-279 -570,-397 -724,-262 -153,135 -78,471 169,751z"/>
   <path class="fil7" d="M21165 13429c-133,37 -251,94 -344,161l-92 78c-96,96 -141,203 -114,300 55,197 391,274 750,174 359,-101 605,-342 550,-538 -55,-197 -391,-274 -750,-174l0 -1z"/>
   <path class="fil7" d="M16534 10127c136,26 258,72 356,130l98 69c104,87 159,190 140,289 -38,201 -365,308 -731,239 -366,-69 -632,-287 -595,-488 38,-201 365,-308 731,-239l1 0z"/>
   <path class="fil7 str0" d="M15351 9617l918 312 180 -530 1250 424 -180 530 994 337 -745 2197 -3163 -1073 745 -2197 1 0zm1070 363l947 321 139 -410 -947 -321 -139 410z"/>
   <path class="fil7" d="M17365 9922c-7,-138 -37,-266 -82,-370l-56 -107c-73,-114 -168,-182 -268,-177 -204,11 -353,322 -333,694 20,372 202,665 406,654 204,-11 353,-322 333,-694z"/>
   <path class="fil14" d="M6742 12444c3136,0 5678,628 5678,1402 0,774 -2542,1402 -5678,1402 -3136,0 -5678,-628 -5678,-1402 0,-774 2542,-1402 5678,-1402z"/>
   <path class="fil14" d="M18870 12444c3136,0 5678,628 5678,1402 0,774 -2542,1402 -5678,1402 -3136,0 -5678,-628 -5678,-1402 0,-774 2542,-1402 5678,-1402z"/>
   <ellipse class="fil0 str1" cx="22950" cy="8797" rx="1072" ry="513"/>
   <ellipse class="fil0 str1" cx="25061" cy="12748" rx="785" ry="375"/>
   <ellipse class="fil0 str1" cx="4293" cy="11192" rx="1069" ry="512"/>
   <ellipse class="fil0 str1" cx="2049" cy="8784" rx="529" ry="253"/>
   <ellipse class="fil0 str1" cx="14960" cy="6307" rx="529" ry="253"/>
  </g>
 </g>
</svg>
