<?xml version="1.0" encoding="UTF-8"?>
<!DOCTYPE svg PUBLIC "-//W3C//DTD SVG 1.1//EN" "http://www.w3.org/Graphics/SVG/1.1/DTD/svg11.dtd">
<!-- Creator: CorelDRAW X6 -->
<svg xmlns="http://www.w3.org/2000/svg" xml:space="preserve" width="297mm" height="210mm" version="1.1" style="shape-rendering:geometricPrecision; text-rendering:geometricPrecision; image-rendering:optimizeQuality; fill-rule:evenodd; clip-rule:evenodd"
viewBox="0 0 29700 21000"
 xmlns:xlink="http://www.w3.org/1999/xlink">
 <defs>
  <style type="text/css">
   <![CDATA[
    .str0 {stroke:#939395;stroke-width:105.83}
    .str1 {stroke:#939395;stroke-width:141.11}
    .fil0 {fill:none}
    .fil8 {fill:#2B2A29}
    .fil5 {fill:#5B5B5B}
    .fil13 {fill:#7690C9}
    .fil7 {fill:#9D9E9E}
    .fil15 {fill:#AE4A84}
    .fil6 {fill:#B2B3B3}
    .fil11 {fill:#D2CDE7}
    .fil14 {fill:#D9DADA}
    .fil12 {fill:#E31E24}
    .fil4 {fill:#E5097F}
    .fil9 {fill:#F5B2B6}
    .fil3 {fill:#FCD8AC}
    .fil10 {fill:#FEFEFE}
    .fil2 {fill:#2B2A29;fill-rule:nonzero}
    .fil1 {fill:#1C1B17;fill-opacity:0.290196}
   ]]>
  </style>
    <clipPath id="id0">
     <path d="M11459 11677l7265 0 0 -7265 -7265 0 0 7265z"/>
    </clipPath>
     <mask id="id1">
  <linearGradient id="id2" gradientUnits="userSpaceOnUse" x1="15092" y1="11677" x2="15092" y2="4411.97">
   <stop offset="0" style="stop-opacity:1; stop-color:white"/>
   <stop offset="1" style="stop-opacity:0; stop-color:white"/>
  </linearGradient>
      <rect style="fill:url(#id2)" x="11459" y="4412" width="7265" height="7265"/>
     </mask>
    <clipPath id="id3">
     <path d="M11459 11677l7265 0 0 -7265 -7265 0 0 7265z"/>
    </clipPath>
      <mask id="id4">
  <linearGradient id="id5" gradientUnits="userSpaceOnUse" x1="15091.5" y1="11674" x2="15091.5" y2="4415.96">
   <stop offset="0" style="stop-opacity:1; stop-color:white"/>
   <stop offset="1" style="stop-opacity:0; stop-color:white"/>
  </linearGradient>
       <rect style="fill:url(#id5)" x="11459" y="4412" width="7266" height="7266"/>
      </mask>
 </defs>
 <g id="Layer_x0020_1">
  <metadata id="CorelCorpID_0Corel-Layer"/>
  <g id="_828695312">
   <rect class="fil0" x="1395" y="2110" width="26909" height="16780"/>
   <ellipse class="fil0 str0" cx="6901" cy="5839" rx="512" ry="245"/>
   <ellipse class="fil0 str1" cx="8020" cy="8230" rx="1072" ry="513"/>
   <ellipse class="fil0 str1" cx="22520" cy="14729" rx="791" ry="379"/>
   <ellipse class="fil0 str1" cx="18845" cy="10605" rx="1101" ry="527"/>
   <path class="fil1" d="M15236 14932c-2106,0 -3812,421 -3812,941 0,520 1707,941 3812,941 2106,0 3812,-421 3812,-941 0,-520 -1707,-941 -3812,-941z"/>
   <path class="fil2" d="M12227 10654l-115 -47 2 -2 2 -2 2 -2 2 -2 2 -2 3 -1 3 -1 3 -1 3 -1 3 -1 3 -1 3 -1 3 -1 3 -1 3 -1 3 0 3 0 3 0 3 0 3 0 3 0 3 0 3 0 3 0 3 0 3 1 3 1 3 1 3 1 3 1 3 1 3 1 3 1 3 1 3 1 3 1 2 2 2 2 2 2 2 2 2 2 2 2 2 2 1 2 1 2 1 2 1 2 1 2 1 2 0 2 0 2 0 2 0 2 0 2 0 2 -1 2 -1 2 -1 2 -1 2 -1 2 -1 2 -2 2 -2 2 -2 2 4 0zm-1785 1587l1669 -1634 115 47 -1669 1634 -26 15 -90 -62 1 0zm0 0l115 47 -2 2 -2 2 -2 2 -2 2 -2 2 -3 1 -3 1 -3 1 -3 1 -3 1 -3 1 -3 1 -3 1 -3 1 -3 1 -3 0 -3 0 -3 0 -3 0 -3 0 -3 0 -3 0 -3 0 -3 0 -3 0 -3 -1 -3 -1 -3 -1 -3 -1 -3 -1 -3 -1 -3 -1 -3 -1 -3 -1 -3 -1 -3 -1 -2 -2 -2 -2 -2 -2 -2 -2 -2 -2 -2 -2 -2 -2 -1 -2 -1 -2 -1 -2 -1 -2 -1 -2 -1 -2 0 -2 0 -2 0 -2 0 -2 0 -2 0 -2 1 -2 1 -2 1 -2 1 -2 1 -2 1 -2 2 -2 2 -2 2 -2 -4 0zm3092 -936l-3002 998 -64 -77 3002 -998 64 77zm0 0l-64 -77 3 -1 3 -1 3 -1 3 -1 3 -1 3 0 3 0 3 0 3 0 3 0 3 0 3 0 3 0 3 0 3 0 3 1 3 1 3 1 3 1 3 1 3 1 3 1 3 1 3 1 3 1 2 1 2 2 2 2 2 2 2 2 2 2 2 2 2 2 1 2 1 2 1 2 1 2 1 2 1 2 0 2 0 2 0 2 0 2 0 2 0 2 -1 2 -1 2 -1 2 -1 2 -1 2 -1 2 -1 2 -2 2 -2 2 -2 2 -2 2 -2 2 -2 2 -2 1 -3 1 -3 1 -3 1 -3 1 -3 1 3 1z"/>
   <path class="fil2" d="M16935 15728l1 3 1 3 1 3 1 3 1 3 0 3 0 3 0 3 0 3 0 3 0 3 -1 3 -1 3 -1 3 -1 3 -1 3 -1 3 -1 3 -2 2 -2 2 -2 2 -2 2 -2 2 -2 2 -2 2 -3 2 -3 2 -3 2 -3 2 -3 2 -3 1 -3 1 -3 1 -3 1 -3 1 -3 1 -3 1 -3 0 -3 0 -3 0 -3 0 -3 0 -3 0 -3 0 -3 -1 -3 -1 -3 -1 -3 -1 -3 -1 -3 -1 -3 -1 -3 -1 -3 -2 -3 -2 -3 -2 -2 -2 -2 -2 -2 -2 -2 -2 -2 -2 -2 -2 -2 -3 -2 -3 -2 -3 126 -47 -2 -3zm-1177 -1972l126 -47 1051 2019 -126 47 -1051 -2019zm0 0l-1 -3 -1 -3 -1 -3 -1 -3 -1 -3 0 -3 0 -3 0 -3 0 -3 0 -3 0 -3 1 -3 1 -3 1 -3 1 -3 1 -3 1 -3 1 -3 2 -2 2 -2 2 -2 2 -2 2 -2 2 -2 2 -2 3 -2 3 -2 3 -2 3 -2 3 -2 3 -1 3 -1 3 -1 3 -1 3 -1 3 -1 3 -1 3 0 3 0 3 0 3 0 3 0 3 0 3 0 3 1 3 1 3 1 3 1 3 1 3 1 3 1 3 1 3 2 3 2 3 2 2 2 2 2 2 2 2 2 2 2 2 2 2 3 2 3 2 3 -126 47 2 3z"/>
   <circle class="fil3" cx="15092" cy="8044" r="3629"/>
   <g style="clip-path:url(#id0)">
    <polygon class="fil0" style="mask:url(#id1)" points="11459,4412 18725,4412 18725,11677 11459,11677 "/>
   </g>
   <g style="clip-path:url(#id3)">
    <g>
     <path id="1" class="fil4" style="mask:url(#id4)" d="M15092 4416c2004,0 3629,1625 3629,3629 0,2004 -1625,3629 -3629,3629 -2004,0 -3629,-1625 -3629,-3629 0,-2004 1625,-3629 3629,-3629z"/>
    </g>
   </g>
   <polygon class="fil0" points="11459,11677 18725,11677 18725,4412 11459,4412 "/>
   <path class="fil2" d="M13341 15728l127 47 -2 3 -2 3 -2 3 -2 2 -2 2 -2 2 -2 2 -2 2 -3 2 -3 2 -3 2 -3 2 -3 1 -3 1 -3 1 -3 1 -3 1 -3 1 -3 1 -3 1 -3 0 -3 0 -3 0 -3 0 -3 0 -3 0 -3 0 -3 -1 -3 -1 -3 -1 -3 -1 -3 -1 -3 -1 -3 -1 -3 -2 -3 -2 -3 -2 -3 -2 -3 -2 -2 -2 -2 -2 -2 -2 -2 -2 -2 -2 -2 -2 -2 -2 -1 -3 -1 -3 -1 -3 -1 -3 -1 -3 -1 -3 -1 -3 0 -3 0 -3 0 -3 0 -3 0 -3 0 -3 1 -3 1 -3 1 -3 1 -3 1 -3 -2 3zm1178 -1972l-1051 2019 -127 -47 1051 -2019 127 47zm0 0l-127 -47 2 -3 2 -3 2 -3 2 -2 2 -2 2 -2 2 -2 2 -2 3 -2 3 -2 3 -2 3 -2 3 -1 3 -1 3 -1 3 -1 3 -1 3 -1 3 -1 3 -1 3 0 3 0 3 0 3 0 3 0 3 0 3 0 3 1 3 1 3 1 3 1 3 1 3 1 3 1 3 2 3 2 3 2 3 2 3 2 2 2 2 2 2 2 2 2 2 2 2 2 2 2 1 3 1 3 1 3 1 3 1 3 1 3 1 3 0 3 0 3 0 3 0 3 0 3 0 3 -1 3 -1 3 -1 3 -1 3 -1 3 2 -3z"/>
   <rect class="fil5" x="13438" y="11269" width="3306" height="2345"/>
   <path class="fil6" d="M16745 11447l0 263 -3306 436 0 -263 3306 -436zm0 616l0 263 -3306 436 0 -263 3306 -436zm0 616l0 263 -3306 436 0 -263 3306 -436z"/>
   <path class="fil7" d="M14386 13944c173,0 332,-123 459,-329l0 0 -918 0c127,206 286,329 459,329l0 0z"/>
   <path class="fil7" d="M15798 13944c173,0 332,-123 459,-329l0 0 -918 0c127,206 286,329 459,329l0 0z"/>
   <path class="fil8" d="M13005 15568c-81,54 -147,118 -194,183l-44 72c-43,85 -50,167 -10,226 80,119 322,97 539,-49 218,-146 329,-362 249,-481 -80,-119 -322,-97 -539,49l-1 0z"/>
   <circle class="fil9" transform="matrix(1.49918 0.837559 -1.58483 2.83675 15948.2 7780.03)" r="507"/>
   <path class="fil8" d="M17271 15568c81,54 147,118 194,183l44 72c43,85 50,167 10,226 -80,119 -322,97 -539,-49 -218,-146 -329,-362 -249,-481 80,-119 322,-97 539,49l1 0z"/>
   <path class="fil8" d="M17236 5112c904,660 1491,1728 1491,2932 0,405 -67,794 -189,1158l-2141 0 346 -950 -1319 -2576 1812 -565 0 1z"/>
   <path class="fil8" d="M15102 4416c-827,0 -1590,277 -2201,744l0 0 4401 0c-610,-466 -1373,-744 -2201,-744l1 0z"/>
   <path class="fil8" d="M17299 5160c-399,70 -286,1241 -797,1244 -799,5 -841,465 -543,1007 -671,-440 -1004,-1067 -998,-1883 -925,-135 -1075,-183 -832,353 -444,-221 -540,-482 -16,-815l3186 94 0 0z"/>
   <path class="fil10" d="M12694 10768c-105,-93 -204,-191 -297,-295 349,-1025 859,-1526 2185,-555 540,465 1274,1109 -1889,850l1 0z"/>
   <ellipse class="fil11" cx="12810" cy="7856" rx="760" ry="1003"/>
   <path class="fil8" d="M12350 5990c215,238 520,354 837,347 -246,-100 -483,-263 -683,-486 -201,-222 -339,-474 -413,-729 -39,314 44,629 260,868l-1 0z"/>
   <ellipse class="fil10" cx="12890" cy="7750" rx="680" ry="898"/>
   <circle class="fil8" cx="12728" cy="8475" r="253"/>
   <path class="fil2" d="M16898 13584l-2 2 -2 2 -2 2 -2 2 -2 2 -3 1 -3 1 -3 1 -3 1 -3 1 -3 1 -3 1 -3 1 -3 1 -3 1 -3 1 -3 0 -3 0 -3 0 -3 0 -3 0 -3 0 -3 0 -3 0 -3 0 -3 0 -3 -1 -3 -1 -3 -1 -3 -1 -3 -1 -3 -1 -3 -1 -3 -1 -3 -1 -3 -1 -2 -2 -2 -2 -2 -2 -2 -2 -2 -2 -2 -2 -2 -2 -1 -2 -1 -2 -1 -2 -1 -2 -1 -2 -1 -2 -1 -2 0 -2 0 -2 0 -2 0 -2 0 -2 0 -2 1 -2 1 -2 1 -2 1 -2 1 -2 1 -2 2 -2 2 -2 117 45 -3 0zm1454 -1663l94 -15 24 60 -1571 1617 -117 -45 1571 -1617 -1 0zm0 0l2 -2 2 -2 2 -2 2 -2 2 -2 3 -1 3 -1 3 -1 3 -1 3 -1 3 -1 3 -1 3 -1 3 -1 3 -1 3 -1 3 0 3 0 3 0 3 0 3 0 3 0 3 0 3 0 3 0 3 0 3 1 3 1 3 1 3 1 3 1 3 1 3 1 3 1 3 1 3 1 2 2 2 2 2 2 2 2 2 2 2 2 2 2 1 2 1 2 1 2 1 2 1 2 1 2 1 2 0 2 0 2 0 2 0 2 0 2 0 2 -1 2 -1 2 -1 2 -1 2 -1 2 -1 2 -2 2 -2 2 -117 -45 3 0zm-1602 -548l70 -75 1626 608 -70 75 -1626 -608zm0 0l-3 -1 -3 -1 -3 -1 -3 -1 -2 -1 -2 -2 -2 -2 -2 -2 -2 -2 -2 -2 -2 -2 -1 -2 -1 -2 -1 -2 -1 -2 -1 -2 -1 -2 -1 -2 0 -2 0 -2 0 -2 0 -2 0 -2 0 -2 1 -2 1 -2 1 -2 1 -2 1 -2 1 -2 2 -2 2 -2 2 -2 2 -2 2 -2 2 -2 2 -2 2 -1 3 -1 3 -1 3 -1 3 -1 3 -1 3 -1 3 -1 3 -1 3 -1 3 -1 3 0 3 0 3 0 3 0 3 0 3 0 3 0 3 0 3 0 3 0 3 1 3 1 3 1 3 1 3 1 3 1 -70 75 3 -1z"/>
   <path class="fil8" d="M17070 13267c-106,-14 -207,-10 -293,9l-89 27c-98,39 -163,101 -173,178 -21,157 193,315 479,354 286,39 535,-57 556,-213 21,-157 -193,-315 -479,-354l-1 -1z"/>
   <path class="fil8" d="M12619 10376c-106,-14 -207,-10 -293,9l-89 27c-98,39 -163,101 -173,178 -21,157 193,315 479,354 286,39 535,-57 556,-213 21,-157 -193,-315 -479,-354l-1 -1z"/>
   <polygon class="fil8" points="18155,7423 20496,6887 18071,7028 19481,6380 17986,6859 19876,4349 17732,6577 18804,4151 17365,5533 18042,4095 16942,5505 16886,3926 16378,5138 15940,3066 15940,4814 15305,3573 15545,4575 13698,3897 14291,4603 17196,6718 17647,7592 "/>
   <path class="fil12" d="M10371 17739c70,134 404,266 676,-32 318,-39 637,-208 543,-387 -230,-438 -1469,-62 -1218,420l-1 -1z"/>
   <path class="fil10" d="M11232 17244c-54,19 -102,47 -138,77l-36 35c-37,43 -53,89 -39,128 29,80 171,103 317,50 146,-52 242,-160 213,-240 -29,-80 -171,-103 -317,-50z"/>
   <path class="fil13" d="M10250 16995c130,77 484,13 557,-385 249,-202 431,-513 256,-616 -427,-251 -1279,724 -813,1000l0 1z"/>
   <path class="fil10" d="M10719 16120c-36,45 -62,93 -77,138l-12 49c-9,56 2,103 35,129 67,53 199,-3 296,-125 97,-122 121,-263 54,-316 -67,-53 -199,3 -296,125z"/>
   <path class="fil14" d="M11337 16799c130,77 484,13 557,-385 249,-202 431,-513 256,-616 -427,-251 -1279,724 -812,1000l-1 1z"/>
   <path class="fil10" d="M11805 15924c-36,45 -62,93 -77,138l-12 49c-9,56 2,103 35,129 67,53 199,-3 296,-125 97,-122 121,-263 54,-316 -67,-53 -199,3 -296,125z"/>
   <path class="fil15" d="M12446 16103c57,140 378,302 676,30 320,-10 653,-148 576,-336 -189,-458 -1457,-197 -1252,306l0 0z"/>
   <path class="fil10" d="M13348 15690c-56,14 -106,37 -145,64l-39 32c-41,39 -61,83 -50,124 21,82 160,118 311,79 150,-39 255,-137 234,-219 -21,-82 -160,-118 -311,-79l0 -1z"/>
   <path class="fil8" d="M12159 17053c67,135 399,274 676,-19 319,-33 641,-196 550,-377 -222,-443 -1467,-90 -1226,396l0 0z"/>
   <path class="fil10" d="M13029 16574c-55,18 -103,45 -140,74l-37 34c-38,42 -55,88 -41,127 27,81 169,106 316,56 147,-50 245,-155 218,-236 -27,-81 -169,-106 -316,-56l0 1z"/>
   <path class="fil12" d="M11493 17756c57,140 378,302 676,30 320,-10 653,-148 576,-336 -189,-458 -1457,-197 -1252,306l0 0z"/>
   <path class="fil10" d="M12395 17343c-56,14 -106,37 -145,64l-39 32c-41,39 -61,83 -50,124 21,82 160,118 311,79 150,-39 255,-137 234,-219 -21,-82 -160,-118 -311,-79l0 -1z"/>
   <path class="fil8" d="M12407 15423c57,140 378,302 676,30 320,-10 653,-148 576,-336 -189,-458 -1457,-197 -1252,306l0 0z"/>
   <path class="fil10" d="M13310 15009c-56,14 -106,37 -145,64l-39 32c-41,39 -61,83 -50,124 21,82 160,118 311,79 150,-39 255,-137 234,-219 -21,-82 -160,-118 -311,-79l0 -1z"/>
   <path class="fil13" d="M8965 17270c57,140 378,302 676,30 320,-10 653,-148 576,-336 -189,-458 -1457,-197 -1252,306l0 0z"/>
   <path class="fil10" d="M9867 16857c-56,14 -106,37 -145,64l-39 32c-41,39 -61,83 -50,124 21,82 160,118 311,79 150,-39 255,-137 234,-219 -21,-82 -160,-118 -311,-79l0 -1z"/>
   <path class="fil8" d="M13827 15598c57,140 378,302 676,30 320,-10 653,-148 576,-336 -189,-458 -1457,-197 -1252,306l0 0z"/>
   <path class="fil10" d="M14730 15184c-56,14 -106,37 -145,64l-39 32c-41,39 -61,83 -50,124 21,82 160,118 311,79 150,-39 255,-137 234,-219 -21,-82 -160,-118 -311,-79l0 -1z"/>
   <path class="fil8" d="M10968 17017c57,140 378,302 676,30 320,-10 653,-148 576,-336 -189,-458 -1457,-197 -1252,306l0 0z"/>
   <path class="fil10" d="M11870 16604c-56,14 -106,37 -145,64l-39 32c-41,39 -61,83 -50,124 21,82 160,118 311,79 150,-39 255,-137 234,-219 -21,-82 -160,-118 -311,-79l0 -1z"/>
   <path class="fil14" d="M11046 15325c57,140 378,302 676,30 320,-10 653,-148 576,-336 -189,-458 -1457,-197 -1252,306l0 0z"/>
   <path class="fil10" d="M11948 14912c-56,14 -106,37 -145,64l-39 32c-41,39 -61,83 -50,124 21,82 160,118 311,79 150,-39 255,-137 234,-219 -21,-82 -160,-118 -311,-79l0 -1z"/>
   <path class="fil15" d="M13321 16628c57,140 378,302 676,30 320,-10 653,-148 576,-336 -189,-458 -1457,-197 -1252,306l0 0z"/>
   <path class="fil10" d="M14225 16215c-56,14 -106,37 -145,64l-39 32c-41,39 -61,83 -50,124 21,82 160,118 311,79 150,-39 255,-137 234,-219 -21,-82 -160,-118 -311,-79l0 -1z"/>
  </g>
 </g>
</svg>
