<?xml version="1.0" encoding="UTF-8"?>
<!DOCTYPE svg PUBLIC "-//W3C//DTD SVG 1.1//EN" "http://www.w3.org/Graphics/SVG/1.1/DTD/svg11.dtd">
<!-- Creator: CorelDRAW X6 -->
<svg xmlns="http://www.w3.org/2000/svg" xml:space="preserve" width="269.092mm" height="167.801mm" version="1.1" style="shape-rendering:geometricPrecision; text-rendering:geometricPrecision; image-rendering:optimizeQuality; fill-rule:evenodd; clip-rule:evenodd"
viewBox="0 0 26909 16780"
 xmlns:xlink="http://www.w3.org/1999/xlink">
 <defs>
  <style type="text/css">
   <![CDATA[
    .str0 {stroke:#C5C6C6;stroke-width:7.62}
    .str1 {stroke:#939395;stroke-width:141.11}
    .fil0 {fill:none}
    .fil5 {fill:#008DD2}
    .fil4 {fill:#2B2A29}
    .fil15 {fill:#5B5B5B}
    .fil6 {fill:#67B437}
    .fil16 {fill:#9D9E9E}
    .fil1 {fill:#A75F4A}
    .fil7 {fill:#A82682}
    .fil9 {fill:#D9DADA}
    .fil14 {fill:#E31E24}
    .fil2 {fill:#EBECEC}
    .fil8 {fill:#F6AD71}
    .fil13 {fill:#FBD9CA}
    .fil3 {fill:#FEFEFE}
    .fil12 {fill:#2B2A29;fill-rule:nonzero}
    .fil11 {fill:#898989;fill-rule:nonzero}
    .fil10 {fill:#B2B3B3;fill-rule:nonzero}
   ]]>
  </style>
    <clipPath id="id0">
     <path d="M10110 4334l3607 0 0 -3607 -3607 0 0 3607z"/>
    </clipPath>
     <mask id="id1">
  <linearGradient id="id2" gradientUnits="userSpaceOnUse" x1="11913.6" y1="4334.03" x2="11913.6" y2="727.01">
   <stop offset="0" style="stop-opacity:1; stop-color:white"/>
   <stop offset="1" style="stop-opacity:0; stop-color:white"/>
  </linearGradient>
      <rect style="fill:url(#id2)" x="10110" y="727" width="3607" height="3607"/>
     </mask>
    <clipPath id="id3">
     <path d="M10110 4334l3607 0 0 -3607 -3607 0 0 3607z"/>
    </clipPath>
      <mask id="id4">
  <linearGradient id="id5" gradientUnits="userSpaceOnUse" x1="11913.1" y1="4329.02" x2="11913.1" y2="731">
   <stop offset="0" style="stop-opacity:1; stop-color:white"/>
   <stop offset="1" style="stop-opacity:0; stop-color:white"/>
  </linearGradient>
       <rect style="fill:url(#id5)" x="10110" y="727" width="3606" height="3606"/>
      </mask>
 </defs>
 <g id="Layer_x0020_1">
  <metadata id="CorelCorpID_0Corel-Layer"/>
  <g id="_241035264">
   <rect class="fil0" width="26909" height="16780"/>
   <polygon class="fil1" points="13195,14583 7982,13847 11766,13132 14982,13406 "/>
   <path class="fil1" d="M8121 13867l176 1452 4541 925 1518 -1555 247 -253 204 6 -1823 2033 -4733 -1112c-439,-3 -1112,-1540 -131,-1496l1 0z"/>
   <polygon class="fil2 str0" points="12838,16244 13195,14583 14982,13406 14604,14436 "/>
   <polygon class="fil3" points="8121,13867 8297,15319 12838,16244 13195,14583 "/>
   <polygon class="fil4" points="13195,13148 7982,12413 11766,11698 14982,11971 "/>
   <path class="fil4" d="M8121 12432l176 1452 4541 925 1518 -1555 247 -253 204 6 -1823 2033 -4733 -1112c-439,-3 -1112,-1540 -131,-1496l1 0z"/>
   <polygon class="fil2 str0" points="12838,14809 13195,13148 14982,11971 14604,13001 "/>
   <polygon class="fil3" points="8121,12432 8297,13884 12838,14809 13195,13148 "/>
   <polygon class="fil5" points="13195,11862 7982,11127 11766,10412 14982,10685 "/>
   <path class="fil5" d="M8121 11146l176 1452 4541 925 1518 -1555 247 -253 204 6 -1823 2033 -4733 -1112c-439,-3 -1112,-1540 -131,-1496l1 0z"/>
   <polygon class="fil2 str0" points="12838,13523 13195,11862 14982,10685 14604,11715 "/>
   <polygon class="fil3" points="8121,11146 8297,12598 12838,13523 13195,11862 "/>
   <polygon class="fil6" points="13195,10360 7982,9624 11766,8910 14982,9183 "/>
   <path class="fil6" d="M8121 9644l176 1452 4541 925 1518 -1555 247 -253 204 6 -1823 2033 -4733 -1112c-439,-3 -1112,-1540 -131,-1496l1 0z"/>
   <polygon class="fil2 str0" points="12838,12021 13195,10360 14982,9183 14604,10213 "/>
   <polygon class="fil3" points="8121,9644 8297,11096 12838,12021 13195,10360 "/>
   <polygon class="fil7" points="13195,8896 7982,8160 11766,7445 14982,7719 "/>
   <path class="fil7" d="M8121 8180l176 1452 4541 925 1518 -1555 247 -253 204 6 -1823 2033 -4733 -1112c-439,-3 -1112,-1540 -131,-1496l1 0z"/>
   <polygon class="fil2 str0" points="12838,10557 13195,8896 14982,7719 14604,8749 "/>
   <polygon class="fil3" points="8121,8180 8297,9632 12838,10557 13195,8896 "/>
   <polygon class="fil8" points="13195,7185 7982,6449 11766,5734 14982,6007 "/>
   <path class="fil8" d="M8121 6469l176 1452 4541 925 1518 -1555 247 -253 204 6 -1823 2033 -4733 -1112c-439,-3 -1112,-1540 -131,-1496l1 0z"/>
   <polygon class="fil2 str0" points="12838,8845 13195,7185 14982,6007 14604,7037 "/>
   <polygon class="fil3" points="8121,6469 8297,7920 12838,8845 13195,7185 "/>
   <polygon class="fil5" points="12511,5461 8748,6235 7905,475 12120,791 16089,123 15928,5111 "/>
   <polygon class="fil9" points="9018,5884 8291,756 12120,791 12511,5461 "/>
   <polygon class="fil3" points="12120,791 15702,475 15576,5006 12511,5461 "/>
   <line class="fil0" x1="12717" y1="1724" x2="15264" y2= "1478" />
   <line class="fil0" x1="12742" y1="2236" x2="15289" y2= "1991" />
   <line class="fil0" x1="12768" y1="2748" x2="15314" y2= "2503" />
   <line class="fil0" x1="12793" y1="3260" x2="15340" y2= "3015" />
   <line class="fil0" x1="12819" y1="3772" x2="15365" y2= "3527" />
   <line class="fil0" x1="12844" y1="4285" x2="15391" y2= "4039" />
   <line class="fil0" x1="12870" y1="4797" x2="15416" y2= "4551" />
   <path class="fil10" d="M12961 4696l2312 -223 3 183 -2305 222 -10 -183 0 1zm-173 -3071l2431 -234 3 183 -2424 234 -10 -183zm29 512l2411 -232 3 183 -2404 232 -10 -183zm29 512l2391 -230 3 183 -2384 230 -10 -183zm29 512l2372 -228 3 183 -2364 228 -10 -183 -1 0zm29 512l2352 -227 3 183 -2345 226 -10 -183 0 1zm29 512l2332 -225 3 183 -2325 224 -10 -183 0 1z"/>
   <path class="fil11" d="M9565 4867l2291 -223 20 183 -2284 222 -27 -183 0 1zm-457 -3071l2410 -234 20 183 -2403 234 -27 -183zm76 512l2390 -232 20 183 -2383 232 -27 -183zm76 512l2370 -230 20 183 -2363 230 -27 -183zm76 512l2350 -228 20 183 -2343 228 -27 -183zm76 512l2331 -227 20 183 -2324 226 -27 -183 0 1zm76 512l2311 -225 20 183 -2304 224 -27 -183 0 1z"/>
   <path class="fil12" d="M12827 6341l1 1 1 1 0 1 0 1 0 1 0 1 0 1 0 1 0 1 0 1 0 1 0 1 0 1 0 1 0 1 -1 1 -1 1 -1 1 -1 1 -1 1 -1 1 -1 1 -1 1 -1 1 -1 1 -1 1 -1 1 -1 1 -1 1 -1 1 -2 1 -2 1 -2 1 -2 0 -2 0 -2 0 -2 0 -2 0 -2 0 -2 0 -2 0 -2 0 -2 0 -2 0 -2 0 -2 0 -2 0 -2 0 -2 -1 -1 -1 -1 -1 -1 -1 -1 -1 -1 -1 -1 -1 -1 -1 -1 -1 -1 -1 -1 -1 -1 -1 -1 -1 -1 -1 -1 -1 -1 -1 63 -23 3 6zm-584 -978l63 -23 521 1001 -63 23 -521 -1001zm0 0l-1 -1 -1 -1 0 -1 0 -1 0 -1 0 -1 0 -1 0 -1 0 -1 0 -1 0 -1 0 -1 0 -1 0 -1 0 -1 1 -1 1 -1 1 -1 1 -1 1 -1 1 -1 1 -1 1 -1 1 -1 1 -1 1 -1 1 -1 1 -1 1 -1 1 -1 2 -1 2 -1 2 -1 2 0 2 0 2 0 2 0 2 0 2 0 2 0 2 0 2 0 2 0 2 0 2 0 2 0 2 0 2 0 2 1 1 1 1 1 1 1 1 1 1 1 1 1 1 1 1 1 1 1 1 1 1 1 1 1 1 1 1 1 1 1 -63 23 -3 -6z"/>
   <path class="fil12" d="M15617 3444l1 -1 1 -1 1 -1 1 -1 1 -1 1 -1 1 -1 1 -1 1 -1 1 0 2 0 2 0 2 0 2 0 2 0 2 0 2 0 2 0 2 0 2 0 2 0 2 0 2 0 2 0 2 0 2 0 2 0 2 0 2 0 2 1 1 1 1 1 1 1 1 1 1 1 1 1 1 1 1 1 1 1 1 1 1 1 1 1 1 1 1 1 1 1 0 1 0 1 0 1 0 1 0 1 0 1 0 1 0 1 0 1 0 1 0 1 0 1 -1 1 -1 1 -1 1 -1 1 -1 1 -1 1 -1 1 -55 -25 -3 -1zm-1239 1144l-37 8 -18 -33 1294 -1119 55 25 -1294 1119zm0 0l-1 1 -1 1 -1 1 -1 1 -1 1 -1 1 -1 1 -1 1 -1 1 -1 0 -2 0 -2 0 -2 0 -2 0 -2 0 -2 0 -2 0 -2 0 -2 0 -2 0 -2 0 -2 0 -2 0 -2 0 -2 0 -2 0 -2 0 -2 0 -2 0 -2 -1 -1 -1 -1 -1 -1 -1 -1 -1 -1 -1 -1 -1 -1 -1 -1 -1 -1 -1 -1 -1 -1 -1 -1 -1 -1 -1 -1 -1 -1 -1 0 -1 0 -1 0 -1 0 -1 0 -1 0 -1 0 -1 0 -1 0 -1 0 -1 0 -1 0 -1 1 -1 1 -1 1 -1 1 -1 1 -1 1 -1 1 -1 55 25 3 1zm-2029 -359l19 -41 1992 367 -19 41 -1992 -367zm0 0l-2 0 -2 0 -2 0 -2 0 -1 -1 -1 -1 -1 -1 -1 -1 -1 -1 -1 -1 -1 -1 -1 -1 -1 -1 -1 -1 -1 -1 -1 -1 -1 -1 -1 -1 -1 -1 -1 -1 0 -1 0 -1 0 -1 0 -1 0 -1 0 -1 0 -1 0 -1 0 -1 0 -1 0 -1 0 -1 1 -1 1 -1 1 -1 1 -1 1 -1 1 -1 1 -1 1 -1 1 -1 1 -1 1 -1 1 -1 1 -1 1 -1 1 -1 1 -1 1 0 1 0 2 0 2 0 2 0 2 0 2 0 2 0 2 0 2 0 2 0 2 0 2 0 2 0 2 0 2 0 -19 41 -3 3z"/>
   <path class="fil12" d="M8044 4176l-30 39 -2 -1 -1 -1 -1 -1 -1 -1 -1 -1 -1 -1 -1 -1 -1 -1 -1 -1 -1 -1 -1 -1 -1 -1 -1 -1 -1 -1 -1 -1 -1 -1 0 -1 0 -1 0 -1 0 -1 0 -1 0 -1 0 -1 0 -1 0 -1 0 -1 0 -1 0 -1 0 -1 1 -1 1 -1 1 -1 1 -1 1 -1 1 -1 1 -1 1 -1 1 -1 1 -1 1 -1 1 -1 1 -1 1 -1 1 -1 1 0 1 0 2 0 2 0 2 0 2 0 2 0 2 0 2 0 2 0 2 0 2 0 2 0 2 0 2 0 2 0 2 0 2 0 2 0 2 0 -6 5zm1755 602l-1786 -564 30 -39 1786 564 1 38 -31 0 0 1zm0 0l30 -39 2 1 1 1 1 1 1 1 1 1 1 1 1 1 1 1 1 1 1 1 1 1 1 1 1 1 1 1 1 1 1 1 0 1 0 1 0 1 0 1 0 1 0 1 0 1 0 1 0 1 0 1 0 1 0 1 0 1 -1 1 -1 1 -1 1 -1 1 -1 1 -1 1 -1 1 -1 1 -1 1 -1 1 -1 1 -1 1 -1 1 -1 1 -1 1 -1 0 -1 0 -2 0 -2 0 -2 0 -2 0 -2 0 -2 0 -2 0 -2 0 -2 0 -2 0 -2 0 -2 0 -2 0 -2 0 -2 0 -2 0 -2 0 -2 0 6 -5zm1686 -551l-1655 551 -32 -38 1655 -551 32 38zm0 0l-32 -38 2 0 2 0 2 0 2 0 2 0 2 0 2 0 2 0 2 0 2 0 2 0 2 0 2 0 2 0 2 0 2 0 2 0 2 0 1 0 1 0 1 1 1 1 1 1 1 1 1 1 1 1 1 1 1 1 1 1 1 1 1 1 1 1 1 1 1 1 1 1 1 1 0 1 0 1 0 1 0 1 0 1 0 1 0 1 0 1 0 1 0 1 0 1 0 1 -1 1 -1 1 -1 1 -1 1 -1 1 -1 1 -1 1 -1 1 -1 1 -1 1 -1 1 -1 1 -1 1 -1 1 -1 1 -2 1 -5 -6z"/>
   <circle class="fil13" cx="11913" cy="2530" r="1799"/>
   <g style="clip-path:url(#id0)">
    <polygon class="fil0" style="mask:url(#id1)" points="10110,727 13717,727 13717,4334 10110,4334 "/>
   </g>
   <g style="clip-path:url(#id3)">
    <g>
     <path id="1" class="fil14" style="mask:url(#id4)" d="M11913 731c994,0 1799,806 1799,1799 0,994 -806,1799 -1799,1799 -994,0 -1799,-806 -1799,-1799 0,-994 806,-1799 1799,-1799z"/>
    </g>
   </g>
   <polygon class="fil0" points="10110,4334 13717,4334 13717,727 10110,727 "/>
   <path class="fil12" d="M11045 6341l63 23 -1 1 -1 1 -1 1 -1 1 -1 1 -1 1 -1 1 -1 1 -1 1 -1 1 -1 1 -1 1 -1 1 -1 1 -1 1 -2 1 -2 0 -2 0 -2 0 -2 0 -2 0 -2 0 -2 0 -2 0 -2 0 -2 0 -2 0 -2 0 -2 0 -2 0 -2 0 -2 -1 -2 -1 -2 -1 -1 -1 -1 -1 -1 -1 -1 -1 -1 -1 -1 -1 -1 -1 -1 -1 -1 -1 -1 -1 -1 -1 -1 -1 -1 -1 -1 -1 -1 -1 0 -1 0 -1 0 -1 0 -1 0 -1 0 -1 0 -1 0 -1 0 -1 0 -1 0 -1 0 -1 0 -1 1 -1 1 -1 3 -6zm584 -978l-521 1001 -63 -23 521 -1001 63 23zm0 0l-63 -23 1 -1 1 -1 1 -1 1 -1 1 -1 1 -1 1 -1 1 -1 1 -1 1 -1 1 -1 1 -1 1 -1 1 -1 1 -1 2 -1 2 0 2 0 2 0 2 0 2 0 2 0 2 0 2 0 2 0 2 0 2 0 2 0 2 0 2 0 2 0 2 1 2 1 2 1 1 1 1 1 1 1 1 1 1 1 1 1 1 1 1 1 1 1 1 1 1 1 1 1 1 1 1 1 1 1 0 1 0 1 0 1 0 1 0 1 0 1 0 1 0 1 0 1 0 1 0 1 0 1 0 1 -1 1 -1 1 -3 6z"/>
   <rect class="fil15" x="11093" y="4130" width="1640" height="1163"/>
   <path class="fil16" d="M12733 4217l0 130 -1640 216 0 -130 1640 -216zm0 306l0 130 -1640 216 0 -130 1640 -216zm0 306l0 130 -1640 216 0 -130 1640 -216z"/>
   <path class="fil16" d="M11563 5456c86,0 164,-61 228,-163l0 0 -455 0c63,102 142,163 228,163l-1 0z"/>
   <path class="fil16" d="M12263 5456c86,0 164,-61 228,-163l0 0 -455 0c63,102 142,163 228,163l-1 0z"/>
   <path class="fil4" d="M10879 6262c-40,27 -73,59 -96,91l-22 36c-21,42 -25,83 -5,112 40,59 160,48 267,-24 108,-73 163,-179 124,-238 -40,-59 -160,-48 -267,24l-1 -1z"/>
   <path class="fil4" d="M12994 6262c40,27 73,59 96,91l22 36c21,42 25,83 5,112 -40,59 -160,48 -267,-24 -108,-73 -163,-179 -124,-238 40,-59 160,-48 267,24l1 -1z"/>
   <path class="fil4" d="M15542 3358c-37,38 -65,80 -83,120l-15 44c-13,50 -8,95 20,121 56,54 183,15 282,-87 99,-103 134,-230 78,-285 -56,-54 -183,-15 -282,87z"/>
   <path class="fil4" d="M11913 731c994,0 1799,806 1799,1799 0,56 -3,112 -8,167l-567 544 -2450 0 -567 -544c-5,-55 -8,-111 -8,-167 0,-994 806,-1799 1799,-1799l2 0z"/>
   <circle class="fil13" transform="matrix(-0.600062 -0.265346 -0.502088 1.13544 13480.9 3287.23)" r="507"/>
   <circle class="fil13" transform="matrix(0.600062 -0.265346 0.502088 1.13544 10345.2 3287.23)" r="507"/>
   <path class="fil4" d="M8141 4108c33,42 56,86 69,128l11 45c8,51 -3,95 -33,119 -62,48 -183,-5 -271,-118 -88,-113 -108,-244 -47,-292 62,-48 183,5 271,118z"/>
   <ellipse class="fil0 str1" cx="18670" cy="13265" rx="1072" ry="513"/>
   <ellipse class="fil0 str1" cx="5732" cy="15501" rx="1072" ry="513"/>
   <ellipse class="fil0 str1" cx="15379" cy="16403" rx="529" ry="253"/>
   <ellipse class="fil0 str1" cx="3890" cy="12707" rx="529" ry="253"/>
   <ellipse class="fil0 str1" cx="22717" cy="15621" rx="831" ry="398"/>
  </g>
 </g>
</svg>
