<?xml version="1.0" encoding="UTF-8"?>
<!DOCTYPE svg PUBLIC "-//W3C//DTD SVG 1.1//EN" "http://www.w3.org/Graphics/SVG/1.1/DTD/svg11.dtd">
<!-- Creator: CorelDRAW X6 -->
<svg xmlns="http://www.w3.org/2000/svg" xml:space="preserve" width="269.092mm" height="167.801mm" version="1.1" style="shape-rendering:geometricPrecision; text-rendering:geometricPrecision; image-rendering:optimizeQuality; fill-rule:evenodd; clip-rule:evenodd"
viewBox="0 0 26909 16780"
 xmlns:xlink="http://www.w3.org/1999/xlink">
 <defs>
  <style type="text/css">
   <![CDATA[
    .str0 {stroke:#EBECEC;stroke-width:35.28}
    .str1 {stroke:#939395;stroke-width:105.83}
    .str2 {stroke:#939395;stroke-width:141.11}
    .fil0 {fill:none}
    .fil8 {fill:#2B2A29}
    .fil5 {fill:#5B5B5B}
    .fil7 {fill:#9D9E9E}
    .fil6 {fill:#B2B3B3}
    .fil11 {fill:#D2CDE7}
    .fil13 {fill:#E31E24}
    .fil4 {fill:#E5097F}
    .fil15 {fill:#EBECEC}
    .fil9 {fill:#F5B2B6}
    .fil14 {fill:#FABD5A}
    .fil3 {fill:#FCD8AC}
    .fil10 {fill:#FEFEFE}
    .fil12 {fill:#FFED00}
    .fil2 {fill:#2B2A29;fill-rule:nonzero}
    .fil1 {fill:#1C1B17;fill-opacity:0.290196}
    .fil16 {fill:url(#id24)}
   ]]>
  </style>
    <clipPath id="id0">
     <path d="M5737 9596l6621 0 0 -6621 -6621 0 0 6621z"/>
    </clipPath>
     <mask id="id1">
  <linearGradient id="id2" gradientUnits="userSpaceOnUse" x1="9047.55" y1="9596.06" x2="9047.55" y2="2975.02">
   <stop offset="0" style="stop-opacity:1; stop-color:white"/>
   <stop offset="1" style="stop-opacity:0; stop-color:white"/>
  </linearGradient>
      <rect style="fill:url(#id2)" x="5737" y="2975" width="6621" height="6621"/>
     </mask>
    <clipPath id="id3">
     <path d="M5737 9596l6621 0 0 -6621 -6621 0 0 6621z"/>
    </clipPath>
      <mask id="id4">
  <linearGradient id="id5" gradientUnits="userSpaceOnUse" x1="9048.05" y1="9593.06" x2="9048.05" y2="2979.02">
   <stop offset="0" style="stop-opacity:1; stop-color:white"/>
   <stop offset="1" style="stop-opacity:0; stop-color:white"/>
  </linearGradient>
       <rect style="fill:url(#id5)" x="5737" y="2975" width="6622" height="6622"/>
      </mask>
    <clipPath id="id6">
     <path d="M1634 9955l6621 0 0 -6621 -6621 0 0 6621z"/>
    </clipPath>
     <mask id="id7">
  <linearGradient id="id8" gradientUnits="userSpaceOnUse" x1="4944.53" y1="9955.06" x2="4944.53" y2="3334.02">
   <stop offset="0" style="stop-opacity:1; stop-color:white"/>
   <stop offset="1" style="stop-opacity:0; stop-color:white"/>
  </linearGradient>
      <rect style="fill:url(#id8)" x="1634" y="3334" width="6621" height="6621"/>
     </mask>
    <clipPath id="id9">
     <path d="M1634 9955l6621 0 0 -6621 -6621 0 0 6621z"/>
    </clipPath>
      <mask id="id10">
  <linearGradient id="id11" gradientUnits="userSpaceOnUse" x1="4944.03" y1="9952.06" x2="4944.03" y2="3338.02">
   <stop offset="0" style="stop-opacity:1; stop-color:white"/>
   <stop offset="1" style="stop-opacity:0; stop-color:white"/>
  </linearGradient>
       <rect style="fill:url(#id11)" x="1633" y="3334" width="6622" height="6622"/>
      </mask>
    <clipPath id="id12">
     <path d="M19406 8427l7113 0 0 -7113 -7113 0 0 7113z"/>
    </clipPath>
     <mask id="id13">
  <linearGradient id="id14" gradientUnits="userSpaceOnUse" x1="22962.6" y1="8427.05" x2="22962.6" y2="1314.01">
   <stop offset="0" style="stop-opacity:1; stop-color:white"/>
   <stop offset="1" style="stop-opacity:0; stop-color:white"/>
  </linearGradient>
      <rect style="fill:url(#id14)" x="19406" y="1314" width="7113" height="7113"/>
     </mask>
    <clipPath id="id15">
     <path d="M19406 8427l7113 0 0 -7113 -7113 0 0 7113z"/>
    </clipPath>
      <mask id="id16">
  <linearGradient id="id17" gradientUnits="userSpaceOnUse" x1="22962.1" y1="8422.05" x2="22962.1" y2="1318.01">
   <stop offset="0" style="stop-opacity:1; stop-color:white"/>
   <stop offset="1" style="stop-opacity:0; stop-color:white"/>
  </linearGradient>
       <rect style="fill:url(#id17)" x="19406" y="1314" width="7112" height="7112"/>
      </mask>
    <clipPath id="id18">
     <path d="M15620 8275l4058 0 0 -2446 -4058 0 0 2446z"/>
    </clipPath>
     <mask id="id19">
  <linearGradient id="id20" gradientUnits="userSpaceOnUse" x1="17901.6" y1="5308.95" x2="17396.6" y2="8795.15">
   <stop offset="0" style="stop-opacity:1; stop-color:white"/>
   <stop offset="1" style="stop-opacity:0; stop-color:white"/>
  </linearGradient>
      <rect style="fill:url(#id20)" x="15620" y="5566" width="4058" height="2972"/>
     </mask>
    <clipPath id="id21">
     <path d="M15620 8275l4058 0 0 -2446 -4058 0 0 2446z"/>
    </clipPath>
      <mask id="id22">
  <linearGradient id="id23" gradientUnits="userSpaceOnUse" x1="17863.3" y1="5570.7" x2="17433.9" y2="8534.38">
   <stop offset="0" style="stop-opacity:1; stop-color:white"/>
   <stop offset="1" style="stop-opacity:0; stop-color:white"/>
  </linearGradient>
       <rect style="fill:url(#id23)" x="15619" y="5829" width="4059" height="2447"/>
      </mask>
  <linearGradient id="id24" gradientUnits="userSpaceOnUse" x1="17866.3" y1="5552.98" x2="17431.9" y2="8551.12">
   <stop offset="0" style="stop-color:white"/>
   <stop offset="1" style="stop-color:white"/>
  </linearGradient>
 </defs>
 <g id="Layer_x0020_1">
  <metadata id="CorelCorpID_0Corel-Layer"/>
  <g id="_250055008">
   <rect class="fil0" width="26909" height="16780"/>
   <path class="fil1" d="M22822 11965c1872,0 3390,375 3390,837 0,462 -1518,837 -3390,837 -1872,0 -3390,-375 -3390,-837 0,-462 1518,-837 3390,-837z"/>
   <path class="fil1" d="M8916 12563c1919,0 3474,384 3474,858 0,474 -1555,858 -3474,858 -1919,0 -3474,-384 -3474,-858 0,-474 1555,-858 3474,-858z"/>
   <path class="fil2" d="M11347 7381l-2 -2 -2 -2 -2 -2 -2 -2 -2 -2 -1 -2 -1 -2 -1 -2 -1 -2 -1 -2 -1 -2 -1 -2 0 -2 0 -2 0 -2 0 -2 0 -2 0 -2 0 -2 1 -2 1 -2 1 -2 1 -2 1 -2 1 -2 1 -2 2 -2 2 -2 2 -2 2 -2 2 -2 2 -1 2 -1 2 -1 3 -1 3 -1 3 -1 3 -1 3 -1 3 -1 3 -1 3 -1 3 0 3 0 3 0 3 0 3 0 3 0 3 0 3 0 3 0 3 0 3 0 3 1 3 1 3 1 3 1 3 1 3 1 3 1 3 1 2 1 2 1 2 1 -91 55 -2 7zm1672 993l-16 62 -74 -8 -1581 -1048 91 -55 1581 1048 -1 1zm0 0l2 2 2 2 2 2 2 2 2 2 1 2 1 2 1 2 1 2 1 2 1 2 1 2 0 2 0 2 0 2 0 2 0 2 0 2 0 2 -1 2 -1 2 -1 2 -1 2 -1 2 -1 2 -1 2 -2 2 -2 2 -2 2 -2 2 -2 2 -2 1 -2 1 -2 1 -3 1 -3 1 -3 1 -3 1 -3 1 -3 1 -3 1 -3 1 -3 0 -3 0 -3 0 -3 0 -3 0 -3 0 -3 0 -3 0 -3 0 -3 0 -3 0 -3 -1 -3 -1 -3 -1 -3 -1 -3 -1 -3 -1 -3 -1 -3 -1 -2 -1 -2 -1 -2 -1 91 -55 2 -7zm-2494 884l-58 -70 2477 -821 58 70 -2477 821zm0 0l-3 1 -3 1 -3 1 -3 1 -3 1 -3 0 -3 0 -3 0 -3 0 -3 0 -3 0 -3 0 -3 0 -3 0 -3 0 -3 -1 -3 -1 -3 -1 -3 -1 -3 -1 -3 -1 -3 -1 -2 -1 -2 -1 -2 -1 -2 -1 -2 -1 -2 -1 -2 -2 -2 -2 -2 -2 -2 -2 -1 -2 -1 -2 -1 -2 -1 -2 -1 -2 -1 -2 0 -2 0 -2 0 -2 0 -2 0 -2 0 -2 0 -2 1 -2 1 -2 1 -2 1 -2 1 -2 1 -2 1 -2 2 -2 2 -2 2 -2 2 -2 2 -1 2 -1 2 -1 2 -1 2 -1 3 -1 3 -1 3 -1 58 70 0 2z"/>
   <path class="fil2" d="M7368 13288l115 43 -1 2 -2 2 -2 2 -2 2 -2 2 -2 2 -2 2 -2 2 -2 2 -2 2 -2 2 -3 1 -3 1 -3 1 -3 1 -3 1 -3 1 -3 1 -3 1 -3 1 -3 0 -3 0 -3 0 -3 0 -3 0 -3 0 -3 0 -3 0 -3 -1 -3 -1 -3 -1 -3 -1 -3 -1 -3 -1 -3 -1 -3 -1 -3 -2 -2 -2 -2 -2 -2 -2 -2 -2 -2 -2 -2 -2 -2 -2 -2 -2 -1 -2 -1 -2 -1 -2 -1 -2 -1 -2 -1 -2 -1 -2 0 -3 0 -3 0 -3 0 -3 0 -3 0 -3 0 -3 1 -3 1 -3 1 -3 1 -3 1 -3 2 2zm1073 -1797l-958 1840 -115 -43 958 -1840 115 43zm0 0l-115 -43 1 -2 2 -2 2 -2 2 -2 2 -2 2 -2 2 -2 2 -2 2 -2 2 -2 2 -2 3 -1 3 -1 3 -1 3 -1 3 -1 3 -1 3 -1 3 -1 3 -1 3 0 3 0 3 0 3 0 3 0 3 0 3 0 3 0 3 1 3 1 3 1 3 1 3 1 3 1 3 1 3 1 3 2 2 2 2 2 2 2 2 2 2 2 2 2 2 2 2 2 1 2 1 2 1 2 1 2 1 2 1 2 1 2 0 3 0 3 0 3 0 3 0 3 0 3 0 3 -1 3 -1 3 -1 3 -1 3 -1 3 -2 -2z"/>
   <circle class="fil3" cx="9048" cy="6286" r="3307"/>
   <g style="clip-path:url(#id0)">
    <polygon class="fil0" style="mask:url(#id1)" points="5737,2975 12358,2975 12358,9596 5737,9596 "/>
   </g>
   <g style="clip-path:url(#id3)">
    <g>
     <path id="1" class="fil4" style="mask:url(#id4)" d="M9048 2979c-1826,0 -3307,1481 -3307,3307 0,1826 1481,3307 3307,3307 1826,0 3307,-1480 3307,-3307 0,-1826 -1481,-3307 -3307,-3307z"/>
    </g>
   </g>
   <polygon class="fil0" points="5737,9596 12358,9596 12358,2975 5737,2975 "/>
   <path class="fil2" d="M10643 13288l1 3 1 3 1 3 1 3 1 3 0 3 0 3 0 3 0 3 0 3 0 3 0 3 -1 3 -1 2 -1 2 -1 2 -1 2 -1 2 -1 2 -2 2 -2 2 -2 2 -2 2 -2 2 -2 2 -2 2 -2 2 -3 2 -3 1 -3 1 -3 1 -3 1 -3 1 -3 1 -3 1 -3 1 -3 0 -3 0 -3 0 -3 0 -3 0 -3 0 -3 0 -3 0 -3 -1 -3 -1 -3 -1 -3 -1 -3 -1 -3 -1 -3 -1 -3 -1 -3 -1 -2 -2 -2 -2 -2 -2 -2 -2 -2 -2 -2 -2 -2 -2 -2 -2 -2 -2 -2 -2 -1 -2 116 -43 1 -3zm-1074 -1797l116 -43 958 1840 -116 43 -958 -1840zm0 0l-1 -3 -1 -3 -1 -3 -1 -3 -1 -3 0 -3 0 -3 0 -3 0 -3 0 -3 0 -3 0 -3 1 -3 1 -2 1 -2 1 -2 1 -2 1 -2 1 -2 2 -2 2 -2 2 -2 2 -2 2 -2 2 -2 2 -2 2 -2 3 -2 3 -1 3 -1 3 -1 3 -1 3 -1 3 -1 3 -1 3 -1 3 0 3 0 3 0 3 0 3 0 3 0 3 0 3 0 3 1 3 1 3 1 3 1 3 1 3 1 3 1 3 1 3 1 2 2 2 2 2 2 2 2 2 2 2 2 2 2 2 2 2 2 2 2 1 2 -116 43 -1 3z"/>
   <rect class="fil5" x="7541" y="9225" width="3013" height="2137"/>
   <path class="fil6" d="M7541 9386l0 239 3013 397 0 -239 -3013 -397zm0 562l0 239 3013 397 0 -239 -3013 -397zm0 562l0 239 3013 397 0 -239 -3013 -397z"/>
   <path class="fil7" d="M9691 11662c-157,0 -302,-112 -418,-300l0 0 837 0c-116,188 -261,300 -418,300l-1 0z"/>
   <path class="fil7" d="M8404 11662c-157,0 -302,-112 -418,-300l0 0 837 0c-116,188 -261,300 -418,300l-1 0z"/>
   <path class="fil8" d="M10948 13143c74,50 134,108 177,167l40 66c39,78 45,152 9,206 -73,109 -293,89 -492,-44 -198,-133 -300,-330 -227,-438 73,-109 293,-89 492,44l1 -1z"/>
   <circle class="fil9" transform="matrix(-1.36624 0.763286 1.44429 2.58519 8267.02 6044.92)" r="507"/>
   <path class="fil8" d="M7062 13143c-74,50 -134,108 -177,167l-40 66c-39,78 -45,152 -9,206 73,109 293,89 492,-44 198,-133 300,-330 227,-438 -73,-109 -293,-89 -492,44l-1 -1z"/>
   <path class="fil8" d="M7094 3614c-824,601 -1359,1574 -1359,2672 0,369 61,724 172,1056l1951 0 -316 -865 1202 -2347 -1651 -515 1 -1z"/>
   <path class="fil8" d="M9039 2979c754,0 1449,253 2005,678l0 0 -4011 0c556,-425 1251,-678 2005,-678l1 0z"/>
   <path class="fil8" d="M7036 3657c364,64 261,1131 726,1133 729,4 766,424 495,917 611,-401 915,-973 910,-1716 843,-123 980,-167 758,322 404,-201 492,-439 14,-743l-2903 86 0 1z"/>
   <path class="fil10" d="M11233 8768c95,-85 186,-174 271,-269 -318,-934 -783,-1391 -1992,-505 -492,424 -1161,1010 1721,775l0 -1z"/>
   <ellipse class="fil11" cx="11127" cy="6114" rx="693" ry="914"/>
   <path class="fil8" d="M11441 2571c-291,28 -542,188 -709,423 207,-125 455,-210 727,-235 272,-26 531,10 758,94 -208,-199 -484,-310 -776,-282z"/>
   <ellipse class="fil10" cx="11054" cy="6018" rx="620" ry="818"/>
   <circle class="fil8" cx="11479" cy="5987" r="231"/>
   <path class="fil2" d="M8833 6410l-17 -78 3 0 3 0 3 0 3 0 3 0 3 0 3 0 3 0 3 1 3 1 3 1 3 1 3 1 3 1 3 1 2 1 2 1 2 1 2 1 2 1 2 1 2 2 2 2 2 2 1 2 1 2 1 2 1 2 1 2 1 2 1 2 1 2 0 2 0 2 0 2 0 2 0 2 0 2 -1 2 -1 2 -1 2 -1 2 -1 2 -1 2 -1 2 -2 2 -2 2 -2 2 -2 1 -2 1 -2 1 -2 1 -2 1 -2 1 -2 1 -3 1 -3 1 -3 1 -3 1 -3 1 -3 1 -3 1 -3 0 -3 0 0 -3zm-1127 17l1110 -95 17 78 -1110 95 -53 -67 36 -12 0 1zm0 0l17 78 -3 0 -3 0 -3 0 -3 0 -3 0 -3 0 -3 0 -3 0 -3 -1 -3 -1 -3 -1 -3 -1 -3 -1 -3 -1 -3 -1 -2 -1 -2 -1 -2 -1 -2 -1 -2 -1 -2 -1 -2 -2 -2 -2 -2 -2 -1 -2 -1 -2 -1 -2 -1 -2 -1 -2 -1 -2 -1 -2 -1 -2 0 -2 0 -2 0 -2 0 -2 0 -2 0 -2 1 -2 1 -2 1 -2 1 -2 1 -2 1 -2 1 -2 2 -2 2 -2 2 -2 2 -1 2 -1 2 -1 2 -1 2 -1 2 -1 2 -1 3 -1 3 -1 3 -1 3 -1 3 -1 3 -1 3 -1 3 0 3 0 0 3zm-3075 1985l3039 -1973 90 55 -3039 1973 -72 8 -18 -63zm0 0l90 55 -2 1 -2 1 -2 1 -3 1 -3 1 -3 1 -3 1 -3 1 -3 1 -3 1 -3 1 -3 0 -3 0 -3 0 -3 0 -3 0 -3 0 -3 0 -3 0 -3 0 -3 0 -3 0 -3 -1 -3 -1 -3 -1 -3 -1 -3 -1 -3 -1 -3 -1 -3 -1 -2 -1 -2 -1 -2 -1 -2 -2 -2 -2 -2 -2 -2 -2 -2 -2 -1 -2 -1 -2 -1 -2 -1 -2 -1 -2 -1 -2 -1 -2 0 -2 0 -2 0 -2 0 -2 0 -2 0 -2 0 -2 1 -2 1 -2 1 -2 1 -2 1 -2 1 -2 1 -2 2 -2 2 -2 2 -2 2 -2 2 -2 3 7zm2848 909l-2830 -846 54 -72 2830 846 -54 72zm0 0l54 -72 3 1 3 1 3 1 3 1 2 1 2 1 2 1 2 1 2 1 2 2 2 2 2 2 1 2 1 2 1 2 1 2 1 2 1 2 1 2 1 2 0 2 0 2 0 2 0 2 0 2 0 2 -1 2 -1 2 -1 2 -1 2 -1 2 -1 2 -1 2 -2 2 -2 2 -2 2 -2 2 -2 1 -2 1 -2 1 -2 1 -2 1 -2 1 -3 1 -3 1 -3 1 -3 1 -3 1 -3 1 -3 1 -3 0 -3 0 -3 0 -3 0 -3 0 -3 0 -3 0 -3 0 -3 0 -3 0 -3 -1 -3 -1 -3 -1 -3 -1 0 -2z"/>
   <path class="fil8" d="M8178 6198c97,-13 189,-9 267,8l81 24c89,35 148,92 158,162 19,143 -176,287 -436,323 -260,35 -487,-51 -507,-194 -19,-143 176,-287 436,-323l1 0z"/>
   <polygon class="fil8" points="6256,5720 4123,5231 6333,5360 5048,4769 6410,5206 4688,2918 6642,4949 5665,2738 6976,3997 6359,2687 7362,3972 7413,2532 7876,3638 8275,1749 8275,3342 8853,2211 8635,3124 10318,2507 9778,3149 7130,5077 6719,5874 "/>
   <path class="fil1" d="M4813 12922c1919,0 3474,384 3474,858 0,474 -1555,858 -3474,858 -1919,0 -3474,-384 -3474,-858 0,-474 1555,-858 3474,-858z"/>
   <path class="fil2" d="M7243 7740l-2 -2 -2 -2 -2 -2 -2 -2 -2 -2 -1 -2 -1 -2 -1 -2 -1 -2 -1 -2 -1 -2 -1 -2 0 -2 0 -2 0 -2 0 -2 0 -2 0 -2 0 -2 1 -2 1 -2 1 -2 1 -2 1 -2 1 -2 1 -2 2 -2 2 -2 2 -2 2 -2 2 -2 2 -1 2 -1 2 -1 3 -1 3 -1 3 -1 3 -1 3 -1 3 -1 3 -1 3 -1 3 0 3 0 3 0 3 0 3 0 3 0 3 0 3 0 3 0 3 0 3 0 3 1 3 1 3 1 3 1 3 1 3 1 3 1 3 1 2 1 2 1 2 1 -91 55 -2 7zm1672 993l-16 62 -74 -8 -1581 -1048 91 -55 1581 1048 -1 1zm0 0l2 2 2 2 2 2 2 2 2 2 1 2 1 2 1 2 1 2 1 2 1 2 1 2 0 2 0 2 0 2 0 2 0 2 0 2 0 2 -1 2 -1 2 -1 2 -1 2 -1 2 -1 2 -1 2 -2 2 -2 2 -2 2 -2 2 -2 2 -2 1 -2 1 -2 1 -3 1 -3 1 -3 1 -3 1 -3 1 -3 1 -3 1 -3 1 -3 0 -3 0 -3 0 -3 0 -3 0 -3 0 -3 0 -3 0 -3 0 -3 0 -3 0 -3 -1 -3 -1 -3 -1 -3 -1 -3 -1 -3 -1 -3 -1 -3 -1 -2 -1 -2 -1 -2 -1 91 -55 2 -7zm-2494 883l-58 -70 2477 -821 58 70 -2477 821zm0 0l-3 1 -3 1 -3 1 -3 1 -3 1 -3 0 -3 0 -3 0 -3 0 -3 0 -3 0 -3 0 -3 0 -3 0 -3 0 -3 -1 -3 -1 -3 -1 -3 -1 -3 -1 -3 -1 -3 -1 -2 -1 -2 -1 -2 -1 -2 -1 -2 -1 -2 -1 -2 -2 -2 -2 -2 -2 -2 -2 -1 -2 -1 -2 -1 -2 -1 -2 -1 -2 -1 -2 0 -2 0 -2 0 -2 0 -2 0 -2 0 -2 0 -2 1 -2 1 -2 1 -2 1 -2 1 -2 1 -2 1 -2 2 -2 2 -2 2 -2 2 -2 2 -1 2 -1 2 -1 2 -1 2 -1 3 -1 3 -1 3 -1 58 70 0 2z"/>
   <path class="fil2" d="M3264 13647l115 43 -1 2 -2 2 -2 2 -2 2 -2 2 -2 2 -2 2 -2 2 -2 2 -2 2 -2 2 -3 1 -3 1 -3 1 -3 1 -3 1 -3 1 -3 1 -3 1 -3 1 -3 0 -3 0 -3 0 -3 0 -3 0 -3 0 -3 0 -3 0 -3 -1 -3 -1 -3 -1 -3 -1 -3 -1 -3 -1 -3 -1 -3 -1 -3 -2 -2 -2 -2 -2 -2 -2 -2 -2 -2 -2 -2 -2 -2 -2 -2 -2 -1 -2 -1 -2 -1 -2 -1 -2 -1 -2 -1 -2 -1 -2 0 -3 0 -3 0 -3 0 -3 0 -3 0 -3 0 -3 1 -3 1 -3 1 -3 1 -3 1 -3 2 2zm1073 -1798l-958 1840 -115 -43 958 -1840 115 43zm0 0l-115 -43 1 -2 2 -2 2 -2 2 -2 2 -2 2 -2 2 -2 2 -2 2 -2 2 -2 2 -2 3 -1 3 -1 3 -1 3 -1 3 -1 3 -1 3 -1 3 -1 3 -1 3 0 3 0 3 0 3 0 3 0 3 0 3 0 3 0 3 1 3 1 3 1 3 1 3 1 3 1 3 1 3 1 3 2 2 2 2 2 2 2 2 2 2 2 2 2 2 2 2 2 1 2 1 2 1 2 1 2 1 2 1 2 1 2 0 3 0 3 0 3 0 3 0 3 0 3 0 3 -1 3 -1 3 -1 3 -1 3 -1 3 -2 -2z"/>
   <circle class="fil3" cx="4944" cy="6645" r="3307"/>
   <g style="clip-path:url(#id6)">
    <polygon class="fil0" style="mask:url(#id7)" points="1634,3334 8255,3334 8255,9955 1634,9955 "/>
   </g>
   <g style="clip-path:url(#id9)">
    <g>
     <path id="1" class="fil4" style="mask:url(#id10)" d="M4944 3338c-1826,0 -3307,1480 -3307,3307 0,1826 1481,3307 3307,3307 1826,0 3307,-1481 3307,-3307 0,-1826 -1480,-3307 -3307,-3307z"/>
    </g>
   </g>
   <polygon class="fil0" points="1634,9955 8255,9955 8255,3334 1634,3334 "/>
   <path class="fil2" d="M6539 13647l1 3 1 3 1 3 1 3 1 3 0 3 0 3 0 3 0 3 0 3 0 3 0 3 -1 3 -1 2 -1 2 -1 2 -1 2 -1 2 -1 2 -2 2 -2 2 -2 2 -2 2 -2 2 -2 2 -2 2 -2 2 -3 2 -3 1 -3 1 -3 1 -3 1 -3 1 -3 1 -3 1 -3 1 -3 0 -3 0 -3 0 -3 0 -3 0 -3 0 -3 0 -3 0 -3 -1 -3 -1 -3 -1 -3 -1 -3 -1 -3 -1 -3 -1 -3 -1 -3 -1 -2 -2 -2 -2 -2 -2 -2 -2 -2 -2 -2 -2 -2 -2 -2 -2 -2 -2 -2 -2 -1 -2 116 -43 1 -3zm-1074 -1797l116 -43 958 1840 -116 43 -958 -1840zm0 0l-1 -3 -1 -3 -1 -3 -1 -3 -1 -3 0 -3 0 -3 0 -3 0 -3 0 -3 0 -3 0 -3 1 -3 1 -2 1 -2 1 -2 1 -2 1 -2 1 -2 2 -2 2 -2 2 -2 2 -2 2 -2 2 -2 2 -2 2 -2 3 -2 3 -1 3 -1 3 -1 3 -1 3 -1 3 -1 3 -1 3 -1 3 0 3 0 3 0 3 0 3 0 3 0 3 0 3 0 3 1 3 1 3 1 3 1 3 1 3 1 3 1 3 1 3 1 2 2 2 2 2 2 2 2 2 2 2 2 2 2 2 2 2 2 2 2 1 2 -116 43 -1 3z"/>
   <rect class="fil5" x="3438" y="9584" width="3013" height="2137"/>
   <path class="fil6" d="M3438 9746l0 239 3013 397 0 -239 -3013 -397zm0 562l0 239 3013 397 0 -239 -3013 -397zm0 562l0 239 3013 397 0 -239 -3013 -397z"/>
   <path class="fil7" d="M5588 12021c-157,0 -302,-112 -418,-300l0 0 837 0c-116,188 -261,300 -418,300l-1 0z"/>
   <path class="fil7" d="M4301 12021c-157,0 -302,-112 -418,-300l0 0 837 0c-116,188 -261,300 -418,300l-1 0z"/>
   <path class="fil8" d="M6845 13502c74,50 134,108 177,167l40 66c39,78 45,152 9,206 -73,109 -293,89 -492,-44 -198,-133 -300,-330 -227,-438 73,-109 293,-89 492,44l1 -1z"/>
   <circle class="fil9" transform="matrix(-1.36624 0.763286 1.44429 2.58519 4163.27 6404.3)" r="507"/>
   <path class="fil8" d="M2958 13502c-74,50 -134,108 -177,167l-40 66c-39,78 -45,152 -9,206 73,109 293,89 492,-44 198,-133 300,-330 227,-438 -73,-109 -293,-89 -492,44l-1 -1z"/>
   <path class="fil8" d="M2991 3973c-824,601 -1359,1574 -1359,2672 0,369 61,724 172,1056l1951 0 -316 -865 1202 -2347 -1651 -515 1 -1z"/>
   <path class="fil8" d="M4935 3338c754,0 1449,253 2005,678l0 0 -4011 0c556,-425 1251,-678 2005,-678l1 0z"/>
   <path class="fil8" d="M2933 4017c364,64 261,1131 726,1133 729,4 766,424 495,917 611,-401 915,-973 910,-1716 843,-123 980,-167 758,322 404,-201 492,-439 14,-743l-2903 86 0 1z"/>
   <path class="fil10" d="M7129 9127c95,-85 186,-174 271,-269 -318,-934 -783,-1391 -1992,-505 -492,424 -1161,1010 1721,775l0 -1z"/>
   <ellipse class="fil11" cx="7023" cy="6473" rx="693" ry="914"/>
   <path class="fil8" d="M7338 2930c-291,28 -542,188 -709,423 207,-125 455,-210 727,-235 272,-26 531,10 758,94 -208,-199 -484,-310 -776,-282z"/>
   <ellipse class="fil10" cx="6950" cy="6377" rx="620" ry="818"/>
   <circle class="fil8" cx="7375" cy="6346" r="231"/>
   <path class="fil2" d="M4729 6769l-17 -78 3 0 3 0 3 0 3 0 3 0 3 0 3 0 3 0 3 1 3 1 3 1 3 1 3 1 3 1 3 1 2 1 2 1 2 1 2 1 2 1 2 1 2 2 2 2 2 2 1 2 1 2 1 2 1 2 1 2 1 2 1 2 1 2 0 2 0 2 0 2 0 2 0 2 0 2 -1 2 -1 2 -1 2 -1 2 -1 2 -1 2 -1 2 -2 2 -2 2 -2 2 -2 1 -2 1 -2 1 -2 1 -2 1 -2 1 -2 1 -3 1 -3 1 -3 1 -3 1 -3 1 -3 1 -3 1 -3 0 -3 0 0 -3zm-1127 17l1110 -95 17 78 -1110 95 -53 -67 36 -12 0 1zm0 0l17 78 -3 0 -3 0 -3 0 -3 0 -3 0 -3 0 -3 0 -3 0 -3 -1 -3 -1 -3 -1 -3 -1 -3 -1 -3 -1 -3 -1 -2 -1 -2 -1 -2 -1 -2 -1 -2 -1 -2 -1 -2 -2 -2 -2 -2 -2 -1 -2 -1 -2 -1 -2 -1 -2 -1 -2 -1 -2 -1 -2 -1 -2 0 -2 0 -2 0 -2 0 -2 0 -2 0 -2 1 -2 1 -2 1 -2 1 -2 1 -2 1 -2 1 -2 2 -2 2 -2 2 -2 2 -1 2 -1 2 -1 2 -1 2 -1 2 -1 2 -1 3 -1 3 -1 3 -1 3 -1 3 -1 3 -1 3 -1 3 0 3 0 0 3zm-3075 1985l3039 -1973 90 55 -3039 1973 -72 8 -18 -63zm0 0l90 55 -2 1 -2 1 -2 1 -3 1 -3 1 -3 1 -3 1 -3 1 -3 1 -3 1 -3 1 -3 0 -3 0 -3 0 -3 0 -3 0 -3 0 -3 0 -3 0 -3 0 -3 0 -3 0 -3 -1 -3 -1 -3 -1 -3 -1 -3 -1 -3 -1 -3 -1 -3 -1 -2 -1 -2 -1 -2 -1 -2 -2 -2 -2 -2 -2 -2 -2 -2 -2 -1 -2 -1 -2 -1 -2 -1 -2 -1 -2 -1 -2 -1 -2 0 -2 0 -2 0 -2 0 -2 0 -2 0 -2 0 -2 1 -2 1 -2 1 -2 1 -2 1 -2 1 -2 1 -2 2 -2 2 -2 2 -2 2 -2 2 -2 3 7zm2848 909l-2830 -846 54 -72 2830 846 -54 72zm0 0l54 -72 3 1 3 1 3 1 3 1 2 1 2 1 2 1 2 1 2 1 2 2 2 2 2 2 1 2 1 2 1 2 1 2 1 2 1 2 1 2 1 2 0 2 0 2 0 2 0 2 0 2 0 2 -1 2 -1 2 -1 2 -1 2 -1 2 -1 2 -1 2 -2 2 -2 2 -2 2 -2 2 -2 1 -2 1 -2 1 -2 1 -2 1 -2 1 -3 1 -3 1 -3 1 -3 1 -3 1 -3 1 -3 1 -3 0 -3 0 -3 0 -3 0 -3 0 -3 0 -3 0 -3 0 -3 0 -3 0 -3 -1 -3 -1 -3 -1 -3 -1 0 -2z"/>
   <path class="fil8" d="M4074 6557c97,-13 189,-9 267,8l81 24c89,35 148,92 158,162 19,143 -176,287 -436,323 -260,35 -487,-52 -507,-194 -19,-143 176,-287 436,-323l1 0z"/>
   <polygon class="fil8" points="2153,6079 19,5591 2230,5719 944,5128 2307,5565 585,3277 2538,5308 1561,3097 2872,4357 2255,3046 3258,4331 3309,2892 3772,3997 4171,2108 4171,3701 4750,2570 4531,3483 6214,2866 5674,3509 3026,5436 2615,6233 "/>
   <path class="fil2" d="M18739 8136l-117 42 -2 -2 -1 -2 -1 -2 -1 -2 -1 -2 -1 -2 -1 -2 0 -2 0 -2 0 -2 0 -2 0 -2 0 -2 1 -2 1 -2 1 -2 1 -2 1 -2 1 -2 1 -2 2 -2 2 -2 2 -2 2 -2 2 -2 2 -2 2 -1 2 -1 3 -1 3 -1 3 -1 3 -1 3 -1 3 -1 3 -1 3 -1 3 -1 3 0 3 0 3 0 3 0 3 0 3 0 3 0 3 0 3 0 3 0 3 1 3 1 3 1 3 1 3 1 3 1 3 1 3 1 3 1 3 1 2 1 2 1 2 2 2 2 2 2 2 2 2 2 1 -1zm1421 1775l-1538 -1734 117 -42 1538 1734 4 37 -121 5zm0 0l117 -42 2 2 1 2 1 2 1 2 1 2 1 2 1 2 0 2 0 2 0 2 0 2 0 2 0 2 -1 2 -1 2 -1 2 -1 2 -1 2 -1 2 -1 2 -2 2 -2 2 -2 2 -2 2 -2 2 -2 2 -2 1 -2 1 -3 1 -3 1 -3 1 -3 1 -3 1 -3 1 -3 1 -3 1 -3 1 -3 0 -3 0 -3 0 -3 0 -3 0 -3 0 -3 0 -3 0 -3 0 -3 0 -3 -1 -3 -1 -3 -1 -3 -1 -3 -1 -3 -1 -3 -1 -3 -1 -3 -1 -3 -1 -2 -1 -2 -1 -2 -2 -2 -2 -2 -2 -2 -2 -2 -2 -1 1zm1310 -1870l-1188 1866 -125 -32 1188 -1866 125 32zm0 0l-125 -32 1 -2 2 -2 2 -2 2 -2 2 -2 2 -2 2 -2 2 -2 2 -1 2 -1 3 -1 3 -1 3 -1 3 -1 3 -1 3 -1 3 -1 3 -1 3 -1 3 0 3 0 3 0 3 0 3 0 3 0 3 0 3 0 3 0 3 0 3 1 3 1 3 1 3 1 3 1 3 1 3 1 3 1 3 1 3 1 2 1 2 2 2 2 2 2 2 2 2 2 2 2 1 2 1 2 1 2 1 2 1 2 1 2 1 2 0 2 0 2 0 2 0 2 0 2 0 2 -1 2 -1 2 -1 2 -1 2 -1 2 3 0z"/>
   <path class="fil2" d="M24767 12393l1 3 1 3 1 3 1 3 1 3 0 3 0 3 0 3 0 3 0 3 0 3 -1 3 -1 3 -1 3 -1 3 -1 3 -1 3 -1 2 -2 2 -2 2 -2 2 -2 2 -2 2 -2 2 -2 2 -2 2 -3 2 -3 2 -3 2 -3 1 -3 1 -3 1 -3 1 -3 1 -3 1 -3 1 -3 1 -3 0 -3 0 -3 0 -3 0 -3 0 -3 0 -3 0 -3 -1 -3 -1 -3 -1 -3 -1 -3 -1 -3 -1 -3 -1 -3 -1 -3 -2 -3 -2 -3 -2 -2 -2 -2 -2 -2 -2 -2 -2 -2 -2 -2 -2 -2 -2 -2 -3 -1 -3 124 -46 -2 -3zm-1153 -1931l124 -46 1029 1977 -124 46 -1029 -1977zm0 0l-1 -3 -1 -3 -1 -3 -1 -3 -1 -3 0 -3 0 -3 0 -3 0 -3 0 -3 0 -3 1 -3 1 -3 1 -3 1 -3 1 -3 1 -3 1 -2 2 -2 2 -2 2 -2 2 -2 2 -2 2 -2 2 -2 2 -2 3 -2 3 -2 3 -2 3 -1 3 -1 3 -1 3 -1 3 -1 3 -1 3 -1 3 -1 3 0 3 0 3 0 3 0 3 0 3 0 3 0 3 1 3 1 3 1 3 1 3 1 3 1 3 1 3 1 3 2 3 2 3 2 2 2 2 2 2 2 2 2 2 2 2 2 2 2 2 3 1 3 -124 46 2 3z"/>
   <circle class="fil12" cx="22962" cy="4870" r="3552"/>
   <g style="clip-path:url(#id12)">
    <polygon class="fil0" style="mask:url(#id13)" points="19406,1314 26519,1314 26519,8427 19406,8427 "/>
   </g>
   <g style="clip-path:url(#id15)">
    <g>
     <path id="1" class="fil13" style="mask:url(#id16)" d="M22962 1318c1962,0 3552,1590 3552,3552 0,1962 -1590,3552 -3552,3552 -1962,0 -3552,-1590 -3552,-3552 0,-1962 1591,-3552 3552,-3552z"/>
    </g>
   </g>
   <polygon class="fil0" points="19406,8427 26519,8427 26519,1314 19406,1314 "/>
   <path class="fil2" d="M21249 12393l124 46 -1 3 -2 3 -2 2 -2 2 -2 2 -2 2 -2 2 -2 2 -2 2 -3 2 -3 2 -3 2 -3 1 -3 1 -3 1 -3 1 -3 1 -3 1 -3 1 -3 1 -3 0 -3 0 -3 0 -3 0 -3 0 -3 0 -3 0 -3 -1 -3 -1 -3 -1 -3 -1 -3 -1 -3 -1 -3 -1 -3 -1 -3 -2 -3 -2 -3 -2 -2 -2 -2 -2 -2 -2 -2 -2 -2 -2 -2 -2 -2 -2 -2 -2 -1 -2 -1 -3 -1 -3 -1 -3 -1 -3 -1 -3 -1 -3 0 -3 0 -3 0 -3 0 -3 0 -3 0 -3 1 -3 1 -3 1 -3 1 -3 1 -3 -2 3zm1153 -1931l-1029 1977 -124 -46 1029 -1977 124 46zm0 0l-124 -46 1 -3 2 -3 2 -2 2 -2 2 -2 2 -2 2 -2 2 -2 2 -2 3 -2 3 -2 3 -2 3 -1 3 -1 3 -1 3 -1 3 -1 3 -1 3 -1 3 -1 3 0 3 0 3 0 3 0 3 0 3 0 3 0 3 1 3 1 3 1 3 1 3 1 3 1 3 1 3 1 3 2 3 2 3 2 2 2 2 2 2 2 2 2 2 2 2 2 2 2 2 2 1 2 1 3 1 3 1 3 1 3 1 3 1 3 0 3 0 3 0 3 0 3 0 3 0 3 -1 3 -1 3 -1 3 -1 3 -1 3 2 -3z"/>
   <rect class="fil5" x="21344" y="8028" width="3237" height="2296"/>
   <path class="fil6" d="M24581 8201l0 257 -3237 426 0 -257 3237 -426zm0 603l0 257 -3237 426 0 -257 3237 -426zm0 603l0 257 -3237 426 0 -257 3237 -426z"/>
   <path class="fil7" d="M22271 10646c169,0 325,-120 449,-322l0 0 -899 0c125,202 280,322 449,322l1 0z"/>
   <path class="fil7" d="M23653 10646c169,0 325,-120 449,-322l0 0 -899 0c125,202 280,322 449,322l1 0z"/>
   <path class="fil8" d="M20920 12237c-79,53 -144,116 -190,179l-43 71c-42,84 -49,163 -10,221 78,117 315,95 528,-48 213,-143 322,-354 244,-471 -78,-117 -315,-95 -528,48l-1 0z"/>
   <circle class="fil14" transform="matrix(1.46775 0.819999 -1.5516 2.77727 23801.1 4611.6)" r="507"/>
   <path class="fil8" d="M25095 12237c79,53 144,116 190,179l43 71c42,84 49,163 10,221 -78,117 -315,95 -528,-48 -213,-143 -322,-354 -244,-471 78,-117 315,-95 528,48l1 0z"/>
   <path class="fil8" d="M25061 2000c885,646 1460,1691 1460,2871 0,397 -65,778 -185,1134l-2096 0 339 -930 -1291 -2522 1774 -553 -1 0z"/>
   <path class="fil8" d="M22972 1318c-810,0 -1557,271 -2154,728l0 0 4309 0c-598,-457 -1344,-728 -2154,-728l-1 0z"/>
   <path class="fil8" d="M25123 2047c-391,69 -280,1215 -780,1218 -783,5 -1733,1062 -2213,1399l704 -2257c-591,-25 -1160,178 -1724,428l894 -881 3119 92 0 1z"/>
   <path class="fil10" d="M20615 7537c-102,-91 -199,-187 -291,-289 -924,-1785 2293,-515 831,134 -176,78 -357,130 -540,155z"/>
   <ellipse class="fil11" cx="20729" cy="4686" rx="744" ry="982"/>
   <path class="fil8" d="M20221 2757c261,-176 578,-213 877,-132 -257,37 -521,136 -764,300 -243,164 -434,371 -565,595 37,-308 191,-587 452,-763l0 0z"/>
   <ellipse class="fil10" cx="20807" cy="4582" rx="666" ry="879"/>
   <circle class="fil8" cx="20358" cy="4735" r="248"/>
   <path class="fil2" d="M26526 10345l1 2 0 2 0 2 0 2 0 2 0 2 0 2 -1 2 -1 2 -1 2 -1 2 -1 2 -1 2 -1 2 -2 2 -2 2 -2 2 -2 2 -2 2 -2 2 -2 1 -2 1 -3 1 -3 1 -3 1 -3 1 -3 1 -3 1 -3 1 -3 1 -3 1 -3 0 -3 0 -3 0 -3 0 -3 0 -3 0 -3 0 -3 0 -3 0 -3 0 -3 -1 -3 -1 -3 -1 -3 -1 -3 -1 -3 -1 -3 -1 -3 -1 -3 -1 -2 -1 -2 -1 -2 -1 -2 -2 -2 -2 -2 -2 -2 -2 -2 -2 -2 -2 -1 -2 -1 -2 -1 -2 -1 -2 -1 -2 132 -17 -3 0zm-522 -1200l117 -37 15 20 390 1216 -132 17 -390 -1216zm0 0l-1 -2 0 -2 0 -2 0 -2 0 -2 0 -2 0 -2 1 -2 1 -2 1 -2 1 -2 1 -2 1 -2 1 -2 2 -2 2 -2 2 -2 2 -2 2 -2 2 -2 2 -1 2 -1 3 -1 3 -1 3 -1 3 -1 3 -1 3 -1 3 -1 3 -1 3 -1 3 0 3 0 3 0 3 0 3 0 3 0 3 0 3 0 3 0 3 0 3 1 3 1 3 1 3 1 3 1 3 1 3 1 3 1 3 1 2 1 2 1 2 1 2 2 2 2 2 2 2 2 2 2 2 2 1 2 1 2 1 2 1 2 1 2 -132 17 3 0zm-1435 -1026l101 -56 1450 1045 -101 56 -1450 -1045zm0 0l-2 -2 -2 -2 -2 -2 -2 -2 -2 -2 -1 -2 -1 -2 -1 -2 -1 -2 -1 -2 -1 -2 0 -2 0 -2 0 -2 0 -2 0 -2 0 -2 0 -2 1 -2 1 -2 1 -2 1 -2 1 -2 1 -2 2 -2 2 -2 2 -2 2 -2 2 -2 2 -2 2 -2 3 -1 3 -1 3 -1 3 -1 3 -1 3 -1 3 -1 3 -1 3 -1 3 -1 3 -1 3 0 3 0 3 0 3 0 3 0 3 0 3 0 3 0 3 0 3 0 3 1 3 1 3 1 3 1 3 1 3 1 3 1 3 1 3 1 3 1 2 2 2 2 -101 56 0 3z"/>
   <path class="fil8" d="M26292 10654c56,89 123,162 191,215l76 50c90,49 178,59 242,18 131,-83 115,-343 -36,-582 -151,-239 -379,-365 -510,-283 -131,83 -115,343 36,582l1 0z"/>
   <polygon class="fil15" points="15623,5833 19674,6414 19674,7052 19674,7691 15623,8272 15623,7052 "/>
   <g style="clip-path:url(#id18)">
    <polygon class="fil16" style="mask:url(#id19)" points="15620,5566 19678,5566 19678,8538 15620,8538 "/>
   </g>
   <g style="clip-path:url(#id21)">
    <g>
     <polygon id="1" class="fil7" style="mask:url(#id22)" points="15623,5833 19674,6414 19674,7052 19674,7691 15623,8272 15623,7052 "/>
    </g>
   </g>
   <polygon class="fil0" points="15620,8275 19678,8275 19678,5829 15620,5829 "/>
   <polyline class="fil0 str0" points="17578,7828 17754,8555 19410,8054 19397,7728 "/>
   <path class="fil8" d="M19060 8244c8,105 -1,203 -25,286l-31 86c-43,93 -108,154 -183,160 -154,12 -297,-206 -319,-488 -22,-281 85,-519 239,-532 154,-12 297,206 319,488z"/>
   <line class="fil0 str0" x1="15472" y1="6233" x2="13569" y2= "5957" />
   <line class="fil0 str0" x1="15472" y1="7109" x2="13594" y2= "7009" />
   <line class="fil0 str0" x1="15472" y1="7935" x2="13569" y2= "8211" />
   <ellipse class="fil0 str1" cx="12458" cy="11424" rx="512" ry="245"/>
   <ellipse class="fil0 str2" cx="15944" cy="12003" rx="1072" ry="513"/>
   <ellipse class="fil0 str2" cx="22038" cy="14685" rx="791" ry="379"/>
   <ellipse class="fil0 str2" cx="11446" cy="14950" rx="1072" ry="513"/>
   <ellipse class="fil0 str1" cx="2444" cy="12271" rx="512" ry="245"/>
  </g>
 </g>
</svg>
