<?xml version="1.0" encoding="UTF-8"?>
<!DOCTYPE svg PUBLIC "-//W3C//DTD SVG 1.1//EN" "http://www.w3.org/Graphics/SVG/1.1/DTD/svg11.dtd">
<!-- Creator: CorelDRAW X6 -->
<svg xmlns="http://www.w3.org/2000/svg" xml:space="preserve" width="269.092mm" height="167.801mm" version="1.1" style="shape-rendering:geometricPrecision; text-rendering:geometricPrecision; image-rendering:optimizeQuality; fill-rule:evenodd; clip-rule:evenodd"
viewBox="0 0 26909 16780"
 xmlns:xlink="http://www.w3.org/1999/xlink">
 <defs>
  <style type="text/css">
   <![CDATA[
    .str0 {stroke:#939395;stroke-width:141.11}
    .fil0 {fill:none}
    .fil7 {fill:#2B2A29}
    .fil10 {fill:#5B5B5B}
    .fil11 {fill:#9D9E9E}
    .fil6 {fill:#E31E24}
    .fil12 {fill:#EBECEC}
    .fil3 {fill:#EF7F1A}
    .fil4 {fill:#F6B096}
    .fil8 {fill:#FACDA8}
    .fil9 {fill:#FEFEFE}
    .fil5 {fill:#FFED00}
    .fil2 {fill:#2B2A29;fill-rule:nonzero}
    .fil1 {fill:#1C1B17;fill-opacity:0.290196}
   ]]>
  </style>
    <clipPath id="id0">
     <path d="M9369 11241l6348 0 0 -6348 -6348 0 0 6348z"/>
    </clipPath>
     <mask id="id1">
  <linearGradient id="id2" gradientUnits="userSpaceOnUse" x1="12543.1" y1="11241.1" x2="12543.1" y2="4893.03">
   <stop offset="0" style="stop-opacity:1; stop-color:white"/>
   <stop offset="1" style="stop-opacity:0; stop-color:white"/>
  </linearGradient>
      <rect style="fill:url(#id2)" x="9369" y="4893" width="6348" height="6348"/>
     </mask>
    <clipPath id="id3">
     <path d="M9369 11241l6348 0 0 -6348 -6348 0 0 6348z"/>
    </clipPath>
      <mask id="id4">
  <linearGradient id="id5" gradientUnits="userSpaceOnUse" x1="12543.1" y1="11237.1" x2="12543.1" y2="4897.03">
   <stop offset="0" style="stop-opacity:1; stop-color:white"/>
   <stop offset="1" style="stop-opacity:0; stop-color:white"/>
  </linearGradient>
       <rect style="fill:url(#id5)" x="9369" y="4893" width="6348" height="6348"/>
      </mask>
 </defs>
 <g id="Layer_x0020_1">
  <metadata id="CorelCorpID_0Corel-Layer"/>
  <g id="_250365488">
   <rect class="fil0" width="26909" height="16780"/>
   <path class="fil1" d="M12803 14356c1707,0 3091,302 3091,675 0,373 -1384,675 -3091,675 -1707,0 -3091,-302 -3091,-675 0,-373 1384,-675 3091,-675z"/>
   <g>
    <path class="fil2" d="M14154 14779l1 2 1 2 1 2 1 2 1 2 0 2 0 2 0 2 0 2 0 2 0 2 0 2 -1 2 -1 2 -1 2 -1 2 -1 2 -1 2 -1 2 -1 2 -2 2 -2 2 -2 2 -2 2 -2 2 -2 2 -2 2 -2 2 -3 1 -3 1 -3 1 -3 1 -3 1 -3 1 -3 1 -3 1 -3 0 -3 0 -3 0 -3 0 -3 0 -3 0 -3 0 -3 0 -3 -1 -3 -1 -3 -1 -3 -1 -3 -1 -3 -1 -3 -1 -2 -1 -2 -1 -2 -1 -2 -2 -2 -2 -2 -2 -2 -2 -2 -2 -2 -2 -2 -2 -2 -2 -1 -2 -1 -2 110 -41 2 7zm-285 -295l110 -41 0 0 175 336 -110 41 -175 -336zm0 0l-1 -2 -1 -2 -1 -2 -1 -2 -1 -2 0 -2 0 -2 0 -2 0 -2 0 -2 0 -2 0 -2 1 -2 1 -2 1 -2 1 -2 1 -2 1 -2 1 -2 1 -2 2 -2 2 -2 2 -2 2 -2 2 -2 2 -2 2 -2 2 -2 3 -1 3 -1 3 -1 3 -1 3 -1 3 -1 3 -1 3 -1 3 0 3 0 3 0 3 0 3 0 3 0 3 0 3 0 3 1 3 1 3 1 3 1 3 1 3 1 3 1 2 1 2 1 2 1 2 2 2 2 2 2 2 2 2 2 2 2 2 2 2 2 1 2 1 2 -110 41 -2 -7zm-743 -1428l110 -41 743 1428 -110 41 -743 -1428zm0 0l-1 -2 -1 -2 -1 -2 -1 -2 -1 -2 0 -2 0 -2 0 -2 0 -2 0 -2 0 -2 0 -2 1 -2 1 -2 1 -2 1 -2 1 -2 1 -2 1 -2 1 -2 2 -2 2 -2 2 -2 2 -2 2 -2 2 -2 2 -2 2 -2 3 -1 3 -1 3 -1 3 -1 3 -1 3 -1 3 -1 3 -1 3 0 3 0 3 0 3 0 3 0 3 0 3 0 3 0 3 1 3 1 3 1 3 1 3 1 3 1 3 1 2 1 2 1 2 1 2 2 2 2 2 2 2 2 2 2 2 2 2 2 2 2 1 2 1 2 -110 41 -2 -7z"/>
   </g>
   <circle class="fil3" transform="matrix(1.05706 -0.467432 0.884474 2.00017 9686.94 9305.88)" r="507"/>
   <circle class="fil4" transform="matrix(0.521987 -0.230822 0.436761 0.987704 9686.94 9305.89)" r="507"/>
   <circle class="fil3" transform="matrix(-1.05706 -0.467432 -0.884474 2.00017 15415.1 9305.88)" r="507"/>
   <circle class="fil4" transform="matrix(-0.521987 -0.230822 -0.436761 0.987704 15415.1 9305.89)" r="507"/>
   <circle class="fil5" cx="12543" cy="8067" r="3170"/>
   <g style="clip-path:url(#id0)">
    <polygon class="fil0" style="mask:url(#id1)" points="9369,4893 15717,4893 15717,11241 9369,11241 "/>
   </g>
   <g style="clip-path:url(#id3)">
    <g>
     <path id="1" class="fil6" style="mask:url(#id4)" d="M12543 4897c1751,0 3170,1419 3170,3170 0,1751 -1419,3170 -3170,3170 -1751,0 -3170,-1419 -3170,-3170 0,-1751 1419,-3170 3170,-3170z"/>
    </g>
   </g>
   <polygon class="fil0" points="9369,11241 15717,11241 15717,4893 9369,4893 "/>
   <path class="fil7" d="M12546 4897c723,0 1389,242 1922,650l0 0 -3845 0c533,-407 1200,-650 1922,-650l1 0z"/>
   <ellipse class="fil8" cx="11244" cy="7894" rx="664" ry="876"/>
   <ellipse class="fil8" cx="13794" cy="7894" rx="664" ry="876"/>
   <ellipse class="fil9" cx="13864" cy="7802" rx="594" ry="784"/>
   <circle class="fil7" cx="13992" cy="7251" r="221"/>
   <path class="fil7" d="M10626 5547c930,163 1697,538 2382,1019l-339 -698c528,-22 1035,159 1538,382l-798 -786 -2783 82 0 1z"/>
   <path class="fil7" d="M11019 6570c268,-85 548,-37 784,108 -229,-33 -480,-15 -729,64 -249,79 -465,208 -634,367 109,-254 312,-454 579,-539z"/>
   <path class="fil7" d="M14751 6017c-237,-151 -520,-177 -785,-98 230,27 468,110 688,250 220,141 395,321 517,518 -40,-274 -184,-520 -420,-670z"/>
   <path class="fil9" d="M13680 9555c-739,-802 -1564,53 -2138,773 1092,-675 2142,-755 2138,-773z"/>
   <ellipse class="fil9" cx="11314" cy="7802" rx="594" ry="784"/>
   <circle class="fil7" cx="11597" cy="7400" r="221"/>
   <g>
    <path class="fil2" d="M11441 14847l118 22 -1 3 -1 2 -1 2 -1 2 -1 2 -1 2 -2 2 -2 2 -2 2 -2 2 -2 2 -2 2 -2 2 -2 2 -2 1 -2 1 -2 1 -3 1 -3 1 -3 1 -3 1 -3 1 -3 1 -3 1 -3 0 -3 0 -3 0 -3 0 -3 0 -3 0 -3 0 -3 -1 -3 -1 -3 -1 -3 -1 -3 -1 -3 -1 -3 -1 -3 -1 -2 -1 -2 -2 -2 -2 -2 -2 -2 -2 -2 -2 -2 -2 -2 -2 -2 -2 -1 -2 -1 -2 -1 -2 -1 -2 -1 -2 -1 -2 -1 -2 -1 -2 0 -2 0 -2 0 -3 0 -3 0 -3 0 -3 0 -3 1 -3 1 2zm606 -1800l-488 1823 -118 -22 488 -1823 118 22zm0 0l-118 -22 1 -3 1 -2 1 -2 1 -2 1 -2 1 -2 2 -2 2 -2 2 -2 2 -2 2 -2 2 -2 2 -2 2 -2 2 -1 2 -1 2 -1 3 -1 3 -1 3 -1 3 -1 3 -1 3 -1 3 -1 3 0 3 0 3 0 3 0 3 0 3 0 3 0 3 1 3 1 3 1 3 1 3 1 3 1 3 1 3 1 2 1 2 2 2 2 2 2 2 2 2 2 2 2 2 2 2 2 2 2 1 2 1 2 1 2 1 2 1 2 1 2 1 2 0 2 0 2 0 3 0 3 0 3 0 3 0 3 -1 3 -2 -2z"/>
   </g>
   <rect class="fil10" x="11099" y="10885" width="2889" height="2049"/>
   <path class="fil11" d="M13987 11039l0 229 -2889 380 0 -229 2889 -380zm0 538l0 229 -2889 380 0 -229 2889 -380zm0 538l0 229 -2889 380 0 -229 2889 -380z"/>
   <g>
    <path class="fil11" d="M11926 13221c151,0 290,-107 401,-287l0 0 -802 0c111,180 250,287 401,287z"/>
    <path class="fil11" d="M13160 13221c151,0 290,-107 401,-287l0 0 -802 0c111,180 250,287 401,287z"/>
   </g>
   <path class="fil7" d="M11132 14895c-71,47 -129,103 -170,160l-39 63c-37,75 -43,146 -9,197 70,104 281,85 471,-43 190,-128 288,-316 218,-420 -70,-104 -281,-85 -471,43z"/>
   <path class="fil7" d="M10134 5318c-88,-32 -165,-76 -224,-125l-58 -57c-60,-69 -85,-144 -63,-208 47,-130 277,-166 514,-81 237,85 391,259 345,389 -47,130 -277,166 -514,81l0 1z"/>
   <path class="fil7" d="M14447 14640c71,47 129,103 170,160l39 63c37,75 43,146 9,197 -70,104 -281,85 -471,-43 -190,-128 -288,-316 -218,-420 70,-104 281,-85 471,43z"/>
   <path class="fil7" d="M13041 9931c-93,11 -178,37 -246,72l-69 42c-74,54 -116,121 -108,188 16,137 232,224 482,194 250,-30 440,-165 423,-302 -16,-137 -232,-224 -482,-194z"/>
   <g>
    <path class="fil2" d="M11003 5242l56 -67 3 1 3 1 2 1 2 1 2 1 2 1 2 1 2 1 2 1 2 2 2 2 1 2 1 2 1 2 1 2 1 2 1 2 1 2 1 2 0 2 0 2 0 2 0 2 0 2 0 2 0 2 -1 2 -1 2 -1 2 -1 2 -1 2 -1 2 -2 2 -2 2 -2 2 -2 2 -2 1 -2 1 -2 1 -2 1 -2 1 -2 1 -2 1 -3 1 -3 1 -3 1 -3 1 -3 1 -3 1 -3 0 -3 0 -3 0 -3 0 -3 0 -3 0 -3 0 -3 0 -3 0 -3 0 -3 0 -3 -1 -3 -1 -3 -1 -3 -1 3 -5zm-1143 -463l1199 396 -56 67 -1199 -396 -28 -48 84 -20 0 1zm0 0l-56 67 -3 -1 -3 -1 -2 -1 -2 -1 -2 -1 -2 -1 -2 -1 -2 -1 -2 -1 -2 -2 -2 -2 -1 -2 -1 -2 -1 -2 -1 -2 -1 -2 -1 -2 -1 -2 -1 -2 0 -2 0 -2 0 -2 0 -2 0 -2 0 -2 0 -2 1 -2 1 -2 1 -2 1 -2 1 -2 1 -2 2 -2 2 -2 2 -2 2 -2 2 -1 2 -1 2 -1 2 -1 2 -1 2 -1 2 -1 3 -1 3 -1 3 -1 3 -1 3 -1 3 -1 3 0 3 0 3 0 3 0 3 0 3 0 3 0 3 0 3 0 3 0 3 0 3 1 3 1 3 1 3 1 -3 5zm-2444 3801l2360 -3781 112 28 -2360 3781 -99 13 -13 -41zm0 0l112 28 -1 2 -1 2 -1 2 -2 2 -2 2 -2 1 -2 1 -2 1 -2 1 -2 1 -2 1 -2 1 -2 1 -2 1 -3 1 -3 1 -3 1 -3 1 -3 1 -3 0 -3 0 -3 0 -3 0 -3 0 -3 0 -3 0 -3 0 -3 0 -3 0 -3 0 -3 -1 -3 -1 -3 -1 -3 -1 -3 -1 -3 -1 -2 -1 -2 -1 -2 -1 -2 -1 -2 -1 -2 -1 -2 -1 -2 -1 -2 -2 -1 -2 -1 -2 -1 -2 -1 -2 -1 -2 -1 -2 -1 -2 -1 -2 0 -2 0 -2 0 -2 0 -2 0 -2 0 -2 0 -2 1 -2 1 -2 1 -2 1 -2 1 2zm3657 2391l-3644 -2351 86 -53 3644 2351 -86 53zm0 0l86 -53 2 1 2 1 2 2 2 2 2 2 1 2 1 2 1 2 1 2 1 2 1 2 1 2 0 2 0 2 0 2 0 2 0 2 0 2 0 2 -1 2 -1 2 -1 2 -1 2 -1 2 -1 2 -1 2 -1 2 -2 2 -2 2 -2 2 -2 1 -2 1 -2 1 -2 1 -2 1 -2 1 -3 1 -3 1 -3 1 -3 1 -3 1 -3 1 -3 0 -3 0 -3 0 -3 0 -3 0 -3 0 -3 0 -3 0 -3 0 -3 0 -3 0 -3 0 -3 -1 -3 -1 -3 -1 -3 -1 -3 -1 -3 -1 -2 -1 -2 -1 -2 -1 -2 -1 3 -7z"/>
   </g>
   <g>
    <path class="fil2" d="M13259 10083l-2 -1 -2 -1 -2 -1 -2 -1 -2 -2 -2 -2 -1 -2 -1 -2 -1 -2 -1 -2 -1 -2 -1 -2 -1 -2 -1 -2 0 -2 0 -2 0 -2 0 -2 0 -2 0 -2 0 -2 1 -2 1 -2 1 -2 1 -2 1 -2 1 -2 1 -2 2 -2 2 -2 2 -2 2 -2 2 -1 2 -1 2 -1 2 -1 2 -1 2 -1 3 -1 3 -1 3 -1 3 -1 3 -1 3 -1 3 0 3 0 3 0 3 0 3 0 3 0 3 0 3 0 3 0 3 0 3 0 3 1 3 1 3 1 3 1 3 1 3 1 3 1 2 1 2 1 -79 57 -4 6zm2167 1097l-54 65 -25 -8 -2088 -1154 79 -57 2088 1154zm0 0l2 1 2 1 2 1 2 1 2 2 2 2 1 2 1 2 1 2 1 2 1 2 1 2 1 2 1 2 0 2 0 2 0 2 0 2 0 2 0 2 0 2 -1 2 -1 2 -1 2 -1 2 -1 2 -1 2 -1 2 -2 2 -2 2 -2 2 -2 2 -2 1 -2 1 -2 1 -2 1 -2 1 -2 1 -3 1 -3 1 -3 1 -3 1 -3 1 -3 1 -3 0 -3 0 -3 0 -3 0 -3 0 -3 0 -3 0 -3 0 -3 0 -3 0 -3 0 -3 -1 -3 -1 -3 -1 -3 -1 -3 -1 -3 -1 -3 -1 -2 -1 -2 -1 79 -57 4 -6zm-1487 -161l29 -74 1433 226 -29 74 -1433 -226zm0 0l-3 -1 -3 -1 -3 -1 -3 -1 -3 -1 -3 -1 -2 -1 -2 -1 -2 -1 -2 -1 -2 -1 -2 -1 -2 -1 -2 -1 -2 -1 -2 -2 -1 -2 -1 -2 -1 -2 -1 -2 -1 -2 -1 -2 -1 -2 -1 -2 0 -2 0 -2 0 -2 0 -2 0 -2 0 -2 1 -2 1 -2 1 -2 1 -2 1 -2 1 -2 1 -2 1 -2 2 -2 2 -2 2 -1 2 -1 2 -1 2 -1 2 -1 2 -1 2 -1 2 -1 3 -1 3 -1 3 -1 3 -1 3 -1 3 -1 3 0 3 0 3 0 3 0 3 0 3 0 3 0 3 0 3 0 3 0 -29 74 -1 5z"/>
   </g>
   <g>
    <circle class="fil7" cx="19604" cy="4409" r="3335"/>
    <circle class="fil12" cx="19604" cy="4409" r="3197"/>
    <g>
     <g id="_839242704">
      <rect class="fil7" transform="matrix(6.41289 -3.69019 3.6902 6.41289 18031.7 1874.49)" width="26.79" height="56.76"/>
      <rect class="fil7" transform="matrix(6.41289 -3.69019 3.6902 6.41289 20795.9 6678.24)" width="26.79" height="56.76"/>
     </g>
     <g id="_839248880">
      <rect class="fil7" transform="matrix(-3.6902 -6.41289 6.41289 -3.69019 17069.9 5981.69)" width="26.79" height="56.76"/>
      <rect class="fil7" transform="matrix(-3.6902 -6.41289 6.41289 -3.69019 21873.6 3217.46)" width="26.79" height="56.76"/>
     </g>
     <g id="_839264368">
      <rect class="fil7" transform="matrix(3.73067 -6.38943 6.38943 3.73067 16979.9 2991.35)" width="26.79" height="56.76"/>
      <rect class="fil7" transform="matrix(3.73067 -6.38943 6.38943 3.73067 21766.2 5785.91)" width="26.79" height="56.76"/>
     </g>
     <g id="_839242992">
      <rect class="fil7" transform="matrix(-6.38943 -3.73067 3.73067 -6.38943 18186.7 7033.37)" width="26.79" height="56.76"/>
      <rect class="fil7" transform="matrix(-6.38943 -3.73067 3.73067 -6.38943 20981.3 2247.19)" width="26.79" height="56.76"/>
     </g>
     <g id="_839233936">
      <rect class="fil7" transform="matrix(1.95955E-013 -7.39883 7.39883 1.95955E-013 16623.2 4508.03)" width="26.79" height="56.76"/>
      <rect class="fil7" transform="matrix(1.95955E-013 -7.39883 7.39883 1.95955E-013 22165.5 4508.03)" width="26.79" height="56.76"/>
     </g>
    </g>
    <rect class="fil7" x="19505" y="1428" width="198" height="420"/>
    <rect class="fil7" x="19505" y="6970" width="198" height="420"/>
    <polygon class="fil7" points="20376,6643 19534,4601 19600,4484 19721,4534 "/>
    <polygon class="fil7" points="19275,5815 19475,4584 19597,4486 19667,4632 "/>
    <circle class="fil7" cx="19604" cy="4409" r="406"/>
   </g>
   <ellipse class="fil0 str0" cx="5723" cy="14317" rx="1072" ry="513"/>
   <ellipse class="fil0 str0" cx="18615" cy="12127" rx="1072" ry="513"/>
   <ellipse class="fil0 str0" cx="22756" cy="14495" rx="830" ry="397"/>
   <ellipse class="fil0 str0" cx="8534" cy="11929" rx="567" ry="271"/>
   <ellipse class="fil0 str0" cx="3842" cy="11595" rx="518" ry="248"/>
  </g>
 </g>
</svg>
