<?xml version="1.0" encoding="UTF-8"?>
<!DOCTYPE svg PUBLIC "-//W3C//DTD SVG 1.1//EN" "http://www.w3.org/Graphics/SVG/1.1/DTD/svg11.dtd">
<!-- Creator: CorelDRAW X6 -->
<svg xmlns="http://www.w3.org/2000/svg" xml:space="preserve" width="269.092mm" height="167.801mm" version="1.1" style="shape-rendering:geometricPrecision; text-rendering:geometricPrecision; image-rendering:optimizeQuality; fill-rule:evenodd; clip-rule:evenodd"
viewBox="0 0 28974 18068"
 xmlns:xlink="http://www.w3.org/1999/xlink">
 <defs>
  <style type="text/css">
   <![CDATA[
    .str2 {stroke:#FEFEFE;stroke-width:8.20481}
    .str1 {stroke:#2B2A29;stroke-width:18.9938}
    .str0 {stroke:#939395;stroke-width:151.94}
    .fil0 {fill:none}
    .fil12 {fill:#1C1B17}
    .fil6 {fill:#2B2A29}
    .fil9 {fill:#434242}
    .fil18 {fill:#5B5A50}
    .fil10 {fill:#5B5B5B}
    .fil11 {fill:#9D9E9E}
    .fil20 {fill:#A75F4A}
    .fil19 {fill:#AF9778}
    .fil16 {fill:#CB5499}
    .fil2 {fill:#CE7B9C}
    .fil5 {fill:#D0297F}
    .fil14 {fill:#D19DB5}
    .fil21 {fill:#D88AA4}
    .fil17 {fill:#D8BE6F}
    .fil23 {fill:#E31E24}
    .fil3 {fill:#F5B2B6}
    .fil13 {fill:#F5B5D2}
    .fil7 {fill:#FACDA8}
    .fil15 {fill:#FBD9CA}
    .fil4 {fill:#FCDBC1}
    .fil8 {fill:#FEFEFE}
    .fil1 {fill:#2B2A29;fill-rule:nonzero}
    .fil22 {fill:#1C1B17;fill-opacity:0.290196}
   ]]>
  </style>
    <clipPath id="id0">
     <path d="M10775 10517l7030 0 0 -7030 -7030 0 0 7030z"/>
    </clipPath>
     <mask id="id1">
  <linearGradient id="id2" gradientUnits="userSpaceOnUse" x1="14290.1" y1="10516.6" x2="14290.1" y2="3486.53">
   <stop offset="0" style="stop-opacity:1; stop-color:white"/>
   <stop offset="1" style="stop-opacity:0; stop-color:white"/>
  </linearGradient>
      <rect style="fill:url(#id2)" x="10775" y="3487" width="7030" height="7030"/>
     </mask>
    <clipPath id="id3">
     <path d="M10775 10517l7030 0 0 -7030 -7030 0 0 7030z"/>
    </clipPath>
      <mask id="id4">
  <linearGradient id="id5" gradientUnits="userSpaceOnUse" x1="14290.7" y1="10513.4" x2="14290.7" y2="3490.83">
   <stop offset="0" style="stop-opacity:1; stop-color:white"/>
   <stop offset="1" style="stop-opacity:0; stop-color:white"/>
  </linearGradient>
       <rect style="fill:url(#id5)" x="10775" y="3487" width="7031" height="7031"/>
      </mask>
    <clipPath id="id6">
     <path d="M19194 10517l7030 0 0 -7030 -7030 0 0 7030z"/>
    </clipPath>
     <mask id="id7">
  <linearGradient id="id8" gradientUnits="userSpaceOnUse" x1="22709.3" y1="10516.6" x2="22709.3" y2="3486.53">
   <stop offset="0" style="stop-opacity:1; stop-color:white"/>
   <stop offset="1" style="stop-opacity:0; stop-color:white"/>
  </linearGradient>
      <rect style="fill:url(#id8)" x="19194" y="3487" width="7030" height="7030"/>
     </mask>
    <clipPath id="id9">
     <path d="M19194 10517l7030 0 0 -7030 -7030 0 0 7030z"/>
    </clipPath>
      <mask id="id10">
  <linearGradient id="id11" gradientUnits="userSpaceOnUse" x1="22709.8" y1="10513.4" x2="22709.8" y2="3490.83">
   <stop offset="0" style="stop-opacity:1; stop-color:white"/>
   <stop offset="1" style="stop-opacity:0; stop-color:white"/>
  </linearGradient>
       <rect style="fill:url(#id11)" x="19194" y="3487" width="7031" height="7031"/>
      </mask>
    <clipPath id="id12">
     <path d="M2275 10517l7030 0 0 -7030 -7030 0 0 7030z"/>
    </clipPath>
     <mask id="id13">
  <linearGradient id="id14" gradientUnits="userSpaceOnUse" x1="5790.24" y1="10516.6" x2="5790.24" y2="3486.53">
   <stop offset="0" style="stop-opacity:1; stop-color:white"/>
   <stop offset="1" style="stop-opacity:0; stop-color:white"/>
  </linearGradient>
      <rect style="fill:url(#id14)" x="2275" y="3487" width="7030" height="7030"/>
     </mask>
    <clipPath id="id15">
     <path d="M2275 10517l7030 0 0 -7030 -7030 0 0 7030z"/>
    </clipPath>
      <mask id="id16">
  <linearGradient id="id17" gradientUnits="userSpaceOnUse" x1="5789.7" y1="10513.4" x2="5789.7" y2="3490.83">
   <stop offset="0" style="stop-opacity:1; stop-color:white"/>
   <stop offset="1" style="stop-opacity:0; stop-color:white"/>
  </linearGradient>
       <rect style="fill:url(#id17)" x="2274" y="3487" width="7031" height="7031"/>
      </mask>
 </defs>
 <g id="Layer_x0020_1">
  <metadata id="CorelCorpID_0Corel-Layer"/>
  <g id="_249085184">
   <rect class="fil0" width="28974" height="18068"/>
   <ellipse class="fil0 str0" cx="18509" cy="11247" rx="1152" ry="551"/>
   <ellipse class="fil0 str0" cx="2634" cy="11752" rx="1152" ry="551"/>
   <ellipse class="fil0 str0" cx="679" cy="8773" rx="557" ry="266"/>
   <ellipse class="fil0 str0" cx="27719" cy="12943" rx="557" ry="266"/>
   <ellipse class="fil0 str0" cx="26281" cy="10722" rx="866" ry="415"/>
   <path class="fil1" d="M16074 14436l1 2 1 3 1 3 1 3 1 3 0 3 0 3 0 3 0 3 0 3 0 3 0 2 -1 2 -1 2 -1 2 -1 2 -1 2 -1 2 -1 2 -2 2 -2 2 -2 2 -2 2 -2 2 -2 2 -2 2 -2 2 -2 2 -3 1 -3 1 -3 1 -3 1 -3 1 -3 1 -3 1 -3 1 -3 0 -3 0 -3 0 -3 0 -3 0 -3 0 -3 0 -3 0 -3 -1 -3 -1 -3 -1 -3 -1 -3 -1 -3 -1 -3 -1 -3 -1 -2 -1 -2 -2 -2 -2 -2 -2 -2 -2 -2 -2 -2 -2 -2 -2 -2 -2 -2 -2 -1 -2 -1 -2 122 -45 1 -1zm-315 -327l122 -45 0 0 194 373 -122 45 -194 -373zm0 0l-1 -2 -1 -3 -1 -3 -1 -3 -1 -3 0 -3 0 -3 0 -3 0 -3 0 -3 0 -3 0 -2 1 -2 1 -2 1 -2 1 -2 1 -2 1 -2 1 -2 2 -2 2 -2 2 -2 2 -2 2 -2 2 -2 2 -2 2 -2 2 -2 3 -1 3 -1 3 -1 3 -1 3 -1 3 -1 3 -1 3 -1 3 0 3 0 3 0 3 0 3 0 3 0 3 0 3 0 3 1 3 1 3 1 3 1 3 1 3 1 3 1 3 1 2 1 2 2 2 2 2 2 2 2 2 2 2 2 2 2 2 2 2 2 1 2 1 2 -122 45 -1 1zm-824 -1582l122 -45 824 1582 -122 45 -824 -1582zm0 0l-1 -2 -1 -3 -1 -3 -1 -3 -1 -3 0 -3 0 -3 0 -3 0 -3 0 -3 0 -3 0 -2 1 -2 1 -2 1 -2 1 -2 1 -2 1 -2 1 -2 2 -2 2 -2 2 -2 2 -2 2 -2 2 -2 2 -2 2 -2 2 -2 3 -1 3 -1 3 -1 3 -1 3 -1 3 -1 3 -1 3 -1 3 0 3 0 3 0 3 0 3 0 3 0 3 0 3 0 3 1 3 1 3 1 3 1 3 1 3 1 3 1 3 1 2 1 2 2 2 2 2 2 2 2 2 2 2 2 2 2 2 2 2 2 1 2 1 2 -122 45 -1 1z"/>
   <path class="fil1" d="M15963 12337l-2 2 -2 2 -2 2 -2 2 -2 1 -2 1 -2 1 -2 1 -2 1 -3 1 -3 1 -3 1 -3 1 -3 1 -3 1 -3 1 -3 0 -3 0 -3 0 -3 0 -3 0 -3 0 -3 0 -3 0 -3 0 -3 0 -3 0 -3 -1 -3 -1 -3 -1 -3 -1 -3 -1 -3 -1 -3 -1 -3 -1 -2 -1 -2 -1 -2 -1 -2 -1 -2 -1 -2 -2 -2 -2 -2 -2 -1 -2 -1 -2 -1 -2 -1 -2 -1 -2 -1 -2 -1 -2 0 -2 0 -2 0 -2 0 -2 0 -2 0 -2 0 -2 1 -2 1 -2 1 -2 1 -2 1 -2 1 -2 1 -2 116 41 4 3zm923 -1204l111 -4 4 46 -1039 1163 -116 -41 1039 -1163 1 -1zm0 0l2 -2 2 -2 2 -2 2 -2 2 -1 2 -1 2 -1 2 -1 2 -1 3 -1 3 -1 3 -1 3 -1 3 -1 3 -1 3 -1 3 0 3 0 3 0 3 0 3 0 3 0 3 0 3 0 3 0 3 0 3 0 3 1 3 1 3 1 3 1 3 1 3 1 3 1 3 1 2 1 2 1 2 1 2 1 2 1 2 2 2 2 2 2 1 2 1 2 1 2 1 2 1 2 1 2 1 2 0 2 0 2 0 2 0 2 0 2 0 2 0 2 -1 2 -1 2 -1 2 -1 2 -1 2 -1 2 -1 2 -116 -41 -4 -3zm-1086 -876l107 -51 1092 923 -107 51 -1092 -923zm0 0l-2 -2 -2 -2 -2 -2 -1 -2 -1 -2 -1 -2 -1 -2 -1 -2 -1 -2 -1 -2 0 -2 0 -2 0 -2 0 -2 0 -2 0 -2 0 -2 1 -2 1 -2 1 -2 1 -2 1 -2 1 -2 1 -2 2 -2 2 -2 2 -2 2 -1 2 -1 2 -1 2 -1 3 -1 3 -1 3 -1 3 -1 3 -1 3 -1 3 -1 3 -1 3 -1 3 0 3 0 3 0 3 0 3 0 3 0 3 0 3 0 3 0 3 0 3 0 3 1 3 1 3 1 3 1 3 1 3 1 2 1 2 1 2 1 2 1 2 1 2 1 2 2 -107 51 -1 6z"/>
   <path class="fil1" d="M12615 12358l114 -43 2 2 1 2 1 2 1 2 1 2 1 2 1 2 0 2 0 2 0 2 0 2 0 2 0 2 0 2 -1 2 -1 2 -1 2 -1 2 -1 2 -1 2 -1 2 -1 2 -2 2 -2 2 -2 2 -2 1 -2 1 -2 1 -2 1 -2 1 -3 1 -3 1 -3 1 -3 1 -3 1 -3 1 -3 1 -3 0 -3 0 -3 0 -3 0 -3 0 -3 0 -3 0 -3 0 -3 0 -3 0 -3 0 -3 -1 -3 -1 -3 -1 -3 -1 -3 -1 -3 -1 -3 -1 -2 -1 -2 -1 -2 -1 -2 -1 -2 -1 -2 -1 -2 -2 -2 -2 -2 -2 3 -3zm-972 -1196l1086 1153 -114 43 -1086 -1153 3 -46 111 3zm0 0l-114 43 -2 -2 -1 -2 -1 -2 -1 -2 -1 -2 -1 -2 -1 -2 0 -2 0 -2 0 -2 0 -2 0 -2 0 -2 0 -2 1 -2 1 -2 1 -2 1 -2 1 -2 1 -2 1 -2 1 -2 2 -2 2 -2 2 -2 2 -1 2 -1 2 -1 2 -1 2 -1 3 -1 3 -1 3 -1 3 -1 3 -1 3 -1 3 -1 3 0 3 0 3 0 3 0 3 0 3 0 3 0 3 0 3 0 3 0 3 0 3 1 3 1 3 1 3 1 3 1 3 1 3 1 2 1 2 1 2 1 2 1 2 1 2 1 2 2 2 2 2 2 -3 3zm1121 -950l-1124 996 -109 -48 1124 -996 109 48zm0 0l-109 -48 2 -2 2 -2 2 -1 2 -1 2 -1 2 -1 2 -1 3 -1 3 -1 3 -1 3 -1 3 -1 3 -1 3 -1 3 0 3 0 3 0 3 0 3 0 3 0 3 0 3 0 3 0 3 0 3 0 3 1 3 1 3 1 3 1 3 1 3 1 3 1 3 1 2 1 2 1 2 1 2 1 2 2 2 2 2 2 2 2 1 2 1 2 1 2 1 2 1 2 1 2 1 2 0 2 0 2 0 2 0 2 0 2 0 2 0 2 -1 2 -1 2 -1 2 -1 2 -1 2 -1 2 -1 2 -2 2 -2 2 -3 -5z"/>
   <circle class="fil2" transform="matrix(1.08734 -0.48082 0.909806 2.05746 11126.5 8373.77)" r="546"/>
   <circle class="fil3" transform="matrix(0.536938 -0.237433 0.44927 1.01599 11126.5 8373.78)" r="546"/>
   <circle class="fil2" transform="matrix(-1.08734 -0.48082 -0.909806 2.05746 17470.9 8373.77)" r="546"/>
   <circle class="fil3" transform="matrix(-0.536938 -0.237433 -0.44927 1.01599 17470.9 8373.78)" r="546"/>
   <circle class="fil4" cx="14291" cy="7001" r="3511"/>
   <g style="clip-path:url(#id0)">
    <polygon class="fil0" style="mask:url(#id1)" points="10775,3487 17805,3487 17805,10517 10775,10517 "/>
   </g>
   <g style="clip-path:url(#id3)">
    <g>
     <path id="1" class="fil5" style="mask:url(#id4)" d="M14291 3491c1939,0 3511,1572 3511,3511 0,1939 -1572,3511 -3511,3511 -1939,0 -3511,-1572 -3511,-3511 0,-1939 1572,-3511 3511,-3511z"/>
    </g>
   </g>
   <polygon class="fil0" points="10775,10517 17805,10517 17805,3487 10775,3487 "/>
   <path class="fil6" d="M14293 3491c801,0 1539,268 2129,719l0 0 -4259 0c591,-451 1329,-719 2129,-719l1 0z"/>
   <ellipse class="fil7" cx="12852" cy="6810" rx="735" ry="970"/>
   <ellipse class="fil7" cx="15675" cy="6810" rx="735" ry="970"/>
   <ellipse class="fil8" cx="15753" cy="6708" rx="658" ry="869"/>
   <circle class="fil6" cx="15694" cy="6901" r="245"/>
   <path class="fil6" d="M12167 4211c1029,181 1880,595 2639,1128l-376 -773c585,-25 1147,177 1705,423l-884 -870 -3083 92 -1 0z"/>
   <path class="fil6" d="M15791 5418c-311,-2 -592,139 -795,369 233,-110 504,-172 794,-169 290,2 560,69 790,182 -198,-234 -478,-380 -788,-382l-1 0z"/>
   <path class="fil8" d="M15773 8583c-1394,434 -1686,461 -2991,48 911,1200 1988,1248 2991,-48z"/>
   <ellipse class="fil8" cx="12929" cy="6708" rx="658" ry="869"/>
   <circle class="fil6" cx="12918" cy="6889" r="245"/>
   <path class="fil1" d="M13070 14511l130 25 -1 3 -1 3 -1 2 -1 2 -1 2 -1 2 -2 2 -2 2 -2 2 -2 2 -2 2 -2 2 -2 2 -2 2 -2 1 -2 1 -3 1 -3 1 -3 1 -3 1 -3 1 -3 1 -3 1 -3 1 -3 0 -3 0 -3 0 -3 0 -3 0 -3 0 -3 0 -3 -1 -3 -1 -3 -1 -3 -1 -3 -1 -3 -1 -3 -1 -3 -1 -3 -1 -2 -2 -2 -2 -2 -2 -2 -2 -2 -2 -2 -2 -2 -2 -2 -2 -2 -2 -1 -2 -1 -2 -1 -2 -1 -2 -1 -2 -1 -2 -1 -3 0 -3 0 -3 0 -3 0 -3 0 -3 0 -3 0 -3 1 -3 1 3zm671 -1994l-541 2019 -130 -25 541 -2019 130 25zm0 0l-130 -25 1 -3 1 -3 1 -2 1 -2 1 -2 1 -2 2 -2 2 -2 2 -2 2 -2 2 -2 2 -2 2 -2 2 -2 2 -1 2 -1 3 -1 3 -1 3 -1 3 -1 3 -1 3 -1 3 -1 3 -1 3 0 3 0 3 0 3 0 3 0 3 0 3 0 3 1 3 1 3 1 3 1 3 1 3 1 3 1 3 1 3 1 2 2 2 2 2 2 2 2 2 2 2 2 2 2 2 2 2 2 1 2 1 2 1 2 1 2 1 2 1 2 1 3 0 3 0 3 0 3 0 3 0 3 0 3 0 3 -1 3 -1 -3z"/>
   <rect class="fil9" x="12691" y="10123" width="3199" height="2270"/>
   <path class="fil10" d="M15890 10294l0 254 -3199 421 0 -254 3199 -421zm0 597l0 254 -3199 421 0 -254 3199 -421zm0 597l0 254 -3199 421 0 -254 3199 -421z"/>
   <path class="fil11" d="M13607 12710c167,0 321,-118 445,-319l0 0 -888 0c123,199 277,319 445,319l-1 0z"/>
   <path class="fil11" d="M14973 12710c167,0 321,-118 445,-319l0 0 -888 0c123,199 277,319 445,319l-1 0z"/>
   <path class="fil6" d="M12727 14564c-79,53 -142,114 -188,178l-43 70c-42,83 -48,162 -10,219 78,115 311,95 522,-47 211,-141 319,-350 241,-465 -78,-115 -311,-95 -522,47l0 -1z"/>
   <path class="fil6" d="M12203 12329c86,-57 176,-97 259,-116l89 -14c101,-8 184,19 226,82 85,127 -34,355 -267,510 -233,155 -489,177 -574,50 -85,-127 34,-355 267,-510l-1 -1z"/>
   <path class="fil6" d="M16399 14282c79,53 142,114 188,178l43 70c42,83 48,162 10,219 -78,115 -311,95 -522,-47 -211,-141 -319,-350 -241,-465 78,-115 311,-95 522,47l0 -1z"/>
   <path class="fil6" d="M16338 12266c-90,-52 -182,-84 -267,-98l-89 -8c-101,0 -183,31 -220,97 -75,132 59,352 301,491 242,138 501,142 576,10 75,-132 -59,-352 -301,-491l0 -1z"/>
   <rect class="fil12" x="12691" y="10123" width="1276" height="2270"/>
   <rect class="fil12" x="14614" y="10123" width="1276" height="2270"/>
   <rect class="fil8" transform="matrix(7.32781 2.53853 -2.53853 7.32781 14296.7 10148.3)" width="20.9104" height="175.865"/>
   <rect class="fil8" transform="matrix(7.4332 -2.21099 2.21099 7.4332 14186.2 10181.9)" width="20.9104" height="175.865"/>
   <path class="fil6" d="M13006 5472c306,56 556,248 712,511 -208,-152 -462,-263 -747,-315 -285,-52 -563,-38 -811,31 238,-192 541,-283 846,-227z"/>
   <path class="fil1" d="M24493 14436l1 2 1 3 1 3 1 3 1 3 0 3 0 3 0 3 0 3 0 3 0 3 0 2 -1 2 -1 2 -1 2 -1 2 -1 2 -1 2 -1 2 -2 2 -2 2 -2 2 -2 2 -2 2 -2 2 -2 2 -2 2 -2 2 -3 1 -3 1 -3 1 -3 1 -3 1 -3 1 -3 1 -3 1 -3 0 -3 0 -3 0 -3 0 -3 0 -3 0 -3 0 -3 0 -3 -1 -3 -1 -3 -1 -3 -1 -3 -1 -3 -1 -3 -1 -3 -1 -2 -1 -2 -1 -2 -2 -2 -2 -2 -2 -2 -2 -2 -2 -2 -2 -2 -2 -2 -2 -1 -2 -1 -2 122 -45 1 -2zm-315 -327l122 -45 0 0 194 373 -122 45 -194 -373zm0 0l-1 -2 -1 -3 -1 -3 -1 -3 -1 -3 0 -3 0 -3 0 -3 0 -3 0 -3 0 -3 0 -2 1 -2 1 -2 1 -2 1 -2 1 -2 1 -2 1 -2 2 -2 2 -2 2 -2 2 -2 2 -2 2 -2 2 -2 2 -2 2 -2 3 -1 3 -1 3 -1 3 -1 3 -1 3 -1 3 -1 3 -1 3 0 3 0 3 0 3 0 3 0 3 0 3 0 3 0 3 1 3 1 3 1 3 1 3 1 3 1 3 1 3 1 2 1 2 1 2 2 2 2 2 2 2 2 2 2 2 2 2 2 2 2 1 2 1 2 -122 45 -1 2zm-824 -1582l122 -45 824 1582 -122 45 -824 -1582zm0 0l-1 -2 -1 -3 -1 -3 -1 -3 -1 -3 0 -3 0 -3 0 -3 0 -3 0 -3 0 -3 0 -2 1 -2 1 -2 1 -2 1 -2 1 -2 1 -2 1 -2 2 -2 2 -2 2 -2 2 -2 2 -2 2 -2 2 -2 2 -2 2 -2 3 -1 3 -1 3 -1 3 -1 3 -1 3 -1 3 -1 3 -1 3 0 3 0 3 0 3 0 3 0 3 0 3 0 3 0 3 1 3 1 3 1 3 1 3 1 3 1 3 1 3 1 2 1 2 2 2 2 2 2 2 2 2 2 2 2 2 2 2 2 2 2 1 2 1 2 -122 45 -1 1z"/>
   <path class="fil1" d="M26264 10971l2 -1 3 -1 3 -1 3 -1 3 -1 3 -1 3 -1 3 -1 3 -1 3 0 3 0 3 0 3 0 3 0 3 0 3 0 3 0 3 0 3 0 3 0 3 1 3 1 3 1 3 1 3 1 3 1 3 1 3 1 2 1 2 1 2 1 2 1 2 2 2 2 2 2 2 2 1 2 1 2 1 2 1 2 1 2 1 2 1 2 0 2 0 2 0 2 0 2 0 2 0 2 0 2 -1 2 -1 2 -1 2 -1 2 -1 2 -1 2 -1 2 -2 2 -2 2 -2 2 -2 2 -2 1 -2 1 -2 1 -88 -62 -3 -6zm-1420 911l-110 -23 20 -40 1509 -848 88 62 -1509 848 1 0zm0 0l-2 1 -3 1 -3 1 -3 1 -3 1 -3 1 -3 1 -3 1 -3 1 -3 0 -3 0 -3 0 -3 0 -3 0 -3 0 -3 0 -3 0 -3 0 -3 0 -3 0 -3 -1 -3 -1 -3 -1 -3 -1 -3 -1 -3 -1 -3 -1 -3 -1 -2 -1 -2 -1 -2 -1 -2 -1 -2 -2 -2 -2 -2 -2 -2 -2 -1 -2 -1 -2 -1 -2 -1 -2 -1 -2 -1 -2 -1 -2 0 -2 0 -2 0 -2 0 -2 0 -2 0 -2 0 -2 1 -2 1 -2 1 -2 1 -2 1 -2 1 -2 1 -2 2 -2 2 -2 2 -2 2 -2 2 -1 2 -1 2 -1 88 62 3 6zm-637 -1643l130 -17 529 1619 -130 17 -529 -1619zm0 0l-1 -2 0 -2 0 -2 0 -2 0 -2 0 -2 0 -2 1 -2 1 -2 1 -2 1 -2 1 -2 1 -2 1 -2 1 -2 2 -2 2 -2 2 -1 2 -1 2 -1 2 -1 2 -1 2 -1 2 -1 3 -1 3 -1 3 -1 3 -1 3 -1 3 -1 3 -1 3 0 3 0 3 0 3 0 3 0 3 0 3 0 3 0 3 0 3 0 3 1 3 1 3 1 3 1 3 1 3 1 3 1 2 1 2 1 2 1 2 1 2 1 2 1 2 1 2 2 2 2 2 2 1 2 1 2 1 2 1 2 1 2 1 2 -130 17 -2 0z"/>
   <circle class="fil13" transform="matrix(1.08734 -0.48082 0.909806 2.05746 19546 8373.77)" r="546"/>
   <circle class="fil14" transform="matrix(0.536938 -0.237433 0.44927 1.01599 19546 8373.78)" r="546"/>
   <circle class="fil13" transform="matrix(-1.08734 -0.48082 -0.909806 2.05746 25890.3 8373.77)" r="546"/>
   <circle class="fil14" transform="matrix(-0.536938 -0.237433 -0.44927 1.01599 25890.3 8373.78)" r="546"/>
   <circle class="fil15" cx="22710" cy="7001" r="3511"/>
   <g style="clip-path:url(#id6)">
    <polygon class="fil0" style="mask:url(#id7)" points="19194,3487 26224,3487 26224,10517 19194,10517 "/>
   </g>
   <g style="clip-path:url(#id9)">
    <g>
     <path id="1" class="fil16" style="mask:url(#id10)" d="M22710 3491c1939,0 3511,1572 3511,3511 0,1939 -1572,3511 -3511,3511 -1939,0 -3511,-1572 -3511,-3511 0,-1939 1572,-3511 3511,-3511z"/>
    </g>
   </g>
   <polygon class="fil0" points="19194,10517 26224,10517 26224,3487 19194,3487 "/>
   <path class="fil17" d="M25367 2683c998,257 760,886 -72,1048 -275,53 43,686 44,911l-2600 297 -2627 -297c1,-225 319,-857 44,-911 -741,-143 -1010,-657 -357,-950 954,-429 4502,-373 5569,-98l0 0z"/>
   <path class="fil18" d="M25197 3817c-40,114 17,321 71,507l-5084 0c54,-186 112,-393 71,-507l4942 0z"/>
   <ellipse class="fil7" cx="21337" cy="6810" rx="735" ry="970"/>
   <ellipse class="fil7" cx="24187" cy="6810" rx="735" ry="970"/>
   <ellipse class="fil8" cx="24172" cy="6708" rx="658" ry="869"/>
   <circle class="fil6" cx="24113" cy="6901" r="245"/>
   <path class="fil6" d="M24370 5404c-310,-22 -600,102 -816,320 238,-96 513,-141 802,-121 289,20 555,103 777,230 -183,-245 -453,-408 -763,-430z"/>
   <path class="fil8" d="M24192 9007c-1419,451 -1705,389 -2991,48 928,731 2004,836 2991,-48z"/>
   <ellipse class="fil8" cx="21349" cy="6708" rx="658" ry="869"/>
   <circle class="fil6" cx="21337" cy="6889" r="245"/>
   <path class="fil1" d="M21489 14511l130 25 -1 3 -1 3 -1 2 -1 2 -1 2 -1 2 -2 2 -2 2 -2 2 -2 2 -2 2 -2 2 -2 2 -2 2 -2 1 -2 1 -3 1 -3 1 -3 1 -3 1 -3 1 -3 1 -3 1 -3 1 -3 0 -3 0 -3 0 -3 0 -3 0 -3 0 -3 0 -3 -1 -3 -1 -3 -1 -3 -1 -3 -1 -3 -1 -3 -1 -3 -1 -3 -1 -2 -2 -2 -2 -2 -2 -2 -2 -2 -2 -2 -2 -2 -2 -2 -2 -2 -2 -1 -2 -1 -2 -1 -2 -1 -2 -1 -2 -1 -2 -1 -3 0 -3 0 -3 0 -3 0 -3 0 -3 0 -3 0 -3 1 -3 1 3zm671 -1994l-541 2019 -130 -25 541 -2019 130 25zm0 0l-130 -25 1 -3 1 -3 1 -2 1 -2 1 -2 1 -2 2 -2 2 -2 2 -2 2 -2 2 -2 2 -2 2 -2 2 -2 2 -1 2 -1 3 -1 3 -1 3 -1 3 -1 3 -1 3 -1 3 -1 3 -1 3 0 3 0 3 0 3 0 3 0 3 0 3 0 3 1 3 1 3 1 3 1 3 1 3 1 3 1 3 1 3 1 2 2 2 2 2 2 2 2 2 2 2 2 2 2 2 2 2 2 1 2 1 2 1 2 1 2 1 2 1 2 1 3 0 3 0 3 0 3 0 3 0 3 0 3 0 3 -1 3 -1 -3z"/>
   <rect class="fil9" x="21110" y="10123" width="3199" height="2270"/>
   <path class="fil10" d="M24309 10294l0 254 -3199 421 0 -254 3199 -421zm0 597l0 254 -3199 421 0 -254 3199 -421zm0 597l0 254 -3199 421 0 -254 3199 -421z"/>
   <path class="fil11" d="M22026 12710c167,0 321,-118 445,-319l0 0 -888 0c123,199 277,319 445,319l-1 0z"/>
   <path class="fil11" d="M23392 12710c167,0 321,-118 445,-319l0 0 -888 0c123,199 277,319 445,319l-1 0z"/>
   <path class="fil6" d="M21147 14564c-79,53 -142,114 -188,178l-43 70c-42,83 -48,162 -10,219 78,115 311,95 522,-47 211,-141 319,-350 241,-465 -78,-115 -311,-95 -522,47l0 -1z"/>
   <path class="fil6" d="M24818 14282c79,53 142,114 188,178l43 70c42,83 48,162 10,219 -78,115 -311,95 -522,-47 -211,-141 -319,-350 -241,-465 78,-115 311,-95 522,47l0 -1z"/>
   <path class="fil6" d="M26298 10812c-98,34 -183,83 -249,138l-65 62c-67,76 -95,159 -70,229 52,144 306,185 569,92 263,-94 435,-286 383,-430 -52,-144 -306,-185 -569,-92z"/>
   <rect class="fil17" x="21110" y="10123" width="1546" height="2270"/>
   <polygon class="fil19" points="21110,10123 22657,10123 22307,10504 "/>
   <rect class="fil17" x="22697" y="10123" width="1612" height="2270"/>
   <path class="fil6" d="M21201 5448c311,-4 593,137 797,365 -233,-109 -504,-169 -794,-166 -290,4 -560,72 -789,186 197,-235 476,-382 786,-387l0 1z"/>
   <path class="fil6" d="M21540 11530c86,-57 176,-97 259,-116l89 -14c101,-8 184,19 226,82 85,127 -34,355 -267,510 -233,155 -489,177 -574,50 -85,-127 34,-355 267,-510l-1 -1z"/>
   <polygon class="fil19" points="24203,10123 22657,10123 23007,10504 "/>
   <path class="fil20" d="M25309 4611c-114,327 -1237,759 -2607,759 -1370,0 -2493,-432 -2607,-759 1738,185 3476,142 5214,0l0 0z"/>
   <path class="fil1" d="M21567 11652l-67 209 -5 1 -5 0 -5 0 -5 0 -5 0 -5 -1 -4 -1 -4 -1 -4 -1 -4 -2 -4 -2 -3 -2 -3 -2 -3 -2 -3 -3 -3 -3 -2 -3 -2 -3 -2 -3 -2 -3 -1 -4 -1 -4 -1 -4 -1 -4 0 -4 0 -4 0 -4 0 -5 1 -5 1 -5 1 -5 1 -5 2 -5 2 -5 2 -5 2 -5 3 -5 3 -5 3 -5 3 -5 3 -5 4 -4 4 -4 4 -4 4 -4 4 -4 4 -4 5 -4 5 -4 5 -4 5 -3 5 -3 5 -3 5 -3 5 -3 5 -3 5 -2 5 -2 5 -2 5 -2 5 -2 5 -1 5 -1 5 -1 3 2zm5522 -548l-5587 757 67 -209 5587 -757 -67 209zm0 0l67 -209 5 -1 5 0 5 0 5 0 5 0 5 1 4 1 4 1 4 1 4 2 4 2 3 2 3 2 3 2 3 3 3 3 2 3 2 3 2 3 2 3 1 4 1 4 1 4 1 4 0 4 0 4 0 4 0 5 -1 5 -1 5 -1 5 -1 5 -2 5 -2 5 -2 5 -2 5 -3 5 -3 5 -3 5 -3 5 -3 5 -4 4 -4 4 -4 4 -4 4 -4 4 -4 4 -5 4 -5 4 -5 4 -5 3 -5 3 -5 3 -5 3 -5 3 -5 3 -5 2 -5 2 -5 2 -5 2 -5 2 -5 1 -5 1 -5 1 -3 -2z"/>
   <path class="fil1" d="M21350 11851l68 -72 3 1 3 1 2 1 2 1 2 1 2 1 2 1 2 2 2 2 2 2 1 2 1 2 1 2 1 2 1 2 1 2 1 2 1 2 0 2 0 2 0 2 0 2 0 2 0 2 0 2 -1 2 -1 2 -1 2 -1 2 -1 2 -1 2 -2 2 -2 2 -2 2 -2 2 -2 1 -2 1 -2 1 -2 1 -2 1 -2 1 -3 1 -3 1 -3 1 -3 1 -3 1 -3 1 -3 1 -3 0 -3 0 -3 0 -3 0 -3 0 -3 0 -3 0 -3 0 -3 0 -3 0 -3 0 -3 -1 -3 -1 -3 -1 -3 -1 -3 -1 2 -4zm-1834 -784l1902 712 -68 72 -1902 -712 -10 -68 78 -4zm0 0l-68 72 -3 -1 -3 -1 -2 -1 -2 -1 -2 -1 -2 -1 -2 -1 -2 -2 -2 -2 -2 -2 -1 -2 -1 -2 -1 -2 -1 -2 -1 -2 -1 -2 -1 -2 -1 -2 0 -2 0 -2 0 -2 0 -2 0 -2 0 -2 0 -2 1 -2 1 -2 1 -2 1 -2 1 -2 1 -2 2 -2 2 -2 2 -2 2 -2 2 -1 2 -1 2 -1 2 -1 2 -1 2 -1 3 -1 3 -1 3 -1 3 -1 3 -1 3 -1 3 -1 3 0 3 0 3 0 3 0 3 0 3 0 3 0 3 0 3 0 3 0 3 0 3 1 3 1 3 1 3 1 3 1 -2 4zm1657 -847l-1646 915 -88 -64 1646 -915 88 64zm0 0l-88 -64 2 -1 3 -1 3 -1 3 -1 3 -1 3 -1 3 -1 3 -1 3 -1 3 0 3 0 3 0 3 0 3 0 3 0 3 0 3 0 3 0 3 0 3 0 3 1 3 1 3 1 3 1 3 1 3 1 3 1 2 1 2 1 2 1 2 1 2 1 2 2 2 2 2 2 2 2 1 2 1 2 1 2 1 2 1 2 1 2 1 2 0 2 0 2 0 2 0 2 0 2 0 2 0 2 -1 2 -1 2 -1 2 -1 2 -1 2 -1 2 -1 2 -2 2 -2 2 -2 2 -2 2 -2 1 -2 1 -2 1 -2 -5z"/>
   <rect class="fil6" x="21094" y="12129" width="138" height="868"/>
   <rect class="fil6" transform="matrix(6.91351 3.51346 8.60985E-016 8.69905 20737 11790.7)" width="71.5175" height="42.8114"/>
   <rect class="fil6" x="20992" y="12129" width="113" height="721"/>
   <rect class="fil6" x="20926" y="12319" width="352" height="297"/>
   <path class="fil1" d="M7574 14436l1 2 1 3 1 3 1 3 1 3 0 3 0 3 0 3 0 3 0 3 0 3 0 2 -1 2 -1 2 -1 2 -1 2 -1 2 -1 2 -1 2 -2 2 -2 2 -2 2 -2 2 -2 2 -2 2 -2 2 -2 2 -2 2 -3 1 -3 1 -3 1 -3 1 -3 1 -3 1 -3 1 -3 1 -3 0 -3 0 -3 0 -3 0 -3 0 -3 0 -3 0 -3 0 -3 -1 -3 -1 -3 -1 -3 -1 -3 -1 -3 -1 -3 -1 -3 -1 -2 -1 -2 -1 -2 -2 -2 -2 -2 -2 -2 -2 -2 -2 -2 -2 -2 -2 -2 -2 -1 -2 -1 -2 122 -45 1 -2zm-315 -327l122 -45 0 0 194 373 -122 45 -194 -373zm0 0l-1 -2 -1 -3 -1 -3 -1 -3 -1 -3 0 -3 0 -3 0 -3 0 -3 0 -3 0 -3 0 -2 1 -2 1 -2 1 -2 1 -2 1 -2 1 -2 1 -2 2 -2 2 -2 2 -2 2 -2 2 -2 2 -2 2 -2 2 -2 2 -2 3 -1 3 -1 3 -1 3 -1 3 -1 3 -1 3 -1 3 -1 3 0 3 0 3 0 3 0 3 0 3 0 3 0 3 0 3 1 3 1 3 1 3 1 3 1 3 1 3 1 3 1 2 1 2 1 2 2 2 2 2 2 2 2 2 2 2 2 2 2 2 2 1 2 1 2 -122 45 -1 2zm-824 -1582l122 -45 824 1582 -122 45 -824 -1582zm0 0l-1 -2 -1 -3 -1 -3 -1 -3 -1 -3 0 -3 0 -3 0 -3 0 -3 0 -3 0 -3 0 -2 1 -2 1 -2 1 -2 1 -2 1 -2 1 -2 1 -2 2 -2 2 -2 2 -2 2 -2 2 -2 2 -2 2 -2 2 -2 2 -2 3 -1 3 -1 3 -1 3 -1 3 -1 3 -1 3 -1 3 -1 3 0 3 0 3 0 3 0 3 0 3 0 3 0 3 0 3 1 3 1 3 1 3 1 3 1 3 1 3 1 3 1 2 1 2 2 2 2 2 2 2 2 2 2 2 2 2 2 2 2 2 2 1 2 1 2 -122 45 -1 1z"/>
   <path class="fil1" d="M7463 12337l-2 2 -2 2 -2 2 -2 2 -2 1 -2 1 -2 1 -2 1 -2 1 -3 1 -3 1 -3 1 -3 1 -3 1 -3 1 -3 1 -3 0 -3 0 -3 0 -3 0 -3 0 -3 0 -3 0 -3 0 -3 0 -3 0 -3 0 -3 -1 -3 -1 -3 -1 -3 -1 -3 -1 -3 -1 -3 -1 -3 -1 -2 -1 -2 -1 -2 -1 -2 -1 -2 -1 -2 -2 -2 -2 -2 -2 -1 -2 -1 -2 -1 -2 -1 -2 -1 -2 -1 -2 -1 -2 0 -2 0 -2 0 -2 0 -2 0 -2 0 -2 0 -2 1 -2 1 -2 1 -2 1 -2 1 -2 1 -2 1 -2 116 41 4 3zm923 -1204l111 -4 4 46 -1039 1163 -116 -41 1039 -1163 1 -1zm0 0l2 -2 2 -2 2 -2 2 -2 2 -1 2 -1 2 -1 2 -1 2 -1 3 -1 3 -1 3 -1 3 -1 3 -1 3 -1 3 -1 3 0 3 0 3 0 3 0 3 0 3 0 3 0 3 0 3 0 3 0 3 0 3 1 3 1 3 1 3 1 3 1 3 1 3 1 3 1 2 1 2 1 2 1 2 1 2 1 2 2 2 2 2 2 1 2 1 2 1 2 1 2 1 2 1 2 1 2 0 2 0 2 0 2 0 2 0 2 0 2 0 2 -1 2 -1 2 -1 2 -1 2 -1 2 -1 2 -1 2 -116 -41 -4 -3zm-1086 -876l107 -51 1092 923 -107 51 -1092 -923zm0 0l-2 -2 -2 -2 -2 -2 -1 -2 -1 -2 -1 -2 -1 -2 -1 -2 -1 -2 -1 -2 0 -2 0 -2 0 -2 0 -2 0 -2 0 -2 0 -2 1 -2 1 -2 1 -2 1 -2 1 -2 1 -2 1 -2 2 -2 2 -2 2 -2 2 -1 2 -1 2 -1 2 -1 3 -1 3 -1 3 -1 3 -1 3 -1 3 -1 3 -1 3 -1 3 -1 3 0 3 0 3 0 3 0 3 0 3 0 3 0 3 0 3 0 3 0 3 0 3 1 3 1 3 1 3 1 3 1 3 1 2 1 2 1 2 1 2 1 2 1 2 1 2 2 -107 51 -1 6z"/>
   <path class="fil1" d="M4114 12358l114 -43 2 2 1 2 1 2 1 2 1 2 1 2 1 2 0 2 0 2 0 2 0 2 0 2 0 2 0 2 -1 2 -1 2 -1 2 -1 2 -1 2 -1 2 -1 2 -1 2 -2 2 -2 2 -2 2 -2 1 -2 1 -2 1 -2 1 -2 1 -3 1 -3 1 -3 1 -3 1 -3 1 -3 1 -3 1 -3 0 -3 0 -3 0 -3 0 -3 0 -3 0 -3 0 -3 0 -3 0 -3 0 -3 0 -3 -1 -3 -1 -3 -1 -3 -1 -3 -1 -3 -1 -3 -1 -2 -1 -2 -1 -2 -1 -2 -1 -2 -1 -2 -1 -2 -2 -2 -2 -2 -2 3 -3zm-972 -1196l1086 1153 -114 43 -1086 -1153 3 -46 111 3zm0 0l-114 43 -2 -2 -1 -2 -1 -2 -1 -2 -1 -2 -1 -2 -1 -2 0 -2 0 -2 0 -2 0 -2 0 -2 0 -2 0 -2 1 -2 1 -2 1 -2 1 -2 1 -2 1 -2 1 -2 1 -2 2 -2 2 -2 2 -2 2 -1 2 -1 2 -1 2 -1 2 -1 3 -1 3 -1 3 -1 3 -1 3 -1 3 -1 3 -1 3 0 3 0 3 0 3 0 3 0 3 0 3 0 3 0 3 0 3 0 3 0 3 1 3 1 3 1 3 1 3 1 3 1 3 1 2 1 2 1 2 1 2 1 2 1 2 1 2 2 2 2 2 2 -3 3zm1121 -950l-1124 996 -109 -48 1124 -996 109 48zm0 0l-109 -48 2 -2 2 -2 2 -1 2 -1 2 -1 2 -1 2 -1 3 -1 3 -1 3 -1 3 -1 3 -1 3 -1 3 -1 3 0 3 0 3 0 3 0 3 0 3 0 3 0 3 0 3 0 3 0 3 0 3 1 3 1 3 1 3 1 3 1 3 1 3 1 3 1 2 1 2 1 2 1 2 1 2 2 2 2 2 2 2 2 1 2 1 2 1 2 1 2 1 2 1 2 1 2 0 2 0 2 0 2 0 2 0 2 0 2 0 2 -1 2 -1 2 -1 2 -1 2 -1 2 -1 2 -1 2 -2 2 -2 2 -3 -5z"/>
   <circle class="fil3" transform="matrix(1.08734 -0.48082 0.909806 2.05746 2626.46 8373.77)" r="546"/>
   <circle class="fil21" transform="matrix(0.536938 -0.237433 0.44927 1.01599 2626.46 8373.78)" r="546"/>
   <circle class="fil3" transform="matrix(-1.08734 -0.48082 -0.909806 2.05746 8970.84 8373.77)" r="546"/>
   <circle class="fil21" transform="matrix(-0.536938 -0.237433 -0.44927 1.01599 8970.84 8373.78)" r="546"/>
   <circle class="fil4" cx="5790" cy="7001" r="3511"/>
   <g style="clip-path:url(#id12)">
    <polygon class="fil0" style="mask:url(#id13)" points="2275,3487 9305,3487 9305,10517 2275,10517 "/>
   </g>
   <g style="clip-path:url(#id15)">
    <g>
     <path id="1" class="fil5" style="mask:url(#id16)" d="M5790 3491c1939,0 3511,1572 3511,3511 0,1939 -1572,3511 -3511,3511 -1939,0 -3511,-1572 -3511,-3511 0,-1939 1572,-3511 3511,-3511z"/>
    </g>
   </g>
   <polygon class="fil0" points="2275,10517 9305,10517 9305,3487 2275,3487 "/>
   <path class="fil6" d="M5793 3491c801,0 1539,268 2129,719l0 0 -4259 0c591,-451 1329,-719 2129,-719l1 0z"/>
   <ellipse class="fil7" cx="4351" cy="6810" rx="735" ry="970"/>
   <ellipse class="fil7" cx="7175" cy="6810" rx="735" ry="970"/>
   <ellipse class="fil8" cx="7253" cy="6708" rx="658" ry="869"/>
   <circle class="fil6" cx="7194" cy="6901" r="245"/>
   <path class="fil6" d="M3666 4211c1029,181 1880,595 2639,1128l-376 -773c585,-25 1147,177 1705,423l-884 -870 -3083 92 -1 0z"/>
   <path class="fil6" d="M7291 5418c-311,-2 -592,139 -795,369 233,-110 504,-172 794,-169 290,2 560,69 790,182 -198,-234 -478,-380 -788,-382l-1 0z"/>
   <path class="fil8" d="M7273 8583c-1394,434 -1686,461 -2991,48 911,1200 1988,1248 2991,-48z"/>
   <ellipse class="fil8" cx="4429" cy="6708" rx="658" ry="869"/>
   <circle class="fil6" cx="4418" cy="6889" r="245"/>
   <path class="fil1" d="M4570 14511l130 25 -1 3 -1 3 -1 2 -1 2 -1 2 -1 2 -2 2 -2 2 -2 2 -2 2 -2 2 -2 2 -2 2 -2 2 -2 1 -2 1 -3 1 -3 1 -3 1 -3 1 -3 1 -3 1 -3 1 -3 1 -3 0 -3 0 -3 0 -3 0 -3 0 -3 0 -3 0 -3 -1 -3 -1 -3 -1 -3 -1 -3 -1 -3 -1 -3 -1 -3 -1 -3 -1 -2 -2 -2 -2 -2 -2 -2 -2 -2 -2 -2 -2 -2 -2 -2 -2 -2 -2 -1 -2 -1 -2 -1 -2 -1 -2 -1 -2 -1 -2 -1 -3 0 -3 0 -3 0 -3 0 -3 0 -3 0 -3 0 -3 1 -3 1 3zm671 -1994l-541 2019 -130 -25 541 -2019 130 25zm0 0l-130 -25 1 -3 1 -3 1 -2 1 -2 1 -2 1 -2 2 -2 2 -2 2 -2 2 -2 2 -2 2 -2 2 -2 2 -2 2 -1 2 -1 3 -1 3 -1 3 -1 3 -1 3 -1 3 -1 3 -1 3 -1 3 0 3 0 3 0 3 0 3 0 3 0 3 0 3 1 3 1 3 1 3 1 3 1 3 1 3 1 3 1 3 1 2 2 2 2 2 2 2 2 2 2 2 2 2 2 2 2 2 2 1 2 1 2 1 2 1 2 1 2 1 2 1 3 0 3 0 3 0 3 0 3 0 3 0 3 0 3 -1 3 -1 -3z"/>
   <rect class="fil9" x="4191" y="10123" width="3199" height="2270"/>
   <path class="fil10" d="M7390 10294l0 254 -3199 421 0 -254 3199 -421zm0 597l0 254 -3199 421 0 -254 3199 -421zm0 597l0 254 -3199 421 0 -254 3199 -421z"/>
   <rect class="fil8" x="4191" y="10123" width="1448" height="2270"/>
   <rect class="fil8" x="5942" y="10123" width="1448" height="2270"/>
   <path class="fil11" d="M5107 12710c167,0 321,-118 445,-319l0 0 -888 0c123,199 277,319 445,319l-1 0z"/>
   <path class="fil11" d="M6473 12710c167,0 321,-118 445,-319l0 0 -888 0c123,199 277,319 445,319l-1 0z"/>
   <path class="fil6" d="M4227 14564c-79,53 -142,114 -188,178l-43 70c-42,83 -48,162 -10,219 78,115 311,95 522,-47 211,-141 319,-350 241,-465 -78,-115 -311,-95 -522,47l0 -1z"/>
   <path class="fil6" d="M3703 12329c86,-57 176,-97 259,-116l89 -14c101,-8 184,19 226,82 85,127 -34,355 -267,510 -233,155 -489,177 -574,50 -85,-127 34,-355 267,-510l-1 -1z"/>
   <path class="fil6" d="M7899 14282c79,53 142,114 188,178l43 70c42,83 48,162 10,219 -78,115 -311,95 -522,-47 -211,-141 -319,-350 -241,-465 78,-115 311,-95 522,47l0 -1z"/>
   <path class="fil6" d="M7838 12266c-90,-52 -182,-84 -267,-98l-89 -8c-101,0 -183,31 -220,97 -75,132 59,352 301,491 242,138 501,142 576,10 75,-132 -59,-352 -301,-491l0 -1z"/>
   <path class="fil6" d="M4506 5472c306,56 556,248 712,511 -208,-152 -462,-263 -747,-315 -285,-52 -563,-38 -811,31 238,-192 541,-283 846,-227z"/>
   <path class="fil22" d="M5771 14084c1848,0 3345,339 3345,758 0,419 -1498,758 -3345,758 -1848,0 -3345,-339 -3345,-758 0,-419 1498,-758 3345,-758z"/>
   <path class="fil22" d="M14654 14041c1956,0 3541,347 3541,773 0,427 -1586,773 -3541,773 -1956,0 -3541,-347 -3541,-773 0,-427 1586,-773 3541,-773z"/>
   <path class="fil22" d="M22552 14041c1956,0 3541,347 3541,773 0,427 -1586,773 -3541,773 -1956,0 -3541,-347 -3541,-773 0,-427 1586,-773 3541,-773z"/>
   <path class="fil0 str1" d="M2577 8511c0,0 1066,3078 3078,2763 2014,-315 3552,-2960 3552,-2960"/>
   <path class="fil0 str1" d="M5481 11329c0,0 -376,495 454,791 830,297 1482,633 1442,1049"/>
   <ellipse class="fil8 str2" transform="matrix(6.18048 -1.60954 1.60954 6.18048 2488.2 8461.18)" rx="26" ry="47"/>
   <ellipse class="fil23" transform="matrix(-6.18048 -1.60954 -1.60954 6.18048 7369.55 13272.8)" rx="26" ry="47"/>
  </g>
 </g>
</svg>
