<?xml version="1.0" encoding="UTF-8"?>
<!DOCTYPE svg PUBLIC "-//W3C//DTD SVG 1.1//EN" "http://www.w3.org/Graphics/SVG/1.1/DTD/svg11.dtd">
<!-- Creator: CorelDRAW X6 -->
<svg xmlns="http://www.w3.org/2000/svg" xml:space="preserve" width="297mm" height="210mm" version="1.1" style="shape-rendering:geometricPrecision; text-rendering:geometricPrecision; image-rendering:optimizeQuality; fill-rule:evenodd; clip-rule:evenodd"
viewBox="0 0 29700 21000"
 xmlns:xlink="http://www.w3.org/1999/xlink">
 <defs>
  <style type="text/css">
   <![CDATA[
    .str0 {stroke:#939395;stroke-width:141.11}
    .fil0 {fill:none}
    .fil7 {fill:#2B2A29}
    .fil11 {fill:#5B5B5B}
    .fil12 {fill:#9D9E9E}
    .fil10 {fill:#A75F4A}
    .fil14 {fill:#A82682}
    .fil15 {fill:#B2B3B3}
    .fil16 {fill:#D2CDE7}
    .fil6 {fill:#E31E24}
    .fil3 {fill:#EF7F1A}
    .fil13 {fill:#F5B2B6}
    .fil4 {fill:#F6B096}
    .fil8 {fill:#FACDA8}
    .fil9 {fill:#FEFEFE}
    .fil5 {fill:#FFED00}
    .fil2 {fill:#2B2A29;fill-rule:nonzero}
    .fil1 {fill:#1C1B17;fill-opacity:0.290196}
   ]]>
  </style>
    <clipPath id="id0">
     <path d="M11671 9741l6461 0 0 -6461 -6461 0 0 6461z"/>
    </clipPath>
     <mask id="id1">
  <linearGradient id="id2" gradientUnits="userSpaceOnUse" x1="14902" y1="9741" x2="14902" y2="3279.96">
   <stop offset="0" style="stop-opacity:1; stop-color:white"/>
   <stop offset="1" style="stop-opacity:0; stop-color:white"/>
  </linearGradient>
      <rect style="fill:url(#id2)" x="11671" y="3280" width="6461" height="6461"/>
     </mask>
    <clipPath id="id3">
     <path d="M11671 9741l6461 0 0 -6461 -6461 0 0 6461z"/>
    </clipPath>
      <mask id="id4">
  <linearGradient id="id5" gradientUnits="userSpaceOnUse" x1="14901.5" y1="9738.01" x2="14901.5" y2="3283.97">
   <stop offset="0" style="stop-opacity:1; stop-color:white"/>
   <stop offset="1" style="stop-opacity:0; stop-color:white"/>
  </linearGradient>
       <rect style="fill:url(#id5)" x="11671" y="3280" width="6462" height="6462"/>
      </mask>
    <clipPath id="id6">
     <path d="M5489 13333l5334 0 0 -5334 -5334 0 0 5334z"/>
    </clipPath>
     <mask id="id7">
  <linearGradient id="id8" gradientUnits="userSpaceOnUse" x1="8821.22" y1="13762.8" x2="7491.7" y2="7569.19">
   <stop offset="0" style="stop-opacity:1; stop-color:white"/>
   <stop offset="1" style="stop-opacity:0; stop-color:white"/>
  </linearGradient>
      <rect style="fill:url(#id8)" x="5489" y="7999" width="5334" height="5334"/>
     </mask>
    <clipPath id="id9">
     <path d="M5489 13333l5334 0 0 -5334 -5334 0 0 5334z"/>
    </clipPath>
      <mask id="id10">
  <linearGradient id="id11" gradientUnits="userSpaceOnUse" x1="8820.23" y1="13758.2" x2="7492.71" y2="7573.83">
   <stop offset="0" style="stop-opacity:1; stop-color:white"/>
   <stop offset="1" style="stop-opacity:0; stop-color:white"/>
  </linearGradient>
       <rect style="fill:url(#id11)" x="5490" y="7999" width="5334" height="5334"/>
      </mask>
    <clipPath id="id12">
     <path d="M18102 13094l5333 0 0 -5333 -5333 0 0 5333z"/>
    </clipPath>
     <mask id="id13">
  <linearGradient id="id14" gradientUnits="userSpaceOnUse" x1="20768" y1="13094" x2="20768" y2="7761">
   <stop offset="0" style="stop-opacity:1; stop-color:white"/>
   <stop offset="1" style="stop-opacity:0; stop-color:white"/>
  </linearGradient>
      <rect style="fill:url(#id14)" x="18102" y="7761" width="5333" height="5333"/>
     </mask>
    <clipPath id="id15">
     <path d="M18102 13094l5333 0 0 -5333 -5333 0 0 5333z"/>
    </clipPath>
      <mask id="id16">
  <linearGradient id="id17" gradientUnits="userSpaceOnUse" x1="20767.5" y1="13089" x2="20767.5" y2="7764.98">
   <stop offset="0" style="stop-opacity:1; stop-color:white"/>
   <stop offset="1" style="stop-opacity:0; stop-color:white"/>
  </linearGradient>
       <rect style="fill:url(#id17)" x="18102" y="7761" width="5332" height="5332"/>
      </mask>
 </defs>
 <g id="Layer_x0020_1">
  <metadata id="CorelCorpID_0Corel-Layer"/>
  <rect class="fil0" x="1395" y="2110" width="26909" height="16780"/>
  <g id="_240926176">
   <ellipse class="fil0 str0" cx="20713" cy="6100" rx="1070" ry="512"/>
   <ellipse class="fil0 str0" cx="10433" cy="6286" rx="1070" ry="512"/>
   <ellipse class="fil0 str0" cx="4894" cy="13624" rx="1070" ry="512"/>
   <ellipse class="fil0 str0" cx="25068" cy="13758" rx="808" ry="387"/>
   <ellipse class="fil0 str0" cx="7346" cy="6659" rx="542" ry="259"/>
   <path class="fil1" d="M7661 16216c1678,0 3038,336 3038,750 0,414 -1360,750 -3038,750 -1678,0 -3038,-336 -3038,-750 0,-414 1360,-750 3038,-750z"/>
   <path class="fil1" d="M15114 13028c1678,0 3038,336 3038,750 0,414 -1360,750 -3038,750 -1678,0 -3038,-336 -3038,-750 0,-414 1360,-750 3038,-750z"/>
   <path class="fil2" d="M16542 13343l1 2 1 2 1 3 1 3 1 3 0 3 0 3 0 3 0 3 0 3 0 2 0 2 -1 2 -1 2 -1 2 -1 2 -1 2 -1 2 -1 2 -2 2 -2 2 -2 2 -2 2 -2 2 -2 2 -2 2 -2 2 -2 2 -3 1 -3 1 -3 1 -3 1 -3 1 -3 1 -3 1 -3 1 -3 0 -3 0 -3 0 -3 0 -3 0 -3 0 -3 0 -3 0 -3 -1 -3 -1 -3 -1 -3 -1 -3 -1 -3 -1 -3 -1 -3 -1 -2 -1 -2 -1 -2 -2 -2 -2 -2 -2 -2 -2 -2 -2 -2 -2 -2 -2 -2 -2 -1 -2 -1 -2 112 -42 2 0zm-290 -301l112 -42 178 342 -112 42 -178 -342zm0 0l-1 -2 -1 -2 -1 -3 -1 -3 -1 -3 0 -3 0 -3 0 -3 0 -3 0 -3 0 -2 0 -2 1 -2 1 -2 1 -2 1 -2 1 -2 1 -2 1 -2 2 -2 2 -2 2 -2 2 -2 2 -2 2 -2 2 -2 2 -2 2 -2 3 -1 3 -1 3 -1 3 -1 3 -1 3 -1 3 -1 3 -1 3 0 3 0 3 0 3 0 3 0 3 0 3 0 3 0 3 1 3 1 3 1 3 1 3 1 3 1 3 1 3 1 2 1 2 1 2 2 2 2 2 2 2 2 2 2 2 2 2 2 2 2 1 2 1 2 -112 42 -2 0zm-757 -1453l112 -42 757 1453 -112 42 -757 -1453zm0 0l-1 -2 -1 -2 -1 -3 -1 -3 -1 -3 0 -3 0 -3 0 -3 0 -3 0 -3 0 -2 0 -2 1 -2 1 -2 1 -2 1 -2 1 -2 1 -2 1 -2 2 -2 2 -2 2 -2 2 -2 2 -2 2 -2 2 -2 2 -2 2 -2 3 -1 3 -1 3 -1 3 -1 3 -1 3 -1 3 -1 3 -1 3 0 3 0 3 0 3 0 3 0 3 0 3 0 3 0 3 1 3 1 3 1 3 1 3 1 3 1 3 1 3 1 2 1 2 1 2 2 2 2 2 2 2 2 2 2 2 2 2 2 2 2 1 2 1 2 -112 42 -2 0z"/>
   <path class="fil2" d="M16440 11414l-2 2 -2 2 -2 2 -2 1 -2 1 -2 1 -2 1 -2 1 -2 1 -2 1 -3 1 -3 1 -3 1 -3 1 -3 1 -3 1 -3 0 -3 0 -3 0 -3 0 -3 0 -3 0 -3 0 -3 0 -3 0 -3 0 -3 0 -3 -1 -3 -1 -3 -1 -3 -1 -3 -1 -3 -1 -3 -1 -2 -1 -2 -1 -2 -1 -2 -1 -2 -1 -2 -1 -2 -2 -2 -2 -2 -2 -1 -2 -1 -2 -1 -2 -1 -2 -1 -2 -1 -2 -1 -2 0 -2 0 -2 0 -2 0 -2 0 -2 0 -2 0 -2 1 -2 1 -2 1 -2 1 -2 1 -2 1 -2 1 -2 106 38 4 4zm848 -1106l102 -4 4 42 -955 1068 -106 -38 955 -1068zm0 0l2 -2 2 -2 2 -2 2 -1 2 -1 2 -1 2 -1 2 -1 2 -1 2 -1 3 -1 3 -1 3 -1 3 -1 3 -1 3 -1 3 0 3 0 3 0 3 0 3 0 3 0 3 0 3 0 3 0 3 0 3 0 3 1 3 1 3 1 3 1 3 1 3 1 3 1 2 1 2 1 2 1 2 1 2 1 2 1 2 2 2 2 2 2 1 2 1 2 1 2 1 2 1 2 1 2 1 2 0 2 0 2 0 2 0 2 0 2 0 2 0 2 -1 2 -1 2 -1 2 -1 2 -1 2 -1 2 -1 2 -106 -38 -4 -4zm-999 -806l98 -46 1003 848 -98 46 -1003 -848zm0 0l-2 -2 -2 -2 -2 -2 -1 -2 -1 -2 -1 -2 -1 -2 -1 -2 -1 -2 -1 -2 0 -2 0 -2 0 -2 0 -2 0 -2 0 -2 0 -2 1 -2 1 -2 1 -2 1 -2 1 -2 1 -2 1 -2 2 -2 2 -2 2 -2 2 -1 2 -1 2 -1 2 -1 2 -1 3 -1 3 -1 3 -1 3 -1 3 -1 3 -1 3 -1 3 -1 3 0 3 0 3 0 3 0 3 0 3 0 3 0 3 0 3 0 3 0 3 0 3 1 3 1 3 1 3 1 3 1 3 1 2 1 2 1 2 1 2 1 2 1 2 1 2 2 -98 46 -1 7z"/>
   <path class="fil2" d="M11655 10530l31 75 -3 0 -3 0 -3 0 -3 0 -3 0 -3 0 -3 0 -3 0 -3 0 -3 0 -3 0 -3 -1 -3 -1 -3 -1 -3 -1 -3 -1 -3 -1 -2 -1 -2 -1 -2 -1 -2 -1 -2 -1 -2 -1 -2 -1 -2 -2 -2 -2 -2 -2 -1 -2 -1 -2 -1 -2 -1 -2 -1 -2 -1 -2 -1 -2 0 -2 0 -2 0 -2 0 -2 0 -2 0 -2 0 -2 1 -2 1 -2 1 -2 1 -2 1 -2 1 -2 1 -2 2 -2 2 -2 2 -1 2 -1 2 -1 2 -1 2 -1 2 -1 2 -1 3 -1 3 -1 3 -1 3 -1 3 -1 3 -1 3 -1 1 4zm1225 -126l-1193 200 -31 -75 1193 -200 72 52 -41 23zm0 0l-31 -75 3 0 3 0 3 0 3 0 3 0 3 0 3 0 3 0 3 0 3 0 3 0 3 1 3 1 3 1 3 1 3 1 3 1 2 1 2 1 2 1 2 1 2 1 2 1 2 1 2 2 2 2 2 2 1 2 1 2 1 2 1 2 1 2 1 2 1 2 0 2 0 2 0 2 0 2 0 2 0 2 0 2 -1 2 -1 2 -1 2 -1 2 -1 2 -1 2 -1 2 -2 2 -2 2 -2 1 -2 1 -2 1 -2 1 -2 1 -2 1 -2 1 -3 1 -3 1 -3 1 -3 1 -3 1 -3 1 -3 1 -1 -4zm626 -951l-585 928 -114 -29 585 -928 114 29zm0 0l-114 -29 1 -2 1 -2 1 -2 2 -2 2 -2 2 -2 2 -1 2 -1 2 -1 2 -1 2 -1 2 -1 2 -1 3 -1 3 -1 3 -1 3 -1 3 -1 3 -1 3 0 3 0 3 0 3 0 3 0 3 0 3 0 3 0 3 0 3 0 3 0 3 1 3 1 3 1 3 1 3 1 3 1 2 1 2 1 2 1 2 1 2 1 2 1 2 1 2 2 2 2 1 2 1 2 1 2 1 2 1 2 1 2 1 2 1 2 0 2 0 2 0 2 0 2 0 2 0 2 0 2 -1 2 -1 2 -1 2 -1 2 0 -1z"/>
   <circle class="fil3" transform="matrix(1.07597 -0.475793 0.900294 2.03595 11994.4 7771.77)" r="507"/>
   <circle class="fil4" transform="matrix(0.531324 -0.234951 0.444573 1.00537 11994.4 7771.78)" r="507"/>
   <circle class="fil3" transform="matrix(-1.07597 -0.475793 -0.900294 2.03595 17825 7771.77)" r="507"/>
   <circle class="fil4" transform="matrix(-0.531324 -0.234951 -0.444573 1.00537 17825 7771.78)" r="507"/>
   <circle class="fil5" cx="14902" cy="6511" r="3227"/>
   <g style="clip-path:url(#id0)">
    <polygon class="fil0" style="mask:url(#id1)" points="11671,3280 18133,3280 18133,9741 11671,9741 "/>
   </g>
   <g style="clip-path:url(#id3)">
    <g>
     <path id="1" class="fil6" style="mask:url(#id4)" d="M14902 3284c1782,0 3227,1445 3227,3227 0,1782 -1445,3227 -3227,3227 -1782,0 -3227,-1445 -3227,-3227 0,-1782 1445,-3227 3227,-3227z"/>
    </g>
   </g>
   <polygon class="fil0" points="11671,9741 18133,9741 18133,3280 11671,3280 "/>
   <path class="fil7" d="M14905 3284c736,0 1414,247 1957,661l0 0 -3914 0c543,-415 1221,-661 1957,-661z"/>
   <ellipse class="fil8" cx="13579" cy="6335" rx="676" ry="892"/>
   <ellipse class="fil8" cx="16175" cy="6335" rx="676" ry="892"/>
   <ellipse class="fil9" cx="16246" cy="6241" rx="605" ry="798"/>
   <circle class="fil7" cx="15994" cy="6717" r="225"/>
   <path class="fil7" d="M12950 3946c946,166 1727,547 2425,1037l-345 -710c537,-22 1054,162 1566,389l-812 -800 -2833 84 -1 0z"/>
   <path class="fil10" d="M13464 4921c274,81 484,281 600,537 -175,-158 -397,-285 -652,-361 -255,-75 -511,-89 -744,-51 237,-152 521,-207 795,-126l1 1z"/>
   <path class="fil10" d="M16166 4921c-274,81 -484,281 -600,537 175,-158 397,-285 652,-361 255,-75 511,-89 744,-51 -237,-152 -521,-207 -795,-126l-1 1z"/>
   <path class="fil9" d="M14944 8744c1176,0 1268,-786 30,-786 -1249,0 -1271,786 -30,786z"/>
   <ellipse class="fil9" cx="13650" cy="6241" rx="605" ry="798"/>
   <circle class="fil7" cx="13351" cy="6726" r="225"/>
   <path class="fil2" d="M13780 13413l120 23 -1 3 -1 3 -1 2 -1 2 -1 2 -1 2 -2 2 -2 2 -2 2 -2 2 -2 2 -2 2 -2 2 -2 2 -2 1 -2 1 -3 1 -3 1 -3 1 -3 1 -3 1 -3 1 -3 1 -3 1 -3 0 -3 0 -3 0 -3 0 -3 0 -3 0 -3 0 -3 -1 -3 -1 -3 -1 -3 -1 -3 -1 -3 -1 -3 -1 -3 -1 -2 -1 -2 -2 -2 -2 -2 -2 -2 -2 -2 -2 -2 -2 -2 -2 -2 -2 -2 -2 -1 -2 -1 -2 -1 -2 -1 -2 -1 -2 -1 -2 -1 -2 0 -3 0 -3 0 -3 0 -3 0 -3 0 -3 0 -3 1 -3 1 2zm617 -1833l-497 1855 -120 -23 497 -1855 120 23zm0 0l-120 -23 1 -3 1 -3 1 -2 1 -2 1 -2 1 -2 2 -2 2 -2 2 -2 2 -2 2 -2 2 -2 2 -2 2 -2 2 -1 2 -1 3 -1 3 -1 3 -1 3 -1 3 -1 3 -1 3 -1 3 -1 3 0 3 0 3 0 3 0 3 0 3 0 3 0 3 1 3 1 3 1 3 1 3 1 3 1 3 1 3 1 2 1 2 2 2 2 2 2 2 2 2 2 2 2 2 2 2 2 2 2 1 2 1 2 1 2 1 2 1 2 1 2 1 2 0 3 0 3 0 3 0 3 0 3 0 3 0 3 -1 3 -1 -2z"/>
   <rect class="fil11" x="13431" y="9379" width="2940" height="2086"/>
   <path class="fil12" d="M16372 9536l0 234 -2940 387 0 -234 2940 -387zm0 548l0 234 -2940 387 0 -234 2940 -387zm0 548l0 234 -2940 387 0 -234 2940 -387z"/>
   <path class="fil12" d="M14274 11757c153,0 295,-109 408,-292l0 0 -816 0c113,183 255,292 408,292z"/>
   <path class="fil12" d="M15530 11757c153,0 295,-109 408,-292l0 0 -816 0c113,183 255,292 408,292z"/>
   <path class="fil7" d="M13465 13461c-72,48 -131,105 -173,163l-39 64c-38,76 -44,148 -9,201 71,106 286,87 480,-43 194,-130 293,-322 221,-428 -71,-106 -286,-87 -480,43z"/>
   <path class="fil7" d="M11191 10426c-56,-77 -96,-157 -118,-233l-17 -81c-11,-93 10,-170 65,-211 113,-83 328,17 480,223 152,207 183,442 70,525 -113,83 -328,-17 -480,-223z"/>
   <path class="fil7" d="M16840 13202c72,48 131,105 173,163l39 64c38,76 44,148 9,201 -71,106 -286,87 -480,-43 -194,-130 -293,-322 -221,-428 71,-106 286,-87 480,43z"/>
   <path class="fil7" d="M16784 11349c-83,-47 -168,-77 -245,-90l-82 -7c-93,0 -168,29 -202,89 -70,122 55,324 277,451 223,127 460,131 529,9 70,-122 -55,-324 -277,-451l0 -1z"/>
   <path class="fil2" d="M11719 12657l2 -1 2 -1 2 -1 2 -1 2 -1 2 -1 2 0 2 0 2 0 2 0 2 0 2 0 2 0 2 0 2 0 2 0 2 0 2 0 2 0 2 1 2 1 2 1 2 1 2 1 2 1 2 1 2 1 2 1 2 1 2 1 2 1 2 1 1 1 1 1 1 1 1 1 1 1 1 1 1 2 1 2 0 2 0 2 0 2 0 2 0 2 0 2 0 2 0 2 -1 1 -1 1 -1 1 -1 1 -1 1 -1 1 -1 1 -1 1 -1 1 -1 1 -2 1 -2 1 -2 1 -2 1 -2 1 -2 1 -57 -53 7 4zm-1429 700l-40 5 -17 -57 1487 -647 57 53 -1487 647 0 -1zm0 0l-2 1 -2 1 -2 1 -2 1 -2 1 -2 1 -2 0 -2 0 -2 0 -2 0 -2 0 -2 0 -2 0 -2 0 -2 0 -2 0 -2 0 -2 0 -2 0 -2 -1 -2 -1 -2 -1 -2 -1 -2 -1 -2 -1 -2 -1 -2 -1 -2 -1 -2 -1 -2 -1 -2 -1 -2 -1 -1 -1 -1 -1 -1 -1 -1 -1 -1 -1 -1 -1 -1 -2 -1 -2 0 -2 0 -2 0 -2 0 -2 0 -2 0 -2 0 -2 0 -2 1 -2 1 -1 1 -1 1 -1 1 -1 1 -1 1 -1 1 -1 1 -1 1 -1 2 -1 2 -1 2 -1 2 -1 2 -1 2 -1 57 53 -7 -3zm-1282 -176l23 -62 1242 181 -23 62 -1242 -181zm0 0l-3 0 -2 0 -2 -1 -2 -1 -2 -1 -2 -1 -2 -1 -2 -1 -2 -1 -2 -1 -2 -1 -2 -1 -2 -1 -2 -1 -1 -1 -1 -1 -1 -1 -1 -1 -1 -1 -1 -1 -1 -1 -1 -1 -1 -2 0 -2 0 -2 0 -2 0 -2 0 -2 0 -2 0 -2 0 -2 1 -2 1 -2 1 -2 1 -2 1 -1 1 -1 1 -1 1 -1 1 -1 1 -1 2 -1 2 -1 2 -1 2 -1 2 -1 2 -1 2 -1 2 -1 2 -1 2 -1 2 -1 2 -1 2 0 2 0 2 0 2 0 2 0 2 0 3 0 3 0 3 0 3 0 3 0 -23 62 0 2z"/>
   <path class="fil2" d="M6237 16457l83 48 -2 2 -2 2 -2 2 -2 2 -2 1 -2 1 -2 1 -2 1 -2 1 -2 1 -2 1 -2 1 -2 1 -2 1 -2 1 -2 0 -2 0 -2 0 -2 0 -2 0 -2 0 -2 0 -2 0 -2 0 -2 0 -2 -1 -2 -1 -2 -1 -2 -1 -2 -1 -2 -1 -2 -1 -2 -1 -2 -1 -2 -1 -2 -2 -2 -2 -2 -2 -1 -2 -1 -2 -1 -2 -1 -2 -1 -2 -1 -2 -1 -2 -1 -2 -1 -2 0 -2 0 -2 0 -2 0 -2 0 -2 0 -2 0 -2 0 -2 0 -2 1 -2 1 -2 1 -2 1 -2 1 -2 1 -2 1 -2 1 -2 -6 1zm1426 -1593l-1343 1642 -83 -48 1343 -1642 83 48zm0 0l-83 -48 2 -2 2 -2 2 -2 2 -2 2 -1 2 -1 2 -1 2 -1 2 -1 2 -1 2 -1 2 -1 2 -1 2 -1 2 -1 2 0 2 0 2 0 2 0 2 0 2 0 2 0 2 0 2 0 2 0 2 1 2 1 2 1 2 1 2 1 2 1 2 1 2 1 2 1 2 1 2 2 2 2 2 2 1 2 1 2 1 2 1 2 1 2 1 2 1 2 1 2 1 2 0 2 0 2 0 2 0 2 0 2 0 2 0 2 0 2 0 2 -1 2 -1 2 -1 2 -1 2 -1 2 -1 2 -1 2 -1 2 6 -1z"/>
   <circle class="fil13" transform="matrix(-0.940673 0.201919 0.201918 0.940672 8156.34 10666.2)" r="2767"/>
   <g style="clip-path:url(#id6)">
    <polygon class="fil0" style="mask:url(#id7)" points="5489,7999 10823,7999 10823,13333 5489,13333 "/>
   </g>
   <g style="clip-path:url(#id9)">
    <g>
     <path id="1" class="fil14" style="mask:url(#id10)" d="M7597 8063c-1438,309 -2353,1724 -2044,3162 309,1438 1724,2353 3162,2044 1438,-309 2353,-1724 2044,-3162 -309,-1438 -1724,-2353 -3162,-2044z"/>
    </g>
   </g>
   <polygon class="fil0" points="5489,13333 10823,13333 10823,7999 5489,7999 "/>
   <path class="fil2" d="M8805 16546l0 2 0 2 0 2 0 2 0 2 -1 2 -1 2 -1 2 -1 2 -1 2 -1 2 -1 2 -1 2 -1 2 -1 2 -2 2 -2 2 -2 1 -2 1 -2 1 -2 1 -2 1 -2 1 -2 1 -2 1 -2 1 -2 1 -2 1 -2 1 -3 0 -3 0 -3 0 -3 0 -3 0 -3 0 -3 0 -2 0 -2 0 -2 -1 -2 -1 -2 -1 -2 -1 -2 -1 -2 -1 -2 -1 -2 -1 -2 -1 -2 -1 -2 -1 -2 -1 -2 -2 -2 -2 -1 -2 -1 -2 -1 -2 -1 -2 -1 -2 -1 -2 -1 -2 -1 -2 -1 -2 0 -2 0 -2 0 -2 101 -6 -1 0zm-233 -1703l101 -6 132 1709 -101 6 -132 -1709zm0 0l0 -2 0 -2 0 -2 0 -2 0 -2 1 -2 1 -2 1 -2 1 -2 1 -2 1 -2 1 -2 1 -2 1 -2 1 -2 2 -2 2 -2 2 -1 2 -1 2 -1 2 -1 2 -1 2 -1 2 -1 2 -1 2 -1 2 -1 2 -1 2 -1 3 0 3 0 3 0 3 0 3 0 3 0 3 0 2 0 2 0 2 1 2 1 2 1 2 1 2 1 2 1 2 1 2 1 2 1 2 1 2 1 2 1 2 2 2 2 1 2 1 2 1 2 1 2 1 2 1 2 1 2 1 2 1 2 0 2 0 2 0 2 -101 6 1 0z"/>
   <rect class="fil11" x="6943" y="13033" width="2426" height="1721"/>
   <path class="fil15" d="M6943 13163l0 193 2426 320 0 -193 -2426 -320zm0 452l0 193 2426 320 0 -193 -2426 -320zm0 452l0 193 2426 320 0 -193 -2426 -320z"/>
   <path class="fil12" d="M8674 14996c-127,0 -243,-90 -337,-241l0 0 674 0c-93,151 -210,241 -337,241z"/>
   <path class="fil12" d="M7638 14996c-127,0 -243,-90 -337,-241l0 0 674 0c-93,151 -210,241 -337,241z"/>
   <path class="fil7" d="M9047 16438c59,40 108,87 143,134l33 53c31,63 36,123 8,165 -59,88 -236,72 -396,-36 -160,-107 -242,-265 -183,-353 59,-88 236,-72 396,36l-1 1z"/>
   <circle class="fil13" transform="matrix(-0.946557 0.831747 1.57383 1.79107 7500.95 10608.6)" r="507"/>
   <path class="fil7" d="M6009 16416c-59,40 -108,87 -143,134l-33 53c-31,63 -36,123 -8,165 59,88 236,72 396,-36 160,-107 242,-265 183,-353 -59,-88 -236,-72 -396,36l1 1z"/>
   <path class="fil7" d="M6166 8893c-547,613 -804,1469 -618,2333 62,291 170,560 314,802l1536 -330 -395 -628 550 -2051 -1387 -126z"/>
   <path class="fil7" d="M6128 8937c297,-11 396,846 764,769 574,-120 1437,505 1842,677l-871 -1542c429,-112 878,-52 1331,42l-712 -452 802 -172 0 0c-510,-240 -1100,-322 -1693,-195 -594,127 -1098,444 -1464,872l28 -6 -26 6 -1 1z"/>
   <path class="fil9" d="M10463 11994c-227,-117 -328,227 -565,-350 -155,-378 -366,-756 -624,-698 -135,30 -585,250 -611,782 195,356 1426,921 1800,265l0 1z"/>
   <circle class="fil16" transform="matrix(-0.593124 0.127316 0.167986 0.782594 9763.91 10179.6)" r="920"/>
   <path class="fil7" d="M9651 9343c-209,248 -513,375 -832,379 245,-109 478,-282 673,-513 195,-231 326,-490 392,-750 50,316 -23,636 -232,885l-1 -1z"/>
   <circle class="fil9" transform="matrix(-0.530739 0.113925 0.150318 0.700281 9690.29 10116.2)" r="920"/>
   <circle class="fil7" transform="matrix(-0.675503 0.144999 0.144999 0.675502 10003.2 10010.7)" r="269"/>
   <path class="fil2" d="M10381 14368l26 -62 2 0 2 1 2 1 2 1 2 1 2 1 2 1 2 1 2 1 2 1 2 1 2 1 2 1 1 1 1 1 1 1 1 1 1 1 1 1 1 1 1 1 1 1 1 2 0 2 0 2 0 2 0 2 0 2 0 2 0 2 0 2 -1 2 -1 2 -1 2 -1 1 -1 1 -1 1 -1 1 -1 1 -1 1 -2 1 -2 1 -2 1 -2 1 -2 1 -2 1 -2 1 -2 1 -2 1 -2 1 -2 1 -2 1 -2 0 -2 0 -2 0 -2 0 -2 0 -2 0 -2 0 -3 0 -3 0 -3 0 -3 0 -3 0 0 -1zm-2593 -506l2619 444 -26 62 -2619 -444 -30 -15 56 -47zm0 0l-26 62 -2 0 -2 -1 -2 -1 -2 -1 -2 -1 -2 -1 -2 -1 -2 -1 -2 -1 -2 -1 -2 -1 -2 -1 -2 -1 -1 -1 -1 -1 -1 -1 -1 -1 -1 -1 -1 -1 -1 -1 -1 -1 -1 -1 -1 -2 0 -2 0 -2 0 -2 0 -2 0 -2 0 -2 0 -2 0 -2 1 -2 1 -2 1 -2 1 -1 1 -1 1 -1 1 -1 1 -1 1 -1 2 -1 2 -1 2 -1 2 -1 2 -1 2 -1 2 -1 2 -1 2 -1 2 -1 2 -1 2 -1 2 0 2 0 2 0 2 0 2 0 2 0 2 0 3 0 3 0 3 0 3 0 3 0 0 1zm-708 -775l739 790 -87 32 -739 -790 87 -32zm0 0l-87 32 -1 -1 -1 -1 -1 -1 -1 -2 -1 -2 -1 -2 -1 -2 0 -2 0 -2 0 -2 0 -2 0 -2 0 -2 0 -2 0 -2 1 -1 1 -1 1 -1 1 -1 1 -1 1 -1 1 -1 1 -1 1 -1 2 -1 2 -1 2 -1 2 -1 2 -1 2 -1 2 -1 2 -1 2 -1 2 -1 2 -1 2 -1 2 0 2 0 2 0 2 0 2 0 2 0 2 0 2 0 2 0 2 0 2 0 2 0 2 0 2 0 2 1 2 1 2 1 2 1 2 1 2 1 2 1 2 1 2 1 2 1 2 1 2 1 1 1 1 1 7 2z"/>
   <path class="fil7" d="M10637 14567c-77,-14 -147,-40 -203,-73l-56 -39c-59,-49 -90,-108 -80,-164 21,-114 207,-175 415,-137 208,39 359,162 338,276 -21,114 -207,175 -415,137l1 0z"/>
   <path class="fil7" d="M11799 12468c73,-28 146,-42 211,-44l68 4c76,11 133,44 154,97 42,108 -84,258 -282,334 -197,76 -391,50 -433,-58 -42,-108 84,-258 282,-334l0 1z"/>
   <path class="fil1" d="M21263 15977c-1678,0 -3038,336 -3038,750 0,414 1360,750 3038,750 1678,0 3038,-336 3038,-750 0,-414 -1360,-750 -3038,-750z"/>
   <path class="fil2" d="M19350 14755l99 -10 0 2 0 2 0 2 0 2 0 2 0 2 0 2 -1 2 -1 2 -1 1 -1 1 -1 1 -1 1 -1 1 -1 1 -1 1 -1 1 -2 1 -2 1 -2 1 -2 1 -2 1 -2 1 -2 1 -2 1 -2 1 -2 1 -2 1 -2 1 -2 0 -2 0 -3 0 -3 0 -3 0 -3 0 -3 0 -3 0 -2 0 -2 0 -2 0 -2 0 -2 0 -2 -1 -2 -1 -2 -1 -2 -1 -2 -1 -2 -1 -2 -1 -2 -1 -2 -1 -2 -1 -2 -1 -2 -1 -1 -1 -1 -1 -1 -1 -1 -1 -1 -1 -1 -1 -1 -2 -1 -2 -1 -2 0 -2 0 -2zm-225 -1243l324 1233 -99 10 -324 -1233 4 -18 96 8 -1 0zm0 0l-99 10 0 -2 0 -2 0 -2 0 -2 0 -2 0 -2 0 -2 1 -2 1 -2 1 -1 1 -1 1 -1 1 -1 1 -1 1 -1 1 -1 1 -1 2 -1 2 -1 2 -1 2 -1 2 -1 2 -1 2 -1 2 -1 2 -1 2 -1 2 -1 2 -1 2 0 2 0 3 0 3 0 3 0 3 0 3 0 3 0 2 0 2 0 2 0 2 0 2 0 2 1 2 1 2 1 2 1 2 1 2 1 2 1 2 1 2 1 2 1 2 1 2 1 1 1 1 1 1 1 1 1 1 1 1 1 1 2 1 2 1 2 0 2 0 2zm516 -734l-520 752 -92 -26 520 -752 92 26zm0 0l-92 -26 1 -1 1 -1 1 -1 1 -1 1 -1 2 -1 2 -1 2 -1 2 -1 2 -1 2 -1 2 -1 2 -1 2 -1 2 -1 2 -1 2 -1 2 0 2 0 2 0 2 0 2 0 2 0 2 0 2 0 2 0 2 0 2 0 2 0 2 0 2 1 2 1 2 1 2 1 2 1 2 1 2 1 2 1 2 1 2 1 2 1 2 1 1 1 1 1 1 1 1 1 1 1 1 1 1 1 1 1 1 1 1 2 0 2 0 2 0 2 0 2 0 2 0 2 0 2 0 2 -1 2 -1 2 -1 2 -1 2 7 -4z"/>
   <path class="fil2" d="M22687 16218l1 2 1 2 1 2 1 2 1 2 1 2 1 2 1 2 0 2 0 2 0 2 0 2 0 2 0 2 0 2 0 2 0 2 -1 2 -1 2 -1 2 -1 2 -1 2 -1 2 -1 2 -1 2 -1 2 -2 2 -2 2 -2 2 -2 1 -2 1 -2 1 -2 1 -2 1 -2 1 -2 1 -2 1 -2 1 -2 1 -2 0 -2 0 -2 0 -2 0 -2 0 -2 0 -2 0 -2 0 -2 0 -2 0 -2 -1 -2 -1 -2 -1 -2 -1 -2 -1 -2 -1 -2 -1 -2 -1 -2 -1 -2 -1 -2 -1 -2 -2 -2 -2 -2 -2 -2 -2 83 -48 -6 -1zm-1426 -1593l83 -48 1343 1642 -83 48 -1343 -1642zm0 0l-1 -2 -1 -2 -1 -2 -1 -2 -1 -2 -1 -2 -1 -2 -1 -2 0 -2 0 -2 0 -2 0 -2 0 -2 0 -2 0 -2 0 -2 0 -2 1 -2 1 -2 1 -2 1 -2 1 -2 1 -2 1 -2 1 -2 1 -2 2 -2 2 -2 2 -2 2 -1 2 -1 2 -1 2 -1 2 -1 2 -1 2 -1 2 -1 2 -1 2 -1 2 0 2 0 2 0 2 0 2 0 2 0 2 0 2 0 2 0 2 0 2 1 2 1 2 1 2 1 2 1 2 1 2 1 2 1 2 1 2 1 2 1 2 2 2 2 2 2 2 2 -83 48 6 1z"/>
   <circle class="fil13" cx="20768" cy="10428" r="2662"/>
   <g style="clip-path:url(#id12)">
    <polygon class="fil0" style="mask:url(#id13)" points="18102,7761 23435,7761 23435,13094 18102,13094 "/>
   </g>
   <g style="clip-path:url(#id15)">
    <g>
     <path id="1" class="fil14" style="mask:url(#id16)" d="M20768 7765c1470,0 2662,1192 2662,2662 0,1470 -1192,2662 -2662,2662 -1470,0 -2662,-1192 -2662,-2662 0,-1470 1192,-2662 2662,-2662z"/>
    </g>
   </g>
   <polygon class="fil0" points="18102,13094 23435,13094 23435,7761 18102,7761 "/>
   <path class="fil2" d="M20119 16307l101 6 0 2 0 2 0 2 -1 2 -1 2 -1 2 -1 2 -1 2 -1 2 -1 2 -1 2 -1 2 -2 2 -2 2 -2 1 -2 1 -2 1 -2 1 -2 1 -2 1 -2 1 -2 1 -2 1 -2 1 -2 1 -2 1 -2 0 -2 0 -3 0 -3 0 -3 0 -3 0 -3 0 -3 0 -3 0 -2 -1 -2 -1 -2 -1 -2 -1 -2 -1 -2 -1 -2 -1 -2 -1 -2 -1 -2 -1 -2 -1 -2 -1 -2 -2 -2 -2 -1 -2 -1 -2 -1 -2 -1 -2 -1 -2 -1 -2 -1 -2 -1 -2 -1 -2 -1 -2 0 -2 0 -2 0 -2 0 -2 0 -2 -1 0zm233 -1703l-132 1709 -101 -6 132 -1709 101 6zm0 0l-101 -6 0 -2 0 -2 0 -2 1 -2 1 -2 1 -2 1 -2 1 -2 1 -2 1 -2 1 -2 1 -2 2 -2 2 -2 2 -1 2 -1 2 -1 2 -1 2 -1 2 -1 2 -1 2 -1 2 -1 2 -1 2 -1 2 -1 2 0 2 0 3 0 3 0 3 0 3 0 3 0 3 0 3 0 2 1 2 1 2 1 2 1 2 1 2 1 2 1 2 1 2 1 2 1 2 1 2 1 2 2 2 2 1 2 1 2 1 2 1 2 1 2 1 2 1 2 1 2 1 2 1 2 0 2 0 2 0 2 0 2 0 2 1 0z"/>
   <rect class="fil11" x="19555" y="12794" width="2426" height="1721"/>
   <path class="fil15" d="M21981 12924l0 193 -2426 320 0 -193 2426 -320zm0 452l0 193 -2426 320 0 -193 2426 -320zm0 452l0 193 -2426 320 0 -193 2426 -320z"/>
   <path class="fil12" d="M20250 14756c127,0 243,-90 337,-241l0 0 -674 0c93,151 210,241 337,241z"/>
   <path class="fil12" d="M21286 14756c127,0 243,-90 337,-241l0 0 -674 0c93,151 210,241 337,241z"/>
   <path class="fil7" d="M19877 16199c-59,40 -108,87 -143,134l-33 53c-31,63 -36,123 -8,165 59,88 236,72 396,-36 160,-107 242,-265 183,-353 -59,-88 -236,-72 -396,36l1 1z"/>
   <circle class="fil13" transform="matrix(1.10004 0.614567 -1.16288 2.08149 21396.3 10233.8)" r="507"/>
   <path class="fil7" d="M22915 16177c59,40 108,87 143,134l33 53c31,63 36,123 8,165 -59,88 -236,72 -396,-36 -160,-107 -242,-265 -183,-353 59,-88 236,-72 396,36l-1 1z"/>
   <path class="fil7" d="M22341 8276c663,484 1094,1268 1094,2151 0,297 -49,583 -139,850l-1571 0 254 -697 -968 -1890 1330 -415 0 1z"/>
   <path class="fil7" d="M22388 8312c-293,51 -210,910 -585,913 -587,3 -1299,796 -1659,1048l528 -1691c-443,-19 -870,134 -1292,321l601 -591 -820 0 0 0c448,-342 1008,-546 1615,-546 607,0 1167,204 1615,546l-28 0 27 1 -2 -1z"/>
   <path class="fil9" d="M18915 12560c52,-124 89,-589 1705,-637 -1097,-488 -2312,206 -1705,637z"/>
   <ellipse class="fil16" cx="19094" cy="10289" rx="558" ry="736"/>
   <path class="fil7" d="M19174 8996c323,33 599,213 782,475 -228,-141 -502,-236 -803,-267 -301,-31 -589,7 -841,98 233,-219 539,-339 862,-306l0 0z"/>
   <ellipse class="fil9" cx="19153" cy="10212" rx="499" ry="659"/>
   <circle class="fil7" cx="18878" cy="10115" r="186"/>
   <path class="fil2" d="M22043 14443l-2 1 -2 1 -2 1 -2 1 -2 1 -2 1 -2 1 -2 1 -2 1 -2 1 -2 1 -2 1 -2 1 -2 0 -2 0 -2 0 -2 0 -2 0 -2 0 -2 0 -2 0 -2 0 -2 0 -2 0 -2 0 -2 0 -2 -1 -2 -1 -2 -1 -2 -1 -2 -1 -2 -1 -2 -1 -2 -1 -2 -1 -2 -1 -2 -1 -2 -1 -1 -1 -1 -1 -1 -1 -1 -1 -1 -1 -1 -1 -1 -1 -1 -1 -1 -1 0 -2 0 -2 0 -2 0 -2 0 -2 0 -2 0 -2 0 -2 0 -2 1 -2 1 -2 1 -1 1 -1 1 -1 1 -1 1 -1 1 -1 83 36 -6 0zm943 -971l74 -6 8 42 -1026 934 -83 -36 1026 -934 1 0zm0 0l2 -1 2 -1 2 -1 2 -1 2 -1 2 -1 2 -1 2 -1 2 -1 2 -1 2 -1 2 -1 2 -1 2 0 2 0 2 0 2 0 2 0 2 0 2 0 2 0 2 0 2 0 2 0 2 0 2 0 2 1 2 1 2 1 2 1 2 1 2 1 2 1 2 1 2 1 2 1 2 1 2 1 1 1 1 1 1 1 1 1 1 1 1 1 1 1 1 1 1 1 0 2 0 2 0 2 0 2 0 2 0 2 0 2 0 2 0 2 -1 2 -1 2 -1 1 -1 1 -1 1 -1 1 -1 1 -1 1 -83 -36 6 0zm-1132 -584l66 -48 1140 626 -66 48 -1140 -626zm0 0l-2 -1 -2 -1 -2 -1 -2 -1 -1 -1 -1 -1 -1 -1 -1 -1 -1 -1 -1 -1 -1 -1 -1 -1 -1 -1 0 -2 0 -2 0 -2 0 -2 0 -2 0 -2 0 -2 0 -2 0 -2 1 -1 1 -1 1 -1 1 -1 1 -1 1 -1 1 -1 1 -1 2 -1 2 -1 2 -1 2 -1 2 -1 2 -1 2 -1 2 -1 2 -1 2 -1 2 -1 2 -1 2 -1 2 0 2 0 2 0 2 0 2 0 2 0 2 0 2 0 2 0 2 0 2 0 2 0 2 0 2 1 2 1 2 1 2 1 2 1 2 1 2 1 2 1 -66 48 7 -4z"/>
   <path class="fil7" d="M22185 14803c72,33 143,51 208,56l68 0c77,-7 136,-36 159,-88 48,-105 -69,-262 -261,-350 -192,-88 -388,-74 -436,32 -48,105 69,262 261,350l1 0z"/>
   <path class="fil7" d="M19072 14905c-20,76 -25,150 -19,215l12 67c20,74 60,127 115,141 112,29 246,-114 299,-319 53,-205 4,-394 -108,-423 -112,-29 -246,114 -299,319z"/>
  </g>
 </g>
</svg>
